<?xml version="1.0" encoding="UTF-8"?>
<svg width="380px" height="245px" viewBox="0 0 380 245" version="1.1" xmlns="http://www.w3.org/2000/svg" xmlns:xlink="http://www.w3.org/1999/xlink">
    <!-- Generator: sketchtool 52 (66869) - http://www.bohemiancoding.com/sketch -->
    <title>3A878082-A6E8-4DA4-ABDA-82CA2715383F</title>
    <desc>Created with sketchtool.</desc>
    <g id="Corp-Site-Redesign-2.0" stroke="none" stroke-width="1" fill="none" fill-rule="evenodd">
        <g id="Landing-Page---Desktop-HD" transform="translate(-250.000000, -3918.000000)">
            <g id="Group-4" transform="translate(250.000000, 3918.000000)">
                <rect id="Rectangle" fill="#E0EDFF" fill-rule="nonzero" x="0" y="0" width="380" height="245"></rect>
                <g id="Group-3" transform="translate(82.000000, 60.000000)">
                    <g id="cloud-forecast" transform="translate(18.163121, 0.000000)" fill="#FFFFFF" stroke="#2E6DDE" stroke-linecap="square" stroke-width="2.79999995">
                        <path d="M146.321083,122.191011 C164.204771,122.191011 178.836879,107.52809 178.836879,89.6067416 C178.836879,71.6853933 164.204771,57.0224719 146.321083,57.0224719 C146.321083,57.0224719 146.321083,57.0224719 145.914636,57.0224719 C143.882398,25.252809 117.463314,0 85.3539652,0 C52.8381689,0 26.012637,25.6601124 24.3868472,58.244382 C10.1611863,61.9101124 0,74.5365169 0,89.6067416 C0,107.52809 14.6321083,122.191011 32.5157963,122.191011 L146.321083,122.191011 Z" id="Path"></path>
                    </g>
                    <g id="Opacity-Logo" transform="translate(69.858156, 36.516854)">
                        <path d="M26.11846,26.2564934 C29.3110837,23.04714 33.9447449,21.757092 38.3249174,22.8581188 C42.7050898,23.9591456 46.1893649,27.2897677 47.5035461,31.631979 C44.6109533,30.7505635 41.5022387,30.9188595 38.7205433,32.107463 C38.6815131,32.0643951 38.6415408,32.0223068 38.5996842,31.9802197 C36.6817029,30.0563803 33.575954,30.0580849 31.6600636,31.9840284 C29.7441731,33.9099719 29.7424775,37.0320172 31.6562748,38.9600626 C31.7190772,39.0231944 31.782831,39.08345 31.8485149,39.1418195 C30.7476224,41.8842925 30.6129541,44.9227859 31.4668691,47.752809 C27.147558,46.4318055 23.8344275,42.9295506 22.7389709,38.5266937 C21.6435144,34.1238368 22.9263763,29.4660401 26.11846,26.2564934 Z" id="Path" fill="#FFFFFF"></path>
                        <path d="M9.8203954,9.87202527 C22.9142519,-3.29067509 44.1439715,-3.29067509 57.2378294,9.87202527 C64.5394609,17.1964125 68.0725246,27.4967642 66.8133031,37.7885186 C63.3703676,34.5067628 58.9075723,32.5180013 54.1765541,32.157187 C53.8172575,27.3792828 51.8222687,22.8741096 48.5310339,19.40822 C48.4124908,19.2833749 48.2920486,19.1584813 48.1697073,19.0354967 C42.9351764,13.770681 35.3038796,11.7136911 28.1513321,13.6396122 C20.9987845,15.5655334 15.412025,21.1816655 13.4961755,28.3718188 C11.580326,35.5619721 13.626556,43.2333925 18.8638347,48.4954461 C19.0051374,48.6374917 19.1477062,48.7769929 19.291541,48.9139494 C22.7327802,52.1896777 27.1911821,54.1742353 31.9169197,54.5338536 C32.2738328,59.26248 34.2318654,63.7253731 37.4647586,67.1788999 C27.2665001,68.4013427 17.0747765,64.8472883 9.8203954,57.5387669 C-3.27346513,44.3760666 -3.27346513,23.0347256 9.8203954,9.87202527 Z" id="Path" fill="#FFFFFF"></path>
                        <path d="M65.232435,48.7678175 C64.9457272,47.7169983 64.5187861,46.7067433 63.9623734,45.7625174 C63.9275835,45.7009028 63.8899287,45.6402558 63.8532743,45.5805103 C63.8078887,45.504911 63.7597037,45.4302133 63.7114531,45.3555802 C60.2363931,39.9385979 53.127342,37.8817116 47.1468594,40.5628891 C46.9087242,40.1076114 46.5969416,39.6920267 46.223287,39.3318308 C46.1942951,39.3037954 46.1643725,39.2749219 46.1345153,39.247788 C44.2057643,37.4734122 41.1749625,37.4800224 39.2545072,39.2627933 C37.3340519,41.0455642 37.2033453,43.9738025 38.9577994,45.9099792 C39.0291837,45.988415 39.103486,46.0658186 39.181662,46.1414192 C39.5966827,46.5439024 40.082285,46.8719494 40.6158717,47.1102949 C39.5549702,49.5557283 39.316587,52.2619751 39.9344883,54.8457053 C40.1860153,55.9050427 40.5799071,56.9279665 41.1061174,57.8883872 C41.154368,57.9799062 41.2065522,58.0712959 41.2596686,58.1618473 C41.3619691,58.3392136 41.4690686,58.5156136 41.5818993,58.6882756 C41.6098893,58.7320974 41.6388811,58.775089 41.6678047,58.8180133 C45.0536766,63.9062816 51.6990599,65.9523262 57.5036967,63.6937204 C57.5095811,63.7033995 57.5160108,63.7127587 57.5229568,63.7217558 C60.6539918,62.4968445 63.1735428,60.1479433 64.5539861,57.1669399 C64.546656,57.160834 64.5389076,57.1552141 64.5307937,57.1501187 C65.7477514,54.5155131 65.9953597,51.5574101 65.232435,48.7678175 Z M54.3363111,53.1118733 L54.3363111,58.3388268 L50.7329182,58.3388268 L50.7329182,53.1118733 L45.7632328,53.1118733 L52.5317443,45.2659302 L59.3059883,53.1118733 L54.3363111,53.1118733 Z" id="Shape" fill="#FFFFFF" fill-rule="nonzero"></path>
                        <path d="M26.11846,26.2564934 C29.3110837,23.04714 33.9447449,21.757092 38.3249174,22.8581188 C42.7050898,23.9591456 46.1893649,27.2897677 47.5035461,31.631979 C44.6109533,30.7505635 41.5022387,30.9188595 38.7205433,32.107463 C38.6815131,32.0643951 38.6415408,32.0223068 38.5996842,31.9802197 C36.6817029,30.0563803 33.575954,30.0580849 31.6600636,31.9840284 C29.7441731,33.9099719 29.7424775,37.0320172 31.6562748,38.9600626 C31.7190772,39.0231944 31.782831,39.08345 31.8485149,39.1418195 C30.7476224,41.8842925 30.6129541,44.9227859 31.4668691,47.752809 C27.147558,46.4318055 23.8344275,42.9295506 22.7389709,38.5266937 C21.6435144,34.1238368 22.9263763,29.4660401 26.11846,26.2564934 Z" id="Path" stroke="#2E6DDE" stroke-width="1.39999998"></path>
                        <path d="M9.8203954,9.87202527 C22.9142519,-3.29067509 44.1439715,-3.29067509 57.2378294,9.87202527 C64.5394609,17.1964125 68.0725246,27.4967642 66.8133031,37.7885186 C63.3703676,34.5067628 58.9075723,32.5180013 54.1765541,32.157187 C53.8172575,27.3792828 51.8222687,22.8741096 48.5310339,19.40822 C48.4124908,19.2833749 48.2920486,19.1584813 48.1697073,19.0354967 C42.9351764,13.770681 35.3038796,11.7136911 28.1513321,13.6396122 C20.9987845,15.5655334 15.412025,21.1816655 13.4961755,28.3718188 C11.580326,35.5619721 13.626556,43.2333925 18.8638347,48.4954461 C19.0051374,48.6374917 19.1477062,48.7769929 19.291541,48.9139494 C22.7327802,52.1896777 27.1911821,54.1742353 31.9169197,54.5338536 C32.2738328,59.26248 34.2318654,63.7253731 37.4647586,67.1788999 C27.2665001,68.4013427 17.0747765,64.8472883 9.8203954,57.5387669 C-3.27346513,44.3760666 -3.27346513,23.0347256 9.8203954,9.87202527 Z" id="Path" stroke="#2E6DDE" stroke-width="1.39999998"></path>
                        <path d="M65.232435,48.7678175 C64.9457272,47.7169983 64.5187861,46.7067433 63.9623734,45.7625174 C63.9275835,45.7009028 63.8899287,45.6402558 63.8532743,45.5805103 C63.8078887,45.504911 63.7597037,45.4302133 63.7114531,45.3555802 C60.2363931,39.9385979 53.127342,37.8817116 47.1468594,40.5628891 C46.9087242,40.1076114 46.5969416,39.6920267 46.223287,39.3318308 C46.1942951,39.3037954 46.1643725,39.2749219 46.1345153,39.247788 C44.2057643,37.4734122 41.1749625,37.4800224 39.2545072,39.2627933 C37.3340519,41.0455642 37.2033453,43.9738025 38.9577994,45.9099792 C39.0291837,45.988415 39.103486,46.0658186 39.181662,46.1414192 C39.5966827,46.5439024 40.082285,46.8719494 40.6158717,47.1102949 C39.5549702,49.5557283 39.316587,52.2619751 39.9344883,54.8457053 C40.1860153,55.9050427 40.5799071,56.9279665 41.1061174,57.8883872 C41.154368,57.9799062 41.2065522,58.0712959 41.2596686,58.1618473 C41.3619691,58.3392136 41.4690686,58.5156136 41.5818993,58.6882756 C41.6098893,58.7320974 41.6388811,58.775089 41.6678047,58.8180133 C45.0536766,63.9062816 51.6990599,65.9523262 57.5036967,63.6937204 C57.5095811,63.7033995 57.5160108,63.7127587 57.5229568,63.7217558 C60.6539918,62.4968445 63.1735428,60.1479433 64.5539861,57.1669399 C64.546656,57.160834 64.5389076,57.1552141 64.5307937,57.1501187 C65.7477514,54.5155131 65.9953597,51.5574101 65.232435,48.7678175 Z M54.3363111,53.1118733 L54.3363111,58.3388268 L50.7329182,58.3388268 L50.7329182,53.1118733 L45.7632328,53.1118733 L52.5317443,45.2659302 L59.3059883,53.1118733 L54.3363111,53.1118733 Z" id="Shape" stroke="#2E6DDE" stroke-width="1.39999998" fill-rule="nonzero"></path>
                    </g>
                    <g id="position" transform="translate(166.262411, 16.853933)" stroke="#82AEFF" stroke-linecap="square" stroke-width="2.79999995">
                        <ellipse id="Oval" fill="#82AEFF" cx="15.3687943" cy="15.4494382" rx="3.4929078" ry="3.51123596"></ellipse>
                        <path d="M15.3687943,0 L15.3687943,4.21348315" id="Path"></path>
                        <path d="M30.7375887,15.4494382 L26.5460993,15.4494382" id="Path"></path>
                        <path d="M15.3687943,30.8988764 L15.3687943,26.6853933" id="Path"></path>
                        <path d="M0,15.4494382 L4.19148936,15.4494382" id="Path"></path>
                    </g>
                    <g id="position" transform="translate(156.482270, 103.932584)" stroke="#82AEFF" stroke-linecap="square" stroke-width="1.95999993">
                        <ellipse id="Oval" fill="#82AEFF" cx="10.4787234" cy="10.5337079" rx="2.38152805" ry="2.39402451"></ellipse>
                        <path d="M10.4787234,0 L10.4787234,2.87282942" id="Path"></path>
                        <path d="M20.9574468,10.5337079 L18.0996132,10.5337079" id="Path"></path>
                        <path d="M10.4787234,21.0674157 L10.4787234,18.1945863" id="Path"></path>
                        <path d="M0,10.5337079 L2.85783366,10.5337079" id="Path"></path>
                    </g>
                    <g id="position" transform="translate(0.000000, 7.022472)" stroke="#82AEFF" stroke-linecap="square" stroke-width="3.64000014">
                        <ellipse id="Oval" fill="#82AEFF" cx="20.2588652" cy="20.3651685" rx="4.60428756" ry="4.6284474"></ellipse>
                        <path d="M20.2588652,0 L20.2588652,5.55413687" id="Path"></path>
                        <path d="M40.5177305,20.3651685 L34.9925854,20.3651685" id="Path"></path>
                        <path d="M20.2588652,40.7303371 L20.2588652,35.1762002" id="Path"></path>
                        <path d="M0,20.3651685 L5.52514507,20.3651685" id="Path"></path>
                    </g>
                </g>
                <g id="cloud-forecast" opacity="0.5" transform="translate(297.000000, 185.000000)" fill="#FFFFFF" stroke="#2E6DDE" stroke-linecap="square" stroke-width="0.800000012">
                    <path d="M41.7272727,35 C46.8272727,35 51,30.8 51,25.6666667 C51,20.5333333 46.8272727,16.3333333 41.7272727,16.3333333 C41.7272727,16.3333333 41.7272727,16.3333333 41.6113636,16.3333333 C41.0318182,7.23333333 33.4977273,0 24.3409091,0 C15.0681818,0 7.41818182,7.35 6.95454545,16.6833333 C2.89772727,17.7333333 0,21.35 0,25.6666667 C0,30.8 4.17272727,35 9.27272727,35 L41.7272727,35 Z" id="Path"></path>
                </g>
                <g id="cloud-forecast-copy-2" opacity="0.699999988" transform="translate(9.000000, 21.000000)" fill="#FFFFFF" stroke="#2E6DDE" stroke-linecap="square" stroke-width="0.800000012">
                    <path d="M41.7272727,35 C46.8272727,35 51,30.8 51,25.6666667 C51,20.5333333 46.8272727,16.3333333 41.7272727,16.3333333 C41.7272727,16.3333333 41.7272727,16.3333333 41.6113636,16.3333333 C41.0318182,7.23333333 33.4977273,0 24.3409091,0 C15.0681818,0 7.41818182,7.35 6.95454545,16.6833333 C2.89772727,17.7333333 0,21.35 0,25.6666667 C0,30.8 4.17272727,35 9.27272727,35 L41.7272727,35 Z" id="Path"></path>
                </g>
                <g id="cloud-forecast-copy-4" opacity="0.200000003" transform="translate(175.000000, 32.000000)" fill="#FFFFFF" stroke="#2E6DDE" stroke-linecap="square" stroke-width="0.800000012">
                    <path d="M14.7272727,12 C16.5272727,12 18,10.56 18,8.8 C18,7.04 16.5272727,5.6 14.7272727,5.6 C14.7272727,5.6 14.7272727,5.6 14.6863636,5.6 C14.4818182,2.48 11.8227273,0 8.59090909,0 C5.31818182,0 2.61818182,2.52 2.45454545,5.72 C1.02272727,6.08 0,7.32 0,8.8 C0,10.56 1.47272727,12 3.27272727,12 L14.7272727,12 Z" id="Path"></path>
                </g>
                <g id="cloud-forecast-copy-3" opacity="0.400000006" transform="translate(293.000000, 14.000000)" fill="#FFFFFF" stroke="#2E6DDE" stroke-linecap="square" stroke-width="0.800000012">
                    <path d="M41.7272727,35 C46.8272727,35 51,30.8 51,25.6666667 C51,20.5333333 46.8272727,16.3333333 41.7272727,16.3333333 C41.7272727,16.3333333 41.7272727,16.3333333 41.6113636,16.3333333 C41.0318182,7.23333333 33.4977273,0 24.3409091,0 C15.0681818,0 7.41818182,7.35 6.95454545,16.6833333 C2.89772727,17.7333333 0,21.35 0,25.6666667 C0,30.8 4.17272727,35 9.27272727,35 L41.7272727,35 Z" id="Path"></path>
                </g>
                <g id="cloud-forecast-copy" opacity="0.300000012" transform="translate(53.000000, 199.000000)" fill="#FFFFFF" stroke="#2E6DDE" stroke-linecap="square" stroke-width="0.800000012">
                    <path d="M24.5454545,21 C27.5454545,21 30,18.48 30,15.4 C30,12.32 27.5454545,9.8 24.5454545,9.8 C24.5454545,9.8 24.5454545,9.8 24.4772727,9.8 C24.1363636,4.34 19.7045455,0 14.3181818,0 C8.86363636,0 4.36363636,4.41 4.09090909,10.01 C1.70454545,10.64 0,12.81 0,15.4 C0,18.48 2.45454545,21 5.45454545,21 L24.5454545,21 Z" id="Path"></path>
                </g>
                <g id="wind-2" transform="translate(20.000000, 133.000000)" opacity="0.600000024" stroke="#82AEFF" stroke-linecap="square" stroke-width="2">
                    <path d="M25.6,2.7 C26.2,1.1 27.7,0 29.5,0 C31.8,0 33.6,1.8 33.6,4.1 C33.6,6.4 31.8,8.2 29.5,8.2 L0.645507812,8.2" id="Path"></path>
                    <path d="M17.5,23.5 C18.1,25.1 19.6,26.2 21.4,26.2 C23.7,26.2 25.5,24.4 25.5,22.1 C25.5,19.8 23.6,18 21.3,18 L0.606933594,18" id="Path"></path>
                    <path d="M34.1,18.5 C34.7,20.1 36.2,21.2 38,21.2 C40.3,21.2 42.1,19.4 42.1,17.1 C42.1,14.8 40.2,13 37.9,13 L0.62109375,13" id="Path"></path>
                </g>
                <g id="wind-2" opacity="0.449999988" transform="translate(105.000000, 25.000000)" stroke="#82AEFF" stroke-linecap="square" stroke-width="0.800000012">
                    <path d="M10.1209302,1.1 C10.3581395,0.448148148 10.9511628,0 11.6627907,0 C12.572093,0 13.2837209,0.733333333 13.2837209,1.67037037 C13.2837209,2.60740741 12.572093,3.34074074 11.6627907,3.34074074 L0.255200763,3.34074074" id="Path" opacity="0.600000024"></path>
                    <path d="M6.91860465,9.57407407 C7.15581395,10.2259259 7.74883721,10.6740741 8.46046512,10.6740741 C9.36976744,10.6740741 10.0813953,9.94074074 10.0813953,9.0037037 C10.0813953,8.06666667 9.33023256,7.33333333 8.42093023,7.33333333 L0.239950491,7.33333333" id="Path" opacity="0.600000024"></path>
                    <path d="M13.4813953,7.53703704 C13.7186047,8.18888889 14.3116279,8.63703704 15.0232558,8.63703704 C15.9325581,8.63703704 16.644186,7.9037037 16.644186,6.96666667 C16.644186,6.02962963 15.8930233,5.2962963 14.9837209,5.2962963 L0.245548692,5.2962963" id="Path" opacity="0.600000024"></path>
                </g>
                <g id="wind-2" opacity="0.400000006" transform="translate(318.000000, 113.000000)" stroke="#82AEFF" stroke-linecap="square" stroke-width="2">
                    <path d="M25.6,2.7 C26.2,1.1 27.7,0 29.5,0 C31.8,0 33.6,1.8 33.6,4.1 C33.6,6.4 31.8,8.2 29.5,8.2 L0.645507812,8.2" id="Path" opacity="0.600000024"></path>
                    <path d="M17.5,23.5 C18.1,25.1 19.6,26.2 21.4,26.2 C23.7,26.2 25.5,24.4 25.5,22.1 C25.5,19.8 23.6,18 21.3,18 L0.606933594,18" id="Path" opacity="0.600000024"></path>
                    <path d="M34.1,18.5 C34.7,20.1 36.2,21.2 38,21.2 C40.3,21.2 42.1,19.4 42.1,17.1 C42.1,14.8 40.2,13 37.9,13 L0.62109375,13" id="Path" opacity="0.600000024"></path>
                </g>
            </g>
        </g>
    </g>
</svg>