<?xml version="1.0" encoding="UTF-8"?>
<svg width="460px" height="350px" viewBox="0 0 460 350" version="1.1" xmlns="http://www.w3.org/2000/svg" xmlns:xlink="http://www.w3.org/1999/xlink">
    <!-- Generator: sketchtool 52 (66869) - http://www.bohemiancoding.com/sketch -->
    <title>37D05167-764B-4C7D-8E98-C0CD48EED555</title>
    <desc>Created with sketchtool.</desc>
    <g id="Corp-Site-Redesign-2.0" stroke="none" stroke-width="1" fill="none" fill-rule="evenodd">
        <g id="Landing-Page---Desktop-HD" transform="translate(-730.000000, -1710.000000)">
            <g id="Group-6" transform="translate(730.000000, 1710.000000)">
                <rect id="Rectangle" fill="#E0EDFF" fill-rule="nonzero" x="0" y="0" width="460" height="350"></rect>
                <g id="Group-4" transform="translate(74.000000, 67.000000)" stroke="#2E6DDE">
                    <rect id="Rectangle" stroke-width="1.20000005" fill="#EBF2FF" fill-rule="nonzero" x="24.8920539" y="0.98680773" width="262.631418" height="214.601105" rx="7.20000029"></rect>
                    <rect id="Rectangle" stroke-width="1.20000005" fill="#FFFFFF" x="48" y="72" width="215.862069" height="119.889503"></rect>
                    <rect id="Rectangle" stroke-width="2.4000001" fill="#FFFFFF" fill-rule="nonzero" x="1.50737959" y="25.5647083" width="309.400766" height="45.555801" rx="4.80000019"></rect>
                    <ellipse id="Oval" stroke-width="1.20000005" fill="#E86C60" cx="34.4855405" cy="14.1741005" rx="4.19731801" ry="4.1961326"></ellipse>
                    <ellipse id="Oval" stroke-width="1.20000005" fill="#EFD358" cx="48.8763451" cy="14.1741005" rx="4.19731801" ry="4.1961326"></ellipse>
                    <ellipse id="Oval" stroke-width="1.20000005" fill="#72C472" cx="63.2671497" cy="14.1741005" rx="4.19731801" ry="4.1961326"></ellipse>
                </g>
                <rect id="Rectangle" fill="#CCDEFF" fill-rule="nonzero" x="174" y="158" width="111" height="8"></rect>
                <rect id="Rectangle-Copy-8" fill="#CCDEFF" fill-rule="nonzero" x="150" y="176.5" width="159" height="8"></rect>
                <rect id="Rectangle-Copy-15" fill="#CCDEFF" fill-rule="nonzero" x="150" y="195" width="159" height="8"></rect>
                <rect id="Rectangle-Copy-16" fill="#CCDEFF" fill-rule="nonzero" x="150" y="213.5" width="159" height="8"></rect>
                <rect id="Rectangle-Copy-17" fill="#CCDEFF" fill-rule="nonzero" x="151" y="232" width="159" height="8"></rect>
                <g id="Group-5" transform="translate(83.000000, 105.000000)">
                    <g id="access-key-copy" transform="translate(11.700000, 11.500000) scale(1, -1) rotate(-45.000000) translate(-11.700000, -11.500000) translate(3.600000, 3.631579)" fill="#C2D7FF">
                        <path d="M12.977026,7.41296967 C12.8858082,7.41296967 12.7945904,7.37765578 12.7249596,7.30703161 L10.5858738,5.13742954 C10.4466122,4.99618121 10.4466122,4.76735328 10.5858738,4.62610496 L13.4379883,1.7333022 C13.5772499,1.59205387 13.8028593,1.59205387 13.9421209,1.7333022 L16.0812067,3.90290427 C16.2204683,4.04415259 16.2204683,4.27298052 16.0812067,4.41422885 L15.3681781,5.13742954 C15.2289165,5.27867787 15.0033071,5.27867787 14.8640455,5.13742954 L14.0465689,4.3082908 L13.1246443,5.24336759 L13.9421209,6.07250634 C14.0813825,6.21375466 14.0813825,6.4425826 13.9421209,6.58383092 L13.2290923,7.30703161 C13.1594615,7.37765578 13.0682437,7.41296967 12.977026,7.41296967 Z" id="Path"></path>
                        <path d="M15.1722372,0.364259938 C14.9614735,0.150489502 14.6200374,0.150489502 14.4092774,0.364259938 L5.77048205,9.12629398 C5.17367209,8.67980731 4.43848485,8.41268365 3.6400009,8.41268365 C1.65342922,8.41268365 0.0429832871,10.0461045 0.0429832871,12.0610169 C0.0429832871,14.0759293 1.65342922,15.7093501 3.6400009,15.7093501 C5.62657257,15.7093501 7.23701851,14.0759293 7.23701851,12.0610169 C7.23701851,11.2511416 6.97365207,10.5054661 6.53344546,9.90014194 L15.1722372,1.13810789 C15.3829972,0.924516227 15.3829972,0.577851605 15.1722372,0.364259938 Z M3.6400009,14.6148501 C2.25160246,14.6148501 1.12208857,13.4692224 1.12208857,12.0610169 C1.12208857,10.6528113 2.25160246,9.50718361 3.6400009,9.50718361 C4.32834058,9.50718361 4.95254903,9.78931652 5.4075106,10.2448875 C5.41144214,10.2491415 5.41264715,10.2547964 5.41672976,10.2589373 C5.42081238,10.2630781 5.42639135,10.2642821 5.43058188,10.2682661 C5.87974866,10.7297437 6.15791322,11.3628572 6.15791322,12.0610169 C6.15791322,13.4692224 5.02839934,14.6148501 3.6400009,14.6148501 Z" id="Shape" fill-rule="nonzero"></path>
                    </g>
                    <g id="access-key-copy" transform="translate(21.442998, 11.341621) scale(-1, 1) rotate(-45.000000) translate(-21.442998, -11.341621) translate(13.342998, 3.473200)" fill="#2E6DDE">
                        <path d="M12.977026,7.41296967 C12.8858082,7.41296967 12.7945904,7.37765578 12.7249596,7.30703161 L10.5858738,5.13742954 C10.4466122,4.99618121 10.4466122,4.76735328 10.5858738,4.62610496 L13.4379883,1.7333022 C13.5772499,1.59205387 13.8028593,1.59205387 13.9421209,1.7333022 L16.0812067,3.90290427 C16.2204683,4.04415259 16.2204683,4.27298052 16.0812067,4.41422885 L15.3681781,5.13742954 C15.2289165,5.27867787 15.0033071,5.27867787 14.8640455,5.13742954 L14.0465689,4.3082908 L13.1246443,5.24336759 L13.9421209,6.07250634 C14.0813825,6.21375466 14.0813825,6.4425826 13.9421209,6.58383092 L13.2290923,7.30703161 C13.1594615,7.37765578 13.0682437,7.41296967 12.977026,7.41296967 Z" id="Path"></path>
                        <path d="M15.1722372,0.364259938 C14.9614735,0.150489502 14.6200374,0.150489502 14.4092774,0.364259938 L5.77048205,9.12629398 C5.17367209,8.67980731 4.43848485,8.41268365 3.6400009,8.41268365 C1.65342922,8.41268365 0.0429832871,10.0461045 0.0429832871,12.0610169 C0.0429832871,14.0759293 1.65342922,15.7093501 3.6400009,15.7093501 C5.62657257,15.7093501 7.23701851,14.0759293 7.23701851,12.0610169 C7.23701851,11.2511416 6.97365207,10.5054661 6.53344546,9.90014194 L15.1722372,1.13810789 C15.3829972,0.924516227 15.3829972,0.577851605 15.1722372,0.364259938 Z M3.6400009,14.6148501 C2.25160246,14.6148501 1.12208857,13.4692224 1.12208857,12.0610169 C1.12208857,10.6528113 2.25160246,9.50718361 3.6400009,9.50718361 C4.32834058,9.50718361 4.95254903,9.78931652 5.4075106,10.2448875 C5.41144214,10.2491415 5.41264715,10.2547964 5.41672976,10.2589373 C5.42081238,10.2630781 5.42639135,10.2642821 5.43058188,10.2682661 C5.87974866,10.7297437 6.15791322,11.3628572 6.15791322,12.0610169 C6.15791322,13.4692224 5.02839934,14.6148501 3.6400009,14.6148501 Z" id="Shape" fill-rule="nonzero"></path>
                    </g>
                </g>
                <text id="56ers78av53236gdv2!" font-family="DankMono-Regular, Dank Mono" font-size="20" font-weight="normal" fill="#2E6DDE">
                    <tspan x="124" y="123">56ers78av53236gdv2!</tspan>
                </text>
            </g>
        </g>
    </g>
</svg>