<?xml version="1.0" encoding="UTF-8"?>
<svg width="380px" height="245px" viewBox="0 0 380 245" version="1.1" xmlns="http://www.w3.org/2000/svg" xmlns:xlink="http://www.w3.org/1999/xlink">
    <!-- Generator: sketchtool 52 (66869) - http://www.bohemiancoding.com/sketch -->
    <title>DE2A14E8-66BD-4C76-BB87-ECF3CDA5A909</title>
    <desc>Created with sketchtool.</desc>
    <defs>
        <rect id="path-1" x="0" y="0" width="380" height="245"></rect>
    </defs>
    <g id="Corp-Site-Redesign-2.0" stroke="none" stroke-width="1" fill="none" fill-rule="evenodd">
        <g id="Landing-Page---Desktop-HD" transform="translate(-250.000000, -3354.000000)">
            <g id="Group-4" transform="translate(250.000000, 3354.000000)">
                <g id="study-brain-1-copy-9">
                    <mask id="mask-2" fill="white">
                        <use xlink:href="#path-1"></use>
                    </mask>
                    <use id="Mask" fill="#E0EDFF" fill-rule="nonzero" xlink:href="#path-1"></use>
                    <g mask="url(#mask-2)" fill="#1454A7" id="Path">
                        <g transform="translate(5.000000, 70.000000) scale(-1, 1) translate(-5.000000, -70.000000) translate(-30.000000, 39.000000)">
                            <path d="M53.0972424,34 C54.7003911,34 56,32.6905966 56,31.0753656 C56,25.5108948 51.5228475,21 46,21 C40.4771525,21 36,25.5108948 36,31.0753656 C36,32.6905966 37.2996089,34 38.9027576,34 C40.5059064,34 41.8055152,32.6905966 41.8055152,31.0753656 C41.8055152,28.7413568 43.68345,26.8492688 46,26.8492688 C48.31655,26.8492688 50.1944848,28.7413568 50.1944848,31.0753656 C50.1944848,32.6905966 51.4940936,34 53.0972424,34 Z"></path>
                            <path d="M63.3613721,22.6926631 C62.9489245,22.5001003 62.6489987,22.1246748 62.5501491,21.6772327 C61.5016308,17.0214141 58.0187493,13.3132174 53.4662021,12.0056255 C52.9630028,11.8620402 52.5744729,11.4578023 52.4477962,10.9460459 C50.8401072,4.51695102 45.1110136,0.00875736879 38.537364,0 L31.4289493,0 C24.8544527,0.00909821066 19.1250774,4.51872575 17.5185171,10.9489892 C17.3918404,11.4607455 17.0033105,11.8649835 16.5001112,12.0085688 C12.1380985,13.2645697 8.7447348,16.7296682 7.55331341,21.1444996 C7.4276316,21.612276 7.08166732,21.9876481 6.62828572,22.1481569 C2.07266601,23.8240394 -0.654764543,28.533669 0.135715455,33.3592952 C0.926195453,38.1849215 5.01062691,41.7593461 9.85858747,41.8681106 L20.7809176,41.8681106 C21.3713485,41.8682073 21.9035206,42.2272154 22.1290652,42.7775831 C23.681816,46.5789319 27.3528246,49.0617418 31.4289493,49.0673654 L39.3077341,49.0673654 C39.9918873,49.0676368 40.5839744,49.5473565 40.7317515,50.2211298 L42.7743994,59.6131257 C42.9748606,60.6632888 43.7243046,61.5211413 44.7319746,61.8538675 C45.7396445,62.1865937 46.8469557,61.9418301 47.6243118,61.2145361 C48.4016678,60.487242 48.7267304,59.3918772 48.473387,58.3534033 L45.6807955,45.4942275 C45.3876023,44.1443413 44.2028243,43.1819642 42.8327607,43.180812 L31.4522938,43.180812 C29.3966362,43.1793497 27.6411729,41.6839373 27.2957428,39.6400041 C26.9503126,37.596071 28.115453,35.598504 30.0545391,34.9102046 C31.5758939,34.3721552 32.3767561,32.6920241 31.843315,31.1575268 C31.3098738,29.6230295 29.6441326,28.8152489 28.1227778,29.3532982 C25.4084082,30.3122425 23.2316298,32.3985284 22.1436556,35.0838579 C21.918618,35.6363718 21.3847946,35.9968789 20.7925899,35.9962737 L9.85275133,35.9962737 C7.55258913,35.9101123 5.74526779,33.9805123 5.79064107,31.6593315 C5.83601434,29.3381507 7.71733948,27.4819056 10.0190812,27.4872608 C10.7930011,27.4872608 11.5352232,27.1771665 12.0824672,26.625195 C12.6297112,26.0732236 12.9371497,25.3245897 12.9371497,24.5439842 C12.9370716,22.3459024 13.9407068,20.2702821 15.6579876,18.9170127 C17.3752685,17.5637432 19.614789,17.0836584 21.7292898,17.6155109 C22.2035574,17.7349128 22.5870329,18.0859324 22.7507339,18.5505037 C22.9144348,19.015075 22.8366082,19.5314642 22.5434309,19.9259831 C21.5110837,21.3135413 20.8525957,22.9471113 20.6320961,24.6676018 C20.5328556,25.4419932 20.742762,26.2244238 21.2156133,26.8426742 C21.6884645,27.4609247 22.3855038,27.8643207 23.1533072,27.9640716 C23.2781008,27.980613 23.4038744,27.9884803 23.5297381,27.9876179 C24.9951091,27.9866651 26.2325113,26.8897046 26.4215439,25.4240239 C26.6994123,23.3065397 28.4883971,21.7235657 30.606054,21.7213818 L32.8267041,21.7213818 C38.3764878,21.7132729 42.8730211,17.176579 42.8794498,11.5788504 C42.8794498,9.9533236 41.5729861,8.63557375 39.9613814,8.63557375 C38.3497767,8.63557375 37.043313,9.9533236 37.043313,11.5788504 C37.0417059,13.9275416 35.1552778,15.8315828 32.8267041,15.8348285 L30.606054,15.8348285 C30.0005562,15.8346644 29.4188095,15.5972116 28.983608,15.1725912 C27.758479,13.9807873 26.3114956,13.0454775 24.7261461,12.4206275 C24.3327582,12.2661607 24.0249823,11.9474088 23.8822906,11.5466781 C23.7395988,11.1459474 23.7759795,10.7025222 23.9820387,10.3309011 C25.4751397,7.59061198 28.3288755,5.88749039 31.4289493,5.88655334 L38.537364,5.88655334 C43.2299683,5.89142033 47.032872,9.72717609 47.0376973,14.4603183 C47.0376973,16.0858451 48.3441611,17.403595 49.9557658,17.403595 C51.853566,17.413597 53.6686698,18.1883189 54.9971412,19.5553529 C56.3256126,20.9223869 57.0572247,22.7683065 57.0291636,24.6823182 C57.0293428,26.1191607 58.0580606,27.3458731 59.4628327,27.584389 C62.1768536,28.0344947 64.1673866,30.4023932 64.1638409,33.1766146 L64.1638409,37.4944015 C64.1606241,40.6384509 61.6345002,43.1863972 58.5173785,43.1896419 C56.9057738,43.1896419 55.5993101,44.5073917 55.5993101,46.1329185 C55.6013159,47.5951374 54.4804849,48.8092498 53.034328,48.9113717 C52.189297,48.9802354 51.4157333,49.4163723 50.9148945,50.1063129 C50.4140557,50.7962536 50.2354608,51.671782 50.4255748,52.5051125 L52.0596931,59.6543316 C52.3650566,60.9881326 53.5417981,61.9335107 54.8989737,61.935371 C55.1208201,61.9354676 55.3419953,61.9107899 55.5584571,61.8617891 C56.3132824,61.686595 56.9680843,61.2158993 57.378596,60.5534066 C57.7891077,59.8909139 57.9216455,59.0909834 57.7470085,58.3298571 L56.9620481,54.8979965 C56.8262759,54.301868 57.0702378,53.6831793 57.5748424,53.3439464 C58.9899122,52.3892612 60.0982949,51.0391201 60.7642912,49.4588212 C60.9369152,49.0518326 61.2820027,48.7448404 61.7039093,48.6229306 C66.6133459,47.184379 69.9929023,42.6509677 69.9999778,37.4944015 L69.9999778,33.1766146 C70.0087524,28.6736384 67.4155147,24.5782937 63.3613721,22.6926631 Z"></path>
                        </g>
                    </g>
                </g>
                <g id="study-brain-1" transform="translate(99.000000, 46.500000) scale(-1, 1) translate(-99.000000, -46.500000) translate(80.000000, 29.000000)" fill="#1454A7">
                    <path d="M28.671,19.5077273 C29.5454509,19.5077273 30.2543333,18.795453 30.2543333,17.9168182 C30.2543333,14.8899212 27.8122332,12.4361364 24.79975,12.4361364 C21.7872668,12.4361364 19.3451667,14.8899212 19.3451667,17.9168182 C19.3451667,18.795453 20.0540491,19.5077273 20.9285,19.5077273 C21.8029509,19.5077273 22.5118333,18.795453 22.5118333,17.9168182 C22.5118333,16.6471909 23.5361685,15.6179545 24.79975,15.6179545 C26.0633315,15.6179545 27.0876667,16.6471909 27.0876667,17.9168182 C27.0876667,18.795453 27.7965491,19.5077273 28.671,19.5077273 Z" id="Path"></path>
                    <path d="M34.3979167,13.0295455 C34.1741241,12.9254608 34.0113854,12.7225346 33.95775,12.4806818 C33.3888278,9.96410421 31.4990289,7.95973818 29.0288333,7.25295455 C28.7557992,7.17534336 28.5449843,6.9568434 28.47625,6.68022727 C27.6039238,3.20515282 24.4953384,0.768369924 20.9285,0.763636364 L17.0715,0.763636364 C13.504202,0.768554157 10.3954638,3.20611211 9.52375,6.68181818 C9.45501567,6.95843431 9.24420079,7.17693426 8.97116667,7.25454545 C6.60435438,7.93344297 4.76312759,9.80640882 4.11666667,12.1927273 C4.04847217,12.4455712 3.86075321,12.6484685 3.61475,12.7352273 C1.14288729,13.6410805 -0.337006624,16.1867442 0.0919049529,18.7951067 C0.520816529,21.4034693 2.7370142,23.3355284 5.3675,23.3943182 L11.2939167,23.3943182 C11.6142823,23.3943704 11.903037,23.5884226 12.0254167,23.8859091 C12.8679336,25.940626 14.8598095,27.2826421 17.0715,27.2856818 L21.3465,27.2856818 C21.717719,27.2858285 22.0389834,27.5451281 22.1191667,27.9093182 L23.2275,32.9859091 C23.3362695,33.5535465 23.7429152,34.0172356 24.2896732,34.1970819 C24.8364312,34.3769281 25.4372543,34.2446277 25.8590449,33.8515084 C26.2808354,33.4583892 26.4572132,32.8663191 26.31975,32.305 L24.8045,25.3543182 C24.6454144,24.6246735 24.0025582,24.1044864 23.2591667,24.1038636 L17.0841667,24.1038636 C15.9687743,24.1030732 15.0162663,23.2947682 14.8288372,22.1899751 C14.641408,21.085182 15.273609,20.0054508 16.32575,19.6334091 C17.1512316,19.342581 17.5857765,18.4344313 17.2963333,17.605 C17.0068901,16.7755687 16.1030649,16.3389446 15.2775833,16.6297727 C13.8047763,17.1481043 12.6236642,18.27579 12.0333333,19.7272727 C11.9112288,20.0259192 11.6215781,20.2207817 11.30025,20.2204545 L5.36433333,20.2204545 C4.11627368,20.1738823 3.13562768,19.1308889 3.16024706,17.876237 C3.18486643,16.6215851 4.20566662,15.6182417 5.45458333,15.6211364 C5.87450944,15.6211364 6.27723647,15.4535232 6.57416907,15.1551699 C6.87110167,14.8568165 7.03791667,14.4521626 7.03791667,14.0302273 C7.03787432,12.8421132 7.58244312,11.7201925 8.51423347,10.9887191 C9.44602382,10.2572457 10.6611795,9.99774873 11.8085,10.2852273 C12.0658358,10.3497668 12.2739083,10.539501 12.3627318,10.7906125 C12.4515554,11.041724 12.4093269,11.3208443 12.25025,11.5340909 C11.6901022,12.2840982 11.3328089,13.1670806 11.2131667,14.0970455 C11.1593191,14.5156219 11.2732136,14.9385437 11.529781,15.2727224 C11.7863483,15.6069011 12.1645593,15.824946 12.5811667,15.8788636 C12.6488792,15.8878046 12.7171235,15.8920571 12.7854167,15.8915909 C13.5805217,15.8910759 14.2519316,15.2981434 14.3545,14.5059091 C14.5052704,13.3613599 15.4759671,12.5057259 16.625,12.5045455 L17.8299167,12.5045455 C20.8412091,12.5001624 23.2810118,10.0479745 23.2845,7.02227273 C23.2845,6.1436379 22.5756175,5.43136364 21.7011667,5.43136364 C20.8267158,5.43136364 20.1178333,6.1436379 20.1178333,7.02227273 C20.1169614,8.29179463 19.0933923,9.32097288 17.8299167,9.32272727 L16.625,9.32272727 C16.2964591,9.32263859 15.9808054,9.19428987 15.7446667,8.96477273 C15.0799162,8.32057516 14.2947882,7.81501858 13.4345833,7.47727273 C13.2211325,7.39377984 13.0541344,7.22148707 12.9767104,7.00488285 C12.8992863,6.78827863 12.9190264,6.54859704 13.0308333,6.34772727 C13.8409845,4.86653764 15.3894112,3.94596104 17.0715,3.94545455 L20.9285,3.94545455 C23.4746901,3.94808527 25.5381318,6.02139994 25.54075,8.57977273 C25.54075,9.45840756 26.2496325,10.1706818 27.1240833,10.1706818 C28.1538229,10.1760881 29.1386916,10.5948432 29.8595153,11.3337567 C30.5803391,12.0726702 30.9773092,13.0704325 30.9620833,14.105 C30.9621805,14.8816466 31.5203591,15.544713 32.2825833,15.6736364 C33.7552012,15.9169289 34.8352572,17.1968328 34.8333333,18.6963636 L34.8333333,21.0302273 C34.8315879,22.7296587 33.4609222,24.1068826 31.7695833,24.1086364 C30.8951325,24.1086364 30.18625,24.8209106 30.18625,25.6995455 C30.1873384,26.4899086 29.5791795,27.1461644 28.7945,27.2013636 C28.3359893,27.238586 27.9162564,27.4743281 27.6445031,27.847257 C27.3727498,28.2201859 27.2758448,28.6934292 27.379,29.1438636 L28.2656667,33.0081818 C28.4313558,33.7291321 29.0698515,34.2401308 29.80625,34.2411364 C29.9266231,34.2411886 30.0466319,34.2278498 30.1640833,34.2013636 C30.5736488,34.1066672 30.9289419,33.8522453 31.1516841,33.4941527 C31.3744262,33.13606 31.4463407,32.7036791 31.3515833,32.2922727 L30.9256667,30.4372727 C30.8519972,30.1150515 30.98437,29.780636 31.2581667,29.5972727 C32.0259784,29.0812433 32.6273828,28.3514608 32.98875,27.4972727 C33.0824152,27.277286 33.2696584,27.1113496 33.4985833,27.0454545 C36.1624259,26.2678842 37.9961608,23.8174706 38,21.0302273 L38,18.6963636 C38.0047611,16.2624009 36.5976797,14.0487724 34.3979167,13.0295455 Z" id="Path"></path>
                </g>
                <g id="study-brain-1-copy" transform="translate(303.000000, 193.000000)" fill="#1454A7">
                    <path d="M23.3895,16.1635455 C24.1028678,16.1635455 24.6811667,15.5733754 24.6811667,14.8453636 C24.6811667,12.3373633 22.6889271,10.3042273 20.231375,10.3042273 C17.7738229,10.3042273 15.7815833,12.3373633 15.7815833,14.8453636 C15.7815833,15.5733754 16.3598822,16.1635455 17.07325,16.1635455 C17.7866178,16.1635455 18.3649167,15.5733754 18.3649167,14.8453636 C18.3649167,13.7933867 19.2005585,12.9405909 20.231375,12.9405909 C21.2621915,12.9405909 22.0978333,13.7933867 22.0978333,14.8453636 C22.0978333,15.5733754 22.6761322,16.1635455 23.3895,16.1635455 Z" id="Path"></path>
                    <path d="M28.0614583,10.7959091 C27.8788907,10.7096675 27.7461302,10.5415287 27.702375,10.3411364 C27.2382543,8.25597206 25.6965762,6.59521164 23.6814167,6.00959091 C23.4586783,5.94528449 23.2866977,5.76424168 23.230625,5.53504545 C22.5189905,2.65569805 19.9830392,0.636649366 17.07325,0.632727273 L13.92675,0.632727273 C11.0165859,0.636802016 8.48050993,2.65649289 7.769375,5.53636364 C7.71330226,5.76555986 7.5413217,5.94660268 7.31858333,6.01090909 C5.38776279,6.57342418 3.88570935,8.12531016 3.35833333,10.1025455 C3.30270098,10.3120447 3.14956183,10.4801596 2.948875,10.5520455 C0.932355421,11.3026095 -0.274926456,13.4118737 0.0749750932,15.5730884 C0.424876642,17.7343031 2.23282738,19.3351521 4.37875,19.3838636 L9.21345833,19.3838636 C9.47480925,19.3839069 9.71037228,19.544693 9.81020833,19.7911818 C10.4975248,21.4936615 12.1224762,22.6056178 13.92675,22.6081364 L17.41425,22.6081364 C17.7170866,22.6082579 17.9791706,22.8231061 18.0445833,23.1248636 L18.94875,27.3311818 C19.037483,27.80151 19.3692203,28.1857095 19.8152597,28.334725 C20.2612992,28.4837404 20.7514443,28.3741201 21.0955366,28.0483927 C21.4396289,27.7226653 21.583516,27.232093 21.471375,26.767 L20.23525,21.0078636 C20.1054697,20.4033009 19.5810343,19.9722887 18.9745833,19.9717727 L13.9370833,19.9717727 C13.027158,19.9711178 12.250112,19.3013794 12.0972093,18.3859794 C11.9443065,17.4705794 12.4600494,16.575945 13.318375,16.2676818 C13.9917942,16.0267099 14.3462914,15.2742431 14.1101666,14.587 C13.8740419,13.899757 13.1367109,13.5379827 12.4632917,13.7789545 C11.2617912,14.2084292 10.2982524,15.1427974 9.81666667,16.3454545 C9.71705503,16.5929045 9.48076109,16.754362 9.218625,16.7540909 L4.37616667,16.7540909 C3.35801274,16.7155025 2.55801206,15.8513079 2.57809628,14.8117392 C2.59818051,13.7721705 3.43093855,12.9408289 4.44979167,12.9432273 C4.79236297,12.9432273 5.12090344,12.8043478 5.36313793,12.5571408 C5.60537241,12.3099337 5.74145833,11.974649 5.74145833,11.6250455 C5.74142379,10.6406081 6.18567728,9.71101664 6.94582204,9.10493867 C7.7059668,8.4988607 8.69727803,8.28384895 9.63325,8.52204545 C9.84318186,8.57552106 10.0129252,8.7327294 10.0853865,8.94079323 C10.1578478,9.14885705 10.1233983,9.38012817 9.993625,9.55681818 C9.53666229,10.1782528 9.24518625,10.9098667 9.14758333,11.6804091 C9.10365507,12.0272296 9.19656897,12.3776505 9.40587394,12.6545414 C9.61517891,12.9314323 9.92371945,13.1120981 10.2635833,13.1567727 C10.3188225,13.164181 10.3744955,13.1677045 10.4302083,13.1673182 C11.0788466,13.1668915 11.6265758,12.6756045 11.71025,12.0191818 C11.8332469,11.0708411 12.625131,10.3618872 13.5625,10.3609091 L14.5454583,10.3609091 C17.002039,10.3572774 18.9924044,8.32546455 18.99525,5.81845455 C18.99525,5.09044283 18.4169511,4.50027273 17.7035833,4.50027273 C16.9902155,4.50027273 16.4119167,5.09044283 16.4119167,5.81845455 C16.4112053,6.87034412 15.5761885,7.72309181 14.5454583,7.72454545 L13.5625,7.72454545 C13.2944798,7.72447197 13.0369729,7.6181259 12.8443333,7.42795455 C12.3020369,6.89419085 11.6615377,6.47530111 10.9597917,6.19545455 C10.7856607,6.12627473 10.6494254,5.98351786 10.5862637,5.80404579 C10.523102,5.62457372 10.5392057,5.42598041 10.6304167,5.25954545 C11.2913295,4.03227405 12.5545197,3.26951058 13.92675,3.26909091 L17.07325,3.26909091 C19.150405,3.27127065 20.8337391,4.98915995 20.835875,7.10895455 C20.835875,7.83696626 21.4141739,8.42713636 22.1275417,8.42713636 C22.9675923,8.43161589 23.7710379,8.77858439 24.3590783,9.390827 C24.9471187,10.0030696 25.2709628,10.8297869 25.2585417,11.687 C25.258621,12.3305072 25.7139772,12.8799051 26.3357917,12.9867273 C27.5371378,13.1883125 28.4182361,14.2488043 28.4166667,15.4912727 L28.4166667,17.4250455 C28.4152427,18.8331458 27.2970681,19.9742741 25.9172917,19.9757273 C25.2039239,19.9757273 24.625625,20.5658974 24.625625,21.2939091 C24.6265129,21.9487814 24.1303833,22.4925362 23.49025,22.5382727 C23.1162018,22.5691142 22.7737881,22.7644433 22.5520946,23.0734415 C22.3304011,23.3824397 22.2513471,23.7745557 22.3355,24.1477727 L23.0588333,27.3496364 C23.1940008,27.9469952 23.7148788,28.3703941 24.315625,28.3712273 C24.4138241,28.3712705 24.511726,28.3602184 24.6075417,28.3382727 C24.9416608,28.2598099 25.2315053,28.0490033 25.413216,27.7522979 C25.5949266,27.4555926 25.6535938,27.0973341 25.5762917,26.7564545 L25.2288333,25.2194545 C25.1687346,24.9524712 25.2767229,24.6753841 25.5000833,24.5234545 C26.126456,24.0958873 26.6170755,23.4912104 26.911875,22.7834545 C26.988286,22.6011798 27.1410371,22.4636897 27.3277917,22.4090909 C29.5009264,21.7648183 30.996868,19.7344756 31,17.4250455 L31,15.4912727 C31.003884,13.4745607 29.8560019,11.6404114 28.0614583,10.7959091 Z" id="Path"></path>
                </g>
                <g id="study-brain-1-copy-10" opacity="0.600000024" transform="translate(235.500000, 214.500000) rotate(131.000000) translate(-235.500000, -214.500000) translate(220.000000, 200.000000)" fill="#1454A7">
                    <path d="M23.3895,16.1635455 C24.1028678,16.1635455 24.6811667,15.5733754 24.6811667,14.8453636 C24.6811667,12.3373633 22.6889271,10.3042273 20.231375,10.3042273 C17.7738229,10.3042273 15.7815833,12.3373633 15.7815833,14.8453636 C15.7815833,15.5733754 16.3598822,16.1635455 17.07325,16.1635455 C17.7866178,16.1635455 18.3649167,15.5733754 18.3649167,14.8453636 C18.3649167,13.7933867 19.2005585,12.9405909 20.231375,12.9405909 C21.2621915,12.9405909 22.0978333,13.7933867 22.0978333,14.8453636 C22.0978333,15.5733754 22.6761322,16.1635455 23.3895,16.1635455 Z" id="Path"></path>
                    <path d="M28.0614583,10.7959091 C27.8788907,10.7096675 27.7461302,10.5415287 27.702375,10.3411364 C27.2382543,8.25597206 25.6965762,6.59521164 23.6814167,6.00959091 C23.4586783,5.94528449 23.2866977,5.76424168 23.230625,5.53504545 C22.5189905,2.65569805 19.9830392,0.636649366 17.07325,0.632727273 L13.92675,0.632727273 C11.0165859,0.636802016 8.48050993,2.65649289 7.769375,5.53636364 C7.71330226,5.76555986 7.5413217,5.94660268 7.31858333,6.01090909 C5.38776279,6.57342418 3.88570935,8.12531016 3.35833333,10.1025455 C3.30270098,10.3120447 3.14956183,10.4801596 2.948875,10.5520455 C0.932355421,11.3026095 -0.274926456,13.4118737 0.0749750932,15.5730884 C0.424876642,17.7343031 2.23282738,19.3351521 4.37875,19.3838636 L9.21345833,19.3838636 C9.47480925,19.3839069 9.71037228,19.544693 9.81020833,19.7911818 C10.4975248,21.4936615 12.1224762,22.6056178 13.92675,22.6081364 L17.41425,22.6081364 C17.7170866,22.6082579 17.9791706,22.8231061 18.0445833,23.1248636 L18.94875,27.3311818 C19.037483,27.80151 19.3692203,28.1857095 19.8152597,28.334725 C20.2612992,28.4837404 20.7514443,28.3741201 21.0955366,28.0483927 C21.4396289,27.7226653 21.583516,27.232093 21.471375,26.767 L20.23525,21.0078636 C20.1054697,20.4033009 19.5810343,19.9722887 18.9745833,19.9717727 L13.9370833,19.9717727 C13.027158,19.9711178 12.250112,19.3013794 12.0972093,18.3859794 C11.9443065,17.4705794 12.4600494,16.575945 13.318375,16.2676818 C13.9917942,16.0267099 14.3462914,15.2742431 14.1101666,14.587 C13.8740419,13.899757 13.1367109,13.5379827 12.4632917,13.7789545 C11.2617912,14.2084292 10.2982524,15.1427974 9.81666667,16.3454545 C9.71705503,16.5929045 9.48076109,16.754362 9.218625,16.7540909 L4.37616667,16.7540909 C3.35801274,16.7155025 2.55801206,15.8513079 2.57809628,14.8117392 C2.59818051,13.7721705 3.43093855,12.9408289 4.44979167,12.9432273 C4.79236297,12.9432273 5.12090344,12.8043478 5.36313793,12.5571408 C5.60537241,12.3099337 5.74145833,11.974649 5.74145833,11.6250455 C5.74142379,10.6406081 6.18567728,9.71101664 6.94582204,9.10493867 C7.7059668,8.4988607 8.69727803,8.28384895 9.63325,8.52204545 C9.84318186,8.57552106 10.0129252,8.7327294 10.0853865,8.94079323 C10.1578478,9.14885705 10.1233983,9.38012817 9.993625,9.55681818 C9.53666229,10.1782528 9.24518625,10.9098667 9.14758333,11.6804091 C9.10365507,12.0272296 9.19656897,12.3776505 9.40587394,12.6545414 C9.61517891,12.9314323 9.92371945,13.1120981 10.2635833,13.1567727 C10.3188225,13.164181 10.3744955,13.1677045 10.4302083,13.1673182 C11.0788466,13.1668915 11.6265758,12.6756045 11.71025,12.0191818 C11.8332469,11.0708411 12.625131,10.3618872 13.5625,10.3609091 L14.5454583,10.3609091 C17.002039,10.3572774 18.9924044,8.32546455 18.99525,5.81845455 C18.99525,5.09044283 18.4169511,4.50027273 17.7035833,4.50027273 C16.9902155,4.50027273 16.4119167,5.09044283 16.4119167,5.81845455 C16.4112053,6.87034412 15.5761885,7.72309181 14.5454583,7.72454545 L13.5625,7.72454545 C13.2944798,7.72447197 13.0369729,7.6181259 12.8443333,7.42795455 C12.3020369,6.89419085 11.6615377,6.47530111 10.9597917,6.19545455 C10.7856607,6.12627473 10.6494254,5.98351786 10.5862637,5.80404579 C10.523102,5.62457372 10.5392057,5.42598041 10.6304167,5.25954545 C11.2913295,4.03227405 12.5545197,3.26951058 13.92675,3.26909091 L17.07325,3.26909091 C19.150405,3.27127065 20.8337391,4.98915995 20.835875,7.10895455 C20.835875,7.83696626 21.4141739,8.42713636 22.1275417,8.42713636 C22.9675923,8.43161589 23.7710379,8.77858439 24.3590783,9.390827 C24.9471187,10.0030696 25.2709628,10.8297869 25.2585417,11.687 C25.258621,12.3305072 25.7139772,12.8799051 26.3357917,12.9867273 C27.5371378,13.1883125 28.4182361,14.2488043 28.4166667,15.4912727 L28.4166667,17.4250455 C28.4152427,18.8331458 27.2970681,19.9742741 25.9172917,19.9757273 C25.2039239,19.9757273 24.625625,20.5658974 24.625625,21.2939091 C24.6265129,21.9487814 24.1303833,22.4925362 23.49025,22.5382727 C23.1162018,22.5691142 22.7737881,22.7644433 22.5520946,23.0734415 C22.3304011,23.3824397 22.2513471,23.7745557 22.3355,24.1477727 L23.0588333,27.3496364 C23.1940008,27.9469952 23.7148788,28.3703941 24.315625,28.3712273 C24.4138241,28.3712705 24.511726,28.3602184 24.6075417,28.3382727 C24.9416608,28.2598099 25.2315053,28.0490033 25.413216,27.7522979 C25.5949266,27.4555926 25.6535938,27.0973341 25.5762917,26.7564545 L25.2288333,25.2194545 C25.1687346,24.9524712 25.2767229,24.6753841 25.5000833,24.5234545 C26.126456,24.0958873 26.6170755,23.4912104 26.911875,22.7834545 C26.988286,22.6011798 27.1410371,22.4636897 27.3277917,22.4090909 C29.5009264,21.7648183 30.996868,19.7344756 31,17.4250455 L31,15.4912727 C31.003884,13.4745607 29.8560019,11.6404114 28.0614583,10.7959091 Z" id="Path"></path>
                </g>
                <g id="study-brain-1-copy-6" transform="translate(111.000000, 200.000000)" fill="#1454A7">
                    <path d="M23.3895,16.1635455 C24.1028678,16.1635455 24.6811667,15.5733754 24.6811667,14.8453636 C24.6811667,12.3373633 22.6889271,10.3042273 20.231375,10.3042273 C17.7738229,10.3042273 15.7815833,12.3373633 15.7815833,14.8453636 C15.7815833,15.5733754 16.3598822,16.1635455 17.07325,16.1635455 C17.7866178,16.1635455 18.3649167,15.5733754 18.3649167,14.8453636 C18.3649167,13.7933867 19.2005585,12.9405909 20.231375,12.9405909 C21.2621915,12.9405909 22.0978333,13.7933867 22.0978333,14.8453636 C22.0978333,15.5733754 22.6761322,16.1635455 23.3895,16.1635455 Z" id="Path"></path>
                    <path d="M28.0614583,10.7959091 C27.8788907,10.7096675 27.7461302,10.5415287 27.702375,10.3411364 C27.2382543,8.25597206 25.6965762,6.59521164 23.6814167,6.00959091 C23.4586783,5.94528449 23.2866977,5.76424168 23.230625,5.53504545 C22.5189905,2.65569805 19.9830392,0.636649366 17.07325,0.632727273 L13.92675,0.632727273 C11.0165859,0.636802016 8.48050993,2.65649289 7.769375,5.53636364 C7.71330226,5.76555986 7.5413217,5.94660268 7.31858333,6.01090909 C5.38776279,6.57342418 3.88570935,8.12531016 3.35833333,10.1025455 C3.30270098,10.3120447 3.14956183,10.4801596 2.948875,10.5520455 C0.932355421,11.3026095 -0.274926456,13.4118737 0.0749750932,15.5730884 C0.424876642,17.7343031 2.23282738,19.3351521 4.37875,19.3838636 L9.21345833,19.3838636 C9.47480925,19.3839069 9.71037228,19.544693 9.81020833,19.7911818 C10.4975248,21.4936615 12.1224762,22.6056178 13.92675,22.6081364 L17.41425,22.6081364 C17.7170866,22.6082579 17.9791706,22.8231061 18.0445833,23.1248636 L18.94875,27.3311818 C19.037483,27.80151 19.3692203,28.1857095 19.8152597,28.334725 C20.2612992,28.4837404 20.7514443,28.3741201 21.0955366,28.0483927 C21.4396289,27.7226653 21.583516,27.232093 21.471375,26.767 L20.23525,21.0078636 C20.1054697,20.4033009 19.5810343,19.9722887 18.9745833,19.9717727 L13.9370833,19.9717727 C13.027158,19.9711178 12.250112,19.3013794 12.0972093,18.3859794 C11.9443065,17.4705794 12.4600494,16.575945 13.318375,16.2676818 C13.9917942,16.0267099 14.3462914,15.2742431 14.1101666,14.587 C13.8740419,13.899757 13.1367109,13.5379827 12.4632917,13.7789545 C11.2617912,14.2084292 10.2982524,15.1427974 9.81666667,16.3454545 C9.71705503,16.5929045 9.48076109,16.754362 9.218625,16.7540909 L4.37616667,16.7540909 C3.35801274,16.7155025 2.55801206,15.8513079 2.57809628,14.8117392 C2.59818051,13.7721705 3.43093855,12.9408289 4.44979167,12.9432273 C4.79236297,12.9432273 5.12090344,12.8043478 5.36313793,12.5571408 C5.60537241,12.3099337 5.74145833,11.974649 5.74145833,11.6250455 C5.74142379,10.6406081 6.18567728,9.71101664 6.94582204,9.10493867 C7.7059668,8.4988607 8.69727803,8.28384895 9.63325,8.52204545 C9.84318186,8.57552106 10.0129252,8.7327294 10.0853865,8.94079323 C10.1578478,9.14885705 10.1233983,9.38012817 9.993625,9.55681818 C9.53666229,10.1782528 9.24518625,10.9098667 9.14758333,11.6804091 C9.10365507,12.0272296 9.19656897,12.3776505 9.40587394,12.6545414 C9.61517891,12.9314323 9.92371945,13.1120981 10.2635833,13.1567727 C10.3188225,13.164181 10.3744955,13.1677045 10.4302083,13.1673182 C11.0788466,13.1668915 11.6265758,12.6756045 11.71025,12.0191818 C11.8332469,11.0708411 12.625131,10.3618872 13.5625,10.3609091 L14.5454583,10.3609091 C17.002039,10.3572774 18.9924044,8.32546455 18.99525,5.81845455 C18.99525,5.09044283 18.4169511,4.50027273 17.7035833,4.50027273 C16.9902155,4.50027273 16.4119167,5.09044283 16.4119167,5.81845455 C16.4112053,6.87034412 15.5761885,7.72309181 14.5454583,7.72454545 L13.5625,7.72454545 C13.2944798,7.72447197 13.0369729,7.6181259 12.8443333,7.42795455 C12.3020369,6.89419085 11.6615377,6.47530111 10.9597917,6.19545455 C10.7856607,6.12627473 10.6494254,5.98351786 10.5862637,5.80404579 C10.523102,5.62457372 10.5392057,5.42598041 10.6304167,5.25954545 C11.2913295,4.03227405 12.5545197,3.26951058 13.92675,3.26909091 L17.07325,3.26909091 C19.150405,3.27127065 20.8337391,4.98915995 20.835875,7.10895455 C20.835875,7.83696626 21.4141739,8.42713636 22.1275417,8.42713636 C22.9675923,8.43161589 23.7710379,8.77858439 24.3590783,9.390827 C24.9471187,10.0030696 25.2709628,10.8297869 25.2585417,11.687 C25.258621,12.3305072 25.7139772,12.8799051 26.3357917,12.9867273 C27.5371378,13.1883125 28.4182361,14.2488043 28.4166667,15.4912727 L28.4166667,17.4250455 C28.4152427,18.8331458 27.2970681,19.9742741 25.9172917,19.9757273 C25.2039239,19.9757273 24.625625,20.5658974 24.625625,21.2939091 C24.6265129,21.9487814 24.1303833,22.4925362 23.49025,22.5382727 C23.1162018,22.5691142 22.7737881,22.7644433 22.5520946,23.0734415 C22.3304011,23.3824397 22.2513471,23.7745557 22.3355,24.1477727 L23.0588333,27.3496364 C23.1940008,27.9469952 23.7148788,28.3703941 24.315625,28.3712273 C24.4138241,28.3712705 24.511726,28.3602184 24.6075417,28.3382727 C24.9416608,28.2598099 25.2315053,28.0490033 25.413216,27.7522979 C25.5949266,27.4555926 25.6535938,27.0973341 25.5762917,26.7564545 L25.2288333,25.2194545 C25.1687346,24.9524712 25.2767229,24.6753841 25.5000833,24.5234545 C26.126456,24.0958873 26.6170755,23.4912104 26.911875,22.7834545 C26.988286,22.6011798 27.1410371,22.4636897 27.3277917,22.4090909 C29.5009264,21.7648183 30.996868,19.7344756 31,17.4250455 L31,15.4912727 C31.003884,13.4745607 29.8560019,11.6404114 28.0614583,10.7959091 Z" id="Path"></path>
                </g>
                <g id="study-brain-1-copy-2" opacity="0.800000012" transform="translate(314.005689, 100.687560) rotate(32.000000) translate(-314.005689, -100.687560) translate(302.005689, 89.687560)" fill="#1454A7">
                    <path d="M18.108,12.262 C18.6602847,12.262 19.108,11.8142847 19.108,11.262 C19.108,9.35937904 17.565621,7.817 15.663,7.817 C13.760379,7.817 12.218,9.35937904 12.218,11.262 C12.218,11.8142847 12.6657153,12.262 13.218,12.262 C13.7702847,12.262 14.218,11.8142847 14.218,11.262 C14.218,10.4639485 14.8649485,9.817 15.663,9.817 C16.4610515,9.817 17.108,10.4639485 17.108,11.262 C17.108,11.8142847 17.5557153,12.262 18.108,12.262 Z" id="Path"></path>
                    <path d="M21.725,8.19 C21.5836573,8.12457536 21.480875,7.99702177 21.447,7.845 C21.0876807,6.26315122 19.8941235,5.003264 18.334,4.559 C18.1615574,4.51021582 18.0284112,4.372873 17.985,4.199 C17.4340571,2.01466749 15.47074,0.482975381 13.218,0.48 L10.782,0.48 C8.52896969,0.483091184 6.56555608,2.01527047 6.015,4.2 C5.97158884,4.373873 5.8384426,4.51121582 5.666,4.56 C4.17117119,4.98673558 3.00829111,6.1640284 2.6,7.664 C2.55692979,7.82293048 2.43837045,7.95046593 2.283,8.005 C0.721823552,8.57439344 -0.212846289,10.1745249 0.0580452334,11.8140671 C0.328936755,13.4536093 1.72864055,14.6680465 3.39,14.705 L7.133,14.705 C7.3353362,14.7050328 7.51770757,14.8270085 7.595,15.014 C8.12711597,16.3055363 9.38514287,17.1490893 10.782,17.151 L13.482,17.151 C13.7164541,17.1510922 13.9193579,17.3140805 13.97,17.543 L14.67,20.734 C14.7386965,21.0908007 14.9955254,21.3822624 15.3408462,21.4953086 C15.6861671,21.6083548 16.0656343,21.5251945 16.3320283,21.278091 C16.5984224,21.0309875 16.7098189,20.6588292 16.623,20.306 L15.666,15.937 C15.5655249,15.4783662 15.1595104,15.1513914 14.69,15.151 L10.79,15.151 C10.0855417,15.1505032 9.48395767,14.6424257 9.36558136,13.9479844 C9.24720505,13.253543 9.64648986,12.5748548 10.311,12.341 C10.8323568,12.1581937 11.1068062,11.5873568 10.924,11.066 C10.7411937,10.5446432 10.1703568,10.2701938 9.649,10.453 C8.71880606,10.7788084 7.97284057,11.4876394 7.6,12.4 C7.52288132,12.5877207 7.33994407,12.7102056 7.137,12.71 L3.388,12.71 C2.5997518,12.680726 1.98039643,12.0251302 1.99594551,11.2364918 C2.01149459,10.4478535 2.65621049,9.81718051 3.445,9.819 C3.71021649,9.819 3.9645704,9.71364316 4.15210678,9.52610678 C4.33964316,9.3385704 4.445,9.08421649 4.445,8.819 C4.44497326,8.07218547 4.78891145,7.36697814 5.37741061,6.90719485 C5.96590978,6.44741157 6.73337654,6.2842992 7.458,6.465 C7.62052789,6.5055677 7.75194206,6.6248292 7.80804115,6.78267073 C7.86414024,6.94051225 7.83746962,7.1159593 7.737,7.25 C7.38322242,7.72143317 7.15756354,8.27645064 7.082,8.861 C7.04799102,9.12410522 7.11992436,9.38994178 7.28196692,9.59999695 C7.44400948,9.81005212 7.68287957,9.9471089 7.946,9.981 C7.98876583,9.98662006 8.03186747,9.98929303 8.075,9.989 C8.57717157,9.98867629 9.00121996,9.61597584 9.066,9.118 C9.1612234,8.39856909 9.77429498,7.860742 10.5,7.86 L11.261,7.86 C13.1628689,7.85724494 14.7037969,6.31586966 14.706,4.414 C14.706,3.86171525 14.2582847,3.414 13.706,3.414 C13.1537153,3.414 12.706,3.86171525 12.706,4.414 C12.7054493,5.2119852 12.0589846,5.85889724 11.261,5.86 L10.5,5.86 C10.2925005,5.85994426 10.0931403,5.77926792 9.944,5.635 C9.52415757,5.23007581 9.02828729,4.9122974 8.485,4.7 C8.35018893,4.64751876 8.24471646,4.53922044 8.19581707,4.40306922 C8.14691769,4.266918 8.15938509,4.116261 8.23,3.99 C8.74167444,3.05896652 9.71962813,2.48031837 10.782,2.48 L13.218,2.48 C14.82612,2.4816536 16.1293464,3.78487996 16.131,5.393 C16.131,5.94528475 16.5787153,6.393 17.131,6.393 C17.7813618,6.39639826 18.4033842,6.65961575 18.8586413,7.12407565 C19.3138984,7.58853556 19.5646163,8.21570041 19.555,8.866 C19.5550614,9.35417787 19.9075952,9.77096248 20.389,9.852 C21.3190744,10.0049268 22.0012151,10.8094378 22,11.752 L22,13.219 C21.9988976,14.287214 21.133214,15.1528976 20.065,15.154 C19.5127153,15.154 19.065,15.6017153 19.065,16.154 C19.0656874,16.6507997 18.681587,17.0633033 18.186,17.098 C17.8964143,17.1213969 17.6313198,17.2695777 17.4596862,17.5039901 C17.2880525,17.7384026 17.2268494,18.0358698 17.292,18.319 L17.852,20.748 C17.9566458,21.2011687 18.3599062,21.5223679 18.825,21.523 C18.9010251,21.5230328 18.9768202,21.5146484 19.051,21.498 C19.3096729,21.4384765 19.5340686,21.2785542 19.6747478,21.0534674 C19.8154271,20.8283806 19.8608468,20.5565983 19.801,20.298 L19.532,19.132 C19.4854719,18.9294609 19.5690758,18.7192569 19.742,18.604 C20.2269337,18.2796386 20.6067681,17.8209182 20.835,17.284 C20.8941569,17.1457226 21.0124158,17.0414197 21.157,17 C22.8394269,16.5112415 23.9975753,14.9709815 24,13.219 L24,11.752 C24.003007,10.2220806 23.114324,8.83065693 21.725,8.19 Z" id="Path"></path>
                </g>
                <g id="study-brain-1-copy-5" opacity="0.300000012" transform="translate(236.263456, 36.263456) rotate(-45.000000) translate(-236.263456, -36.263456) translate(224.263456, 25.263456)" fill="#1454A7">
                    <path d="M18.108,12.262 C18.6602847,12.262 19.108,11.8142847 19.108,11.262 C19.108,9.35937904 17.565621,7.817 15.663,7.817 C13.760379,7.817 12.218,9.35937904 12.218,11.262 C12.218,11.8142847 12.6657153,12.262 13.218,12.262 C13.7702847,12.262 14.218,11.8142847 14.218,11.262 C14.218,10.4639485 14.8649485,9.817 15.663,9.817 C16.4610515,9.817 17.108,10.4639485 17.108,11.262 C17.108,11.8142847 17.5557153,12.262 18.108,12.262 Z" id="Path"></path>
                    <path d="M21.725,8.19 C21.5836573,8.12457536 21.480875,7.99702177 21.447,7.845 C21.0876807,6.26315122 19.8941235,5.003264 18.334,4.559 C18.1615574,4.51021582 18.0284112,4.372873 17.985,4.199 C17.4340571,2.01466749 15.47074,0.482975381 13.218,0.48 L10.782,0.48 C8.52896969,0.483091184 6.56555608,2.01527047 6.015,4.2 C5.97158884,4.373873 5.8384426,4.51121582 5.666,4.56 C4.17117119,4.98673558 3.00829111,6.1640284 2.6,7.664 C2.55692979,7.82293048 2.43837045,7.95046593 2.283,8.005 C0.721823552,8.57439344 -0.212846289,10.1745249 0.0580452334,11.8140671 C0.328936755,13.4536093 1.72864055,14.6680465 3.39,14.705 L7.133,14.705 C7.3353362,14.7050328 7.51770757,14.8270085 7.595,15.014 C8.12711597,16.3055363 9.38514287,17.1490893 10.782,17.151 L13.482,17.151 C13.7164541,17.1510922 13.9193579,17.3140805 13.97,17.543 L14.67,20.734 C14.7386965,21.0908007 14.9955254,21.3822624 15.3408462,21.4953086 C15.6861671,21.6083548 16.0656343,21.5251945 16.3320283,21.278091 C16.5984224,21.0309875 16.7098189,20.6588292 16.623,20.306 L15.666,15.937 C15.5655249,15.4783662 15.1595104,15.1513914 14.69,15.151 L10.79,15.151 C10.0855417,15.1505032 9.48395767,14.6424257 9.36558136,13.9479844 C9.24720505,13.253543 9.64648986,12.5748548 10.311,12.341 C10.8323568,12.1581937 11.1068062,11.5873568 10.924,11.066 C10.7411937,10.5446432 10.1703568,10.2701938 9.649,10.453 C8.71880606,10.7788084 7.97284057,11.4876394 7.6,12.4 C7.52288132,12.5877207 7.33994407,12.7102056 7.137,12.71 L3.388,12.71 C2.5997518,12.680726 1.98039643,12.0251302 1.99594551,11.2364918 C2.01149459,10.4478535 2.65621049,9.81718051 3.445,9.819 C3.71021649,9.819 3.9645704,9.71364316 4.15210678,9.52610678 C4.33964316,9.3385704 4.445,9.08421649 4.445,8.819 C4.44497326,8.07218547 4.78891145,7.36697814 5.37741061,6.90719485 C5.96590978,6.44741157 6.73337654,6.2842992 7.458,6.465 C7.62052789,6.5055677 7.75194206,6.6248292 7.80804115,6.78267073 C7.86414024,6.94051225 7.83746962,7.1159593 7.737,7.25 C7.38322242,7.72143317 7.15756354,8.27645064 7.082,8.861 C7.04799102,9.12410522 7.11992436,9.38994178 7.28196692,9.59999695 C7.44400948,9.81005212 7.68287957,9.9471089 7.946,9.981 C7.98876583,9.98662006 8.03186747,9.98929303 8.075,9.989 C8.57717157,9.98867629 9.00121996,9.61597584 9.066,9.118 C9.1612234,8.39856909 9.77429498,7.860742 10.5,7.86 L11.261,7.86 C13.1628689,7.85724494 14.7037969,6.31586966 14.706,4.414 C14.706,3.86171525 14.2582847,3.414 13.706,3.414 C13.1537153,3.414 12.706,3.86171525 12.706,4.414 C12.7054493,5.2119852 12.0589846,5.85889724 11.261,5.86 L10.5,5.86 C10.2925005,5.85994426 10.0931403,5.77926792 9.944,5.635 C9.52415757,5.23007581 9.02828729,4.9122974 8.485,4.7 C8.35018893,4.64751876 8.24471646,4.53922044 8.19581707,4.40306922 C8.14691769,4.266918 8.15938509,4.116261 8.23,3.99 C8.74167444,3.05896652 9.71962813,2.48031837 10.782,2.48 L13.218,2.48 C14.82612,2.4816536 16.1293464,3.78487996 16.131,5.393 C16.131,5.94528475 16.5787153,6.393 17.131,6.393 C17.7813618,6.39639826 18.4033842,6.65961575 18.8586413,7.12407565 C19.3138984,7.58853556 19.5646163,8.21570041 19.555,8.866 C19.5550614,9.35417787 19.9075952,9.77096248 20.389,9.852 C21.3190744,10.0049268 22.0012151,10.8094378 22,11.752 L22,13.219 C21.9988976,14.287214 21.133214,15.1528976 20.065,15.154 C19.5127153,15.154 19.065,15.6017153 19.065,16.154 C19.0656874,16.6507997 18.681587,17.0633033 18.186,17.098 C17.8964143,17.1213969 17.6313198,17.2695777 17.4596862,17.5039901 C17.2880525,17.7384026 17.2268494,18.0358698 17.292,18.319 L17.852,20.748 C17.9566458,21.2011687 18.3599062,21.5223679 18.825,21.523 C18.9010251,21.5230328 18.9768202,21.5146484 19.051,21.498 C19.3096729,21.4384765 19.5340686,21.2785542 19.6747478,21.0534674 C19.8154271,20.8283806 19.8608468,20.5565983 19.801,20.298 L19.532,19.132 C19.4854719,18.9294609 19.5690758,18.7192569 19.742,18.604 C20.2269337,18.2796386 20.6067681,17.8209182 20.835,17.284 C20.8941569,17.1457226 21.0124158,17.0414197 21.157,17 C22.8394269,16.5112415 23.9975753,14.9709815 24,13.219 L24,11.752 C24.003007,10.2220806 23.114324,8.83065693 21.725,8.19 Z" id="Path"></path>
                </g>
                <g id="study-brain-1-copy-3" opacity="0.699999988" transform="translate(40.304690, 181.576316) scale(-1, 1) rotate(14.000000) translate(-40.304690, -181.576316) translate(28.304690, 170.576316)" fill="#1454A7">
                    <path d="M18.108,12.262 C18.6602847,12.262 19.108,11.8142847 19.108,11.262 C19.108,9.35937904 17.565621,7.817 15.663,7.817 C13.760379,7.817 12.218,9.35937904 12.218,11.262 C12.218,11.8142847 12.6657153,12.262 13.218,12.262 C13.7702847,12.262 14.218,11.8142847 14.218,11.262 C14.218,10.4639485 14.8649485,9.817 15.663,9.817 C16.4610515,9.817 17.108,10.4639485 17.108,11.262 C17.108,11.8142847 17.5557153,12.262 18.108,12.262 Z" id="Path"></path>
                    <path d="M21.725,8.19 C21.5836573,8.12457536 21.480875,7.99702177 21.447,7.845 C21.0876807,6.26315122 19.8941235,5.003264 18.334,4.559 C18.1615574,4.51021582 18.0284112,4.372873 17.985,4.199 C17.4340571,2.01466749 15.47074,0.482975381 13.218,0.48 L10.782,0.48 C8.52896969,0.483091184 6.56555608,2.01527047 6.015,4.2 C5.97158884,4.373873 5.8384426,4.51121582 5.666,4.56 C4.17117119,4.98673558 3.00829111,6.1640284 2.6,7.664 C2.55692979,7.82293048 2.43837045,7.95046593 2.283,8.005 C0.721823552,8.57439344 -0.212846289,10.1745249 0.0580452334,11.8140671 C0.328936755,13.4536093 1.72864055,14.6680465 3.39,14.705 L7.133,14.705 C7.3353362,14.7050328 7.51770757,14.8270085 7.595,15.014 C8.12711597,16.3055363 9.38514287,17.1490893 10.782,17.151 L13.482,17.151 C13.7164541,17.1510922 13.9193579,17.3140805 13.97,17.543 L14.67,20.734 C14.7386965,21.0908007 14.9955254,21.3822624 15.3408462,21.4953086 C15.6861671,21.6083548 16.0656343,21.5251945 16.3320283,21.278091 C16.5984224,21.0309875 16.7098189,20.6588292 16.623,20.306 L15.666,15.937 C15.5655249,15.4783662 15.1595104,15.1513914 14.69,15.151 L10.79,15.151 C10.0855417,15.1505032 9.48395767,14.6424257 9.36558136,13.9479844 C9.24720505,13.253543 9.64648986,12.5748548 10.311,12.341 C10.8323568,12.1581937 11.1068062,11.5873568 10.924,11.066 C10.7411937,10.5446432 10.1703568,10.2701938 9.649,10.453 C8.71880606,10.7788084 7.97284057,11.4876394 7.6,12.4 C7.52288132,12.5877207 7.33994407,12.7102056 7.137,12.71 L3.388,12.71 C2.5997518,12.680726 1.98039643,12.0251302 1.99594551,11.2364918 C2.01149459,10.4478535 2.65621049,9.81718051 3.445,9.819 C3.71021649,9.819 3.9645704,9.71364316 4.15210678,9.52610678 C4.33964316,9.3385704 4.445,9.08421649 4.445,8.819 C4.44497326,8.07218547 4.78891145,7.36697814 5.37741061,6.90719485 C5.96590978,6.44741157 6.73337654,6.2842992 7.458,6.465 C7.62052789,6.5055677 7.75194206,6.6248292 7.80804115,6.78267073 C7.86414024,6.94051225 7.83746962,7.1159593 7.737,7.25 C7.38322242,7.72143317 7.15756354,8.27645064 7.082,8.861 C7.04799102,9.12410522 7.11992436,9.38994178 7.28196692,9.59999695 C7.44400948,9.81005212 7.68287957,9.9471089 7.946,9.981 C7.98876583,9.98662006 8.03186747,9.98929303 8.075,9.989 C8.57717157,9.98867629 9.00121996,9.61597584 9.066,9.118 C9.1612234,8.39856909 9.77429498,7.860742 10.5,7.86 L11.261,7.86 C13.1628689,7.85724494 14.7037969,6.31586966 14.706,4.414 C14.706,3.86171525 14.2582847,3.414 13.706,3.414 C13.1537153,3.414 12.706,3.86171525 12.706,4.414 C12.7054493,5.2119852 12.0589846,5.85889724 11.261,5.86 L10.5,5.86 C10.2925005,5.85994426 10.0931403,5.77926792 9.944,5.635 C9.52415757,5.23007581 9.02828729,4.9122974 8.485,4.7 C8.35018893,4.64751876 8.24471646,4.53922044 8.19581707,4.40306922 C8.14691769,4.266918 8.15938509,4.116261 8.23,3.99 C8.74167444,3.05896652 9.71962813,2.48031837 10.782,2.48 L13.218,2.48 C14.82612,2.4816536 16.1293464,3.78487996 16.131,5.393 C16.131,5.94528475 16.5787153,6.393 17.131,6.393 C17.7813618,6.39639826 18.4033842,6.65961575 18.8586413,7.12407565 C19.3138984,7.58853556 19.5646163,8.21570041 19.555,8.866 C19.5550614,9.35417787 19.9075952,9.77096248 20.389,9.852 C21.3190744,10.0049268 22.0012151,10.8094378 22,11.752 L22,13.219 C21.9988976,14.287214 21.133214,15.1528976 20.065,15.154 C19.5127153,15.154 19.065,15.6017153 19.065,16.154 C19.0656874,16.6507997 18.681587,17.0633033 18.186,17.098 C17.8964143,17.1213969 17.6313198,17.2695777 17.4596862,17.5039901 C17.2880525,17.7384026 17.2268494,18.0358698 17.292,18.319 L17.852,20.748 C17.9566458,21.2011687 18.3599062,21.5223679 18.825,21.523 C18.9010251,21.5230328 18.9768202,21.5146484 19.051,21.498 C19.3096729,21.4384765 19.5340686,21.2785542 19.6747478,21.0534674 C19.8154271,20.8283806 19.8608468,20.5565983 19.801,20.298 L19.532,19.132 C19.4854719,18.9294609 19.5690758,18.7192569 19.742,18.604 C20.2269337,18.2796386 20.6067681,17.8209182 20.835,17.284 C20.8941569,17.1457226 21.0124158,17.0414197 21.157,17 C22.8394269,16.5112415 23.9975753,14.9709815 24,13.219 L24,11.752 C24.003007,10.2220806 23.114324,8.83065693 21.725,8.19 Z" id="Path"></path>
                </g>
                <g id="study-brain-1-copy-8" opacity="0.600000024" transform="translate(338.304690, 32.576316) scale(-1, 1) rotate(14.000000) translate(-338.304690, -32.576316) translate(326.304690, 21.576316)" fill="#1454A7">
                    <path d="M18.108,12.262 C18.6602847,12.262 19.108,11.8142847 19.108,11.262 C19.108,9.35937904 17.565621,7.817 15.663,7.817 C13.760379,7.817 12.218,9.35937904 12.218,11.262 C12.218,11.8142847 12.6657153,12.262 13.218,12.262 C13.7702847,12.262 14.218,11.8142847 14.218,11.262 C14.218,10.4639485 14.8649485,9.817 15.663,9.817 C16.4610515,9.817 17.108,10.4639485 17.108,11.262 C17.108,11.8142847 17.5557153,12.262 18.108,12.262 Z" id="Path"></path>
                    <path d="M21.725,8.19 C21.5836573,8.12457536 21.480875,7.99702177 21.447,7.845 C21.0876807,6.26315122 19.8941235,5.003264 18.334,4.559 C18.1615574,4.51021582 18.0284112,4.372873 17.985,4.199 C17.4340571,2.01466749 15.47074,0.482975381 13.218,0.48 L10.782,0.48 C8.52896969,0.483091184 6.56555608,2.01527047 6.015,4.2 C5.97158884,4.373873 5.8384426,4.51121582 5.666,4.56 C4.17117119,4.98673558 3.00829111,6.1640284 2.6,7.664 C2.55692979,7.82293048 2.43837045,7.95046593 2.283,8.005 C0.721823552,8.57439344 -0.212846289,10.1745249 0.0580452334,11.8140671 C0.328936755,13.4536093 1.72864055,14.6680465 3.39,14.705 L7.133,14.705 C7.3353362,14.7050328 7.51770757,14.8270085 7.595,15.014 C8.12711597,16.3055363 9.38514287,17.1490893 10.782,17.151 L13.482,17.151 C13.7164541,17.1510922 13.9193579,17.3140805 13.97,17.543 L14.67,20.734 C14.7386965,21.0908007 14.9955254,21.3822624 15.3408462,21.4953086 C15.6861671,21.6083548 16.0656343,21.5251945 16.3320283,21.278091 C16.5984224,21.0309875 16.7098189,20.6588292 16.623,20.306 L15.666,15.937 C15.5655249,15.4783662 15.1595104,15.1513914 14.69,15.151 L10.79,15.151 C10.0855417,15.1505032 9.48395767,14.6424257 9.36558136,13.9479844 C9.24720505,13.253543 9.64648986,12.5748548 10.311,12.341 C10.8323568,12.1581937 11.1068062,11.5873568 10.924,11.066 C10.7411937,10.5446432 10.1703568,10.2701938 9.649,10.453 C8.71880606,10.7788084 7.97284057,11.4876394 7.6,12.4 C7.52288132,12.5877207 7.33994407,12.7102056 7.137,12.71 L3.388,12.71 C2.5997518,12.680726 1.98039643,12.0251302 1.99594551,11.2364918 C2.01149459,10.4478535 2.65621049,9.81718051 3.445,9.819 C3.71021649,9.819 3.9645704,9.71364316 4.15210678,9.52610678 C4.33964316,9.3385704 4.445,9.08421649 4.445,8.819 C4.44497326,8.07218547 4.78891145,7.36697814 5.37741061,6.90719485 C5.96590978,6.44741157 6.73337654,6.2842992 7.458,6.465 C7.62052789,6.5055677 7.75194206,6.6248292 7.80804115,6.78267073 C7.86414024,6.94051225 7.83746962,7.1159593 7.737,7.25 C7.38322242,7.72143317 7.15756354,8.27645064 7.082,8.861 C7.04799102,9.12410522 7.11992436,9.38994178 7.28196692,9.59999695 C7.44400948,9.81005212 7.68287957,9.9471089 7.946,9.981 C7.98876583,9.98662006 8.03186747,9.98929303 8.075,9.989 C8.57717157,9.98867629 9.00121996,9.61597584 9.066,9.118 C9.1612234,8.39856909 9.77429498,7.860742 10.5,7.86 L11.261,7.86 C13.1628689,7.85724494 14.7037969,6.31586966 14.706,4.414 C14.706,3.86171525 14.2582847,3.414 13.706,3.414 C13.1537153,3.414 12.706,3.86171525 12.706,4.414 C12.7054493,5.2119852 12.0589846,5.85889724 11.261,5.86 L10.5,5.86 C10.2925005,5.85994426 10.0931403,5.77926792 9.944,5.635 C9.52415757,5.23007581 9.02828729,4.9122974 8.485,4.7 C8.35018893,4.64751876 8.24471646,4.53922044 8.19581707,4.40306922 C8.14691769,4.266918 8.15938509,4.116261 8.23,3.99 C8.74167444,3.05896652 9.71962813,2.48031837 10.782,2.48 L13.218,2.48 C14.82612,2.4816536 16.1293464,3.78487996 16.131,5.393 C16.131,5.94528475 16.5787153,6.393 17.131,6.393 C17.7813618,6.39639826 18.4033842,6.65961575 18.8586413,7.12407565 C19.3138984,7.58853556 19.5646163,8.21570041 19.555,8.866 C19.5550614,9.35417787 19.9075952,9.77096248 20.389,9.852 C21.3190744,10.0049268 22.0012151,10.8094378 22,11.752 L22,13.219 C21.9988976,14.287214 21.133214,15.1528976 20.065,15.154 C19.5127153,15.154 19.065,15.6017153 19.065,16.154 C19.0656874,16.6507997 18.681587,17.0633033 18.186,17.098 C17.8964143,17.1213969 17.6313198,17.2695777 17.4596862,17.5039901 C17.2880525,17.7384026 17.2268494,18.0358698 17.292,18.319 L17.852,20.748 C17.9566458,21.2011687 18.3599062,21.5223679 18.825,21.523 C18.9010251,21.5230328 18.9768202,21.5146484 19.051,21.498 C19.3096729,21.4384765 19.5340686,21.2785542 19.6747478,21.0534674 C19.8154271,20.8283806 19.8608468,20.5565983 19.801,20.298 L19.532,19.132 C19.4854719,18.9294609 19.5690758,18.7192569 19.742,18.604 C20.2269337,18.2796386 20.6067681,17.8209182 20.835,17.284 C20.8941569,17.1457226 21.0124158,17.0414197 21.157,17 C22.8394269,16.5112415 23.9975753,14.9709815 24,13.219 L24,11.752 C24.003007,10.2220806 23.114324,8.83065693 21.725,8.19 Z" id="Path"></path>
                </g>
                <g id="study-brain-1-copy-4" opacity="0.400000006" transform="translate(103.000000, 134.000000) scale(-1, 1) translate(-103.000000, -134.000000) translate(91.000000, 123.000000)" fill="#1454A7">
                    <path d="M18.108,12.262 C18.6602847,12.262 19.108,11.8142847 19.108,11.262 C19.108,9.35937904 17.565621,7.817 15.663,7.817 C13.760379,7.817 12.218,9.35937904 12.218,11.262 C12.218,11.8142847 12.6657153,12.262 13.218,12.262 C13.7702847,12.262 14.218,11.8142847 14.218,11.262 C14.218,10.4639485 14.8649485,9.817 15.663,9.817 C16.4610515,9.817 17.108,10.4639485 17.108,11.262 C17.108,11.8142847 17.5557153,12.262 18.108,12.262 Z" id="Path"></path>
                    <path d="M21.725,8.19 C21.5836573,8.12457536 21.480875,7.99702177 21.447,7.845 C21.0876807,6.26315122 19.8941235,5.003264 18.334,4.559 C18.1615574,4.51021582 18.0284112,4.372873 17.985,4.199 C17.4340571,2.01466749 15.47074,0.482975381 13.218,0.48 L10.782,0.48 C8.52896969,0.483091184 6.56555608,2.01527047 6.015,4.2 C5.97158884,4.373873 5.8384426,4.51121582 5.666,4.56 C4.17117119,4.98673558 3.00829111,6.1640284 2.6,7.664 C2.55692979,7.82293048 2.43837045,7.95046593 2.283,8.005 C0.721823552,8.57439344 -0.212846289,10.1745249 0.0580452334,11.8140671 C0.328936755,13.4536093 1.72864055,14.6680465 3.39,14.705 L7.133,14.705 C7.3353362,14.7050328 7.51770757,14.8270085 7.595,15.014 C8.12711597,16.3055363 9.38514287,17.1490893 10.782,17.151 L13.482,17.151 C13.7164541,17.1510922 13.9193579,17.3140805 13.97,17.543 L14.67,20.734 C14.7386965,21.0908007 14.9955254,21.3822624 15.3408462,21.4953086 C15.6861671,21.6083548 16.0656343,21.5251945 16.3320283,21.278091 C16.5984224,21.0309875 16.7098189,20.6588292 16.623,20.306 L15.666,15.937 C15.5655249,15.4783662 15.1595104,15.1513914 14.69,15.151 L10.79,15.151 C10.0855417,15.1505032 9.48395767,14.6424257 9.36558136,13.9479844 C9.24720505,13.253543 9.64648986,12.5748548 10.311,12.341 C10.8323568,12.1581937 11.1068062,11.5873568 10.924,11.066 C10.7411937,10.5446432 10.1703568,10.2701938 9.649,10.453 C8.71880606,10.7788084 7.97284057,11.4876394 7.6,12.4 C7.52288132,12.5877207 7.33994407,12.7102056 7.137,12.71 L3.388,12.71 C2.5997518,12.680726 1.98039643,12.0251302 1.99594551,11.2364918 C2.01149459,10.4478535 2.65621049,9.81718051 3.445,9.819 C3.71021649,9.819 3.9645704,9.71364316 4.15210678,9.52610678 C4.33964316,9.3385704 4.445,9.08421649 4.445,8.819 C4.44497326,8.07218547 4.78891145,7.36697814 5.37741061,6.90719485 C5.96590978,6.44741157 6.73337654,6.2842992 7.458,6.465 C7.62052789,6.5055677 7.75194206,6.6248292 7.80804115,6.78267073 C7.86414024,6.94051225 7.83746962,7.1159593 7.737,7.25 C7.38322242,7.72143317 7.15756354,8.27645064 7.082,8.861 C7.04799102,9.12410522 7.11992436,9.38994178 7.28196692,9.59999695 C7.44400948,9.81005212 7.68287957,9.9471089 7.946,9.981 C7.98876583,9.98662006 8.03186747,9.98929303 8.075,9.989 C8.57717157,9.98867629 9.00121996,9.61597584 9.066,9.118 C9.1612234,8.39856909 9.77429498,7.860742 10.5,7.86 L11.261,7.86 C13.1628689,7.85724494 14.7037969,6.31586966 14.706,4.414 C14.706,3.86171525 14.2582847,3.414 13.706,3.414 C13.1537153,3.414 12.706,3.86171525 12.706,4.414 C12.7054493,5.2119852 12.0589846,5.85889724 11.261,5.86 L10.5,5.86 C10.2925005,5.85994426 10.0931403,5.77926792 9.944,5.635 C9.52415757,5.23007581 9.02828729,4.9122974 8.485,4.7 C8.35018893,4.64751876 8.24471646,4.53922044 8.19581707,4.40306922 C8.14691769,4.266918 8.15938509,4.116261 8.23,3.99 C8.74167444,3.05896652 9.71962813,2.48031837 10.782,2.48 L13.218,2.48 C14.82612,2.4816536 16.1293464,3.78487996 16.131,5.393 C16.131,5.94528475 16.5787153,6.393 17.131,6.393 C17.7813618,6.39639826 18.4033842,6.65961575 18.8586413,7.12407565 C19.3138984,7.58853556 19.5646163,8.21570041 19.555,8.866 C19.5550614,9.35417787 19.9075952,9.77096248 20.389,9.852 C21.3190744,10.0049268 22.0012151,10.8094378 22,11.752 L22,13.219 C21.9988976,14.287214 21.133214,15.1528976 20.065,15.154 C19.5127153,15.154 19.065,15.6017153 19.065,16.154 C19.0656874,16.6507997 18.681587,17.0633033 18.186,17.098 C17.8964143,17.1213969 17.6313198,17.2695777 17.4596862,17.5039901 C17.2880525,17.7384026 17.2268494,18.0358698 17.292,18.319 L17.852,20.748 C17.9566458,21.2011687 18.3599062,21.5223679 18.825,21.523 C18.9010251,21.5230328 18.9768202,21.5146484 19.051,21.498 C19.3096729,21.4384765 19.5340686,21.2785542 19.6747478,21.0534674 C19.8154271,20.8283806 19.8608468,20.5565983 19.801,20.298 L19.532,19.132 C19.4854719,18.9294609 19.5690758,18.7192569 19.742,18.604 C20.2269337,18.2796386 20.6067681,17.8209182 20.835,17.284 C20.8941569,17.1457226 21.0124158,17.0414197 21.157,17 C22.8394269,16.5112415 23.9975753,14.9709815 24,13.219 L24,11.752 C24.003007,10.2220806 23.114324,8.83065693 21.725,8.19 Z" id="Path"></path>
                </g>
                <g id="study-brain-1-copy-7" opacity="0.200000003" transform="translate(346.000000, 157.000000) scale(-1, 1) translate(-346.000000, -157.000000) translate(334.000000, 146.000000)" fill="#1454A7">
                    <path d="M18.108,12.262 C18.6602847,12.262 19.108,11.8142847 19.108,11.262 C19.108,9.35937904 17.565621,7.817 15.663,7.817 C13.760379,7.817 12.218,9.35937904 12.218,11.262 C12.218,11.8142847 12.6657153,12.262 13.218,12.262 C13.7702847,12.262 14.218,11.8142847 14.218,11.262 C14.218,10.4639485 14.8649485,9.817 15.663,9.817 C16.4610515,9.817 17.108,10.4639485 17.108,11.262 C17.108,11.8142847 17.5557153,12.262 18.108,12.262 Z" id="Path"></path>
                    <path d="M21.725,8.19 C21.5836573,8.12457536 21.480875,7.99702177 21.447,7.845 C21.0876807,6.26315122 19.8941235,5.003264 18.334,4.559 C18.1615574,4.51021582 18.0284112,4.372873 17.985,4.199 C17.4340571,2.01466749 15.47074,0.482975381 13.218,0.48 L10.782,0.48 C8.52896969,0.483091184 6.56555608,2.01527047 6.015,4.2 C5.97158884,4.373873 5.8384426,4.51121582 5.666,4.56 C4.17117119,4.98673558 3.00829111,6.1640284 2.6,7.664 C2.55692979,7.82293048 2.43837045,7.95046593 2.283,8.005 C0.721823552,8.57439344 -0.212846289,10.1745249 0.0580452334,11.8140671 C0.328936755,13.4536093 1.72864055,14.6680465 3.39,14.705 L7.133,14.705 C7.3353362,14.7050328 7.51770757,14.8270085 7.595,15.014 C8.12711597,16.3055363 9.38514287,17.1490893 10.782,17.151 L13.482,17.151 C13.7164541,17.1510922 13.9193579,17.3140805 13.97,17.543 L14.67,20.734 C14.7386965,21.0908007 14.9955254,21.3822624 15.3408462,21.4953086 C15.6861671,21.6083548 16.0656343,21.5251945 16.3320283,21.278091 C16.5984224,21.0309875 16.7098189,20.6588292 16.623,20.306 L15.666,15.937 C15.5655249,15.4783662 15.1595104,15.1513914 14.69,15.151 L10.79,15.151 C10.0855417,15.1505032 9.48395767,14.6424257 9.36558136,13.9479844 C9.24720505,13.253543 9.64648986,12.5748548 10.311,12.341 C10.8323568,12.1581937 11.1068062,11.5873568 10.924,11.066 C10.7411937,10.5446432 10.1703568,10.2701938 9.649,10.453 C8.71880606,10.7788084 7.97284057,11.4876394 7.6,12.4 C7.52288132,12.5877207 7.33994407,12.7102056 7.137,12.71 L3.388,12.71 C2.5997518,12.680726 1.98039643,12.0251302 1.99594551,11.2364918 C2.01149459,10.4478535 2.65621049,9.81718051 3.445,9.819 C3.71021649,9.819 3.9645704,9.71364316 4.15210678,9.52610678 C4.33964316,9.3385704 4.445,9.08421649 4.445,8.819 C4.44497326,8.07218547 4.78891145,7.36697814 5.37741061,6.90719485 C5.96590978,6.44741157 6.73337654,6.2842992 7.458,6.465 C7.62052789,6.5055677 7.75194206,6.6248292 7.80804115,6.78267073 C7.86414024,6.94051225 7.83746962,7.1159593 7.737,7.25 C7.38322242,7.72143317 7.15756354,8.27645064 7.082,8.861 C7.04799102,9.12410522 7.11992436,9.38994178 7.28196692,9.59999695 C7.44400948,9.81005212 7.68287957,9.9471089 7.946,9.981 C7.98876583,9.98662006 8.03186747,9.98929303 8.075,9.989 C8.57717157,9.98867629 9.00121996,9.61597584 9.066,9.118 C9.1612234,8.39856909 9.77429498,7.860742 10.5,7.86 L11.261,7.86 C13.1628689,7.85724494 14.7037969,6.31586966 14.706,4.414 C14.706,3.86171525 14.2582847,3.414 13.706,3.414 C13.1537153,3.414 12.706,3.86171525 12.706,4.414 C12.7054493,5.2119852 12.0589846,5.85889724 11.261,5.86 L10.5,5.86 C10.2925005,5.85994426 10.0931403,5.77926792 9.944,5.635 C9.52415757,5.23007581 9.02828729,4.9122974 8.485,4.7 C8.35018893,4.64751876 8.24471646,4.53922044 8.19581707,4.40306922 C8.14691769,4.266918 8.15938509,4.116261 8.23,3.99 C8.74167444,3.05896652 9.71962813,2.48031837 10.782,2.48 L13.218,2.48 C14.82612,2.4816536 16.1293464,3.78487996 16.131,5.393 C16.131,5.94528475 16.5787153,6.393 17.131,6.393 C17.7813618,6.39639826 18.4033842,6.65961575 18.8586413,7.12407565 C19.3138984,7.58853556 19.5646163,8.21570041 19.555,8.866 C19.5550614,9.35417787 19.9075952,9.77096248 20.389,9.852 C21.3190744,10.0049268 22.0012151,10.8094378 22,11.752 L22,13.219 C21.9988976,14.287214 21.133214,15.1528976 20.065,15.154 C19.5127153,15.154 19.065,15.6017153 19.065,16.154 C19.0656874,16.6507997 18.681587,17.0633033 18.186,17.098 C17.8964143,17.1213969 17.6313198,17.2695777 17.4596862,17.5039901 C17.2880525,17.7384026 17.2268494,18.0358698 17.292,18.319 L17.852,20.748 C17.9566458,21.2011687 18.3599062,21.5223679 18.825,21.523 C18.9010251,21.5230328 18.9768202,21.5146484 19.051,21.498 C19.3096729,21.4384765 19.5340686,21.2785542 19.6747478,21.0534674 C19.8154271,20.8283806 19.8608468,20.5565983 19.801,20.298 L19.532,19.132 C19.4854719,18.9294609 19.5690758,18.7192569 19.742,18.604 C20.2269337,18.2796386 20.6067681,17.8209182 20.835,17.284 C20.8941569,17.1457226 21.0124158,17.0414197 21.157,17 C22.8394269,16.5112415 23.9975753,14.9709815 24,13.219 L24,11.752 C24.003007,10.2220806 23.114324,8.83065693 21.725,8.19 Z" id="Path"></path>
                </g>
                <g id="Spacity-logo-2.0" transform="translate(136.000000, 68.000000)">
                    <g id="Group">
                        <g id="Opacity-Logo">
                            <path d="M41.6583517,41.42 C46.8090642,36.259043 54.2846263,34.1845184 61.3512308,35.9550782 C68.4178353,37.7256381 74.0390739,43.081607 76.1592641,50.0643114 C71.4925963,48.6469083 66.4772559,48.9175448 61.9895007,50.8289366 C61.9265326,50.7596791 61.8620446,50.6919969 61.7945167,50.6243168 C58.7002058,47.5305932 53.6896499,47.5333342 50.5987122,50.6304415 C47.5077745,53.7275487 47.5050389,58.7481057 50.5925997,61.8485929 C50.6939198,61.9501152 50.7967749,62.0470121 50.9027438,62.1408761 C49.1266558,66.5510432 48.9093931,71.4372404 50.2870284,75.9881969 C43.3186125,73.8638929 37.9734843,68.2319214 36.2061662,61.151693 C34.438848,54.0714646 36.5085104,46.5812678 41.6583517,41.42 Z" id="Path" fill="#FFFFFF"></path>
                            <path d="M16.1157825,15.9310157 C37.3143891,-5.30990345 71.6847424,-5.30990345 92.8833512,15.9310157 C104.704499,27.7505295 110.424435,44.3724181 108.385789,60.9804329 C102.811768,55.6845964 95.5866207,52.4752911 87.9272276,51.8930376 C87.345536,44.1828359 84.1157021,36.9127456 78.7872801,31.3197685 C78.595362,31.1183034 78.4003692,30.91676 78.2023019,30.7182973 C69.7277351,22.2223563 57.3728679,18.9029496 45.793083,22.010848 C34.2132981,25.1187464 25.1684825,34.1816139 22.066773,45.7845116 C18.9650635,57.3874092 22.2778557,69.7669375 30.7568709,78.2584211 C30.9856363,78.4876431 31.2164514,78.7127589 31.4493162,78.9337685 C37.0205912,84.2198783 44.2386257,87.4223996 51.8894695,88.002723 C52.4673025,95.6334043 55.6373052,102.835266 60.8712736,108.408293 C44.3605635,110.380974 27.8604331,104.645724 16.1157825,92.8518132 C-5.08283068,71.610894 -5.08283068,37.171935 16.1157825,15.9310157 Z" id="Path" fill="#FFFFFF"></path>
                            <path d="M105.381569,79.8587673 C104.925467,78.126702 104.246279,76.4614983 103.361124,74.9051307 C103.305779,74.8035714 103.245877,74.7036069 103.187566,74.6051283 C103.115366,74.480518 103.038712,74.3573937 102.961954,74.234376 C97.4337423,65.3055632 86.1244885,61.9151972 76.6105892,66.3345825 C76.2317578,65.5841481 75.7357664,64.8991399 75.1413474,64.305429 C75.0952265,64.2592182 75.0476247,64.2116259 75.0001272,64.1669011 C71.9318225,61.2421972 67.1103483,61.2530928 64.0552406,64.1916344 C61.000133,67.130176 60.7922017,71.9567916 63.5832306,75.148192 C63.6967903,75.2774777 63.8149924,75.4050621 63.9393566,75.5296746 C64.5995819,76.1930877 65.37209,76.7338077 66.2209328,77.1266725 C64.5332245,81.1574809 64.1539987,85.6181879 65.1369713,89.8769508 C65.5371067,91.6230569 66.1637194,93.3091424 67.0008278,94.892204 C67.077586,95.0430548 67.1606019,95.1936923 67.2451008,95.3429483 C67.407843,95.6353011 67.5782195,95.9260614 67.7577134,96.2106601 C67.8022406,96.2828917 67.8483615,96.3537547 67.8943738,96.4245068 C73.2807024,104.8115 83.8523421,108.183996 93.0865016,104.461136 C93.0958626,104.47709 93.1060912,104.492516 93.117141,104.507346 C98.0980688,102.488325 102.106233,98.6166307 104.302276,93.7030423 C104.290615,93.6929778 104.278289,93.6837145 104.265381,93.6753158 C106.201347,89.332695 106.595249,84.4568532 105.381569,79.8587673 Z M88.0477464,87.0190752 L88.0477464,95.6346637 L82.31538,95.6346637 L82.31538,87.0190752 L74.4094819,87.0190752 L85.1769969,74.086606 L95.9536315,87.0190752 L88.0477464,87.0190752 Z" id="Shape" fill="#FFFFFF" fill-rule="nonzero"></path>
                            <path d="M41.6583517,41.42 C46.8090642,36.259043 54.2846263,34.1845184 61.3512308,35.9550782 C68.4178353,37.7256381 74.0390739,43.081607 76.1592641,50.0643114 C71.4925963,48.6469083 66.4772559,48.9175448 61.9895007,50.8289366 C61.9265326,50.7596791 61.8620446,50.6919969 61.7945167,50.6243168 C58.7002058,47.5305932 53.6896499,47.5333342 50.5987122,50.6304415 C47.5077745,53.7275487 47.5050389,58.7481057 50.5925997,61.8485929 C50.6939198,61.9501152 50.7967749,62.0470121 50.9027438,62.1408761 C49.1266558,66.5510432 48.9093931,71.4372404 50.2870284,75.9881969 C43.3186125,73.8638929 37.9734843,68.2319214 36.2061662,61.151693 C34.438848,54.0714646 36.5085104,46.5812678 41.6583517,41.42 Z" id="Path" fill="#2E6DDE"></path>
                            <path d="M16.1157825,15.9310157 C37.3143891,-5.30990345 71.6847424,-5.30990345 92.8833512,15.9310157 C104.704499,27.7505295 110.424435,44.3724181 108.385789,60.9804329 C102.811768,55.6845964 95.5866207,52.4752911 87.9272276,51.8930376 C87.345536,44.1828359 84.1157021,36.9127456 78.7872801,31.3197685 C78.595362,31.1183034 78.4003692,30.91676 78.2023019,30.7182973 C69.7277351,22.2223563 57.3728679,18.9029496 45.793083,22.010848 C34.2132981,25.1187464 25.1684825,34.1816139 22.066773,45.7845116 C18.9650635,57.3874092 22.2778557,69.7669375 30.7568709,78.2584211 C30.9856363,78.4876431 31.2164514,78.7127589 31.4493162,78.9337685 C37.0205912,84.2198783 44.2386257,87.4223996 51.8894695,88.002723 C52.4673025,95.6334043 55.6373052,102.835266 60.8712736,108.408293 C44.3605635,110.380974 27.8604331,104.645724 16.1157825,92.8518132 C-5.08283068,71.610894 -5.08283068,37.171935 16.1157825,15.9310157 Z" id="Path" fill="#2E6DDE"></path>
                            <path d="M105.381569,79.8587673 C104.925467,78.126702 104.246279,76.4614983 103.361124,74.9051307 C103.305779,74.8035714 103.245877,74.7036069 103.187566,74.6051283 C103.115366,74.480518 103.038712,74.3573937 102.961954,74.234376 C97.4337423,65.3055632 86.1244885,61.9151972 76.6105892,66.3345825 C76.2317578,65.5841481 75.7357664,64.8991399 75.1413474,64.305429 C75.0952265,64.2592182 75.0476247,64.2116259 75.0001272,64.1669011 C71.9318225,61.2421972 67.1103483,61.2530928 64.0552406,64.1916344 C61.000133,67.130176 60.7922017,71.9567916 63.5832306,75.148192 C63.6967903,75.2774777 63.8149924,75.4050621 63.9393566,75.5296746 C64.5995819,76.1930877 65.37209,76.7338077 66.2209328,77.1266725 C64.5332245,81.1574809 64.1539987,85.6181879 65.1369713,89.8769508 C65.5371067,91.6230569 66.1637194,93.3091424 67.0008278,94.892204 C67.077586,95.0430548 67.1606019,95.1936923 67.2451008,95.3429483 C67.407843,95.6353011 67.5782195,95.9260614 67.7577134,96.2106601 C67.8022406,96.2828917 67.8483615,96.3537547 67.8943738,96.4245068 C73.2807024,104.8115 83.8523421,108.183996 93.0865016,104.461136 C93.0958626,104.47709 93.1060912,104.492516 93.117141,104.507346 C98.0980688,102.488325 102.106233,98.6166307 104.302276,93.7030423 C104.290615,93.6929778 104.278289,93.6837145 104.265381,93.6753158 C106.201347,89.332695 106.595249,84.4568532 105.381569,79.8587673 Z M88.0477464,87.0190752 L88.0477464,95.6346637 L82.31538,95.6346637 L82.31538,87.0190752 L74.4094819,87.0190752 L85.1769969,74.086606 L95.9536315,87.0190752 L88.0477464,87.0190752 Z" id="Shape" fill="#2E6DDE" fill-rule="nonzero"></path>
                        </g>
                    </g>
                </g>
            </g>
        </g>
    </g>
</svg>