<svg xmlns="http://www.w3.org/2000/svg" width="401.998" height="401.998"><path d="M377.87 24.126C361.786 8.042 342.417 0 319.769 0H82.227C59.579 0 40.211 8.042 24.125 24.126 8.044 40.212.002 59.576.002 82.228v237.543c0 22.647 8.042 42.014 24.123 58.101 16.086 16.085 35.454 24.127 58.102 24.127h237.542c22.648 0 42.011-8.042 58.102-24.127 16.085-16.087 24.126-35.453 24.126-58.101V82.228c-.004-22.648-8.046-42.016-24.127-58.102zm-12.422 295.645c0 12.559-4.47 23.314-13.415 32.264-8.945 8.945-19.698 13.411-32.265 13.411H82.227c-12.563 0-23.317-4.466-32.264-13.411-8.945-8.949-13.418-19.705-13.418-32.264V82.228c0-12.562 4.473-23.316 13.418-32.264 8.947-8.946 19.701-13.418 32.264-13.418h237.542c12.566 0 23.319 4.473 32.265 13.418 8.945 8.947 13.415 19.701 13.415 32.264v237.543h-.001z"/></svg>