<?xml version="1.0" encoding="UTF-8"?>
<svg width="22px" height="22px" viewBox="0 0 22 22" version="1.1" xmlns="http://www.w3.org/2000/svg" xmlns:xlink="http://www.w3.org/1999/xlink">
    <!-- Generator: Sketch 52 (66869) - http://www.bohemiancoding.com/sketch -->
    <title>Checkmark</title>
    <desc>Created with Sketch.</desc>
    <g id="User-Signup-and-Login" stroke="none" stroke-width="1" fill="none" fill-rule="evenodd">
        <g id="Confirm-Payment-stage-3-Desktop-Light" transform="translate(-549.000000, -497.000000)">
            <g id="Checkmark" transform="translate(550.000000, 498.000000)">
                <circle id="Oval-Copy" stroke="#2E6DDE" fill-rule="nonzero" cx="10" cy="10" r="10"></circle>
                <path d="M14.6758621,6.02861557 C14.5931034,5.98755661 14.5103448,5.98755661 14.4275862,6.04914506 L8.34482759,10.8530443 L5.57241379,8.88221382 C5.48965517,8.82062537 5.3862069,8.84115486 5.30344828,8.90274331 L4.06206897,10.1345123 C3.97931034,10.2166303 3.97931034,10.3398072 4.06206897,10.4219251 L8.2,14.9384115 C8.24137931,14.9794705 8.30344828,15 8.34482759,15 C8.34482759,15 8.34482759,15 8.34482759,15 C8.40689655,15 8.44827586,14.9794705 8.48965517,14.9384115 L15.937931,7.1372077 C15.9793103,7.09614873 16,7.03456028 16,6.97297183 C16,6.91138338 15.9586207,6.84979493 15.9172414,6.82926544 L14.6758621,6.02861557 Z" id="Path-Copy" fill="#2E6DDE"></path>
            </g>
        </g>
    </g>
</svg>