<?xml version="1.0" encoding="utf-8"?>
<!-- Generator: Adobe Illustrator 19.2.0, SVG Export Plug-In . SVG Version: 6.00 Build 0)  -->
<svg version="1.1" id="Vrstva_1" xmlns="http://www.w3.org/2000/svg" xmlns:xlink="http://www.w3.org/1999/xlink" x="0px" y="0px"
	 viewBox="0 0 21.9 21.9" style="enable-background:new 0 0 21.9 21.9;" xml:space="preserve">
<style type="text/css">
	.st0{fill:#FFFFFF;}
</style>
<path class="st0" d="M14.1,11.3c-0.2-0.2-0.2-0.5,0-0.7l7.5-7.5c0.2-0.2,0.3-0.5,0.3-0.7s-0.1-0.5-0.3-0.7l-1.4-1.4
	C20,0.1,19.7,0,19.5,0c-0.3,0-0.5,0.1-0.7,0.3l-7.5,7.5c-0.2,0.2-0.5,0.2-0.7,0L3.1,0.3C2.9,0.1,2.6,0,2.4,0S1.9,0.1,1.7,0.3
	L0.3,1.7C0.1,1.9,0,2.2,0,2.4s0.1,0.5,0.3,0.7l7.5,7.5c0.2,0.2,0.2,0.5,0,0.7l-7.5,7.5C0.1,19,0,19.3,0,19.5s0.1,0.5,0.3,0.7
	l1.4,1.4c0.2,0.2,0.5,0.3,0.7,0.3s0.5-0.1,0.7-0.3l7.5-7.5c0.2-0.2,0.5-0.2,0.7,0l7.5,7.5c0.2,0.2,0.5,0.3,0.7,0.3s0.5-0.1,0.7-0.3
	l1.4-1.4c0.2-0.2,0.3-0.5,0.3-0.7s-0.1-0.5-0.3-0.7L14.1,11.3z"/>
</svg>
