<?xml version="1.0" encoding="UTF-8"?>
<svg width="12px" height="12px" viewBox="0 0 12 12" version="1.1" xmlns="http://www.w3.org/2000/svg" xmlns:xlink="http://www.w3.org/1999/xlink">
    <!-- Generator: Sketch 52 (66869) - http://www.bohemiancoding.com/sketch -->
    <title>add-circle-bold</title>
    <desc>Created with Sketch.</desc>
    <g id="User-Signup-and-Login" stroke="none" stroke-width="1" fill="none" fill-rule="evenodd">
        <g id="Subscription-Tablet-Light" transform="translate(-76.000000, -386.000000)" fill="#2E6DDE" fill-rule="nonzero">
            <g id="add-circle-bold" transform="translate(76.000000, 386.000000)">
                <path d="M0,6 C2.31698718e-16,9.3137085 2.6862915,12 6,12 C9.3137085,12 12,9.3137085 12,6 C12,2.6862915 9.3137085,2.31698718e-16 6,0 C2.687841,0.00373784523 0.00373784523,2.687841 0,6 Z M2.60869565,5.73913043 C2.60869565,5.45098187 2.84228622,5.2173913 3.13043478,5.2173913 L5.08695652,5.2173913 C5.15899366,5.2173913 5.2173913,5.15899366 5.2173913,5.08695652 L5.2173913,3.13043478 C5.2173913,2.84228622 5.45098187,2.60869565 5.73913043,2.60869565 L6.26086957,2.60869565 C6.54901813,2.60869565 6.7826087,2.84228622 6.7826087,3.13043478 L6.7826087,5.08695652 C6.7826087,5.15899366 6.84100634,5.2173913 6.91304348,5.2173913 L8.86956522,5.2173913 C9.15771378,5.2173913 9.39130435,5.45098187 9.39130435,5.73913043 L9.39130435,6.26086957 C9.39130435,6.54901813 9.15771378,6.7826087 8.86956522,6.7826087 L6.91304348,6.7826087 C6.84100634,6.7826087 6.7826087,6.84100634 6.7826087,6.91304348 L6.7826087,8.86956522 C6.7826087,9.15771378 6.54901813,9.39130435 6.26086957,9.39130435 L5.73913043,9.39130435 C5.45098187,9.39130435 5.2173913,9.15771378 5.2173913,8.86956522 L5.2173913,6.91304348 C5.2173913,6.84100634 5.15899366,6.7826087 5.08695652,6.7826087 L3.13043478,6.7826087 C2.84228622,6.7826087 2.60869565,6.54901813 2.60869565,6.26086957 L2.60869565,5.73913043 Z" id="Shape"></path>
            </g>
        </g>
    </g>
</svg>