<svg xmlns="http://www.w3.org/2000/svg" viewBox="0 0 512 512"><path d="M494.4 70.6C483.1 59.3 468 53 452 53H258.3c-5.4.1-10.4-2.6-13.3-7L214.3 0H60C26.9 0 0 26.9 0 60v322.1c0 33.1 26.9 60 60 60h204v-40H60c-11 0-20-9-20-20V166c0-5.3 2.1-10.4 5.9-14.1 3.8-3.8 8.8-5.9 14.1-5.9h153.5l31.3-45.5.2-.2c2.8-4.3 8.2-7.2 13-7.2H258.3L452 93c5.3 0 10.4 2.1 14.1 5.9s5.9 8.8 5.9 14.1v200h40V113c0-16-6.2-31.1-17.6-42.4zM211.8 78l-19.3 28H60c-6.9 0-13.7 1.2-20 3.4V60c0-11 9-20 20-20h132.9l18.8 28.3c1.1 1.7 2.4 3.4 3.7 4.9-1.3 1.5-2.5 3.1-3.6 4.8zM428 353h84v40h-84v84h-40v-84h-84v-40h84v-84h40v84z" fill="#fff"/></svg>