<?xml version="1.0" encoding="UTF-8"?>
<svg width="22px" height="22px" viewBox="0 0 22 22" version="1.1" xmlns="http://www.w3.org/2000/svg" xmlns:xlink="http://www.w3.org/1999/xlink">
    <!-- Generator: Sketch 52 (66869) - http://www.bohemiancoding.com/sketch -->
    <title>folder-16</title>
    <desc>Created with Sketch.</desc>
    <g id="Page-1" stroke="none" stroke-width="1" fill="none" fill-rule="evenodd">
        <g id="upload-Stage-1" transform="translate(-579.000000, -471.000000)">
            <g id="Select-a-File" transform="translate(249.000000, 431.000000)">
                <g id="folder-16" transform="translate(330.000000, 40.000000)">
                    <path d="M20.625,10 L1.375,10 C0.55,10 0,10.5333333 0,11.3333333 L0,20.6666667 C0,21.4666667 0.55,22 1.375,22 L20.625,22 C21.45,22 22,21.4666667 22,20.6666667 L22,11.3333333 C22,10.5333333 21.45,10 20.625,10 Z" id="Path" fill="#FFFFFF"></path>
                    <path d="M19.6428571,2.8 L10.6857143,2.8 L8.37857143,0.42 C8.10714286,0.14 7.83571429,0 7.42857143,0 L3.35714286,0 C2.54285714,0 2,0.56 2,1.4 L2,7 L21,7 L21,4.2 C21,3.36 20.4571429,2.8 19.6428571,2.8 Z" id="Path" fill="#2E3854"></path>
                </g>
            </g>
        </g>
    </g>
</svg>