<?xml version="1.0" encoding="UTF-8"?>
<svg width="16px" height="18px" viewBox="0 0 16 18" version="1.1" xmlns="http://www.w3.org/2000/svg" xmlns:xlink="http://www.w3.org/1999/xlink">
    <!-- Generator: Sketch 52 (66869) - http://www.bohemiancoding.com/sketch -->
    <title>copy2clipboard</title>
    <desc>Created with Sketch.</desc>
    <g id="User-Signup-and-Login" stroke="none" stroke-width="1" fill="none" fill-rule="evenodd">
        <g id="Recovery-Handle-PIN-Desktop-Light" transform="translate(-903.000000, -605.000000)">
            <g id="copy2clipboard" transform="translate(903.000000, 605.000000)">
                <path d="M11.0344828,4.4137931 L0.551724138,4.4137931 C0.246896552,4.4137931 0,4.66068966 0,4.96551724 L0,16.5517241 C0,16.8565517 0.246896552,17.1034483 0.551724138,17.1034483 L11.0344828,17.1034483 C11.3393103,17.1034483 11.5862069,16.8565517 11.5862069,16.5517241 L11.5862069,4.96551724 C11.5862069,4.66068966 11.3393103,4.4137931 11.0344828,4.4137931 Z" id="Path" fill="#FFFFFF"></path>
                <path d="M15.4482759,12.6896552 L14.3448276,12.6896552 L14.3448276,2.20689655 C14.3448276,1.90206897 14.097931,1.65517241 13.7931034,1.65517241 L4.4137931,1.65517241 L4.4137931,0.551724138 C4.4137931,0.246896552 4.66068966,0 4.96551724,0 L15.4482759,0 C15.7531034,0 16,0.246896552 16,0.551724138 L16,12.137931 C16,12.4427586 15.7531034,12.6896552 15.4482759,12.6896552 Z" id="Path" fill="#80B9FF"></path>
                <path d="M13.2413793,14.8965517 L12.137931,14.8965517 L12.137931,4.4137931 C12.137931,4.10896552 11.8910345,3.86206897 11.5862069,3.86206897 L2.20689655,3.86206897 L2.20689655,2.75862069 C2.20689655,2.4537931 2.4537931,2.20689655 2.75862069,2.20689655 L13.2413793,2.20689655 C13.5462069,2.20689655 13.7931034,2.4537931 13.7931034,2.75862069 L13.7931034,14.3448276 C13.7931034,14.6496552 13.5462069,14.8965517 13.2413793,14.8965517 Z" id="Path" fill="#80B9FF"></path>
            </g>
        </g>
    </g>
</svg>