<svg xmlns="http://www.w3.org/2000/svg" width="34" height="34" viewBox="0 0 34 34">
    <g fill="none" fill-rule="evenodd" stroke="#2E6DDE">
        <circle cx="16" cy="16" r="16" fill-rule="nonzero" stroke-width="1.2" transform="translate(1 1)"/>
        <g stroke-linecap="square" stroke-width="1.08" transform="translate(11 8)">
            <path d="M9.75 3.2C9.75 1.433 8.295 0 6.5 0S3.25 1.433 3.25 3.2v1.867M11.646 16H1.354A1.344 1.344 0 0 1 0 14.667V7.733C0 6.997.606 6.4 1.354 6.4h10.292c.748 0 1.354.597 1.354 1.333v6.934c0 .353-.143.692-.397.942s-.598.391-.957.391zM6.5 12v1.6"/>
            <ellipse cx="6.5" cy="10.4" rx="1.625" ry="1.6"/>
        </g>
    </g>
</svg>
