<?xml version="1.0" encoding="UTF-8"?>
<svg width="30px" height="32px" viewBox="0 0 30 32" version="1.1" xmlns="http://www.w3.org/2000/svg" xmlns:xlink="http://www.w3.org/1999/xlink">
    <!-- Generator: Sketch 52 (66869) - http://www.bohemiancoding.com/sketch -->
    <title>forward</title>
    <desc>Created with Sketch.</desc>
    <g id="Page-1" stroke="none" stroke-width="1" fill="none" fill-rule="evenodd">
        <g id="Storage-Upload/Retrieve-Screen" transform="translate(-345.000000, -337.000000)">
            <g id="Upload-Button" transform="translate(250.000000, 325.000000)">
                <g id="forward" transform="translate(95.000000, 12.000000)">
                    <path d="M29,32 L1,32 C0.448,32 0,31.552 0,31 C0,30.448 0.448,30 1,30 L29,30 C29.552,30 30,30.448 30,31 C30,31.552 29.552,32 29,32 Z" id="Path" fill="#2E3854"></path>
                    <path d="M11,21 L1,21 C0.448,21 0,20.552 0,20 C0,19.448 0.448,19 1,19 L11,19 L11,21 Z" id="Path" fill="#2E3854"></path>
                    <path d="M29,21 L19,21 L19,19 L29,19 C29.552,19 30,19.448 30,20 C30,20.552 29.552,21 29,21 Z" id="Path" fill="#2E3854"></path>
                    <path d="M23,8 L15.5,0 L8,8 L14.4285714,8 L14.4285714,25 C14.4285714,25.552 14.9085714,26 15.5,26 C16.0914286,26 16.5714286,25.552 16.5714286,25 L16.5714286,8 L23,8 Z" id="Path" fill="#FFFFFF"></path>
                </g>
            </g>
        </g>
    </g>
</svg>