<?xml version="1.0" encoding="UTF-8"?>
<svg width="34px" height="34px" viewBox="0 0 34 34" version="1.1" xmlns="http://www.w3.org/2000/svg" xmlns:xlink="http://www.w3.org/1999/xlink">
    <!-- Generator: Sketch 54.1 (76490) - https://sketchapp.com -->
    <title>Group 2</title>
    <desc>Created with Sketch.</desc>
    <g id="Page-1" stroke="none" stroke-width="1" fill="none" fill-rule="evenodd">
        <g id="Group-2" transform="translate(1.000000, 1.000000)">
            <circle id="Oval" stroke="#2E6DDE" cx="16" cy="16" r="16"></circle>
            <g id="shopping-cart-(1)" transform="translate(6.000000, 8.000000)" fill="#2E6DDE" fill-rule="nonzero">
                <path d="M7.54751953,13.4939531 C6.674625,13.4939531 5.96446875,14.2041094 5.96446875,15.0770039 C5.96446875,15.9498984 6.674625,16.6600547 7.54751953,16.6600547 C8.42041406,16.6600547 9.13057031,15.9498984 9.13057031,15.0770039 C9.13053516,14.2041094 8.42037891,13.4939531 7.54751953,13.4939531 Z M7.54751953,15.7760859 C7.16199609,15.7760859 6.84836719,15.4624219 6.84836719,15.0769336 C6.84836719,14.6914102 7.16203125,14.3777813 7.54751953,14.3777813 C7.93300781,14.3777813 8.24667188,14.6914453 8.24667188,15.0769336 C8.24667188,15.4624922 7.93300781,15.7760859 7.54751953,15.7760859 Z" id="Shape"></path>
                <path d="M13.1002734,13.4939531 C12.2273789,13.4939531 11.5172227,14.2041094 11.5172227,15.0770039 C11.5172227,15.9498984 12.2273789,16.6600547 13.1002734,16.6600547 C13.973168,16.6600547 14.6833242,15.9498984 14.6833242,15.0770039 C14.6832891,14.2041094 13.9731328,13.4939531 13.1002734,13.4939531 Z M13.1002734,15.7760859 C12.71475,15.7760859 12.4011211,15.4624219 12.4011211,15.0769336 C12.4011211,14.6914102 12.7147852,14.3777813 13.1002734,14.3777813 C13.4857969,14.3777813 13.7994258,14.6914453 13.7994258,15.0769336 C13.7994258,15.4624922 13.4857617,15.7760859 13.1002734,15.7760859 Z" id="Shape"></path>
                <path d="M13.4900156,5.15935547 L7.15665234,5.15935547 C6.9125625,5.15935547 6.71470312,5.35721484 6.71470312,5.60130469 C6.71470312,5.84539453 6.91259766,6.04325391 7.15665234,6.04325391 L13.4900156,6.04325391 C13.7341055,6.04325391 13.9319648,5.84539453 13.9319648,5.60130469 C13.9319648,5.35717969 13.7341055,5.15935547 13.4900156,5.15935547 Z" id="Path"></path>
                <path d="M13.1453086,7.45435547 L7.50139453,7.45435547 C7.25730469,7.45435547 7.05944531,7.65221484 7.05944531,7.89630469 C7.05944531,8.14039453 7.25730469,8.33825391 7.50139453,8.33825391 L13.1452734,8.33825391 C13.3893633,8.33825391 13.5872227,8.14039453 13.5872227,7.89630469 C13.5872227,7.65225 13.3893633,7.45435547 13.1453086,7.45435547 Z" id="Path"></path>
                <path d="M17.8010508,3.19021875 C17.6325117,2.98335938 17.3827617,2.86474219 17.1158906,2.86474219 L3.34961719,2.86474219 L3.07160156,1.51512891 C3.01355859,1.23359766 2.82153516,0.997207031 2.55782813,0.882703125 L0.618011719,0.0407109375 C0.394066406,-0.0565664062 0.133804688,0.0461953125 0.0366679688,0.270070313 C-0.0605742187,0.494015625 0.0421875,0.7543125 0.266027344,0.851449219 L2.20587891,1.69347656 L4.34429297,12.0737461 C4.42852734,12.482543 4.79260547,12.7792617 5.21001563,12.7792617 L15.7978828,12.7792617 C16.0419727,12.7792617 16.239832,12.5814023 16.239832,12.3373125 C16.239832,12.0932227 16.0419727,11.8953633 15.7978828,11.8953633 L5.21005078,11.8953633 L4.94992969,10.6326914 L15.8797266,10.6326914 C16.2971016,10.6326914 16.6612148,10.3359727 16.7454141,9.92717578 L17.9816133,3.92688281 C18.0354375,3.66560156 17.969625,3.39704297 17.8010508,3.19021875 Z M15.8797266,9.74886328 L4.76785547,9.74886328 L3.53172656,3.74860547 L17.1158555,3.74860547 L15.8797266,9.74886328 Z" id="Shape"></path>
            </g>
        </g>
    </g>
</svg>