<?xml version="1.0" encoding="UTF-8"?>
<svg width="380px" height="245px" viewBox="0 0 380 245" version="1.1" xmlns="http://www.w3.org/2000/svg" xmlns:xlink="http://www.w3.org/1999/xlink">
    <!-- Generator: sketchtool 52 (66869) - http://www.bohemiancoding.com/sketch -->
    <title>DE2A14E8-66BD-4C76-BB87-ECF3CDA5A909</title>
    <desc>Created with sketchtool.</desc>
    <defs>
        <rect id="path-1" x="0" y="0" width="380" height="245"></rect>
    </defs>
    <g id="Corp-Site-Redesign-2.0" stroke="none" stroke-width="1" fill="none" fill-rule="evenodd">
        <g id="Landing-Page---Desktop-HD" transform="translate(-250.000000, -3354.000000)">
            <g id="Group-4" transform="translate(250.000000, 3354.000000)">
                <g id="language-1-copy-9">
                    <mask id="mask-2" fill="white">
                        <use xlink:href="#path-1"></use>
                    </mask>
                    <use id="Mask" fill="#E0EDFF" fill-rule="nonzero" xlink:href="#path-1"></use>
                    <g mask="url(#mask-2)" fill="#1454A7" id="Path" transform="scale(2)">
                        <g transform="translate(5.000000, 70.000000) scale(-1, 1) translate(-5.000000, -70.000000) translate(-10.000000, 29.000000)">
                            <path d="M3,3H21V21H3V3M13.71,17.86C14.21,18.84 15.22,19.59 16.8,19.59C18.4,19.59 19.6,18.76 19.6,17.23C19.6,15.82 18.79,15.19 17.35,14.57L16.93,14.39C16.2,14.08 15.89,13.87 15.89,13.37C15.89,12.96 16.2,12.64 16.7,12.64C17.18,12.64 17.5,12.85 17.79,13.37L19.1,12.5C18.55,11.54 17.77,11.17 16.7,11.17C15.19,11.17 14.22,12.13 14.22,13.4C14.22,14.78 15.03,15.43 16.25,15.95L16.67,16.13C17.45,16.47 17.91,16.68 17.91,17.26C17.91,17.74 17.46,18.09 16.76,18.09C15.93,18.09 15.45,17.66 15.09,17.06L13.71,17.86M13,11.25H8V12.75H9.5V20H11.25V12.75H13V11.25Z" />
                        </g>
                    </g>
                </g>
                <g id="language-1" transform="translate(99.000000, 46.500000) scale(-1, 1) translate(-99.000000, -46.500000) translate(80.000000, 29.000000) scale(1.5)" fill="#1454A7">
                    <path d="M19.14,7.5A2.86,2.86 0 0,1 22,10.36V14.14A2.86,2.86 0 0,1 19.14,17H12C12,17.39 12.32,17.96 12.71,17.96H17V19.64A2.86,2.86 0 0,1 14.14,22.5H9.86A2.86,2.86 0 0,1 7,19.64V15.89C7,14.31 8.28,13.04 9.86,13.04H15.11C16.69,13.04 17.96,11.76 17.96,10.18V7.5H19.14M14.86,19.29C14.46,19.29 14.14,19.59 14.14,20.18C14.14,20.77 14.46,20.89 14.86,20.89A0.71,0.71 0 0,0 15.57,20.18C15.57,19.59 15.25,19.29 14.86,19.29M4.86,17.5C3.28,17.5 2,16.22 2,14.64V10.86C2,9.28 3.28,8 4.86,8H12C12,7.61 11.68,7.04 11.29,7.04H7V5.36C7,3.78 8.28,2.5 9.86,2.5H14.14C15.72,2.5 17,3.78 17,5.36V9.11C17,10.69 15.72,11.96 14.14,11.96H8.89C7.31,11.96 6.04,13.24 6.04,14.82V17.5H4.86M9.14,5.71C9.54,5.71 9.86,5.41 9.86,4.82C9.86,4.23 9.54,4.11 9.14,4.11C8.75,4.11 8.43,4.23 8.43,4.82C8.43,5.41 8.75,5.71 9.14,5.71Z" />
                </g>
                <g id="language-1-copy" transform="translate(303.000000, 193.000000) scale(1.25)" fill="#1454A7">
                    <path d="M3,3H21V21H3V3M13.71,17.86C14.21,18.84 15.22,19.59 16.8,19.59C18.4,19.59 19.6,18.76 19.6,17.23C19.6,15.82 18.79,15.19 17.35,14.57L16.93,14.39C16.2,14.08 15.89,13.87 15.89,13.37C15.89,12.96 16.2,12.64 16.7,12.64C17.18,12.64 17.5,12.85 17.79,13.37L19.1,12.5C18.55,11.54 17.77,11.17 16.7,11.17C15.19,11.17 14.22,12.13 14.22,13.4C14.22,14.78 15.03,15.43 16.25,15.95L16.67,16.13C17.45,16.47 17.91,16.68 17.91,17.26C17.91,17.74 17.46,18.09 16.76,18.09C15.93,18.09 15.45,17.66 15.09,17.06L13.71,17.86M13,11.25H8V12.75H9.5V20H11.25V12.75H13V11.25Z" />
                </g>
                <g id="language-1-copy-10" opacity="0.600000024" transform="translate(235.500000, 214.500000) rotate(131.000000) translate(-235.500000, -214.500000) translate(220.000000, 200.000000) scale(1)" fill="#1454A7">
                    <path d="M19.14,7.5A2.86,2.86 0 0,1 22,10.36V14.14A2.86,2.86 0 0,1 19.14,17H12C12,17.39 12.32,17.96 12.71,17.96H17V19.64A2.86,2.86 0 0,1 14.14,22.5H9.86A2.86,2.86 0 0,1 7,19.64V15.89C7,14.31 8.28,13.04 9.86,13.04H15.11C16.69,13.04 17.96,11.76 17.96,10.18V7.5H19.14M14.86,19.29C14.46,19.29 14.14,19.59 14.14,20.18C14.14,20.77 14.46,20.89 14.86,20.89A0.71,0.71 0 0,0 15.57,20.18C15.57,19.59 15.25,19.29 14.86,19.29M4.86,17.5C3.28,17.5 2,16.22 2,14.64V10.86C2,9.28 3.28,8 4.86,8H12C12,7.61 11.68,7.04 11.29,7.04H7V5.36C7,3.78 8.28,2.5 9.86,2.5H14.14C15.72,2.5 17,3.78 17,5.36V9.11C17,10.69 15.72,11.96 14.14,11.96H8.89C7.31,11.96 6.04,13.24 6.04,14.82V17.5H4.86M9.14,5.71C9.54,5.71 9.86,5.41 9.86,4.82C9.86,4.23 9.54,4.11 9.14,4.11C8.75,4.11 8.43,4.23 8.43,4.82C8.43,5.41 8.75,5.71 9.14,5.71Z" />
                </g>
                <g id="language-1-copy-6" transform="translate(111.000000, 200.000000) scale(1.25)" fill="#1454A7">
                    <path d="M3,3H21V21H3V3M7.73,18.04C8.13,18.89 8.92,19.59 10.27,19.59C11.77,19.59 12.8,18.79 12.8,17.04V11.26H11.1V17C11.1,17.86 10.75,18.08 10.2,18.08C9.62,18.08 9.38,17.68 9.11,17.21L7.73,18.04M13.71,17.86C14.21,18.84 15.22,19.59 16.8,19.59C18.4,19.59 19.6,18.76 19.6,17.23C19.6,15.82 18.79,15.19 17.35,14.57L16.93,14.39C16.2,14.08 15.89,13.87 15.89,13.37C15.89,12.96 16.2,12.64 16.7,12.64C17.18,12.64 17.5,12.85 17.79,13.37L19.1,12.5C18.55,11.54 17.77,11.17 16.7,11.17C15.19,11.17 14.22,12.13 14.22,13.4C14.22,14.78 15.03,15.43 16.25,15.95L16.67,16.13C17.45,16.47 17.91,16.68 17.91,17.26C17.91,17.74 17.46,18.09 16.76,18.09C15.93,18.09 15.45,17.66 15.09,17.06L13.71,17.86Z" />
                </g>
                <g id="language-1-copy-2" opacity="0.800000012" transform="translate(314.005689, 100.687560) rotate(32.000000) translate(-314.005689, -100.687560) translate(302.005689, 89.687560) scale(1.25)" fill="#1454A7">
                    <path d="M2.64,10.33L2.62,10.27L2.84,10L2.96,9.92H6.8L6.83,10L6.65,10.26L6.54,10.32L2.64,10.33M1.03,11.31L1,11.26L1.22,10.97L1.34,10.91H6.24L6.29,11L6.21,11.24L6.11,11.31H1.03M3.63,12.3L3.59,12.24L3.75,11.96L3.85,11.9H6L6.07,11.97L6.05,12.22L5.97,12.3H3.63M14.78,10.14L13,10.61C12.81,10.65 12.8,10.66 12.66,10.5C12.5,10.32 12.39,10.21 12.16,10.1C11.5,9.76 10.83,9.86 10.22,10.25C9.5,10.73 9.11,11.42 9.12,12.3C9.13,13.16 9.72,13.87 10.57,14C11.3,14.09 11.91,13.83 12.4,13.28L12.69,12.89H10.62C10.4,12.89 10.35,12.75 10.42,12.57L10.97,11.39C11,11.33 11.08,11.22 11.24,11.22H14.68C14.83,10.72 15.09,10.26 15.43,9.81C16.21,8.78 17.16,8.24 18.43,8C19.5,7.82 20.56,7.93 21.5,8.57C22.34,9.15 22.87,9.93 23,10.96C23.19,12.41 22.76,13.59 21.76,14.61C21.05,15.33 20.18,15.78 19.19,16L18.33,16.08C17.35,16.06 16.46,15.78 15.71,15.13C15.19,14.68 14.83,14.14 14.65,13.5C14.5,13.74 14.38,13.97 14.21,14.2C13.44,15.22 12.43,15.85 11.15,16C10.1,16.16 9.12,15.95 8.26,15.31C7.47,14.71 7,13.91 6.9,12.92C6.76,11.75 7.1,10.7 7.81,9.78C8.57,8.78 9.58,8.15 10.82,7.92C11.82,7.74 12.79,7.86 13.66,8.44C14.23,8.82 14.63,9.34 14.9,9.96C14.94,10.05 14.9,10.11 14.78,10.14M20.89,11.74L20.86,11.38C20.67,10.32 19.69,9.72 18.67,9.95C17.66,10.17 17,10.8 16.79,11.81C16.6,12.65 17,13.5 17.77,13.84C18.36,14.1 18.96,14.06 19.53,13.78C20.37,13.35 20.84,12.66 20.89,11.74Z" />
                </g>
                <g id="language-1-copy-5" opacity="0.300000012" transform="translate(236.263456, 36.263456) rotate(-45.000000) translate(-236.263456, -36.263456) translate(224.263456, 25.263456) scale(1.5)" fill="#1454A7">
                    <path d="M3,3H21V21H3V3M13.71,17.86C14.21,18.84 15.22,19.59 16.8,19.59C18.4,19.59 19.6,18.76 19.6,17.23C19.6,15.82 18.79,15.19 17.35,14.57L16.93,14.39C16.2,14.08 15.89,13.87 15.89,13.37C15.89,12.96 16.2,12.64 16.7,12.64C17.18,12.64 17.5,12.85 17.79,13.37L19.1,12.5C18.55,11.54 17.77,11.17 16.7,11.17C15.19,11.17 14.22,12.13 14.22,13.4C14.22,14.78 15.03,15.43 16.25,15.95L16.67,16.13C17.45,16.47 17.91,16.68 17.91,17.26C17.91,17.74 17.46,18.09 16.76,18.09C15.93,18.09 15.45,17.66 15.09,17.06L13.71,17.86M13,11.25H8V12.75H9.5V20H11.25V12.75H13V11.25Z" />
                </g>
                <g id="language-1-copy-3" opacity="0.699999988" transform="translate(40.304690, 181.576316) scale(-1, 1) rotate(14.000000) translate(-40.304690, -181.576316) translate(28.304690, 170.576316) scale(1.5)" fill="#1454A7">
                    <path d="M2.64,10.33L2.62,10.27L2.84,10L2.96,9.92H6.8L6.83,10L6.65,10.26L6.54,10.32L2.64,10.33M1.03,11.31L1,11.26L1.22,10.97L1.34,10.91H6.24L6.29,11L6.21,11.24L6.11,11.31H1.03M3.63,12.3L3.59,12.24L3.75,11.96L3.85,11.9H6L6.07,11.97L6.05,12.22L5.97,12.3H3.63M14.78,10.14L13,10.61C12.81,10.65 12.8,10.66 12.66,10.5C12.5,10.32 12.39,10.21 12.16,10.1C11.5,9.76 10.83,9.86 10.22,10.25C9.5,10.73 9.11,11.42 9.12,12.3C9.13,13.16 9.72,13.87 10.57,14C11.3,14.09 11.91,13.83 12.4,13.28L12.69,12.89H10.62C10.4,12.89 10.35,12.75 10.42,12.57L10.97,11.39C11,11.33 11.08,11.22 11.24,11.22H14.68C14.83,10.72 15.09,10.26 15.43,9.81C16.21,8.78 17.16,8.24 18.43,8C19.5,7.82 20.56,7.93 21.5,8.57C22.34,9.15 22.87,9.93 23,10.96C23.19,12.41 22.76,13.59 21.76,14.61C21.05,15.33 20.18,15.78 19.19,16L18.33,16.08C17.35,16.06 16.46,15.78 15.71,15.13C15.19,14.68 14.83,14.14 14.65,13.5C14.5,13.74 14.38,13.97 14.21,14.2C13.44,15.22 12.43,15.85 11.15,16C10.1,16.16 9.12,15.95 8.26,15.31C7.47,14.71 7,13.91 6.9,12.92C6.76,11.75 7.1,10.7 7.81,9.78C8.57,8.78 9.58,8.15 10.82,7.92C11.82,7.74 12.79,7.86 13.66,8.44C14.23,8.82 14.63,9.34 14.9,9.96C14.94,10.05 14.9,10.11 14.78,10.14M20.89,11.74L20.86,11.38C20.67,10.32 19.69,9.72 18.67,9.95C17.66,10.17 17,10.8 16.79,11.81C16.6,12.65 17,13.5 17.77,13.84C18.36,14.1 18.96,14.06 19.53,13.78C20.37,13.35 20.84,12.66 20.89,11.74Z" />
                </g>
                <g id="language-1-copy-8" opacity="0.600000024" transform="translate(338.304690, 32.576316) scale(-1, 1) rotate(14.000000) translate(-338.304690, -32.576316) translate(326.304690, 21.576316) scale(1.5)" fill="#1454A7">
                    <path d="M3,3H21V21H3V3M7.73,18.04C8.13,18.89 8.92,19.59 10.27,19.59C11.77,19.59 12.8,18.79 12.8,17.04V11.26H11.1V17C11.1,17.86 10.75,18.08 10.2,18.08C9.62,18.08 9.38,17.68 9.11,17.21L7.73,18.04M13.71,17.86C14.21,18.84 15.22,19.59 16.8,19.59C18.4,19.59 19.6,18.76 19.6,17.23C19.6,15.82 18.79,15.19 17.35,14.57L16.93,14.39C16.2,14.08 15.89,13.87 15.89,13.37C15.89,12.96 16.2,12.64 16.7,12.64C17.18,12.64 17.5,12.85 17.79,13.37L19.1,12.5C18.55,11.54 17.77,11.17 16.7,11.17C15.19,11.17 14.22,12.13 14.22,13.4C14.22,14.78 15.03,15.43 16.25,15.95L16.67,16.13C17.45,16.47 17.91,16.68 17.91,17.26C17.91,17.74 17.46,18.09 16.76,18.09C15.93,18.09 15.45,17.66 15.09,17.06L13.71,17.86Z" />
                </g>
                <g id="language-1-copy-4" opacity="0.400000006" transform="translate(103.000000, 134.000000) scale(-1, 1) translate(-103.000000, -134.000000) translate(91.000000, 123.000000) scale(1)" fill="#1454A7">
                    <path d="M3,3H21V21H3V3M13.71,17.86C14.21,18.84 15.22,19.59 16.8,19.59C18.4,19.59 19.6,18.76 19.6,17.23C19.6,15.82 18.79,15.19 17.35,14.57L16.93,14.39C16.2,14.08 15.89,13.87 15.89,13.37C15.89,12.96 16.2,12.64 16.7,12.64C17.18,12.64 17.5,12.85 17.79,13.37L19.1,12.5C18.55,11.54 17.77,11.17 16.7,11.17C15.19,11.17 14.22,12.13 14.22,13.4C14.22,14.78 15.03,15.43 16.25,15.95L16.67,16.13C17.45,16.47 17.91,16.68 17.91,17.26C17.91,17.74 17.46,18.09 16.76,18.09C15.93,18.09 15.45,17.66 15.09,17.06L13.71,17.86M13,11.25H8V12.75H9.5V20H11.25V12.75H13V11.25Z" />
                </g>
                <g id="language-1-copy-7" opacity="0.200000003" transform="translate(346.000000, 157.000000) scale(-1, 1) translate(-346.000000, -157.000000) translate(334.000000, 146.000000) scale(1.25)" fill="#1454A7">
                    <path d="M3,3H21V21H3V3M7.73,18.04C8.13,18.89 8.92,19.59 10.27,19.59C11.77,19.59 12.8,18.79 12.8,17.04V11.26H11.1V17C11.1,17.86 10.75,18.08 10.2,18.08C9.62,18.08 9.38,17.68 9.11,17.21L7.73,18.04M13.71,17.86C14.21,18.84 15.22,19.59 16.8,19.59C18.4,19.59 19.6,18.76 19.6,17.23C19.6,15.82 18.79,15.19 17.35,14.57L16.93,14.39C16.2,14.08 15.89,13.87 15.89,13.37C15.89,12.96 16.2,12.64 16.7,12.64C17.18,12.64 17.5,12.85 17.79,13.37L19.1,12.5C18.55,11.54 17.77,11.17 16.7,11.17C15.19,11.17 14.22,12.13 14.22,13.4C14.22,14.78 15.03,15.43 16.25,15.95L16.67,16.13C17.45,16.47 17.91,16.68 17.91,17.26C17.91,17.74 17.46,18.09 16.76,18.09C15.93,18.09 15.45,17.66 15.09,17.06L13.71,17.86Z" />
                </g>
                <g id="Spacity-logo-2.0" transform="translate(136.000000, 68.000000)">
                    <g id="Group">
                        <g id="Opacity-Logo">
                            <path d="M41.6583517,41.42 C46.8090642,36.259043 54.2846263,34.1845184 61.3512308,35.9550782 C68.4178353,37.7256381 74.0390739,43.081607 76.1592641,50.0643114 C71.4925963,48.6469083 66.4772559,48.9175448 61.9895007,50.8289366 C61.9265326,50.7596791 61.8620446,50.6919969 61.7945167,50.6243168 C58.7002058,47.5305932 53.6896499,47.5333342 50.5987122,50.6304415 C47.5077745,53.7275487 47.5050389,58.7481057 50.5925997,61.8485929 C50.6939198,61.9501152 50.7967749,62.0470121 50.9027438,62.1408761 C49.1266558,66.5510432 48.9093931,71.4372404 50.2870284,75.9881969 C43.3186125,73.8638929 37.9734843,68.2319214 36.2061662,61.151693 C34.438848,54.0714646 36.5085104,46.5812678 41.6583517,41.42 Z" id="Path" fill="#FFFFFF"></path>
                            <path d="M16.1157825,15.9310157 C37.3143891,-5.30990345 71.6847424,-5.30990345 92.8833512,15.9310157 C104.704499,27.7505295 110.424435,44.3724181 108.385789,60.9804329 C102.811768,55.6845964 95.5866207,52.4752911 87.9272276,51.8930376 C87.345536,44.1828359 84.1157021,36.9127456 78.7872801,31.3197685 C78.595362,31.1183034 78.4003692,30.91676 78.2023019,30.7182973 C69.7277351,22.2223563 57.3728679,18.9029496 45.793083,22.010848 C34.2132981,25.1187464 25.1684825,34.1816139 22.066773,45.7845116 C18.9650635,57.3874092 22.2778557,69.7669375 30.7568709,78.2584211 C30.9856363,78.4876431 31.2164514,78.7127589 31.4493162,78.9337685 C37.0205912,84.2198783 44.2386257,87.4223996 51.8894695,88.002723 C52.4673025,95.6334043 55.6373052,102.835266 60.8712736,108.408293 C44.3605635,110.380974 27.8604331,104.645724 16.1157825,92.8518132 C-5.08283068,71.610894 -5.08283068,37.171935 16.1157825,15.9310157 Z" id="Path" fill="#FFFFFF"></path>
                            <path d="M105.381569,79.8587673 C104.925467,78.126702 104.246279,76.4614983 103.361124,74.9051307 C103.305779,74.8035714 103.245877,74.7036069 103.187566,74.6051283 C103.115366,74.480518 103.038712,74.3573937 102.961954,74.234376 C97.4337423,65.3055632 86.1244885,61.9151972 76.6105892,66.3345825 C76.2317578,65.5841481 75.7357664,64.8991399 75.1413474,64.305429 C75.0952265,64.2592182 75.0476247,64.2116259 75.0001272,64.1669011 C71.9318225,61.2421972 67.1103483,61.2530928 64.0552406,64.1916344 C61.000133,67.130176 60.7922017,71.9567916 63.5832306,75.148192 C63.6967903,75.2774777 63.8149924,75.4050621 63.9393566,75.5296746 C64.5995819,76.1930877 65.37209,76.7338077 66.2209328,77.1266725 C64.5332245,81.1574809 64.1539987,85.6181879 65.1369713,89.8769508 C65.5371067,91.6230569 66.1637194,93.3091424 67.0008278,94.892204 C67.077586,95.0430548 67.1606019,95.1936923 67.2451008,95.3429483 C67.407843,95.6353011 67.5782195,95.9260614 67.7577134,96.2106601 C67.8022406,96.2828917 67.8483615,96.3537547 67.8943738,96.4245068 C73.2807024,104.8115 83.8523421,108.183996 93.0865016,104.461136 C93.0958626,104.47709 93.1060912,104.492516 93.117141,104.507346 C98.0980688,102.488325 102.106233,98.6166307 104.302276,93.7030423 C104.290615,93.6929778 104.278289,93.6837145 104.265381,93.6753158 C106.201347,89.332695 106.595249,84.4568532 105.381569,79.8587673 Z M88.0477464,87.0190752 L88.0477464,95.6346637 L82.31538,95.6346637 L82.31538,87.0190752 L74.4094819,87.0190752 L85.1769969,74.086606 L95.9536315,87.0190752 L88.0477464,87.0190752 Z" id="Shape" fill="#FFFFFF" fill-rule="nonzero"></path>
                            <path d="M41.6583517,41.42 C46.8090642,36.259043 54.2846263,34.1845184 61.3512308,35.9550782 C68.4178353,37.7256381 74.0390739,43.081607 76.1592641,50.0643114 C71.4925963,48.6469083 66.4772559,48.9175448 61.9895007,50.8289366 C61.9265326,50.7596791 61.8620446,50.6919969 61.7945167,50.6243168 C58.7002058,47.5305932 53.6896499,47.5333342 50.5987122,50.6304415 C47.5077745,53.7275487 47.5050389,58.7481057 50.5925997,61.8485929 C50.6939198,61.9501152 50.7967749,62.0470121 50.9027438,62.1408761 C49.1266558,66.5510432 48.9093931,71.4372404 50.2870284,75.9881969 C43.3186125,73.8638929 37.9734843,68.2319214 36.2061662,61.151693 C34.438848,54.0714646 36.5085104,46.5812678 41.6583517,41.42 Z" id="Path" fill="#2E6DDE"></path>
                            <path d="M16.1157825,15.9310157 C37.3143891,-5.30990345 71.6847424,-5.30990345 92.8833512,15.9310157 C104.704499,27.7505295 110.424435,44.3724181 108.385789,60.9804329 C102.811768,55.6845964 95.5866207,52.4752911 87.9272276,51.8930376 C87.345536,44.1828359 84.1157021,36.9127456 78.7872801,31.3197685 C78.595362,31.1183034 78.4003692,30.91676 78.2023019,30.7182973 C69.7277351,22.2223563 57.3728679,18.9029496 45.793083,22.010848 C34.2132981,25.1187464 25.1684825,34.1816139 22.066773,45.7845116 C18.9650635,57.3874092 22.2778557,69.7669375 30.7568709,78.2584211 C30.9856363,78.4876431 31.2164514,78.7127589 31.4493162,78.9337685 C37.0205912,84.2198783 44.2386257,87.4223996 51.8894695,88.002723 C52.4673025,95.6334043 55.6373052,102.835266 60.8712736,108.408293 C44.3605635,110.380974 27.8604331,104.645724 16.1157825,92.8518132 C-5.08283068,71.610894 -5.08283068,37.171935 16.1157825,15.9310157 Z" id="Path" fill="#2E6DDE"></path>
                            <path d="M105.381569,79.8587673 C104.925467,78.126702 104.246279,76.4614983 103.361124,74.9051307 C103.305779,74.8035714 103.245877,74.7036069 103.187566,74.6051283 C103.115366,74.480518 103.038712,74.3573937 102.961954,74.234376 C97.4337423,65.3055632 86.1244885,61.9151972 76.6105892,66.3345825 C76.2317578,65.5841481 75.7357664,64.8991399 75.1413474,64.305429 C75.0952265,64.2592182 75.0476247,64.2116259 75.0001272,64.1669011 C71.9318225,61.2421972 67.1103483,61.2530928 64.0552406,64.1916344 C61.000133,67.130176 60.7922017,71.9567916 63.5832306,75.148192 C63.6967903,75.2774777 63.8149924,75.4050621 63.9393566,75.5296746 C64.5995819,76.1930877 65.37209,76.7338077 66.2209328,77.1266725 C64.5332245,81.1574809 64.1539987,85.6181879 65.1369713,89.8769508 C65.5371067,91.6230569 66.1637194,93.3091424 67.0008278,94.892204 C67.077586,95.0430548 67.1606019,95.1936923 67.2451008,95.3429483 C67.407843,95.6353011 67.5782195,95.9260614 67.7577134,96.2106601 C67.8022406,96.2828917 67.8483615,96.3537547 67.8943738,96.4245068 C73.2807024,104.8115 83.8523421,108.183996 93.0865016,104.461136 C93.0958626,104.47709 93.1060912,104.492516 93.117141,104.507346 C98.0980688,102.488325 102.106233,98.6166307 104.302276,93.7030423 C104.290615,93.6929778 104.278289,93.6837145 104.265381,93.6753158 C106.201347,89.332695 106.595249,84.4568532 105.381569,79.8587673 Z M88.0477464,87.0190752 L88.0477464,95.6346637 L82.31538,95.6346637 L82.31538,87.0190752 L74.4094819,87.0190752 L85.1769969,74.086606 L95.9536315,87.0190752 L88.0477464,87.0190752 Z" id="Shape" fill="#2E6DDE" fill-rule="nonzero"></path>
                        </g>
                    </g>
                </g>
            </g>
        </g>
    </g>
</svg>