<?xml version="1.0" encoding="UTF-8"?>
<svg width="460px" height="350px" viewBox="0 0 460 350" version="1.1" xmlns="http://www.w3.org/2000/svg" xmlns:xlink="http://www.w3.org/1999/xlink">
    <!-- Generator: sketchtool 52 (66869) - http://www.bohemiancoding.com/sketch -->
    <title>20826A02-9889-47AA-99B6-9D5FE2950C17</title>
    <desc>Created with sketchtool.</desc>
    <defs>
        <rect id="path-1" x="0" y="0" width="460" height="350"></rect>
    </defs>
    <g id="Corp-Site-Redesign-2.0" stroke="none" stroke-width="1" fill="none" fill-rule="evenodd">
        <g id="Landing-Page---Desktop-HD" transform="translate(-250.000000, -1222.000000)">
            <g id="Group-7" transform="translate(250.000000, 1222.000000)">
                <rect id="Rectangle" fill="#D8D8D8" fill-rule="nonzero" x="0" y="0" width="460" height="350"></rect>
                <g id="Rectangle-2" transform="translate(220.256313, 210.322637)"></g>
                <g id="Group-3-+-Group-3-Copy-Mask">
                    <mask id="mask-2" fill="white">
                        <use xlink:href="#path-1"></use>
                    </mask>
                    <use id="Mask" fill="#E0EDFF" fill-rule="nonzero" xlink:href="#path-1"></use>
                    <g id="Group-3" opacity="0.600000024" mask="url(#mask-2)">
                        <g transform="translate(-65.000000, 89.000000)">
                            <rect id="Rectangle" stroke="#2E6DDE" stroke-width="2.40000004" fill="#FFFFFF" fill-rule="nonzero" x="1.20000002" y="1.20000002" width="157.6" height="157.968664" rx="9.60000014"></rect>
                            <rect id="Rectangle" stroke="none" fill="#1F4791" fill-rule="nonzero" x="110.4" y="48.1105991" width="8" height="64.1474654" rx="4"></rect>
                            <ellipse id="Oval" stroke="none" fill="#2E6DDE" fill-rule="nonzero" cx="114.4" cy="80.1843318" rx="13.6" ry="13.6313364"></ellipse>
                            <rect id="Rectangle" stroke="#2E6DDE" stroke-width="2.40000004" fill="#FFFFFF" fill-rule="nonzero" x="113.2" y="159.163134" width="29.6" height="13.6368663" rx="4.00000006"></rect>
                            <g id="Group-2" stroke="none" stroke-width="1" fill="none" fill-rule="evenodd" transform="translate(32.000000, 60.940092)">
                                <ellipse id="Oval" stroke="#2E6DDE" stroke-width="0.959999957" fill="#2E6DDE" fill-rule="nonzero" cx="19.2" cy="19.2442396" rx="19.2" ry="19.2442396"></ellipse>
                                <path d="M33.3846724,17.2350712 L33.3846724,21.5350712 L33.8468844,21.5350712 L33.8468844,17.2350712 L33.3846724,17.2350712 Z" id="Rectangle" stroke="#FFFFFF" stroke-width="0.5" fill="#FFFFFF" fill-rule="nonzero" transform="translate(33.615778, 19.385071) rotate(90.000000) translate(-33.615778, -19.385071) "></path>
                            </g>
                            <g id="Spacity-logo-2.0" stroke="none" stroke-width="1" fill="none" fill-rule="evenodd" transform="translate(107.200000, 72.967742)">
                                <g id="Group" fill="#FFFFFF">
                                    <g id="Opacity-Logo">
                                        <path d="M5.50348867,5.48460829 C6.18394976,4.80122279 7.17154696,4.52652567 8.10511673,4.76097345 C9.0386865,4.99542123 9.78130885,5.70462914 10.0614074,6.6292404 C9.44489346,6.44155569 8.78231637,6.47739189 8.18943863,6.73048786 C8.1811199,6.72131717 8.17260038,6.71235506 8.16367927,6.70339324 C7.75488957,6.2937394 7.09294457,6.29410235 6.68460051,6.70420423 C6.27625644,7.11430612 6.27589505,7.77910063 6.68379299,8.18965006 C6.69717839,8.20309309 6.7107666,8.21592364 6.72476615,8.22835259 C6.49012701,8.81232263 6.46142441,9.45932597 6.64342394,10.0619386 C5.72282587,9.78064992 5.0166805,9.03489526 4.78319993,8.09737041 C4.54971937,7.15984556 4.82314266,6.16803496 5.50348867,5.48460829 Z" id="Path"></path>
                                        <path d="M2.1290575,2.10949737 C4.92960736,-0.703108173 9.4702779,-0.703108173 12.270828,2.10949737 C13.832521,3.67457229 14.5881823,5.87555123 14.3188566,8.0746931 C13.5824721,7.37344759 12.6279572,6.94848907 11.6160741,6.87139026 C11.5392268,5.85044781 11.1125331,4.88778249 10.4085948,4.14719126 C10.3832405,4.12051436 10.35748,4.0938271 10.3313133,4.06754776 C9.21173749,2.94256205 7.57953485,2.50302448 6.0497284,2.91455527 C4.51992195,3.32608606 3.32501053,4.52614107 2.9152434,6.06253288 C2.50547628,7.59892469 2.94312955,9.23815364 4.06329304,10.3625491 C4.09351525,10.3929015 4.12400826,10.42271 4.15477205,10.4519749 C4.89079371,11.1519325 5.8443689,11.5759927 6.85512258,11.6528359 C6.93146014,12.6632487 7.3502495,13.6168796 8.04170955,14.3548292 C5.86047812,14.6160407 3.68064437,13.8566105 2.1290575,12.2949258 C-0.671493227,9.48232021 -0.671493227,4.92210292 2.1290575,2.10949737 Z" id="Path"></path>
                                        <path d="M13.9219688,10.5744582 C13.8617131,10.3451076 13.7719855,10.1246105 13.6550476,9.9185249 C13.647736,9.90507697 13.6398223,9.89184022 13.6321189,9.87880023 C13.6225804,9.86230003 13.6124537,9.84599658 13.6023131,9.82970726 C12.8719806,8.64740303 11.3779141,8.19846944 10.121032,8.78366011 C10.0709845,8.68429172 10.005459,8.59358669 9.92693029,8.51497077 C9.92083726,8.50885179 9.91454859,8.50254988 9.90827369,8.49662766 C9.50291967,8.10935448 8.86595426,8.11079722 8.46234371,8.49990272 C8.05873316,8.88900821 8.03126334,9.52812207 8.39998642,9.95070973 C8.41498881,9.96782904 8.43060449,9.98472306 8.44703426,10.0012236 C8.53425669,10.0890691 8.6363128,10.1606682 8.74845351,10.2126892 C8.52549021,10.7464267 8.47539065,11.3370889 8.60525125,11.9010109 C8.65811318,12.1322206 8.74089505,12.3554828 8.85148551,12.5651031 C8.86162604,12.5850779 8.87259327,12.6050245 8.88375643,12.6247882 C8.90525632,12.6634999 8.92776478,12.7020008 8.95147774,12.7396858 C8.95736022,12.7492503 8.96345326,12.7586336 8.96953195,12.7680022 C9.68112032,13.8785616 11.0777406,14.325129 12.2976663,13.8321683 C12.298903,13.8342808 12.3002542,13.8363236 12.301714,13.8382873 C12.9597449,13.5709396 13.4892638,13.0582711 13.7793832,12.4076408 C13.7778427,12.4063081 13.7762143,12.4050816 13.774509,12.4039694 C14.0302697,11.8289435 14.0823081,11.1833114 13.9219688,10.5744582 Z M11.6319959,11.5225867 L11.6319959,12.6634155 L10.8746924,12.6634155 L10.8746924,11.5225867 L9.83024347,11.5225867 L11.2527409,9.81014036 L12.6764431,11.5225867 L11.6319959,11.5225867 Z" id="Shape" fill-rule="nonzero"></path>
                                    </g>
                                </g>
                            </g>
                            <rect id="Rectangle" stroke="#2E6DDE" stroke-width="1.60000002" fill="none" fill-rule="nonzero" x="16.8" y="16.8368664" width="128" height="127.496774" rx="6.4000001"></rect>
                        </g>
                    </g>
                    <g id="Group-3-Copy" opacity="0.600000024" mask="url(#mask-2)">
                        <g transform="translate(365.000000, 89.000000)">
                            <rect id="Rectangle" stroke="#2E6DDE" stroke-width="2.40000004" fill="#FFFFFF" fill-rule="nonzero" x="1.20000002" y="1.20000002" width="157.6" height="157.968664" rx="9.60000014"></rect>
                            <rect id="Rectangle" stroke="#2E6DDE" stroke-width="2.40000004" fill="#FFFFFF" fill-rule="nonzero" x="17.2" y="159.163134" width="29.6" height="13.6368663" rx="4.00000006"></rect>
                            <g id="Group-2" stroke="none" stroke-width="1" fill="none" fill-rule="evenodd" transform="translate(32.000000, 60.940092)">
                                <ellipse id="Oval" stroke="#2E6DDE" stroke-width="0.959999957" fill="#2E6DDE" fill-rule="nonzero" cx="19.2" cy="19.2442396" rx="19.2" ry="19.2442396"></ellipse>
                                <ellipse id="Oval" stroke="#FFFFFF" stroke-width="0.959999957" fill-rule="nonzero" cx="19.2" cy="19.2442396" rx="9.6" ry="9.62211982"></ellipse>
                                <ellipse id="Oval" fill="#FFFFFF" fill-rule="nonzero" cx="19.2" cy="19.2442396" rx="4.8" ry="4.81105991"></ellipse>
                                <rect id="Rectangle" stroke="#FFFFFF" stroke-width="0.5" fill="#FFFFFF" fill-rule="nonzero" x="19.0016406" y="2.7297631" width="1" height="4.31105991"></rect>
                                <path d="M8.87359786,6.93843197 L8.86864328,11.2439609 L9.32974828,11.2434303 L9.33470286,6.93790135 L8.87359786,6.93843197 Z" id="Rectangle" stroke="#FFFFFF" stroke-width="0.5" fill="#FFFFFF" fill-rule="nonzero" transform="translate(9.101673, 9.090931) rotate(-45.000000) translate(-9.101673, -9.090931) "></path>
                                <path d="M4.66484046,17.1178486 L4.66484046,21.4178486 L5.12705244,21.4178486 L5.12705244,17.1178486 L4.66484046,17.1178486 Z" id="Rectangle" stroke="#FFFFFF" stroke-width="0.5" fill="#FFFFFF" fill-rule="nonzero" transform="translate(4.895946, 19.267849) rotate(-90.000000) translate(-4.895946, -19.267849) "></path>
                                <path d="M8.85163603,27.2505825 L8.85659061,31.5561115 L9.3176956,31.5566421 L9.31274102,27.2511131 L8.85163603,27.2505825 Z" id="Rectangle" stroke="#FFFFFF" stroke-width="0.5" fill="#FFFFFF" fill-rule="nonzero" transform="translate(9.084666, 29.403612) rotate(-135.000000) translate(-9.084666, -29.403612) "></path>
                                <path d="M29.1285784,6.93790135 L29.133533,11.2434303 L29.594638,11.2439609 L29.5896834,6.93843197 L29.1285784,6.93790135 Z" id="Rectangle" stroke="#FFFFFF" stroke-width="0.5" fill="#FFFFFF" fill-rule="nonzero" transform="translate(29.361608, 9.090931) rotate(45.000000) translate(-29.361608, -9.090931) "></path>
                                <rect id="Rectangle" stroke="#FFFFFF" stroke-width="0.5" fill="#FFFFFF" fill-rule="nonzero" transform="translate(19.211836, 33.651109) rotate(180.000000) translate(-19.211836, -33.651109) " x="18.9818359" y="31.4955792" width="1" height="4.31105991"></rect>
                                <path d="M29.133533,27.1884344 L29.1285784,31.4939634 L29.5896834,31.4934328 L29.594638,27.1879038 L29.133533,27.1884344 Z" id="Rectangle" stroke="#FFFFFF" stroke-width="0.5" fill="#FFFFFF" fill-rule="nonzero" transform="translate(29.361608, 29.340934) rotate(135.000000) translate(-29.361608, -29.340934) "></path>
                                <path d="M33.3846724,17.2350712 L33.3846724,21.5350712 L33.8468844,21.5350712 L33.8468844,17.2350712 L33.3846724,17.2350712 Z" id="Rectangle" stroke="#FFFFFF" stroke-width="0.5" fill="#FFFFFF" fill-rule="nonzero" transform="translate(33.615778, 19.385071) rotate(90.000000) translate(-33.615778, -19.385071) "></path>
                            </g>
                            <rect id="Rectangle" stroke="#2E6DDE" stroke-width="1.60000002" fill="none" fill-rule="nonzero" x="16.8" y="16.8368664" width="128" height="127.496774" rx="6.4000001"></rect>
                        </g>
                    </g>
                </g>
                <g id="Group-3" transform="translate(130.000000, 67.000000)">
                    <rect id="Rectangle" stroke="#2E6DDE" stroke-width="3" fill="#FFFFFF" fill-rule="nonzero" x="1.5" y="1.5" width="197" height="197" rx="12"></rect>
                    <rect id="Rectangle" fill="#1F4791" fill-rule="nonzero" x="138" y="60" width="10" height="80" rx="5"></rect>
                    <circle id="Oval" fill="#2E6DDE" fill-rule="nonzero" cx="143" cy="100" r="17"></circle>
                    <rect id="Rectangle" stroke="#2E6DDE" stroke-width="3" fill="#FFFFFF" fill-rule="nonzero" x="21.5" y="198.5" width="37" height="17" rx="5"></rect>
                    <rect id="Rectangle" stroke="#2E6DDE" stroke-width="3" fill="#FFFFFF" fill-rule="nonzero" x="141.5" y="198.5" width="37" height="17" rx="5"></rect>
                    <g id="Group-2" transform="translate(40.000000, 76.000000)" fill-rule="nonzero">
                        <circle id="Oval" stroke="#2E6DDE" stroke-width="1.19999993" fill="#2E6DDE" cx="24" cy="24" r="24"></circle>
                        <circle id="Oval" stroke="#FFFFFF" stroke-width="1.19999993" cx="24" cy="24" r="12"></circle>
                        <circle id="Oval" fill="#FFFFFF" cx="24" cy="24" r="6"></circle>
                        <rect id="Rectangle" stroke="#FFFFFF" stroke-width="0.599999964" fill="#FFFFFF" x="23.7395508" y="3.39257811" width="1" height="5.40000004"></rect>
                        <path d="M11.0770907,8.63754004 L11.0770907,14.0375397 L11.6770906,14.0375397 L11.6770906,8.63754004 L11.0770907,8.63754004 Z" id="Rectangle" stroke="#FFFFFF" stroke-width="0.599999964" fill="#FFFFFF" transform="translate(11.377091, 11.337540) rotate(-45.000000) translate(-11.377091, -11.337540) "></path>
                        <path d="M5.81993272,21.3294421 L5.81993272,26.7294418 L6.41993268,26.7294418 L6.41993268,21.3294421 L5.81993272,21.3294421 Z" id="Rectangle" stroke="#FFFFFF" stroke-width="0.599999964" fill="#FFFFFF" transform="translate(6.119933, 24.029442) rotate(-90.000000) translate(-6.119933, -24.029442) "></path>
                        <path d="M11.0558316,33.9700202 L11.0558316,39.3700199 L11.6558316,39.3700199 L11.6558316,33.9700202 L11.0558316,33.9700202 Z" id="Rectangle" stroke="#FFFFFF" stroke-width="0.599999964" fill="#FFFFFF" transform="translate(11.355832, 36.670020) rotate(-135.000000) translate(-11.355832, -36.670020) "></path>
                        <path d="M36.4020081,8.63754004 L36.4020081,14.0375397 L37.002008,14.0375397 L37.002008,8.63754004 L36.4020081,8.63754004 Z" id="Rectangle" stroke="#FFFFFF" stroke-width="0.599999964" fill="#FFFFFF" transform="translate(36.702008, 11.337540) rotate(45.000000) translate(-36.702008, -11.337540) "></path>
                        <rect id="Rectangle" stroke="#FFFFFF" stroke-width="0.599999964" fill="#FFFFFF" transform="translate(24.014795, 41.967188) rotate(180.000000) translate(-24.014795, -41.967188) " x="23.7147949" y="39.2671878" width="1" height="5.40000004"></rect>
                        <path d="M36.4020081,33.891852 L36.4020081,39.2918516 L37.002008,39.2918516 L37.002008,33.891852 L36.4020081,33.891852 Z" id="Rectangle" stroke="#FFFFFF" stroke-width="0.599999964" fill="#FFFFFF" transform="translate(36.702008, 36.591852) rotate(135.000000) translate(-36.702008, -36.591852) "></path>
                        <path d="M41.7197205,21.4756335 L41.7197205,26.8756332 L42.3197204,26.8756332 L42.3197204,21.4756335 L41.7197205,21.4756335 Z" id="Rectangle" stroke="#FFFFFF" stroke-width="0.599999964" fill="#FFFFFF" transform="translate(42.019720, 24.175633) rotate(90.000000) translate(-42.019720, -24.175633) "></path>
                    </g>
                    <g id="Spacity-logo-2.0" transform="translate(134.000000, 91.000000)" fill="#FFFFFF">
                        <g id="Group">
                            <g id="Opacity-Logo">
                                <path d="M6.87936084,6.84 C7.72993721,5.98773187 8.9644337,5.64514983 10.1313959,5.93753586 C11.2983581,6.22992188 12.2266361,7.11439382 12.5767592,8.26750096 C11.8061168,8.0334344 10.9778955,8.07812667 10.2367983,8.39376934 C10.2263999,8.38233234 10.2157505,8.37115545 10.2045991,8.35997892 C9.69361196,7.84908879 8.86618071,7.84954143 8.35575063,8.36099033 C7.84532055,8.87243924 7.84486881,9.70152204 8.35474124,10.2135291 C8.37147299,10.2302943 8.38845825,10.2462956 8.40595769,10.261796 C8.11265876,10.9900805 8.07678051,11.7969755 8.30427992,12.5485096 C7.15353234,12.1977071 6.27085062,11.2676567 5.97899992,10.0984447 C5.68714921,8.92923268 6.02892832,7.69231946 6.87936084,6.84 Z" id="Path"></path>
                                <path d="M2.66132187,2.63080994 C6.1620092,-0.87686479 11.8378474,-0.87686479 15.3385351,2.63080994 C17.2906512,4.58265625 18.2352279,7.32755528 17.8985707,10.0701632 C16.9780901,9.19562142 15.7849465,8.66564441 14.5200926,8.56949246 C14.4240335,7.29624813 13.8906664,6.09568276 13.0107435,5.17207186 C12.9790506,5.1388024 12.94685,5.10552 12.9141416,5.07274635 C11.5146719,3.66974692 9.47441856,3.121588 7.5621605,3.63481893 C5.64990244,4.14804986 4.15626316,5.64467018 3.64405426,7.56074503 C3.13184535,9.47681988 3.67891194,11.5211456 5.07911629,12.923409 C5.11689406,12.9612622 5.15501032,12.9984372 5.19346506,13.0349343 C6.11349213,13.9078698 7.30546112,14.4367265 8.56890323,14.5325598 C8.66432518,15.7926723 9.18781187,16.9819706 10.0521369,17.9022869 C7.32559765,18.2280508 4.60080547,17.2809452 2.66132187,15.3333269 C-0.839366534,11.8256522 -0.839366534,6.13848467 2.66132187,2.63080994 Z" id="Path"></path>
                                <path d="M17.402461,13.1876863 C17.3271414,12.9016572 17.2149818,12.6266695 17.0688094,12.3696546 C17.05967,12.3528834 17.0497778,12.3363754 17.0401486,12.3201129 C17.0282255,12.2995351 17.0155671,12.2792026 17.0028914,12.2588878 C16.0899758,10.7844049 14.2223926,10.224528 12.65129,10.9543347 C12.5887306,10.8304098 12.5068238,10.7172892 12.4086629,10.6192451 C12.4010466,10.611614 12.3931857,10.6037547 12.3853421,10.596369 C11.8786496,10.1133904 11.0824428,10.1151896 10.5779296,10.6004534 C10.0734165,11.0857171 10.0390792,11.8827729 10.499983,12.4097932 C10.518736,12.4311431 10.5382556,12.4522121 10.5587928,12.4727903 C10.6678209,12.5823448 10.795391,12.671638 10.9355669,12.7365147 C10.6568628,13.4021528 10.5942383,14.1387833 10.7565641,14.8420653 C10.8226415,15.1304131 10.9261188,15.4088492 11.0643569,15.6702722 C11.0770325,15.6951834 11.0907416,15.7200593 11.1046955,15.7447071 C11.1315704,15.7929855 11.159706,15.841001 11.1893472,15.8879989 C11.1967003,15.8999271 11.2043166,15.9116292 11.2119149,15.9233131 C12.1014004,17.3083211 13.8471758,17.865247 15.3720828,17.2504628 C15.3736287,17.2530974 15.3753178,17.2556449 15.3771425,17.2580939 C16.1996811,16.9246775 16.8615797,16.2853152 17.224229,15.4738969 C17.2223034,15.4722349 17.2202678,15.4707052 17.2181363,15.4693182 C17.5378372,14.7521882 17.6028851,13.9470033 17.402461,13.1876863 Z M14.5399948,14.3701225 L14.5399948,15.7928802 L13.5933655,15.7928802 L13.5933655,14.3701225 L12.2878043,14.3701225 L14.0659261,12.2344854 L15.8455538,14.3701225 L14.5399948,14.3701225 Z" id="Shape" fill-rule="nonzero"></path>
                            </g>
                        </g>
                    </g>
                    <rect id="Rectangle" stroke="#2E6DDE" stroke-width="2" fill-rule="nonzero" x="21" y="21" width="160" height="159" rx="8"></rect>
                </g>
            </g>
        </g>
    </g>
</svg>