<?xml version="1.0" encoding="UTF-8"?>
<svg width="380px" height="245px" viewBox="0 0 380 245" version="1.1" xmlns="http://www.w3.org/2000/svg" xmlns:xlink="http://www.w3.org/1999/xlink">
    <!-- Generator: sketchtool 52 (66869) - http://www.bohemiancoding.com/sketch -->
    <title>B5C3CF6A-C0DC-4645-A01E-584A152A4BD0</title>
    <desc>Created with sketchtool.</desc>
    <g id="Corp-Site-Redesign-2.0" stroke="none" stroke-width="1" fill="none" fill-rule="evenodd">
        <g id="Landing-Page---Desktop-HD" transform="translate(-810.000000, -3354.000000)">
            <g id="Group-10" transform="translate(810.000000, 3354.000000)">
                <rect id="Rectangle" fill="#E0EDFF" fill-rule="nonzero" x="0" y="0" width="380" height="245"></rect>
                <g id="Group-2" transform="translate(85.000000, 36.000000)">
                    <g id="folder-cloud">
                        <path d="M60.173913,15 L45.1304348,0 L7.52173913,0 C3.36597826,0 0,3.35625 0,7.5 L0,135 C0,143.28375 6.73571739,150 15.0434783,150 L157.956522,150 C166.264283,150 173,143.28375 173,135 L173,30 C173,21.71625 166.264283,15 157.956522,15 L60.173913,15 Z" id="Path" stroke="#2E6DDE" stroke-width="3" fill="#FFFFFF"></path>
                        <path d="M173,37.5 L0,37.5 L0,7.5 C0,3.35625 3.36597826,0 7.52173913,0 L45.1304348,0 L60.173913,15 L157.956522,15 C166.264283,15 173,21.71625 173,30 L173,37.5 Z" id="Path" stroke="#2E6DDE" stroke-width="3"></path>
                        <path d="M97.7826087,63.75 C86.8836087,63.75 77.534087,70.35375 73.5325217,79.76625 C71.6859348,79.15875 69.749087,78.75 67.6956522,78.75 C57.3118913,78.75 48.8913043,87.14625 48.8913043,97.5 C48.8913043,107.85375 57.3118913,116.25 67.6956522,116.25 C73.0812174,116.25 91.5245217,116.25 97.7826087,116.25 C112.32213,116.25 124.108696,104.4975 124.108696,90 C124.108696,75.5025 112.32213,63.75 97.7826087,63.75 Z" id="Path" fill="#2E6DDE"></path>
                    </g>
                    <g id="Group" transform="translate(108.000000, 75.000000)">
                        <g id="zoom">
                            <path d="M108.359998,113.399998 C107.070464,113.399998 105.780929,112.907817 104.796567,111.923429 L76.3899683,83.5180654 C74.4212183,81.5505502 74.4212183,78.3587183 76.3899683,76.3912031 C78.3587183,74.4224531 81.5481058,74.4224531 83.5168306,76.3912031 L111.923429,104.796567 C113.892179,106.764082 113.892179,109.955914 111.923429,111.923429 C110.939067,112.907817 109.649533,113.399998 108.359998,113.399998 Z" id="Path" fill="#9BACCC"></path>
                            <circle id="Oval" fill="#E0EDFF" cx="47.8799992" cy="47.8799992" r="45.3599992"></circle>
                            <path d="M47.8799992,95.7599984 C21.4790684,95.7599984 0,74.2809299 0,47.8799992 C0,21.4790684 21.4790684,0 47.8799992,0 C74.2809299,0 95.7599984,21.4790684 95.7599984,47.8799992 C95.7599984,74.2809299 74.2809299,95.7599984 47.8799992,95.7599984 Z M47.8799992,5.03999991 C24.2574692,5.03999991 5.03999991,24.2574692 5.03999991,47.8799992 C5.03999991,71.5025292 24.2574692,90.7199985 47.8799992,90.7199985 C71.5025292,90.7199985 90.7199985,71.5025292 90.7199985,47.8799992 C90.7199985,24.2574692 71.5025292,5.03999991 47.8799992,5.03999991 Z" id="Shape" fill="#AEC2E6" fill-rule="nonzero"></path>
                        </g>
                        <text id="DENIED" font-family="DankMono-Regular, Dank Mono" font-size="20.9999996" font-weight="normal" fill="#2E6DDE">
                            <tspan x="15.3999997" y="55.9999994">DENIED</tspan>
                        </text>
                    </g>
                </g>
            </g>
        </g>
    </g>
</svg>