<?xml version="1.0" encoding="UTF-8"?>
<svg width="380px" height="245px" viewBox="0 0 380 245" version="1.1" xmlns="http://www.w3.org/2000/svg" xmlns:xlink="http://www.w3.org/1999/xlink">
    <!-- Generator: sketchtool 52 (66869) - http://www.bohemiancoding.com/sketch -->
    <title>7E05108D-D88F-4774-AECB-17EE8701A1E3</title>
    <desc>Created with sketchtool.</desc>
    <g id="Corp-Site-Redesign-2.0" stroke="none" stroke-width="1" fill="none" fill-rule="evenodd">
        <g id="Landing-Page---Desktop-HD" transform="translate(-810.000000, -3918.000000)">
            <g id="Group-4" transform="translate(810.000000, 3918.000000)">
                <rect id="Rectangle" fill="#E0EDFF" fill-rule="nonzero" x="0" y="0" width="380" height="245"></rect>
                <g id="Group-2" transform="translate(37.000000, 16.000000)">
                    <circle id="Oval-Copy-2" stroke="#2E6DDE" stroke-width="2" fill-rule="nonzero" cx="21" cy="21" r="21"></circle>
                    <g id="ETHEREUM-SVG" transform="translate(13.000000, 8.000000)" fill="#2E6DDE">
                        <polygon id="Path" opacity="0.45" points="0.0170025189 12.9429134 7.49811083 17.5492126 7.49811083 0.00984251969"></polygon>
                        <polygon id="Path" opacity="0.6" points="0.0170025189 12.9429134 7.49811083 9.3996063 14.9792191 12.9429134 7.49811083 17.5492126"></polygon>
                        <polygon id="Path" points="14.9792191 12.9429134 7.49811083 17.5492126 7.49811083 0.00984251969"></polygon>
                        <polygon id="Path" opacity="0.45" points="7.49811083 24.9901575 7.49811083 18.6122047 0.0170025189 14.0059055"></polygon>
                        <polygon id="Path" opacity="0.8" points="7.49811083 24.9901575 7.49811083 18.6122047 14.9829975 14.0059055"></polygon>
                    </g>
                </g>
                <g id="Group-2-Copy-2" opacity="0.800000012" transform="translate(307.000000, 20.000000)">
                    <circle id="Oval-Copy-2" stroke="#2E6DDE" stroke-width="1.5999999" fill-rule="nonzero" cx="17" cy="17" r="17"></circle>
                    <g id="ETHEREUM-SVG" transform="translate(10.523810, 6.476190)" fill="#2E6DDE">
                        <polygon id="Path" opacity="0.45" points="0.0137639439 10.4775966 6.06989924 14.2065054 6.06989924 0.00796775403"></polygon>
                        <polygon id="Path" opacity="0.6" points="0.0137639439 10.4775966 6.06989924 7.6092051 12.1260345 10.4775966 6.06989924 14.2065054"></polygon>
                        <polygon id="Path" points="12.1260345 10.4775966 6.06989924 14.2065054 6.06989924 0.00796775403"></polygon>
                        <polygon id="Path" opacity="0.45" points="6.06989924 20.2301275 6.06989924 15.0670229 0.0137639439 11.338114"></polygon>
                        <polygon id="Path" opacity="0.8" points="6.06989924 20.2301275 6.06989924 15.0670229 12.1290932 11.338114"></polygon>
                    </g>
                </g>
                <g id="Group-2-Copy" opacity="0.400000006" transform="translate(174.000000, 11.000000)">
                    <circle id="Oval-Copy-2" stroke="#2E6DDE" fill-rule="nonzero" cx="10.5" cy="10.5" r="10.5"></circle>
                    <g id="ETHEREUM-SVG" transform="translate(6.500000, 4.000000)" fill="#2E6DDE">
                        <polygon id="Path" opacity="0.45" points="0.00850125945 6.47145669 3.74905542 8.7746063 3.74905542 0.00492125984"></polygon>
                        <polygon id="Path" opacity="0.6" points="0.00850125945 6.47145669 3.74905542 4.69980315 7.48960957 6.47145669 3.74905542 8.7746063"></polygon>
                        <polygon id="Path" points="7.48960957 6.47145669 3.74905542 8.7746063 3.74905542 0.00492125984"></polygon>
                        <polygon id="Path" opacity="0.45" points="3.74905542 12.4950787 3.74905542 9.30610236 0.00850125945 7.00295276"></polygon>
                        <polygon id="Path" opacity="0.8" points="3.74905542 12.4950787 3.74905542 9.30610236 7.49149874 7.00295276"></polygon>
                    </g>
                </g>
                <g id="Group-2-Copy-3" opacity="0.400000006" transform="translate(111.000000, 195.000000)">
                    <circle id="Oval-Copy-2" stroke="#2E6DDE" fill-rule="nonzero" cx="10.5" cy="10.5" r="10.5"></circle>
                    <g id="ETHEREUM-SVG" transform="translate(6.500000, 4.000000)" fill="#2E6DDE">
                        <polygon id="Path" opacity="0.45" points="0.00850125945 6.47145669 3.74905542 8.7746063 3.74905542 0.00492125984"></polygon>
                        <polygon id="Path" opacity="0.6" points="0.00850125945 6.47145669 3.74905542 4.69980315 7.48960957 6.47145669 3.74905542 8.7746063"></polygon>
                        <polygon id="Path" points="7.48960957 6.47145669 3.74905542 8.7746063 3.74905542 0.00492125984"></polygon>
                        <polygon id="Path" opacity="0.45" points="3.74905542 12.4950787 3.74905542 9.30610236 0.00850125945 7.00295276"></polygon>
                        <polygon id="Path" opacity="0.8" points="3.74905542 12.4950787 3.74905542 9.30610236 7.49149874 7.00295276"></polygon>
                    </g>
                </g>
                <g id="question" transform="translate(174.000000, 93.000000)" fill="#2E6DDE">
                    <path d="M10.648,42 C10.648,39.308 10.499,35.822 12.054,32.559 C12.992,30.593 14.736,28.516 17.288,26.329 C23.309,21.238 25.374,18.998 25.374,14.102 C25.374,8.33 21.295,5.782 15.452,5.782 C10.661,5.782 6.998,6.98 2.718,9.141 L0.413,3.868 C5.336,1.289 10.479,0 15.844,0 C20.818,0 24.685,1.225 27.446,3.672 C30.206,6.12 31.587,9.57 31.587,14.024 C31.587,17.469 30.767,20.295 28.579,23.145 C27.589,24.434 25.454,26.511 22.173,29.375 C19.542,31.615 17.804,33.477 16.958,34.961 C15.58,37.377 15.688,40.173 15.688,42 L10.648,42 Z" id="Path"></path>
                    <circle id="Oval" cx="13" cy="54" r="5"></circle>
                </g>
                <circle id="Oval" stroke="#2E6DDE" stroke-width="5" fill-rule="nonzero" cx="190" cy="123" r="60"></circle>
                <g id="Group-3" transform="translate(30.000000, 174.000000)">
                    <circle id="Oval" stroke="#2E6DDE" stroke-width="2" fill-rule="nonzero" cx="26" cy="26" r="26"></circle>
                    <g id="Opacity-Logo" transform="translate(13.000000, 13.000000)">
                        <path d="M10.370565,10.4253724 C11.6382244,9.1510703 13.4780605,8.63884533 15.2172466,9.07601776 C16.9564327,9.51319018 18.3398949,10.8356431 18.8617021,12.5597564 C17.7131726,12.2097826 16.4788301,12.276606 15.3743334,12.7485515 C15.3588361,12.731451 15.3429647,12.7147394 15.3263452,12.6980284 C14.5647938,11.934151 13.3316288,11.9348278 12.5709076,12.6995407 C11.8101864,13.4642535 11.8095131,14.7038892 12.5694032,15.4694366 C12.5943395,15.4945037 12.6196535,15.5184287 12.6457339,15.5416048 C12.2086148,16.6305279 12.1551435,17.8369885 12.494198,18.9606742 C10.7791775,18.4361581 9.46366974,17.0455568 9.02870905,15.2973637 C8.59374836,13.5491705 9.10312002,11.6997512 10.370565,10.4253724 Z" id="Path" fill="#FFFFFF"></path>
                        <path d="M3.89927464,3.91977474 C9.09830591,-1.30659158 17.5277534,-1.30659158 22.7267852,3.91977474 C25.6259624,6.82798733 27.0287965,10.9178329 26.5288115,15.0042647 C25.1617636,13.7012147 23.3897714,12.9115593 21.5112788,12.7682948 C21.368617,10.8711858 20.5764891,9.08236705 19.2696752,7.70620499 C19.2226066,7.65663414 19.174784,7.60704403 19.1262073,7.55821193 C17.0477906,5.46777039 14.0177169,4.6510244 11.1777348,5.41572838 C8.33775268,6.18043236 6.1194805,8.41036719 5.35877556,11.265281 C4.59807063,14.1201948 5.41054431,17.1662 7.490052,19.2555448 C7.54615749,19.3119452 7.60276569,19.3673354 7.65987659,19.4217152 C9.02625098,20.722372 10.7964988,21.5103581 12.6728946,21.6531478 C12.8146101,23.5306906 13.5920642,25.3027217 14.875713,26.673975 C10.8264045,27.1593567 6.77969065,25.748188 3.89927464,22.8462751 C-1.29975821,17.6199088 -1.29975821,9.14614106 3.89927464,3.91977474 Z" id="Path" fill="#FFFFFF"></path>
                        <path d="M25.9011139,19.3636922 C25.787274,18.9464552 25.6177533,18.5453245 25.3968247,18.1704113 C25.3830111,18.1459467 25.3680599,18.1218663 25.353506,18.0981438 C25.3354852,18.0681264 25.3163529,18.038467 25.2971946,18.0088333 C23.9173914,15.8579727 21.0946799,15.0412678 18.7200765,16.105853 C18.6255228,15.925081 18.5017268,15.7600694 18.3533639,15.6170505 C18.3418525,15.6059188 18.3299714,15.5944543 18.3181164,15.5836805 C17.5522888,14.879149 16.3488822,14.8817736 15.5863485,15.5896385 C14.8238147,16.2975034 14.7719165,17.4601863 15.468538,18.2289623 C15.4968817,18.260106 15.5263842,18.2908397 15.5574246,18.3208576 C15.7222123,18.4806671 15.9150249,18.6109211 16.1268902,18.7055583 C15.7056499,19.6765392 15.6109978,20.7510783 15.8563409,21.7769712 C15.956212,22.1975905 16.1126102,22.6037514 16.3215466,22.9850949 C16.3407049,23.0214334 16.3614251,23.0577204 16.3825155,23.0936747 C16.4231348,23.1640995 16.4656596,23.2341407 16.51046,23.3026977 C16.5215737,23.3200975 16.5330852,23.3371677 16.5445695,23.3542112 C17.8889598,25.374553 20.5275679,26.1869531 22.8323502,25.2901537 C22.8346866,25.2939968 22.8372396,25.297713 22.8399976,25.3012854 C24.0832026,24.8149235 25.0836126,23.8822716 25.6317298,22.6986379 C25.6288193,22.6962135 25.6257427,22.6939821 25.622521,22.6919589 C26.1057248,21.6458655 26.2040399,20.4713246 25.9011139,19.3636922 Z M21.5747118,21.0885379 L21.5747118,23.163946 L20.1439528,23.163946 L20.1439528,21.0885379 L18.1706954,21.0885379 L20.8581926,17.973237 L23.5479659,21.0885379 L21.5747118,21.0885379 Z" id="Shape" fill="#FFFFFF" fill-rule="nonzero"></path>
                        <path d="M10.370565,10.4253724 C11.6382244,9.1510703 13.4780605,8.63884533 15.2172466,9.07601776 C16.9564327,9.51319018 18.3398949,10.8356431 18.8617021,12.5597564 C17.7131726,12.2097826 16.4788301,12.276606 15.3743334,12.7485515 C15.3588361,12.731451 15.3429647,12.7147394 15.3263452,12.6980284 C14.5647938,11.934151 13.3316288,11.9348278 12.5709076,12.6995407 C11.8101864,13.4642535 11.8095131,14.7038892 12.5694032,15.4694366 C12.5943395,15.4945037 12.6196535,15.5184287 12.6457339,15.5416048 C12.2086148,16.6305279 12.1551435,17.8369885 12.494198,18.9606742 C10.7791775,18.4361581 9.46366974,17.0455568 9.02870905,15.2973637 C8.59374836,13.5491705 9.10312002,11.6997512 10.370565,10.4253724 Z" id="Path" fill="#2E6DDE"></path>
                        <path d="M3.89927464,3.91977474 C9.09830591,-1.30659158 17.5277534,-1.30659158 22.7267852,3.91977474 C25.6259624,6.82798733 27.0287965,10.9178329 26.5288115,15.0042647 C25.1617636,13.7012147 23.3897714,12.9115593 21.5112788,12.7682948 C21.368617,10.8711858 20.5764891,9.08236705 19.2696752,7.70620499 C19.2226066,7.65663414 19.174784,7.60704403 19.1262073,7.55821193 C17.0477906,5.46777039 14.0177169,4.6510244 11.1777348,5.41572838 C8.33775268,6.18043236 6.1194805,8.41036719 5.35877556,11.265281 C4.59807063,14.1201948 5.41054431,17.1662 7.490052,19.2555448 C7.54615749,19.3119452 7.60276569,19.3673354 7.65987659,19.4217152 C9.02625098,20.722372 10.7964988,21.5103581 12.6728946,21.6531478 C12.8146101,23.5306906 13.5920642,25.3027217 14.875713,26.673975 C10.8264045,27.1593567 6.77969065,25.748188 3.89927464,22.8462751 C-1.29975821,17.6199088 -1.29975821,9.14614106 3.89927464,3.91977474 Z" id="Path" fill="#2E6DDE"></path>
                        <path d="M25.9011139,19.3636922 C25.787274,18.9464552 25.6177533,18.5453245 25.3968247,18.1704113 C25.3830111,18.1459467 25.3680599,18.1218663 25.353506,18.0981438 C25.3354852,18.0681264 25.3163529,18.038467 25.2971946,18.0088333 C23.9173914,15.8579727 21.0946799,15.0412678 18.7200765,16.105853 C18.6255228,15.925081 18.5017268,15.7600694 18.3533639,15.6170505 C18.3418525,15.6059188 18.3299714,15.5944543 18.3181164,15.5836805 C17.5522888,14.879149 16.3488822,14.8817736 15.5863485,15.5896385 C14.8238147,16.2975034 14.7719165,17.4601863 15.468538,18.2289623 C15.4968817,18.260106 15.5263842,18.2908397 15.5574246,18.3208576 C15.7222123,18.4806671 15.9150249,18.6109211 16.1268902,18.7055583 C15.7056499,19.6765392 15.6109978,20.7510783 15.8563409,21.7769712 C15.956212,22.1975905 16.1126102,22.6037514 16.3215466,22.9850949 C16.3407049,23.0214334 16.3614251,23.0577204 16.3825155,23.0936747 C16.4231348,23.1640995 16.4656596,23.2341407 16.51046,23.3026977 C16.5215737,23.3200975 16.5330852,23.3371677 16.5445695,23.3542112 C17.8889598,25.374553 20.5275679,26.1869531 22.8323502,25.2901537 C22.8346866,25.2939968 22.8372396,25.297713 22.8399976,25.3012854 C24.0832026,24.8149235 25.0836126,23.8822716 25.6317298,22.6986379 C25.6288193,22.6962135 25.6257427,22.6939821 25.622521,22.6919589 C26.1057248,21.6458655 26.2040399,20.4713246 25.9011139,19.3636922 Z M21.5747118,21.0885379 L21.5747118,23.163946 L20.1439528,23.163946 L20.1439528,21.0885379 L18.1706954,21.0885379 L20.8581926,17.973237 L23.5479659,21.0885379 L21.5747118,21.0885379 Z" id="Shape" fill="#2E6DDE" fill-rule="nonzero"></path>
                    </g>
                </g>
                <g id="Group-3-Copy" opacity="0.300000012" transform="translate(285.000000, 117.000000)">
                    <circle id="Oval" stroke="#2E6DDE" fill-rule="nonzero" cx="13" cy="13" r="13"></circle>
                    <g id="Opacity-Logo" transform="translate(6.500000, 6.500000)">
                        <path d="M5.18528251,5.21268619 C5.81911221,4.57553515 6.73903024,4.31942267 7.6086233,4.53800888 C8.47821636,4.75659509 9.16994745,5.41782153 9.43085106,6.27987819 C8.85658631,6.10489129 8.23941505,6.13830299 7.68716669,6.37427575 C7.67941804,6.3657255 7.67148236,6.35736972 7.6631726,6.34901421 C7.28239689,5.96707551 6.6658144,5.96741391 6.2854538,6.34977034 C5.90509319,6.73212677 5.90475656,7.35194459 6.28470162,7.7347183 C6.29716973,7.74725184 6.30982675,7.75921434 6.32286693,7.77080241 C6.1043074,8.31526395 6.07757176,8.91849425 6.24709902,9.48033708 C5.38958873,9.21807903 4.73183487,8.52277842 4.51435452,7.64868183 C4.29687418,6.77458524 4.55156001,5.84987561 5.18528251,5.21268619 Z" id="Path" fill="#FFFFFF"></path>
                        <path d="M1.94963732,1.95988737 C4.54915295,-0.65329579 8.7638767,-0.65329579 11.3633926,1.95988737 C12.8129812,3.41399367 13.5143983,5.45891643 13.2644058,7.50213237 C12.5808818,6.85060733 11.6948857,6.45577967 10.7556394,6.38414741 C10.6843085,5.43559292 10.2882445,4.54118353 9.63483762,3.85310249 C9.61130332,3.82831707 9.587392,3.80352201 9.56310365,3.77910597 C8.52389532,2.7338852 7.00885846,2.3255122 5.5888674,2.70786419 C4.16887634,3.09021618 3.05974025,4.2051836 2.67938778,5.6326405 C2.29903532,7.06009741 2.70527216,8.58309999 3.745026,9.62777238 C3.77307875,9.65597262 3.80138285,9.6836677 3.8299383,9.71085761 C4.51312549,10.361186 5.39824939,10.7551791 6.33644729,10.8265739 C6.40730505,11.7653453 6.79603209,12.6513608 7.43785648,13.3369875 C5.41320223,13.5796783 3.38984533,12.874094 1.94963732,11.4231376 C-0.649879107,8.80995439 -0.649879107,4.57307053 1.94963732,1.95988737 Z" id="Path" fill="#FFFFFF"></path>
                        <path d="M12.9505569,9.68184612 C12.893637,9.47322761 12.8088767,9.27266226 12.6984124,9.08520566 C12.6915056,9.07297336 12.68403,9.06093314 12.676753,9.04907189 C12.6677426,9.03406321 12.6581765,9.01923351 12.6485973,9.00441665 C11.9586957,7.92898634 10.54734,7.52063392 9.36003826,8.05292652 C9.31276142,7.96254049 9.2508634,7.88003471 9.17668197,7.80852524 C9.17092624,7.80295939 9.16498571,7.79722713 9.15905818,7.79184026 C8.77614438,7.43957448 8.17444108,7.4408868 7.79317423,7.79481926 C7.41190737,8.14875172 7.38595827,8.73009314 7.73426901,9.11448116 C7.74844087,9.13005298 7.76319208,9.14541987 7.7787123,9.16042881 C7.86110613,9.24033356 7.95751247,9.30546055 8.06344512,9.35277913 C7.85282496,9.8382696 7.80549889,10.3755392 7.92817047,10.8884856 C7.97810599,11.0987952 8.05630509,11.3018757 8.16077332,11.4925475 C8.17035247,11.5107167 8.18071256,11.5288602 8.19125773,11.5468373 C8.21156739,11.5820498 8.2328298,11.6170704 8.25523002,11.6513488 C8.26078685,11.6600488 8.26654258,11.6685839 8.27228476,11.6771056 C8.94447992,12.6872765 10.263784,13.0934765 11.4161751,12.6450768 C11.4173433,12.6469984 11.4186198,12.6488565 11.4199988,12.6506427 C12.0416013,12.4074618 12.5418063,11.9411358 12.8158649,11.349319 C12.8144096,11.3481067 12.8128714,11.346991 12.8112605,11.3459794 C13.0528624,10.8229327 13.1020199,10.2356623 12.9505569,9.68184612 Z M10.7873559,10.544269 L10.7873559,11.581973 L10.0719764,11.581973 L10.0719764,10.544269 L9.08534769,10.544269 L10.4290963,8.9866185 L11.773983,10.544269 L10.7873559,10.544269 Z" id="Shape" fill="#FFFFFF" fill-rule="nonzero"></path>
                        <path d="M5.18528251,5.21268619 C5.81911221,4.57553515 6.73903024,4.31942267 7.6086233,4.53800888 C8.47821636,4.75659509 9.16994745,5.41782153 9.43085106,6.27987819 C8.85658631,6.10489129 8.23941505,6.13830299 7.68716669,6.37427575 C7.67941804,6.3657255 7.67148236,6.35736972 7.6631726,6.34901421 C7.28239689,5.96707551 6.6658144,5.96741391 6.2854538,6.34977034 C5.90509319,6.73212677 5.90475656,7.35194459 6.28470162,7.7347183 C6.29716973,7.74725184 6.30982675,7.75921434 6.32286693,7.77080241 C6.1043074,8.31526395 6.07757176,8.91849425 6.24709902,9.48033708 C5.38958873,9.21807903 4.73183487,8.52277842 4.51435452,7.64868183 C4.29687418,6.77458524 4.55156001,5.84987561 5.18528251,5.21268619 Z" id="Path" fill="#2E6DDE"></path>
                        <path d="M1.94963732,1.95988737 C4.54915295,-0.65329579 8.7638767,-0.65329579 11.3633926,1.95988737 C12.8129812,3.41399367 13.5143983,5.45891643 13.2644058,7.50213237 C12.5808818,6.85060733 11.6948857,6.45577967 10.7556394,6.38414741 C10.6843085,5.43559292 10.2882445,4.54118353 9.63483762,3.85310249 C9.61130332,3.82831707 9.587392,3.80352201 9.56310365,3.77910597 C8.52389532,2.7338852 7.00885846,2.3255122 5.5888674,2.70786419 C4.16887634,3.09021618 3.05974025,4.2051836 2.67938778,5.6326405 C2.29903532,7.06009741 2.70527216,8.58309999 3.745026,9.62777238 C3.77307875,9.65597262 3.80138285,9.6836677 3.8299383,9.71085761 C4.51312549,10.361186 5.39824939,10.7551791 6.33644729,10.8265739 C6.40730505,11.7653453 6.79603209,12.6513608 7.43785648,13.3369875 C5.41320223,13.5796783 3.38984533,12.874094 1.94963732,11.4231376 C-0.649879107,8.80995439 -0.649879107,4.57307053 1.94963732,1.95988737 Z" id="Path" fill="#2E6DDE"></path>
                        <path d="M12.9505569,9.68184612 C12.893637,9.47322761 12.8088767,9.27266226 12.6984124,9.08520566 C12.6915056,9.07297336 12.68403,9.06093314 12.676753,9.04907189 C12.6677426,9.03406321 12.6581765,9.01923351 12.6485973,9.00441665 C11.9586957,7.92898634 10.54734,7.52063392 9.36003826,8.05292652 C9.31276142,7.96254049 9.2508634,7.88003471 9.17668197,7.80852524 C9.17092624,7.80295939 9.16498571,7.79722713 9.15905818,7.79184026 C8.77614438,7.43957448 8.17444108,7.4408868 7.79317423,7.79481926 C7.41190737,8.14875172 7.38595827,8.73009314 7.73426901,9.11448116 C7.74844087,9.13005298 7.76319208,9.14541987 7.7787123,9.16042881 C7.86110613,9.24033356 7.95751247,9.30546055 8.06344512,9.35277913 C7.85282496,9.8382696 7.80549889,10.3755392 7.92817047,10.8884856 C7.97810599,11.0987952 8.05630509,11.3018757 8.16077332,11.4925475 C8.17035247,11.5107167 8.18071256,11.5288602 8.19125773,11.5468373 C8.21156739,11.5820498 8.2328298,11.6170704 8.25523002,11.6513488 C8.26078685,11.6600488 8.26654258,11.6685839 8.27228476,11.6771056 C8.94447992,12.6872765 10.263784,13.0934765 11.4161751,12.6450768 C11.4173433,12.6469984 11.4186198,12.6488565 11.4199988,12.6506427 C12.0416013,12.4074618 12.5418063,11.9411358 12.8158649,11.349319 C12.8144096,11.3481067 12.8128714,11.346991 12.8112605,11.3459794 C13.0528624,10.8229327 13.1020199,10.2356623 12.9505569,9.68184612 Z M10.7873559,10.544269 L10.7873559,11.581973 L10.0719764,11.581973 L10.0719764,10.544269 L9.08534769,10.544269 L10.4290963,8.9866185 L11.773983,10.544269 L10.7873559,10.544269 Z" id="Shape" fill="#2E6DDE" fill-rule="nonzero"></path>
                    </g>
                </g>
                <g id="Group-3-Copy-2" opacity="0.200000003" transform="translate(348.000000, 80.000000)">
                    <circle id="Oval" stroke="#2E6DDE" stroke-width="0.5" fill-rule="nonzero" cx="6.5" cy="6.5" r="6.5"></circle>
                    <g id="Opacity-Logo" transform="translate(3.250000, 3.250000)">
                        <path d="M2.59264125,2.6063431 C2.9095561,2.28776757 3.36951512,2.15971133 3.80431165,2.26900444 C4.23910818,2.37829755 4.58497373,2.70891076 4.71542553,3.13993909 C4.42829315,3.05244565 4.11970752,3.0691515 3.84358335,3.18713787 C3.83970902,3.18286275 3.83574118,3.17868486 3.8315863,3.17450711 C3.64119845,2.98353776 3.3329072,2.98370695 3.1427269,3.17488517 C2.95254659,3.36606339 2.95237828,3.6759723 3.14235081,3.86735915 C3.14858486,3.87362592 3.15491337,3.87960717 3.16143346,3.8854012 C3.0521537,4.15763197 3.03878588,4.45924713 3.12354951,4.74016854 C2.69479436,4.60903951 2.36591743,4.26138921 2.25717726,3.82434092 C2.14843709,3.38729262 2.27578,2.9249378 2.59264125,2.6063431 Z" id="Path" fill="#FFFFFF"></path>
                        <path d="M0.974818661,0.979943685 C2.27457648,-0.326647895 4.38193835,-0.326647895 5.6816963,0.979943685 C6.40649061,1.70699683 6.75719913,2.72945822 6.63220288,3.75106619 C6.2904409,3.42530366 5.84744284,3.22788983 5.3778197,3.19207371 C5.34215424,2.71779646 5.14412226,2.27059176 4.81741881,1.92655125 C4.80565166,1.91415854 4.793696,1.90176101 4.78155183,1.88955298 C4.26194766,1.3669426 3.50442923,1.1627561 2.7944337,1.35393209 C2.08443817,1.54510809 1.52987012,2.1025918 1.33969389,2.81632025 C1.14951766,3.53004871 1.35263608,4.29154999 1.872513,4.81388619 C1.88653937,4.82798631 1.90069142,4.84183385 1.91496915,4.85542881 C2.25656274,5.18059301 2.69912469,5.37758953 3.16822364,5.41328694 C3.20365252,5.88267265 3.39801605,6.32568042 3.71892824,6.66849374 C2.70660111,6.78983917 1.69492266,6.437047 0.974818661,5.71156878 C-0.324939554,4.4049772 -0.324939554,2.28653527 0.974818661,0.979943685 Z" id="Path" fill="#FFFFFF"></path>
                        <path d="M6.47527847,4.84092306 C6.44681851,4.73661381 6.40443833,4.63633113 6.34920619,4.54260283 C6.34575278,4.53648668 6.34201498,4.53046657 6.3383765,4.52453595 C6.33387131,4.51703161 6.32908823,4.50961676 6.32429866,4.50220833 C5.97934784,3.96449317 5.27366998,3.76031696 4.68001913,4.02646326 C4.65638071,3.98127025 4.6254317,3.94001736 4.58834098,3.90426262 C4.58546312,3.90147969 4.58249285,3.89861357 4.57952909,3.89592013 C4.38807219,3.71978724 4.08722054,3.7204434 3.89658711,3.89740963 C3.70595368,4.07437586 3.69297913,4.36504657 3.8671345,4.55724058 C3.87422044,4.56502649 3.88159604,4.57270994 3.88935615,4.58021441 C3.93055307,4.62016678 3.97875623,4.65273027 4.03172256,4.67638956 C3.92641248,4.9191348 3.90274945,5.18776958 3.96408523,5.4442428 C3.98905299,5.54939762 4.02815254,5.65093785 4.08038666,5.74627373 C4.08517623,5.75535834 4.09035628,5.7644301 4.09562886,5.77341867 C4.1057837,5.79102488 4.1164149,5.80853518 4.12761501,5.82567442 C4.13039343,5.83002438 4.13327129,5.83429193 4.13614238,5.83855279 C4.47223996,6.34363824 5.13189198,6.54673826 5.70808754,6.32253842 C5.70867166,6.32349921 5.7093099,6.32442825 5.70999939,6.32532135 C6.02080066,6.20373088 6.27090314,5.97056791 6.40793244,5.67465948 C6.40720482,5.67405337 6.40643568,5.67349551 6.40563026,5.67298972 C6.52643121,5.41146637 6.55100997,5.11783115 6.47527847,4.84092306 Z M5.39367794,5.27213448 L5.39367794,5.79098649 L5.0359882,5.79098649 L5.0359882,5.27213448 L4.54267384,5.27213448 L5.21454814,4.49330925 L5.88699149,5.27213448 L5.39367794,5.27213448 Z" id="Shape" fill="#FFFFFF" fill-rule="nonzero"></path>
                        <path d="M2.59264125,2.6063431 C2.9095561,2.28776757 3.36951512,2.15971133 3.80431165,2.26900444 C4.23910818,2.37829755 4.58497373,2.70891076 4.71542553,3.13993909 C4.42829315,3.05244565 4.11970752,3.0691515 3.84358335,3.18713787 C3.83970902,3.18286275 3.83574118,3.17868486 3.8315863,3.17450711 C3.64119845,2.98353776 3.3329072,2.98370695 3.1427269,3.17488517 C2.95254659,3.36606339 2.95237828,3.6759723 3.14235081,3.86735915 C3.14858486,3.87362592 3.15491337,3.87960717 3.16143346,3.8854012 C3.0521537,4.15763197 3.03878588,4.45924713 3.12354951,4.74016854 C2.69479436,4.60903951 2.36591743,4.26138921 2.25717726,3.82434092 C2.14843709,3.38729262 2.27578,2.9249378 2.59264125,2.6063431 Z" id="Path" fill="#2E6DDE"></path>
                        <path d="M0.974818661,0.979943685 C2.27457648,-0.326647895 4.38193835,-0.326647895 5.6816963,0.979943685 C6.40649061,1.70699683 6.75719913,2.72945822 6.63220288,3.75106619 C6.2904409,3.42530366 5.84744284,3.22788983 5.3778197,3.19207371 C5.34215424,2.71779646 5.14412226,2.27059176 4.81741881,1.92655125 C4.80565166,1.91415854 4.793696,1.90176101 4.78155183,1.88955298 C4.26194766,1.3669426 3.50442923,1.1627561 2.7944337,1.35393209 C2.08443817,1.54510809 1.52987012,2.1025918 1.33969389,2.81632025 C1.14951766,3.53004871 1.35263608,4.29154999 1.872513,4.81388619 C1.88653937,4.82798631 1.90069142,4.84183385 1.91496915,4.85542881 C2.25656274,5.18059301 2.69912469,5.37758953 3.16822364,5.41328694 C3.20365252,5.88267265 3.39801605,6.32568042 3.71892824,6.66849374 C2.70660111,6.78983917 1.69492266,6.437047 0.974818661,5.71156878 C-0.324939554,4.4049772 -0.324939554,2.28653527 0.974818661,0.979943685 Z" id="Path" fill="#2E6DDE"></path>
                        <path d="M6.47527847,4.84092306 C6.44681851,4.73661381 6.40443833,4.63633113 6.34920619,4.54260283 C6.34575278,4.53648668 6.34201498,4.53046657 6.3383765,4.52453595 C6.33387131,4.51703161 6.32908823,4.50961676 6.32429866,4.50220833 C5.97934784,3.96449317 5.27366998,3.76031696 4.68001913,4.02646326 C4.65638071,3.98127025 4.6254317,3.94001736 4.58834098,3.90426262 C4.58546312,3.90147969 4.58249285,3.89861357 4.57952909,3.89592013 C4.38807219,3.71978724 4.08722054,3.7204434 3.89658711,3.89740963 C3.70595368,4.07437586 3.69297913,4.36504657 3.8671345,4.55724058 C3.87422044,4.56502649 3.88159604,4.57270994 3.88935615,4.58021441 C3.93055307,4.62016678 3.97875623,4.65273027 4.03172256,4.67638956 C3.92641248,4.9191348 3.90274945,5.18776958 3.96408523,5.4442428 C3.98905299,5.54939762 4.02815254,5.65093785 4.08038666,5.74627373 C4.08517623,5.75535834 4.09035628,5.7644301 4.09562886,5.77341867 C4.1057837,5.79102488 4.1164149,5.80853518 4.12761501,5.82567442 C4.13039343,5.83002438 4.13327129,5.83429193 4.13614238,5.83855279 C4.47223996,6.34363824 5.13189198,6.54673826 5.70808754,6.32253842 C5.70867166,6.32349921 5.7093099,6.32442825 5.70999939,6.32532135 C6.02080066,6.20373088 6.27090314,5.97056791 6.40793244,5.67465948 C6.40720482,5.67405337 6.40643568,5.67349551 6.40563026,5.67298972 C6.52643121,5.41146637 6.55100997,5.11783115 6.47527847,4.84092306 Z M5.39367794,5.27213448 L5.39367794,5.79098649 L5.0359882,5.79098649 L5.0359882,5.27213448 L4.54267384,5.27213448 L5.21454814,4.49330925 L5.88699149,5.27213448 L5.39367794,5.27213448 Z" id="Shape" fill="#2E6DDE" fill-rule="nonzero"></path>
                    </g>
                </g>
                <g id="Group" transform="translate(295.000000, 174.000000)" fill-rule="nonzero">
                    <circle id="Oval-Copy" stroke="#2E6DDE" stroke-width="2" cx="26" cy="26" r="26"></circle>
                    <g id="bitcoin-2" transform="translate(20.000000, 15.000000)" fill="#2E6DDE">
                        <path d="M8.636,11.0695 L8.636,10.946 C9.7765,10.741 10.6445,10.2915 11.24,9.598 C11.835,8.904 12.1325,8.024 12.1325,6.957 C12.1325,5.414 11.599,4.285 10.532,3.5715 C9.4885,2.8725 7.808,2.518 5.5,2.503 L5.5,0 L4.5,0 L4.5,2.5 L3,2.5 L3,0 L2,0 L2,2.5 L0,2.5 L0,20.5 L2,20.5 L2,23 L3,23 L3,20.5 L4.5,20.5 L4.5,23 L5.5,23 L5.5,20.5 L6.543,20.5 C8.496,20.5 10.0165,20.0485 11.1045,19.146 C12.192,18.243 12.7355,16.9875 12.7355,15.3785 C12.736,12.973 11.3695,11.537 8.636,11.0695 Z M9.966,7.166 C9.966,8.266 9.6415,9.048 8.993,9.5115 C8.3445,9.9755 7.2815,10.207 5.804,10.207 L2.5,10.207 L2.5,4.31 L5.435,4.31 C7.0105,4.31 8.1595,4.5335 8.882,4.981 C9.6045,5.4285 9.966,6.157 9.966,7.166 Z M9.3935,17.8715 C8.659,18.4335 7.5655,18.715 6.1125,18.715 L2.5,18.715 L2.5,12 L5.94,11.9805 C7.475,11.9805 8.618,12.2435 9.369,12.7685 C10.12,13.294 10.4955,14.115 10.4955,15.2305 C10.4955,16.429 10.1275,17.3095 9.3935,17.8715 Z" id="Shape"></path>
                    </g>
                </g>
                <g id="Group-Copy" opacity="0.400000006" transform="translate(41.000000, 109.000000)" fill-rule="nonzero">
                    <circle id="Oval-Copy" stroke="#2E6DDE" stroke-width="0.8" cx="10.5" cy="10.5" r="10.5"></circle>
                    <g id="bitcoin-2" transform="translate(8.076923, 6.057692)" fill="#2E6DDE">
                        <path d="M3.48761538,4.470375 L3.48761538,4.4205 C3.94820192,4.33771154 4.29874038,4.15618269 4.53923077,3.87611538 C4.77951923,3.59584615 4.89966346,3.24046154 4.89966346,2.80955769 C4.89966346,2.18642308 4.68421154,1.73048077 4.25330769,1.44233654 C3.83189423,1.16004808 3.15323077,1.01688462 2.22115385,1.01082692 L2.22115385,0 L1.81730769,0 L1.81730769,1.00961538 L1.21153846,1.00961538 L1.21153846,0 L0.807692308,0 L0.807692308,1.00961538 L0,1.00961538 L0,8.27884615 L0.807692308,8.27884615 L0.807692308,9.28846154 L1.21153846,9.28846154 L1.21153846,8.27884615 L1.81730769,8.27884615 L1.81730769,9.28846154 L2.22115385,9.28846154 L2.22115385,8.27884615 L2.64236538,8.27884615 C3.43107692,8.27884615 4.045125,8.09650962 4.48450962,7.73203846 C4.92369231,7.36736538 5.14318269,6.86033654 5.14318269,6.21054808 C5.14338462,5.23909615 4.59152885,4.65917308 3.48761538,4.470375 Z M4.02473077,2.89396154 C4.02473077,3.33819231 3.89368269,3.654 3.63178846,3.84118269 C3.36989423,4.02856731 2.94060577,4.12205769 2.34392308,4.12205769 L1.00961538,4.12205769 L1.00961538,1.74057692 L2.19490385,1.74057692 C2.83116346,1.74057692 3.29518269,1.83083654 3.58696154,2.01155769 C3.87874038,2.19227885 4.02473077,2.48648077 4.02473077,2.89396154 Z M3.79352885,7.21733654 C3.49690385,7.44429808 3.05529808,7.55798077 2.46850962,7.55798077 L1.00961538,7.55798077 L1.00961538,4.84615385 L2.39884615,4.83827885 C3.01875,4.83827885 3.48034615,4.94449038 3.78363462,5.15650962 C4.08692308,5.36873077 4.23856731,5.70028846 4.23856731,6.15077885 C4.23856731,6.63478846 4.08995192,6.990375 3.79352885,7.21733654 Z" id="Shape"></path>
                    </g>
                </g>
            </g>
        </g>
    </g>
</svg>