<?xml version="1.0" encoding="UTF-8"?>
<svg width="300px" height="300px" viewBox="0 0 300 300" version="1.1" xmlns="http://www.w3.org/2000/svg" xmlns:xlink="http://www.w3.org/1999/xlink">
    <!-- Generator: Sketch 52 (66869) - http://www.bohemiancoding.com/sketch -->
    <title>Spacity logo 2.0</title>
    <desc>Created with Sketch.</desc>
    <g id="User-Signup-and-Login" stroke="none" stroke-width="1" fill="none" fill-rule="evenodd">
        <g id="Login-or-Register-Desktop-Light" transform="translate(-331.000000, -353.000000)">
            <g id="Spacity-logo-2.0" transform="translate(331.000000, 353.000000)">
                <g id="Group">
                    <g id="Path">
                        <path d="M114.656014,114 C128.832287,99.7955312 149.407228,94.0858305 168.856599,98.9589309 C188.305969,103.832031 203.777268,118.57323 209.612653,137.791683 C196.768614,133.890573 182.964924,134.635444 170.613305,139.896156 C170.439998,139.705539 170.262508,139.519257 170.076651,139.332982 C161.560199,130.818146 147.769679,130.825691 139.262511,139.349839 C130.755343,147.873987 130.747813,161.692034 139.245687,170.225485 C139.52455,170.504904 139.807637,170.771593 140.099295,171.029934 C135.210979,183.168009 134.613009,196.616258 138.404665,209.141826 C119.225539,203.295118 104.514177,187.794279 99.6499986,168.307412 C94.7858202,148.820545 100.482139,128.205324 114.656014,114 Z" fill="#80B9FF"></path>
                        <path d="M44.3553645,43.8468323 C102.700153,-14.6144132 197.297456,-14.6144132 255.642251,43.8468323 C288.177521,76.3776042 303.920465,122.125921 298.309512,167.836054 C282.968169,153.260357 263.082442,144.427407 242.001544,142.824874 C240.400558,121.604136 231.511107,101.594713 216.845725,86.2011976 C216.31751,85.6467066 215.780833,85.092 215.235693,84.5457725 C191.911198,61.1624487 157.906976,52.0264667 126.036008,60.5803155 C94.1650407,69.1341643 69.2710527,94.0778364 60.7342376,126.012417 C52.1974225,157.946998 61.315199,192.019094 84.6519382,215.39015 C85.2815677,216.021036 85.9168386,216.640621 86.557751,217.248904 C101.891536,231.79783 121.757685,240.612109 142.815054,242.209329 C144.40542,263.211204 153.130198,283.032843 167.535616,298.371449 C122.093294,303.800846 76.6800911,288.015754 44.3553645,255.555449 C-13.9894422,197.094204 -13.9894422,102.308078 44.3553645,43.8468323 Z" fill="#2E6DDE"></path>
                    </g>
                    <path d="M290.041016,219.794772 C288.78569,215.02762 286.916364,210.444491 284.480157,206.16091 C284.327833,205.881389 284.162964,205.606257 284.002476,205.335216 C283.803759,204.992251 283.592785,204.653377 283.381524,204.314796 C268.166263,179.740082 237.039877,170.4088 210.854833,182.572246 C209.812177,180.50683 208.447063,178.621486 206.811048,176.987419 C206.68411,176.860234 206.553096,176.729246 206.422369,176.60615 C197.977493,168.556506 184.707381,168.586494 176.298827,176.674223 C167.890274,184.761952 167.317986,198.046215 174.999717,206.829886 C175.312267,207.185719 175.637594,207.536868 175.97988,207.879838 C177.797014,209.705746 179.923183,211.193966 182.259448,212.275246 C177.614379,223.369214 176.570639,235.646389 179.276068,247.367754 C180.377358,252.173551 182.10198,256.814153 184.405948,261.171204 C184.617209,261.586389 184.845693,262.000988 185.078259,262.411784 C185.526173,263.216425 185.9951,264.016683 186.48912,264.799982 C186.611671,264.998784 186.73861,265.19382 186.865249,265.388551 C201.690007,288.472019 230.786263,297.754117 256.20138,287.507713 C256.227145,287.551623 256.255297,287.594082 256.285709,287.634898 C269.994685,282.077958 281.026328,271.421919 287.070484,257.898281 C287.03839,257.870581 287.004464,257.845086 286.968938,257.82197 C292.297286,245.869803 293.381418,232.450055 290.041016,219.794772 Z M242.333247,239.502042 L242.333247,263.214671 L226.556092,263.214671 L226.556092,239.502042 L204.796739,239.502042 L234.432102,203.90809 L264.092564,239.502042 L242.333247,239.502042 Z" id="Shape" fill="#80B9FF" fill-rule="nonzero"></path>
                    <path d="M44.3553645,43.8468323 C102.700153,-14.6144132 197.297456,-14.6144132 255.642251,43.8468323 C288.177521,76.3776042 303.920465,122.125921 298.309512,167.836054 C282.968169,153.260357 263.082442,144.427407 242.001544,142.824874 C240.400558,121.604136 231.511107,101.594713 216.845725,86.2011976 C216.31751,85.6467066 215.780833,85.092 215.235693,84.5457725 C191.911198,61.1624487 157.906976,52.0264667 126.036008,60.5803155 C94.1650407,69.1341643 69.2710527,94.0778364 60.7342376,126.012417 C52.1974225,157.946998 61.315199,192.019094 84.6519382,215.39015 C85.2815677,216.021036 85.9168386,216.640621 86.557751,217.248904 C101.891536,231.79783 121.757685,240.612109 142.815054,242.209329 C144.40542,263.211204 153.130198,283.032843 167.535616,298.371449 C122.093294,303.800846 76.6800911,288.015754 44.3553645,255.555449 C-13.9894422,197.094204 -13.9894422,102.308078 44.3553645,43.8468323 Z" id="Path" fill="#2E6DDE"></path>
                </g>
            </g>
        </g>
    </g>
</svg>