<?xml version="1.0" encoding="UTF-8"?>
<!DOCTYPE svg PUBLIC "-//W3C//DTD SVG 1.1//EN" "http://www.w3.org/Graphics/SVG/1.1/DTD/svg11.dtd">
<svg version="1.1" xmlns="http://www.w3.org/2000/svg" xmlns:xlink="http://www.w3.org/1999/xlink" x="0px" y="0px" width="142.8px" height="166.499px" viewBox="228.6 254.5 142.8 166.499" enable-background="new 228.6 254.5 142.8 166.499" xml:space="preserve">
<g>
	<polygon fill="#306DE0" points="343.605,333.384 344.375,333.829 345.504,334.957 345.504,364.32 344.375,364.328 344.24,364.245 343.605,358.371"/>
	<polygon fill="#306DE0" points="343.93,257.414 344.375,257.141 345.02,257.361 344.984,283.128 344.889,287.894 343.57,287.894"/>
	<g>
		<g>
			<polygon fill="none" points="256.827,341.297 256.827,387.232 296.741,364.328"/>
			<polygon fill="#82B8FE" points="296.741,364.328 256.827,387.232 256.827,417.984 344.375,364.328 256.827,310.805 256.827,341.297"/>
			<polygon fill="#82B8FE" points="256.679,310.79 257.086,310.79 344.375,364.181 344.307,364.328"/>
			<polygon fill="#306DE0" points="256.827,417.999 256.827,417.984 256.827,387.232 256.827,341.297 256.827,310.805 256.827,310.79 231.6,310.79 231.6,417.999"/>
		</g>
		<g>
			<polygon fill="none" points="344.375,333.829 344.375,287.894 304.459,310.796"/>
			<polygon fill="#4287F5" points="304.459,310.796 344.375,287.894 344.375,257.141 256.827,310.796 344.375,364.32 344.375,333.829"/>
			<polygon fill="#306DE0" points="344.375,257.141 344.375,257.155 344.375,287.908 344.375,333.843 344.375,364.335 344.375,364.351 369.6,364.351 369.6,257.141"/>
		</g>
	</g>
</g>
</svg>