<?xml version="1.0" encoding="UTF-8"?>
<svg width="151px" height="155px" viewBox="0 0 151 155" version="1.1" xmlns="http://www.w3.org/2000/svg" xmlns:xlink="http://www.w3.org/1999/xlink">
    <!-- Generator: sketchtool 52 (66869) - http://www.bohemiancoding.com/sketch -->
    <title>3CF16EBA-21DE-4BBA-A916-BAEE4CA966FD</title>
    <desc>Created with sketchtool.</desc>
    <g id="Corp-Site-Redesign-2.0" stroke="none" stroke-width="1" fill="none" fill-rule="evenodd">
        <g id="Landing-Page---Desktop-HD" transform="translate(-1013.000000, -659.000000)" fill-rule="nonzero">
            <g id="Group-2" transform="translate(980.000000, 659.000000)">
                <g id="Group-9" transform="translate(33.000000, 0.000000)">
                    <ellipse id="Oval-Copy-2" fill="#E0EDFF" cx="75.5" cy="77.5" rx="75.5" ry="77.5"></ellipse>
                    <g id="Group-4" transform="translate(27.000000, 8.000000)">
                        <ellipse id="Oval-Copy-2" stroke="#2E6DDE" fill="#E6E6E6" transform="translate(26.659456, 50.895437) rotate(-330.000000) translate(-26.659456, -50.895437) " cx="26.6594555" cy="50.8954372" rx="8.92943342" ry="12.2682316"></ellipse>
                        <ellipse id="Oval" stroke="#2E6DDE" fill="#FFFFFF" transform="translate(29.109456, 51.947521) rotate(-330.000000) translate(-29.109456, -51.947521) " cx="29.1094555" cy="51.9475206" rx="8.92943342" ry="12.2682316"></ellipse>
                        <rect id="Rectangle" fill="#699DFF" x="9.35546875" y="11.9236111" width="1.49676107" height="7.01388889" rx="0.699999988"></rect>
                        <rect id="Rectangle-Copy-3" fill="#699DFF" x="45.2777344" y="24.1979167" width="1.49676107" height="7.01388889" rx="0.699999988"></rect>
                        <rect id="Rectangle-Copy-4" fill="#699DFF" x="34.0520264" y="0.346005074" width="1.87095133" height="9.46875" rx="0.699999988"></rect>
                        <rect id="Rectangle-Copy" fill="#699DFF" x="54.2583008" y="9.81944444" width="1.49676107" height="10.8715278" rx="0.699999988"></rect>
                        <rect id="Rectangle-Copy-2" fill="#699DFF" x="79.7032389" y="10.1701389" width="1.49676107" height="7.01388889" rx="0.699999988"></rect>
                        <rect id="Rectangle" stroke="#2E6DDE" stroke-width="1.39999998" fill="#FFFFFF" x="0.699999988" y="55.9395833" width="96.6" height="54.3604167" rx="5"></rect>
                        <polyline id="Path-3" stroke="#2E6DDE" stroke-width="1.39999998" stroke-linecap="round" stroke-linejoin="round" transform="translate(14.525000, 72.745425) scale(1, -1) translate(-14.525000, -72.745425) " points="1.4 69.2673611 20.65 69.2673611 27.65 76.2234879"></polyline>
                        <path d="M1.05,83.2326865 L40.5266875,83.2326865" id="Path-4" stroke="#2E6DDE" stroke-width="1.39999998"></path>
                        <ellipse id="Oval" stroke="#2E6DDE" stroke-width="1.39999998" fill="#2E6DDE" cx="29.75" cy="66.1111111" rx="3.5" ry="3.50694444"></ellipse>
                        <polyline id="Path-3" stroke="#2E6DDE" stroke-width="1.39999998" stroke-linecap="round" stroke-linejoin="round" points="1.4 90.3620996 20.65 90.3620996 27.65 97.3182263"></polyline>
                        <ellipse id="Oval" stroke="#2E6DDE" stroke-width="1.39999998" fill="#2E6DDE" cx="29.75" cy="100.474476" rx="3.5" ry="3.50694444"></ellipse>
                        <ellipse id="Oval-Copy" stroke="#2E6DDE" stroke-width="1.39999998" fill="#2E6DDE" cx="46.95" cy="82.9618056" rx="5.95" ry="5.96180556"></ellipse>
                        <rect id="Rectangle" stroke="#2E6DDE" stroke-width="1.74999997" x="74.375" y="70.1423611" width="22.75" height="26.3055556"></rect>
                        <ellipse id="Oval" stroke="#2E6DDE" stroke-width="1.39999998" fill="#2E6DDE" cx="85.925" cy="83.4704861" rx="5.425" ry="5.43576389"></ellipse>
                        <ellipse id="Oval-Copy-2" stroke="#2E6DDE" fill="#E6E6E6" transform="translate(67.490364, 34.091664) rotate(-372.000000) translate(-67.490364, -34.091664) " cx="67.4903645" cy="34.0916642" rx="8.92576684" ry="12.0979232"></ellipse>
                        <ellipse id="Oval" stroke="#2E6DDE" fill="#FFFFFF" transform="translate(69.940364, 33.740970) rotate(-372.000000) translate(-69.940364, -33.740970) " cx="69.9403645" cy="33.7409698" rx="8.92576684" ry="12.0979232"></ellipse>
                    </g>
                </g>
            </g>
        </g>
    </g>
</svg>