<svg xmlns="http://www.w3.org/2000/svg" viewBox="0 0 466.25 565.32"><defs><style>.cls-1{font-size:12px;fill:#58595b;font-family:HelveticaCE, Helvetica;}.cls-2,.cls-40{fill:#2e6dde;}.cls-3{fill:#36c2d6;}.cls-4,.cls-9{fill:#fff;}.cls-5{fill:#80b9ff;}.cls-6{fill:#94c93d;}.cls-7{fill:#ed417b;}.cls-8{fill:#654a9e;}.cls-9{font-size:12.11px;font-family:Bebas-Regular, Bebas;}.cls-10{letter-spacing:0em;}.cls-11{letter-spacing:-0.02em;}.cls-12{letter-spacing:-0.01em;}.cls-13{letter-spacing:-0.06em;}.cls-14{letter-spacing:0em;}.cls-15{letter-spacing:-0.02em;}.cls-16{letter-spacing:-0.05em;}.cls-17{letter-spacing:-0.02em;}.cls-18{letter-spacing:-0.03em;}.cls-19{letter-spacing:0.02em;}.cls-20{letter-spacing:0em;}.cls-21{letter-spacing:-0.02em;}.cls-22{letter-spacing:-0.06em;}.cls-23{letter-spacing:-0.07em;}.cls-24{letter-spacing:-0.03em;}.cls-25{letter-spacing:-0.01em;}.cls-26{letter-spacing:0.04em;}.cls-27{letter-spacing:0em;}.cls-28{letter-spacing:-0.03em;}.cls-29{letter-spacing:-0.02em;}.cls-30{letter-spacing:0.01em;}.cls-31{letter-spacing:-0.02em;}.cls-32{letter-spacing:0.08em;}.cls-33{letter-spacing:-0.01em;}.cls-34{letter-spacing:-0.07em;}.cls-35{letter-spacing:0.01em;}.cls-36{letter-spacing:0em;}.cls-37{letter-spacing:-0.02em;}.cls-38{letter-spacing:-0.05em;}.cls-39{letter-spacing:0.03em;}.cls-40{font-size:36.98px;font-family:HelveticaCE-CondBold, Helvetica;font-weight:700;}</style></defs><title>Asset 1</title><g id="Layer_2" data-name="Layer 2"><g id="Layer_1-2" data-name="Layer 1"><text class="cls-1" transform="translate(12.2 562.61)"><tspan xml:space="preserve">•  API and API documentation</tspan></text><path class="cls-2" d="M237.23,119.74a16.32,16.32,0,0,0-8-14A10.46,10.46,0,0,1,224,96.79V94a10.46,10.46,0,0,1,5.23-8.93,16.31,16.31,0,0,0,0-28,17,17,0,0,0-16.72,0,16.32,16.32,0,0,0,0,28A10.47,10.47,0,0,1,217.77,94v2.77a10.47,10.47,0,0,1-5.24,8.93,16.32,16.32,0,0,0,0,28,10.45,10.45,0,0,1,5.24,8.93v2.76a10.45,10.45,0,0,1-5.24,8.93,16.33,16.33,0,0,0,0,28.05,10.45,10.45,0,0,1,5.24,8.93v2.76a10.45,10.45,0,0,1-5.24,8.93,16.32,16.32,0,0,0,0,28,10.47,10.47,0,0,1,5.24,8.93v2.77a10.47,10.47,0,0,1-5.24,8.93,16.32,16.32,0,0,0,0,28,17.23,17.23,0,0,0,16.72,0,16.31,16.31,0,0,0,0-28,10.46,10.46,0,0,1-5.23-8.93V240a10.46,10.46,0,0,1,5.23-8.93,16.31,16.31,0,0,0,0-28,10.44,10.44,0,0,1-5.23-8.93v-2.76a10.44,10.44,0,0,1,5.23-8.93,16.31,16.31,0,0,0,0-28.05,10.44,10.44,0,0,1-5.23-8.93v-2.76a10.44,10.44,0,0,1,5.23-8.93A16.32,16.32,0,0,0,237.23,119.74Z"/><path class="cls-3" d="M220.89,130.07a10.34,10.34,0,1,0-10.33-10.33A10.35,10.35,0,0,0,220.89,130.07Z"/><path class="cls-4" d="M220.89,130.07a10.34,10.34,0,1,0-10.33-10.33A10.35,10.35,0,0,0,220.89,130.07Z"/><path class="cls-4" d="M220.89,124.74a5,5,0,1,0-5-5A5,5,0,0,0,220.89,124.74Z"/><path class="cls-5" d="M220.89,124.74a5,5,0,1,0-5-5A5,5,0,0,0,220.89,124.74Z"/><path class="cls-3" d="M220.89,81.4a10.33,10.33,0,1,1,10.34-10.33A10.34,10.34,0,0,1,220.89,81.4Z"/><path class="cls-4" d="M220.89,81.4a10.33,10.33,0,1,1,10.34-10.33A10.34,10.34,0,0,1,220.89,81.4Z"/><path class="cls-4" d="M220.89,76.07a5,5,0,1,1,5-5A5,5,0,0,1,220.89,76.07Z"/><path class="cls-5" d="M220.89,76.07a5,5,0,1,1,5-5A5,5,0,0,1,220.89,76.07Z"/><path class="cls-6" d="M220.89,227.4a10.33,10.33,0,1,0-10.33-10.33A10.35,10.35,0,0,0,220.89,227.4Z"/><path class="cls-4" d="M220.89,227.4a10.33,10.33,0,1,0-10.33-10.33A10.35,10.35,0,0,0,220.89,227.4Z"/><path class="cls-4" d="M220.89,222.07a5,5,0,1,0-5-5A5,5,0,0,0,220.89,222.07Z"/><path class="cls-5" d="M220.89,222.07a5,5,0,1,0-5-5A5,5,0,0,0,220.89,222.07Z"/><path class="cls-7" d="M220.89,178.74a10.34,10.34,0,1,1,10.34-10.33A10.35,10.35,0,0,1,220.89,178.74Z"/><path class="cls-4" d="M220.89,178.74a10.34,10.34,0,1,1,10.34-10.33A10.35,10.35,0,0,1,220.89,178.74Z"/><path class="cls-4" d="M220.89,173.4a5,5,0,1,1,5-5A5,5,0,0,1,220.89,173.4Z"/><path class="cls-5" d="M220.89,173.4a5,5,0,1,1,5-5A5,5,0,0,1,220.89,173.4Z"/><path class="cls-8" d="M220.89,276.07a10.33,10.33,0,1,1,10.34-10.33A10.34,10.34,0,0,1,220.89,276.07Z"/><path class="cls-4" d="M220.89,276.07a10.33,10.33,0,1,1,10.34-10.33A10.34,10.34,0,0,1,220.89,276.07Z"/><path class="cls-4" d="M220.89,270.74a5,5,0,1,1,5-5A5,5,0,0,1,220.89,270.74Z"/><path class="cls-5" d="M220.89,270.74a5,5,0,1,1,5-5A5,5,0,0,1,220.89,270.74Z"/><path class="cls-2" d="M237.23,324.41a16.32,16.32,0,0,0-8-14,10.46,10.46,0,0,1-5.23-8.93V288.69a10.46,10.46,0,0,1,5.23-8.93,16.31,16.31,0,0,0,0-28,17,17,0,0,0-16.72,0,16.32,16.32,0,0,0,0,28,10.47,10.47,0,0,1,5.24,8.93v12.77a10.47,10.47,0,0,1-5.24,8.93,16.32,16.32,0,0,0,0,28,10.47,10.47,0,0,1,5.24,8.93v12.77a10.48,10.48,0,0,1-5.24,8.93,16.32,16.32,0,0,0,0,28,10.45,10.45,0,0,1,5.24,8.93v12.76a10.45,10.45,0,0,1-5.24,8.93,16.32,16.32,0,0,0,0,28,10.47,10.47,0,0,1,5.24,8.93v43.77a10.47,10.47,0,0,1-5.24,8.93,16.32,16.32,0,0,0,0,28,17.23,17.23,0,0,0,16.72,0,16.31,16.31,0,0,0,0-28,10.46,10.46,0,0,1-5.23-8.93V464.69a10.46,10.46,0,0,1,5.23-8.93,16.31,16.31,0,0,0,0-28,10.44,10.44,0,0,1-5.23-8.93V406a10.44,10.44,0,0,1,5.23-8.93,16.31,16.31,0,0,0,0-28,10.47,10.47,0,0,1-5.23-8.93V347.36a10.46,10.46,0,0,1,5.23-8.93A16.32,16.32,0,0,0,237.23,324.41Z"/><path class="cls-3" d="M220.89,334.74a10.33,10.33,0,1,0-10.33-10.33A10.35,10.35,0,0,0,220.89,334.74Z"/><path class="cls-4" d="M220.89,334.74a10.33,10.33,0,1,0-10.33-10.33A10.35,10.35,0,0,0,220.89,334.74Z"/><path class="cls-4" d="M220.89,329.41a5,5,0,1,0-5-5A5,5,0,0,0,220.89,329.41Z"/><path class="cls-5" d="M220.89,329.41a5,5,0,1,0-5-5A5,5,0,0,0,220.89,329.41Z"/><path class="cls-3" d="M220.89,276.08a10.34,10.34,0,1,1,10.34-10.34A10.35,10.35,0,0,1,220.89,276.08Z"/><path class="cls-4" d="M220.89,276.08a10.34,10.34,0,1,1,10.34-10.34A10.35,10.35,0,0,1,220.89,276.08Z"/><path class="cls-4" d="M220.89,270.74a5,5,0,1,1,5-5A5,5,0,0,1,220.89,270.74Z"/><path class="cls-5" d="M220.89,270.74a5,5,0,1,1,5-5A5,5,0,0,1,220.89,270.74Z"/><path class="cls-6" d="M220.89,452.08a10.34,10.34,0,1,0-10.33-10.34A10.35,10.35,0,0,0,220.89,452.08Z"/><path class="cls-4" d="M220.89,452.08a10.34,10.34,0,1,0-10.33-10.34A10.35,10.35,0,0,0,220.89,452.08Z"/><path class="cls-4" d="M220.89,446.74a5,5,0,1,0-5-5A5,5,0,0,0,220.89,446.74Z"/><path class="cls-5" d="M220.89,446.74a5,5,0,1,0-5-5A5,5,0,0,0,220.89,446.74Z"/><path class="cls-7" d="M220.89,393.41a10.34,10.34,0,1,1,10.34-10.33A10.35,10.35,0,0,1,220.89,393.41Z"/><path class="cls-4" d="M220.89,393.41a10.34,10.34,0,1,1,10.34-10.33A10.35,10.35,0,0,1,220.89,393.41Z"/><path class="cls-4" d="M220.89,388.08a5,5,0,1,1,5-5A5,5,0,0,1,220.89,388.08Z"/><path class="cls-5" d="M220.89,388.08a5,5,0,1,1,5-5A5,5,0,0,1,220.89,388.08Z"/><path class="cls-8" d="M220.89,541.74a10.33,10.33,0,1,1,10.34-10.33A10.34,10.34,0,0,1,220.89,541.74Z"/><path class="cls-4" d="M220.89,541.74a10.33,10.33,0,1,1,10.34-10.33A10.34,10.34,0,0,1,220.89,541.74Z"/><path class="cls-4" d="M220.89,536.41a5,5,0,1,1,5-5A5,5,0,0,1,220.89,536.41Z"/><path class="cls-5" d="M220.89,536.41a5,5,0,1,1,5-5A5,5,0,0,1,220.89,536.41Z"/><path class="cls-5" d="M189.68,69.32a16.24,16.24,0,0,1-9.46-3l-6.46-4.65a16.24,16.24,0,0,0-9.46-3H12.5a12.5,12.5,0,0,0,0,25H164.3a16.24,16.24,0,0,0,9.46-3l6.46-4.65a16.24,16.24,0,0,1,9.46-3.05h33v-3.5Z"/><path class="cls-5" d="M189.68,166.65a16.23,16.23,0,0,1-9.46-3L173.76,159a16.24,16.24,0,0,0-9.46-3H12.5a12.5,12.5,0,0,0,0,25H164.3a16.23,16.23,0,0,0,9.46-3l6.46-4.66a16.24,16.24,0,0,1,9.46-3h33v-3.5Z"/><path class="cls-5" d="M189.68,264a16.24,16.24,0,0,1-9.46-3.05l-6.46-4.65a16.17,16.17,0,0,0-9.46-3.05H12.5a12.5,12.5,0,0,0,0,25H164.3a16.24,16.24,0,0,0,9.46-3.05l6.46-4.65a16.24,16.24,0,0,1,9.46-3.05h33V264Z"/><path class="cls-5" d="M189.68,381.33a16.24,16.24,0,0,1-9.46-3.05l-6.46-4.65a16.17,16.17,0,0,0-9.46-3.05H12.5a12.5,12.5,0,0,0,0,25H164.3a16.24,16.24,0,0,0,9.46-3.05l6.46-4.65a16.17,16.17,0,0,1,9.46-3.05h33v-3.5Z"/><path class="cls-5" d="M189.68,529.66a16.24,16.24,0,0,1-9.46-3L173.76,522a16.24,16.24,0,0,0-9.46-3.05H12.5a12.5,12.5,0,0,0,0,25H164.3a16.24,16.24,0,0,0,9.46-3l6.46-4.65a16.24,16.24,0,0,1,9.46-3.05h33v-3.5Z"/><path class="cls-5" d="M252.11,121.49a16.17,16.17,0,0,1,9.46,3.05l6.46,4.65a16.24,16.24,0,0,0,9.46,3.05h152.8a12.5,12.5,0,0,0,0-25H277.49a16.17,16.17,0,0,0-9.46,3.05l-6.46,4.65a16.24,16.24,0,0,1-9.46,3H219.06v3.5Z"/><path class="cls-5" d="M252.11,218.82a16.24,16.24,0,0,1,9.46,3.05l6.46,4.65a16.24,16.24,0,0,0,9.46,3h152.8a12.5,12.5,0,0,0,0-25H277.49a16.24,16.24,0,0,0-9.46,3.05l-6.46,4.65a16.24,16.24,0,0,1-9.46,3H219.06v3.5Z"/><path class="cls-5" d="M252.11,326.16a16.24,16.24,0,0,1,9.46,3l6.46,4.65a16.24,16.24,0,0,0,9.46,3.05h152.8a12.5,12.5,0,0,0,0-25H277.49a16.24,16.24,0,0,0-9.46,3l-6.46,4.65a16.24,16.24,0,0,1-9.46,3.05H219.06v3.5Z"/><path class="cls-5" d="M252.11,443.49a16.24,16.24,0,0,1,9.46,3.05l6.46,4.65a16.17,16.17,0,0,0,9.46,3.05h152.8a12.5,12.5,0,0,0,0-25H277.49a16.24,16.24,0,0,0-9.46,3.05l-6.46,4.65a16.17,16.17,0,0,1-9.46,3.05H219.06v3.5Z"/><text class="cls-9" transform="translate(41.2 75.89)">N<tspan class="cls-10" x="5.71" y="0">o</tspan><tspan x="11" y="0">vember 2018</tspan></text><text class="cls-1" transform="translate(12.2 102.69)">Airdrop of OPQ utility to<tspan class="cls-11" x="126.05" y="0">k</tspan><tspan x="131.81" y="0">en</tspan><tspan class="cls-12" x="145.15" y="0">s</tspan><tspan class="cls-13" x="150.97" y="0">.</tspan></text><text class="cls-9" transform="translate(309.89 124.56)">Febr<tspan class="cls-14" x="19.88" y="0">u</tspan><tspan x="25.11" y="0">a</tspan><tspan class="cls-15" x="30.21" y="0">r</tspan><tspan x="35.26" y="0">y 2019</tspan></text><text class="cls-1" transform="translate(273.26 150.19)">Proof of concept complet<tspan class="cls-12" x="132.73" y="0">e</tspan><tspan class="cls-13" x="139.22" y="0">.</tspan></text><text class="cls-9" transform="translate(56.55 173.4)">June 2019</text><text class="cls-1" transform="translate(12.2 199.94)">Launch of Opacity 1.0<tspan class="cls-13" x="116.74" y="0">.</tspan></text><text class="cls-1" transform="translate(273.26 248.35)">Pu<tspan class="cls-11" x="14.68" y="0">b</tspan><tspan x="21.11" y="0">lication of whitepape</tspan><tspan class="cls-16" x="129.83" y="0">r</tspan><tspan x="133.22" y="0">,</tspan><tspan class="cls-11" x="0" y="14.4">a</tspan><tspan class="cls-17" x="6.43" y="14.4">v</tspan><tspan x="12.13" y="14.4">ailability </tspan><tspan class="cls-18" x="58.14" y="14.4">f</tspan><tspan x="61.12" y="14.4">or p</tspan><tspan class="cls-19" x="81.79" y="14.4">r</tspan><tspan class="cls-20" x="85.97" y="14.4">i</tspan><tspan class="cls-17" x="88.63" y="14.4">v</tspan><tspan x="94.33" y="14.4">ate i</tspan><tspan class="cls-11" x="117.01" y="14.4">n</tspan><tspan class="cls-17" x="123.44" y="14.4">v</tspan><tspan x="129.14" y="14.4">estor</tspan><tspan class="cls-21" x="155.82" y="14.4">s</tspan><tspan class="cls-22" x="161.64" y="14.4">.</tspan></text><text class="cls-9" transform="translate(324.47 222.07)">Ju<tspan class="cls-23" x="9.02" y="0">l</tspan><tspan x="12.71" y="0">y 2019</tspan></text><text class="cls-9" transform="translate(57.64 270.74)">Ju<tspan class="cls-23" x="9.02" y="0">l</tspan><tspan x="12.71" y="0">y 2019</tspan></text><text class="cls-1" transform="translate(12.2 297.35)">Release of Opacity 1.1<tspan x="0" y="14.4" xml:space="preserve">•  Credit card p</tspan><tspan class="cls-24" x="79.56" y="14.4">a</tspan><tspan x="85.87" y="14.4">yment inte</tspan><tspan class="cls-25" x="141.23" y="14.4">gr</tspan><tspan x="151.66" y="14.4">ation </tspan><tspan x="0" y="28.8" xml:space="preserve">•  </tspan><tspan class="cls-24" x="10.87" y="28.8">F</tspan><tspan x="17.84" y="28.8">older suppo</tspan><tspan class="cls-26" x="80.54" y="28.8">r</tspan><tspan x="85.02" y="28.8">t</tspan><tspan x="0" y="43.2" xml:space="preserve">•  Desktop sync app</tspan></text><text class="cls-9" transform="translate(306.09 329.23)">September 2019</text><text class="cls-9" transform="translate(327.79 446.56)">Q2 2020</text><text class="cls-9" transform="translate(60.93 536.23)">Q4 2020</text><text class="cls-1" transform="translate(273.26 356.01)">Release of Opacity 1.2<tspan x="0" y="14.4" xml:space="preserve">•  Multifile delete</tspan><tspan x="0" y="28.8" xml:space="preserve">•  Multifile d</tspan><tspan class="cls-12" x="61.55" y="28.8">o</tspan><tspan x="68.04" y="28.8">wnload</tspan><tspan x="0" y="43.2" xml:space="preserve">•  Streaming d</tspan><tspan class="cls-12" x="75.56" y="43.2">o</tspan><tspan class="cls-27" x="82.06" y="43.2">wnloads</tspan><tspan x="0" y="57.6" xml:space="preserve">•  File pr</tspan><tspan class="cls-28" x="44.21" y="57.6">e</tspan><tspan x="50.52" y="57.6">vi</tspan><tspan class="cls-29" x="59.18" y="57.6">e</tspan><tspan x="65.62" y="57.6">w</tspan></text><text class="cls-1" transform="translate(12.2 413.92)">Release of Opacity 1.5<tspan x="0" y="14.4" xml:space="preserve">•  Subsc</tspan><tspan class="cls-30" x="44.22" y="14.4">r</tspan><tspan x="48.4" y="14.4">iption ren</tspan><tspan class="cls-31" x="97.75" y="14.4">e</tspan><tspan x="104.18" y="14.4">w </tspan><tspan x="0" y="28.8" xml:space="preserve">  </tspan><tspan class="cls-32" x="6.67" y="28.8"> </tspan><tspan x="10.97" y="28.8">and up</tspan><tspan class="cls-33" x="47.66" y="28.8">gr</tspan><tspan x="58.09" y="28.8">ade</tspan><tspan x="0" y="43.2" xml:space="preserve">•  2</tspan><tspan class="cls-34" x="17.54" y="43.2"> </tspan><tspan class="cls-29" x="20.04" y="43.2">TB and ente</tspan><tspan class="cls-35" x="82.78" y="43.2">r</tspan><tspan class="cls-29" x="86.89" y="43.2">p</tspan><tspan class="cls-36" x="93.32" y="43.2">r</tspan><tspan class="cls-29" x="97.26" y="43.2">ise subsc</tspan><tspan class="cls-36" x="145.12" y="43.2">r</tspan><tspan class="cls-29" x="149.05" y="43.2">iption</tspan><tspan x="0" y="57.6" xml:space="preserve">•  File </tspan><tspan class="cls-17" x="33.54" y="57.6">v</tspan><tspan x="39.24" y="57.6">ersioning and rename</tspan><tspan x="0" y="72" xml:space="preserve">•  Decent</tspan><tspan class="cls-33" x="48.89" y="72">r</tspan><tspan x="52.76" y="72">ali</tspan><tspan class="cls-37" x="64.76" y="72">z</tspan><tspan x="70.58" y="72">ed sto</tspan><tspan class="cls-33" x="103.27" y="72">r</tspan><tspan x="107.15" y="72">age </tspan><tspan x="0" y="86.4" xml:space="preserve">  </tspan><tspan class="cls-32" x="6.67" y="86.4"> </tspan><tspan x="10.97" y="86.4">pr</tspan><tspan class="cls-12" x="21.64" y="86.4">o</tspan><tspan x="28.13" y="86.4">viders added</tspan></text><text class="cls-9" transform="translate(42.41 387.89)">December 2019</text><text class="cls-1" transform="translate(273.26 473.84)"><tspan xml:space="preserve">•  Mobile apps file management</tspan><tspan x="0" y="14.4" xml:space="preserve">•  Decent</tspan><tspan class="cls-33" x="48.89" y="14.4">r</tspan><tspan x="52.76" y="14.4">ali</tspan><tspan class="cls-37" x="64.76" y="14.4">z</tspan><tspan x="70.58" y="14.4">ed node testing</tspan><tspan x="0" y="28.8" xml:space="preserve">•  Business customizations</tspan><tspan class="cls-38" x="142.25" y="28.8">;</tspan><tspan x="144.98" y="28.8" xml:space="preserve"> Multiple </tspan><tspan x="0" y="43.2" xml:space="preserve">  </tspan><tspan class="cls-32" x="6.67" y="43.2"> </tspan><tspan x="10.97" y="43.2">user</tspan><tspan class="cls-12" x="34.31" y="43.2">s</tspan><tspan x="40.13" y="43.2">, co</tspan><tspan class="cls-39" x="59.47" y="43.2">r</tspan><tspan x="63.83" y="43.2">po</tspan><tspan class="cls-33" x="77.17" y="43.2">r</tspan><tspan x="81.05" y="43.2">ate </tspan><tspan class="cls-12" x="101.06" y="43.2">o</tspan><tspan x="107.56" y="43.2">wnership</tspan><tspan x="0" y="57.6" xml:space="preserve">•  Custodianship</tspan></text><text class="cls-40" transform="translate(0 32.36)">ROADMAP AND MILESTONES</text><rect class="cls-2" y="37.59" width="442.79" height="2.67"/></g></g></svg>