<?xml version="1.0" encoding="UTF-8"?>
<svg width="151px" height="155px" viewBox="0 0 151 155" version="1.1" xmlns="http://www.w3.org/2000/svg" xmlns:xlink="http://www.w3.org/1999/xlink">
    <!-- Generator: sketchtool 52 (66869) - http://www.bohemiancoding.com/sketch -->
    <title>FA540EF6-E649-4B38-94B4-143A8565C6F8</title>
    <desc>Created with sketchtool.</desc>
    <g id="Corp-Site-Redesign-2.0" stroke="none" stroke-width="1" fill="none" fill-rule="evenodd">
        <g id="Landing-Page---Desktop-HD" transform="translate(-645.000000, -659.000000)">
            <g id="Group-3" transform="translate(618.000000, 659.000000)">
                <g id="Group-8" transform="translate(27.000000, 0.000000)">
                    <ellipse id="Oval-Copy" fill="#E0EDFF" fill-rule="nonzero" cx="75.5" cy="77.5" rx="75.5" ry="77.5"></ellipse>
                    <g id="Group" transform="translate(24.000000, 11.000000)">
                        <g id="file-paragraph" transform="translate(33.200000, 38.876712)">
                            <path d="M38,2.00913242 L38,44.2009132 C38,45.3109589 37.105,46.2100457 36,46.2100457 L2,46.2100457 C0.895,46.2100457 0,45.3109589 0,44.2009132 L0,2.00913242 C0,0.899086758 0.895,0 2,0 L36,0 C37.105,0 38,0.899086758 38,2.00913242 Z" id="Path" stroke="#2E6DDE" stroke-width="1.60000002" fill="#FFFFFF"></path>
                            <path d="M29,12.0547945 L23,12.0547945 C22.447,12.0547945 22,11.6047489 22,11.0502283 C22,10.4957078 22.447,10.0456621 23,10.0456621 L29,10.0456621 C29.553,10.0456621 30,10.4957078 30,11.0502283 C30,11.6047489 29.553,12.0547945 29,12.0547945 Z" id="Path" fill="#2E6DDE"></path>
                            <path d="M29,20.0913242 L23,20.0913242 C22.447,20.0913242 22,19.6412785 22,19.086758 C22,18.5322374 22.447,18.0821918 23,18.0821918 L29,18.0821918 C29.553,18.0821918 30,18.5322374 30,19.086758 C30,19.6412785 29.553,20.0913242 29,20.0913242 Z" id="Path" fill="#2E6DDE"></path>
                            <path d="M29,28.1278539 L9,28.1278539 C8.447,28.1278539 8,27.6778082 8,27.1232877 C8,26.5687671 8.447,26.1187215 9,26.1187215 L29,26.1187215 C29.553,26.1187215 30,26.5687671 30,27.1232877 C30,27.6778082 29.553,28.1278539 29,28.1278539 Z" id="Path" fill="#2E6DDE"></path>
                            <path d="M29,36.1643836 L9,36.1643836 C8.447,36.1643836 8,35.7143379 8,35.1598174 C8,34.6052968 8.447,34.1552511 9,34.1552511 L29,34.1552511 C29.553,34.1552511 30,34.6052968 30,35.1598174 C30,35.7143379 29.553,36.1643836 29,36.1643836 Z" id="Path" fill="#2E6DDE"></path>
                            <path d="M17,20.0913242 L9,20.0913242 C8.447,20.0913242 8,19.6412785 8,19.086758 L8,11.0502283 C8,10.4957078 8.447,10.0456621 9,10.0456621 L17,10.0456621 C17.553,10.0456621 18,10.4957078 18,11.0502283 L18,19.086758 C18,19.6412785 17.553,20.0913242 17,20.0913242 Z" id="Path" fill="#2E6DDE"></path>
                        </g>
                        <polyline id="Path-2" stroke="#2E6DDE" stroke-width="1.60000002" stroke-linecap="round" stroke-linejoin="round" fill-rule="nonzero" points="28 53.7442922 8 53.7442922 8 93.3610548"></polyline>
                        <ellipse id="Oval" stroke="#2E6DDE" stroke-width="1.60000002" fill="#FFFFFF" fill-rule="nonzero" cx="8" cy="102.03653" rx="8" ry="8.03652968"></ellipse>
                        <polyline id="Path-2" stroke="#2E6DDE" stroke-width="1.60000002" stroke-linecap="round" stroke-linejoin="round" fill-rule="nonzero" transform="translate(86.000000, 57.881441) scale(-1, -1) translate(-86.000000, -57.881441) " points="96 38.0730594 76 38.0730594 76 77.6898219"></polyline>
                        <ellipse id="Oval" stroke="#2E6DDE" stroke-width="1.60000002" fill="#FFFFFF" fill-rule="nonzero" transform="translate(96.000000, 30.201237) scale(-1, -1) translate(-96.000000, -30.201237) " cx="96" cy="30.2012375" rx="8" ry="8.03652968"></ellipse>
                        <g id="e-remove" transform="translate(5.200000, 99.150685)" stroke="#DD6F6B" stroke-linecap="round" stroke-linejoin="round" stroke-width="1.24800004">
                            <path d="M0,0 L5.6,5.62557078" id="Path"></path>
                            <path d="M5.6,0 L0,5.62557078" id="Path"></path>
                        </g>
                        <path d="M51.5,88 L51.5,105.616763 L51.5,88 Z" id="Path-2" stroke="#2E6DDE" stroke-width="1.60000002" stroke-linecap="round" stroke-linejoin="round" fill-rule="nonzero" transform="translate(51.500000, 96.808381) scale(-1, 1) translate(-51.500000, -96.808381) "></path>
                        <path d="M41.5,18 L41.5,35.6167626 L41.5,18 Z" id="Path-2" stroke="#2E6DDE" stroke-width="1.60000002" stroke-linecap="round" stroke-linejoin="round" fill-rule="nonzero" transform="translate(41.500000, 26.808381) scale(-1, 1) translate(-41.500000, -26.808381) "></path>
                        <ellipse id="Oval" stroke="#2E6DDE" stroke-width="1.60000002" fill="#FFFFFF" fill-rule="nonzero" cx="51" cy="114.03653" rx="8" ry="8.03652968"></ellipse>
                        <g id="e-remove" transform="translate(48.000000, 111.000000)" stroke="#DD6F6B" stroke-linecap="round" stroke-linejoin="round" stroke-width="1.24800004">
                            <path d="M0,0 L5.6,5.62557078" id="Path"></path>
                            <path d="M5.6,0 L0,5.62557078" id="Path"></path>
                        </g>
                        <g id="f-check" transform="translate(34.000000, 0.821918)">
                            <polygon id="Path" fill="#37C437" points="60.8 32.5939315 58 29.7811461 59.2 28.5756667 60.8 30.1829726 64.8 26.1647078 66 27.3701872"></polygon>
                            <ellipse id="Oval" stroke="#2E6DDE" stroke-width="1.60000002" fill="#FFFFFF" fill-rule="nonzero" transform="translate(8.000000, 8.036530) scale(-1, -1) translate(-8.000000, -8.036530) " cx="8" cy="8.03652968" rx="8" ry="8.03652968"></ellipse>
                            <polygon id="Path" fill="#37C437" points="6.8 11.4292237 4 8.61643836 5.2 7.4109589 6.8 9.01826484 10.8 5 12 6.20547945"></polygon>
                        </g>
                    </g>
                </g>
            </g>
        </g>
    </g>
</svg>