<svg xmlns="http://www.w3.org/2000/svg" width="151" height="155"><g fill="none" fill-rule="evenodd"><ellipse cx="75.5" cy="77.5" fill="#E0EDFF" fill-rule="nonzero" rx="75.5" ry="77.5"/><g transform="translate(24 11)"><path fill="#FFF" stroke="#2E6DDE" stroke-width="1.6" d="M71.2 40.886v42.192c0 1.11-.895 2.009-2 2.009h-34c-1.105 0-2-.9-2-2.01V40.887c0-1.11.895-2.01 2-2.01h34c1.105 0 2 .9 2 2.01z"/><path fill="#2E6DDE" d="M62.2 50.932h-6c-.553 0-1-.45-1-1.005 0-.555.447-1.005 1-1.005h6c.553 0 1 .45 1 1.005 0 .554-.447 1.005-1 1.005zM62.2 58.968h-6c-.553 0-1-.45-1-1.005 0-.554.447-1.004 1-1.004h6c.553 0 1 .45 1 1.004 0 .555-.447 1.005-1 1.005zM62.2 67.005h-20c-.553 0-1-.45-1-1.005 0-.555.447-1.005 1-1.005h20c.553 0 1 .45 1 1.005 0 .555-.447 1.005-1 1.005zM62.2 75.041h-20c-.553 0-1-.45-1-1.004 0-.555.447-1.005 1-1.005h20c.553 0 1 .45 1 1.005 0 .554-.447 1.004-1 1.004zM50.2 58.968h-8c-.553 0-1-.45-1-1.005v-8.036c0-.555.447-1.005 1-1.005h8c.553 0 1 .45 1 1.005v8.036c0 .555-.447 1.005-1 1.005z"/><path stroke="#2E6DDE" stroke-linecap="round" stroke-linejoin="round" stroke-width="1.6" d="M28 53.744H8v39.617"/><ellipse cx="8" cy="102.037" fill="#FFF" fill-rule="nonzero" stroke="#2E6DDE" stroke-width="1.6" rx="8" ry="8.037"/><path stroke="#2E6DDE" stroke-linecap="round" stroke-linejoin="round" stroke-width="1.6" d="M76 77.69h20V38.073"/><ellipse cx="96" cy="30.201" fill="#FFF" fill-rule="nonzero" stroke="#2E6DDE" stroke-width="1.6" rx="8" ry="8.037" transform="rotate(180 96 30.201)"/><g stroke="#DD6F6B" stroke-linecap="round" stroke-linejoin="round" stroke-width="1.248"><path d="M5.2 99.15l5.6 5.626M10.8 99.15l-5.6 5.626"/></g><path stroke="#2E6DDE" stroke-linecap="round" stroke-linejoin="round" stroke-width="1.6" d="M51.5 88v17.617V88zM41.5 18v17.617V18z"/><ellipse cx="51" cy="114.037" fill="#FFF" fill-rule="nonzero" stroke="#2E6DDE" stroke-width="1.6" rx="8" ry="8.037"/><g stroke="#DD6F6B" stroke-linecap="round" stroke-linejoin="round" stroke-width="1.248"><path d="M48 111l5.6 5.626M53.6 111l-5.6 5.626"/></g><g transform="translate(34 .822)"><path fill="#37C437" d="M60.8 32.594L58 29.78l1.2-1.205 1.6 1.607 4-4.018L66 27.37z"/><ellipse cx="8" cy="8.037" fill="#FFF" fill-rule="nonzero" stroke="#2E6DDE" stroke-width="1.6" rx="8" ry="8.037" transform="rotate(180 8 8.037)"/><path fill="#37C437" d="M6.8 11.43L4 8.615l1.2-1.205 1.6 1.607L10.8 5 12 6.205z"/></g></g></g></svg>