<svg xmlns="http://www.w3.org/2000/svg" xmlns:xlink="http://www.w3.org/1999/xlink" width="460" height="350" viewBox="0 0 460 350">
    <defs>
        <path id="a" d="M0 0h460v350H0z"/>
    </defs>
    <g fill="none" fill-rule="evenodd">
        <g>
            <mask id="b" fill="#fff">
                <use xlink:href="#a"/>
            </mask>
            <use fill="#E0EDFF" fill-rule="nonzero" xlink:href="#a"/>
            <g mask="url(#b)">
                <path fill="#FFF" stroke="#2E6DDE" stroke-width="1.6" d="M74 56.01V98.2c0 1.111-.895 2.01-2 2.01H38c-1.105 0-2-.899-2-2.01V56.01c0-1.11.895-2.01 2-2.01h34c1.105 0 2 .9 2 2.01z"/>
                <path fill="#2E6DDE" d="M65 66.055h-6c-.553 0-1-.45-1-1.005 0-.554.447-1.004 1-1.004h6c.553 0 1 .45 1 1.004 0 .555-.447 1.005-1 1.005zM65 74.091h-6c-.553 0-1-.45-1-1.004 0-.555.447-1.005 1-1.005h6c.553 0 1 .45 1 1.005 0 .554-.447 1.004-1 1.004zM65 82.128H45c-.553 0-1-.45-1-1.005 0-.554.447-1.004 1-1.004h20c.553 0 1 .45 1 1.004 0 .555-.447 1.005-1 1.005zM65 90.164H45c-.553 0-1-.45-1-1.004 0-.555.447-1.005 1-1.005h20c.553 0 1 .45 1 1.005 0 .554-.447 1.004-1 1.004zM53 74.091h-8c-.553 0-1-.45-1-1.004V65.05c0-.554.447-1.004 1-1.004h8c.553 0 1 .45 1 1.004v8.037c0 .554-.447 1.004-1 1.004z"/>
                <path fill="#FFF" stroke="#2E6DDE" stroke-width="1.6" d="M460 56.01V98.2c0 1.111-.895 2.01-2 2.01h-34c-1.105 0-2-.899-2-2.01V56.01c0-1.11.895-2.01 2-2.01h34c1.105 0 2 .9 2 2.01z"/>
                <path fill="#2E6DDE" d="M451 66.055h-6c-.553 0-1-.45-1-1.005 0-.554.447-1.004 1-1.004h6c.553 0 1 .45 1 1.004 0 .555-.447 1.005-1 1.005zM451 74.091h-6c-.553 0-1-.45-1-1.004 0-.555.447-1.005 1-1.005h6c.553 0 1 .45 1 1.005 0 .554-.447 1.004-1 1.004zM451 82.128h-20c-.553 0-1-.45-1-1.005 0-.554.447-1.004 1-1.004h20c.553 0 1 .45 1 1.004 0 .555-.447 1.005-1 1.005zM451 90.164h-20c-.553 0-1-.45-1-1.004 0-.555.447-1.005 1-1.005h20c.553 0 1 .45 1 1.005 0 .554-.447 1.004-1 1.004zM439 74.091h-8c-.553 0-1-.45-1-1.004V65.05c0-.554.447-1.004 1-1.004h8c.553 0 1 .45 1 1.004v8.037c0 .554-.447 1.004-1 1.004z"/>
                <path fill="#FFF" stroke="#2E6DDE" stroke-width="1.6" d="M267 56.01V98.2c0 1.111-.895 2.01-2 2.01h-34c-1.105 0-2-.899-2-2.01V56.01c0-1.11.895-2.01 2-2.01h34c1.105 0 2 .9 2 2.01z"/>
                <path fill="#2E6DDE" d="M258 66.055h-6c-.553 0-1-.45-1-1.005 0-.554.447-1.004 1-1.004h6c.553 0 1 .45 1 1.004 0 .555-.447 1.005-1 1.005zM258 74.091h-6c-.553 0-1-.45-1-1.004 0-.555.447-1.005 1-1.005h6c.553 0 1 .45 1 1.005 0 .554-.447 1.004-1 1.004zM258 82.128h-20c-.553 0-1-.45-1-1.005 0-.554.447-1.004 1-1.004h20c.553 0 1 .45 1 1.004 0 .555-.447 1.005-1 1.005zM258 90.164h-20c-.553 0-1-.45-1-1.004 0-.555.447-1.005 1-1.005h20c.553 0 1 .45 1 1.005 0 .554-.447 1.004-1 1.004zM246 74.091h-8c-.553 0-1-.45-1-1.004V65.05c0-.554.447-1.004 1-1.004h8c.553 0 1 .45 1 1.004v8.037c0 .554-.447 1.004-1 1.004z"/>
                <path fill="#FFF" stroke="#2E6DDE" stroke-width=".9" d="M112.087 58.5l-4.522-4.5H96.261A2.255 2.255 0 0 0 94 56.25V94.5c0 2.485 2.025 4.5 4.522 4.5h42.956c2.497 0 4.522-2.015 4.522-4.5V63c0-2.485-2.025-4.5-4.522-4.5h-29.391z"/>
                <path stroke="#2E6DDE" stroke-width=".9" d="M146 65H94v-8.8c0-1.215 1.012-2.2 2.26-2.2h11.305l4.522 4.4h29.391c2.497 0 4.522 1.97 4.522 4.4V65z"/>
                <path fill="#FFF" stroke="#2E6DDE" stroke-width=".9" d="M305.087 58.5l-4.522-4.5h-11.304A2.255 2.255 0 0 0 287 56.25V94.5c0 2.485 2.025 4.5 4.522 4.5h42.956c2.497 0 4.522-2.015 4.522-4.5V63c0-2.485-2.025-4.5-4.522-4.5h-29.391z"/>
                <path stroke="#2E6DDE" stroke-width=".9" d="M339 65h-52v-8.8c0-1.215 1.012-2.2 2.26-2.2h11.305l4.522 4.4h29.391c2.497 0 4.522 1.97 4.522 4.4V65z"/>
                <path fill="#1D56A1" fill-rule="nonzero" d="M183.076 83.307c0 .733-.217 1.32-.652 1.686-.434.367-1.086.587-1.955.587h-.58V88h-1.448v-6.82h2.173c.796 0 1.448.147 1.883.513.434.367.579.954.579 1.614zm-3.186 1.1h.434c.435 0 .797-.074 1.014-.294.217-.146.362-.44.362-.733 0-.367-.072-.587-.29-.733-.217-.147-.434-.22-.869-.22h-.651v1.98z"/>
                <path fill="#1D56A1" d="M190.534 88h-1.81l-2.896-5.133h-.073c.073.88.073 1.54.073 1.98V88h-1.304v-6.82h1.81l2.897 5.133c-.072-.88-.072-1.54-.072-1.906V81.18h1.303V88h.072zM194.952 84.187h2.679v3.52c-.434.146-.869.22-1.231.293-.362.073-.797.073-1.159.073-1.013 0-1.81-.293-2.317-.88-.507-.586-.796-1.466-.796-2.566 0-1.1.29-1.98.941-2.567.652-.587 1.448-.953 2.607-.953.724 0 1.376.146 2.027.44l-.506 1.173c-.507-.22-1.014-.367-1.521-.367-.652 0-1.086.22-1.448.66-.362.44-.58.954-.58 1.687 0 .733.145 1.32.435 1.687.29.366.724.586 1.303.586.29 0 .58 0 .942-.073v-1.393h-1.304v-1.32h-.072z"/>
                <path stroke="#1454A7" stroke-width="1.46" d="M193.793 55v11.733h11.586"/>
                <path fill="#FFF" stroke="#2E6DDE" stroke-linecap="square" stroke-width="1.46" d="M205.38 77V66.733L193.792 55h-23.172v22M170.62 92.4V99h34.76v-6.6"/>
                <path stroke="#2E6DDE" stroke-width="1.46" d="M209 77h-42M170.62 73.333L167 77v15.4h42V77l-3.62-3.667"/>
                <path fill="#1D56A1" fill-rule="nonzero" d="M376.076 83.307c0 .733-.217 1.32-.652 1.686-.434.367-1.086.587-1.955.587h-.58V88h-1.448v-6.82h2.173c.796 0 1.448.147 1.883.513.434.367.579.954.579 1.614zm-3.186 1.1h.434c.435 0 .797-.074 1.014-.294.217-.146.362-.44.362-.733 0-.367-.072-.587-.29-.733-.217-.147-.434-.22-.869-.22h-.651v1.98z"/>
                <path fill="#1D56A1" d="M383.534 88h-1.81l-2.896-5.133h-.073c.073.88.073 1.54.073 1.98V88h-1.304v-6.82h1.81l2.897 5.133c-.072-.88-.072-1.54-.072-1.906V81.18h1.303V88h.072zM387.952 84.187h2.679v3.52c-.434.146-.869.22-1.231.293-.362.073-.797.073-1.159.073-1.013 0-1.81-.293-2.317-.88-.507-.586-.796-1.466-.796-2.566 0-1.1.29-1.98.941-2.567.652-.587 1.448-.953 2.607-.953.724 0 1.376.146 2.027.44l-.506 1.173c-.507-.22-1.014-.367-1.521-.367-.652 0-1.086.22-1.448.66-.362.44-.58.954-.58 1.687 0 .733.145 1.32.435 1.687.29.366.724.586 1.303.586.29 0 .58 0 .942-.073v-1.393h-1.304v-1.32h-.072z"/>
                <path stroke="#1454A7" stroke-width="1.46" d="M386.793 55v11.733h11.586"/>
                <path fill="#FFF" stroke="#2E6DDE" stroke-linecap="square" stroke-width="1.46" d="M398.38 77V66.733L386.792 55h-23.172v22M363.62 92.4V99h34.76v-6.6"/>
                <path stroke="#2E6DDE" stroke-width="1.46" d="M402 77h-42M363.62 73.333L360 77v15.4h42V77l-3.62-3.667"/>
                <path fill="#1D56A1" d="M1.952 84.187H4.63v3.52c-.434.146-.869.22-1.231.293-.362.073-.797.073-1.159.073-1.013 0-1.81-.293-2.317-.88-.507-.586-.796-1.466-.796-2.566 0-1.1.29-1.98.941-2.567.652-.587 1.448-.953 2.607-.953.724 0 1.376.146 2.027.44l-.506 1.173c-.507-.22-1.014-.367-1.521-.367-.652 0-1.086.22-1.448.66-.362.44-.58.954-.58 1.687 0 .733.145 1.32.435 1.687.29.366.724.586 1.303.586.29 0 .58 0 .942-.073v-1.393H2.024v-1.32h-.072z"/>
                <path stroke="#1454A7" stroke-width="1.46" d="M.793 55v11.733H12.38"/>
                <path fill="#FFF" stroke="#2E6DDE" stroke-linecap="square" stroke-width="1.46" d="M12.38 77V66.733L.792 55h-23.172v22M-22.38 92.4V99h34.76v-6.6"/>
                <path stroke="#2E6DDE" stroke-width="1.46" d="M16 77h-42M-22.38 73.333L-26 77v15.4h42V77l-3.62-3.667"/>
                <g>
                    <path fill="#FFF" stroke="#2E6DDE" stroke-width="1.6" d="M74 56.01V98.2c0 1.111-.895 2.01-2 2.01H38c-1.105 0-2-.899-2-2.01V56.01c0-1.11.895-2.01 2-2.01h34c1.105 0 2 .9 2 2.01z"/>
                    <path fill="#2E6DDE" d="M65 66.055h-6c-.553 0-1-.45-1-1.005 0-.554.447-1.004 1-1.004h6c.553 0 1 .45 1 1.004 0 .555-.447 1.005-1 1.005zM65 74.091h-6c-.553 0-1-.45-1-1.004 0-.555.447-1.005 1-1.005h6c.553 0 1 .45 1 1.005 0 .554-.447 1.004-1 1.004zM65 82.128H45c-.553 0-1-.45-1-1.005 0-.554.447-1.004 1-1.004h20c.553 0 1 .45 1 1.004 0 .555-.447 1.005-1 1.005zM65 90.164H45c-.553 0-1-.45-1-1.004 0-.555.447-1.005 1-1.005h20c.553 0 1 .45 1 1.005 0 .554-.447 1.004-1 1.004zM53 74.091h-8c-.553 0-1-.45-1-1.004V65.05c0-.554.447-1.004 1-1.004h8c.553 0 1 .45 1 1.004v8.037c0 .554-.447 1.004-1 1.004z"/>
                    <path fill="#FFF" stroke="#2E6DDE" stroke-width="1.6" d="M460 56.01V98.2c0 1.111-.895 2.01-2 2.01h-34c-1.105 0-2-.899-2-2.01V56.01c0-1.11.895-2.01 2-2.01h34c1.105 0 2 .9 2 2.01z"/>
                    <path fill="#2E6DDE" d="M451 66.055h-6c-.553 0-1-.45-1-1.005 0-.554.447-1.004 1-1.004h6c.553 0 1 .45 1 1.004 0 .555-.447 1.005-1 1.005zM451 74.091h-6c-.553 0-1-.45-1-1.004 0-.555.447-1.005 1-1.005h6c.553 0 1 .45 1 1.005 0 .554-.447 1.004-1 1.004zM451 82.128h-20c-.553 0-1-.45-1-1.005 0-.554.447-1.004 1-1.004h20c.553 0 1 .45 1 1.004 0 .555-.447 1.005-1 1.005zM451 90.164h-20c-.553 0-1-.45-1-1.004 0-.555.447-1.005 1-1.005h20c.553 0 1 .45 1 1.005 0 .554-.447 1.004-1 1.004zM439 74.091h-8c-.553 0-1-.45-1-1.004V65.05c0-.554.447-1.004 1-1.004h8c.553 0 1 .45 1 1.004v8.037c0 .554-.447 1.004-1 1.004z"/>
                    <path fill="#FFF" stroke="#2E6DDE" stroke-width="1.6" d="M267 56.01V98.2c0 1.111-.895 2.01-2 2.01h-34c-1.105 0-2-.899-2-2.01V56.01c0-1.11.895-2.01 2-2.01h34c1.105 0 2 .9 2 2.01z"/>
                    <path fill="#2E6DDE" d="M258 66.055h-6c-.553 0-1-.45-1-1.005 0-.554.447-1.004 1-1.004h6c.553 0 1 .45 1 1.004 0 .555-.447 1.005-1 1.005zM258 74.091h-6c-.553 0-1-.45-1-1.004 0-.555.447-1.005 1-1.005h6c.553 0 1 .45 1 1.005 0 .554-.447 1.004-1 1.004zM258 82.128h-20c-.553 0-1-.45-1-1.005 0-.554.447-1.004 1-1.004h20c.553 0 1 .45 1 1.004 0 .555-.447 1.005-1 1.005zM258 90.164h-20c-.553 0-1-.45-1-1.004 0-.555.447-1.005 1-1.005h20c.553 0 1 .45 1 1.005 0 .554-.447 1.004-1 1.004zM246 74.091h-8c-.553 0-1-.45-1-1.004V65.05c0-.554.447-1.004 1-1.004h8c.553 0 1 .45 1 1.004v8.037c0 .554-.447 1.004-1 1.004z"/>
                    <path fill="#FFF" stroke="#2E6DDE" stroke-width=".9" d="M112.087 58.5l-4.522-4.5H96.261A2.255 2.255 0 0 0 94 56.25V94.5c0 2.485 2.025 4.5 4.522 4.5h42.956c2.497 0 4.522-2.015 4.522-4.5V63c0-2.485-2.025-4.5-4.522-4.5h-29.391z"/>
                    <path stroke="#2E6DDE" stroke-width=".9" d="M146 65H94v-8.8c0-1.215 1.012-2.2 2.26-2.2h11.305l4.522 4.4h29.391c2.497 0 4.522 1.97 4.522 4.4V65z"/>
                    <path fill="#FFF" stroke="#2E6DDE" stroke-width=".9" d="M305.087 58.5l-4.522-4.5h-11.304A2.255 2.255 0 0 0 287 56.25V94.5c0 2.485 2.025 4.5 4.522 4.5h42.956c2.497 0 4.522-2.015 4.522-4.5V63c0-2.485-2.025-4.5-4.522-4.5h-29.391z"/>
                    <path stroke="#2E6DDE" stroke-width=".9" d="M339 65h-52v-8.8c0-1.215 1.012-2.2 2.26-2.2h11.305l4.522 4.4h29.391c2.497 0 4.522 1.97 4.522 4.4V65z"/>
                    <path fill="#1D56A1" fill-rule="nonzero" d="M183.076 83.307c0 .733-.217 1.32-.652 1.686-.434.367-1.086.587-1.955.587h-.58V88h-1.448v-6.82h2.173c.796 0 1.448.147 1.883.513.434.367.579.954.579 1.614zm-3.186 1.1h.434c.435 0 .797-.074 1.014-.294.217-.146.362-.44.362-.733 0-.367-.072-.587-.29-.733-.217-.147-.434-.22-.869-.22h-.651v1.98z"/>
                    <path fill="#1D56A1" d="M190.534 88h-1.81l-2.896-5.133h-.073c.073.88.073 1.54.073 1.98V88h-1.304v-6.82h1.81l2.897 5.133c-.072-.88-.072-1.54-.072-1.906V81.18h1.303V88h.072zM194.952 84.187h2.679v3.52c-.434.146-.869.22-1.231.293-.362.073-.797.073-1.159.073-1.013 0-1.81-.293-2.317-.88-.507-.586-.796-1.466-.796-2.566 0-1.1.29-1.98.941-2.567.652-.587 1.448-.953 2.607-.953.724 0 1.376.146 2.027.44l-.506 1.173c-.507-.22-1.014-.367-1.521-.367-.652 0-1.086.22-1.448.66-.362.44-.58.954-.58 1.687 0 .733.145 1.32.435 1.687.29.366.724.586 1.303.586.29 0 .58 0 .942-.073v-1.393h-1.304v-1.32h-.072z"/>
                    <path stroke="#1454A7" stroke-width="1.46" d="M193.793 55v11.733h11.586"/>
                    <path fill="#FFF" stroke="#2E6DDE" stroke-linecap="square" stroke-width="1.46" d="M205.38 77V66.733L193.792 55h-23.172v22M170.62 92.4V99h34.76v-6.6"/>
                    <path stroke="#2E6DDE" stroke-width="1.46" d="M209 77h-42M170.62 73.333L167 77v15.4h42V77l-3.62-3.667"/>
                    <path fill="#1D56A1" fill-rule="nonzero" d="M376.076 83.307c0 .733-.217 1.32-.652 1.686-.434.367-1.086.587-1.955.587h-.58V88h-1.448v-6.82h2.173c.796 0 1.448.147 1.883.513.434.367.579.954.579 1.614zm-3.186 1.1h.434c.435 0 .797-.074 1.014-.294.217-.146.362-.44.362-.733 0-.367-.072-.587-.29-.733-.217-.147-.434-.22-.869-.22h-.651v1.98z"/>
                    <path fill="#1D56A1" d="M383.534 88h-1.81l-2.896-5.133h-.073c.073.88.073 1.54.073 1.98V88h-1.304v-6.82h1.81l2.897 5.133c-.072-.88-.072-1.54-.072-1.906V81.18h1.303V88h.072zM387.952 84.187h2.679v3.52c-.434.146-.869.22-1.231.293-.362.073-.797.073-1.159.073-1.013 0-1.81-.293-2.317-.88-.507-.586-.796-1.466-.796-2.566 0-1.1.29-1.98.941-2.567.652-.587 1.448-.953 2.607-.953.724 0 1.376.146 2.027.44l-.506 1.173c-.507-.22-1.014-.367-1.521-.367-.652 0-1.086.22-1.448.66-.362.44-.58.954-.58 1.687 0 .733.145 1.32.435 1.687.29.366.724.586 1.303.586.29 0 .58 0 .942-.073v-1.393h-1.304v-1.32h-.072z"/>
                    <path stroke="#1454A7" stroke-width="1.46" d="M386.793 55v11.733h11.586"/>
                    <path fill="#FFF" stroke="#2E6DDE" stroke-linecap="square" stroke-width="1.46" d="M398.38 77V66.733L386.792 55h-23.172v22M363.62 92.4V99h34.76v-6.6"/>
                    <path stroke="#2E6DDE" stroke-width="1.46" d="M402 77h-42M363.62 73.333L360 77v15.4h42V77l-3.62-3.667"/>
                    <path fill="#1D56A1" d="M1.952 84.187H4.63v3.52c-.434.146-.869.22-1.231.293-.362.073-.797.073-1.159.073-1.013 0-1.81-.293-2.317-.88-.507-.586-.796-1.466-.796-2.566 0-1.1.29-1.98.941-2.567.652-.587 1.448-.953 2.607-.953.724 0 1.376.146 2.027.44l-.506 1.173c-.507-.22-1.014-.367-1.521-.367-.652 0-1.086.22-1.448.66-.362.44-.58.954-.58 1.687 0 .733.145 1.32.435 1.687.29.366.724.586 1.303.586.29 0 .58 0 .942-.073v-1.393H2.024v-1.32h-.072z"/>
                    <path stroke="#1454A7" stroke-width="1.46" d="M.793 55v11.733H12.38"/>
                    <path fill="#FFF" stroke="#2E6DDE" stroke-linecap="square" stroke-width="1.46" d="M12.38 77V66.733L.792 55h-23.172v22M-22.38 92.4V99h34.76v-6.6"/>
                    <path stroke="#2E6DDE" stroke-width="1.46" d="M16 77h-42M-22.38 73.333L-26 77v15.4h42V77l-3.62-3.667"/>
                </g>
            </g>
            <g mask="url(#b)">
                <path fill="#FFF" stroke="#2E6DDE" stroke-width="1.6" d="M327 252.01v42.19c0 1.111-.895 2.01-2 2.01h-34c-1.105 0-2-.899-2-2.01v-42.19c0-1.11.895-2.01 2-2.01h34c1.105 0 2 .9 2 2.01z"/>
                <path fill="#2E6DDE" d="M318 262.055h-6c-.553 0-1-.45-1-1.005 0-.554.447-1.004 1-1.004h6c.553 0 1 .45 1 1.004 0 .555-.447 1.005-1 1.005zM318 270.091h-6c-.553 0-1-.45-1-1.004 0-.555.447-1.005 1-1.005h6c.553 0 1 .45 1 1.005 0 .554-.447 1.004-1 1.004zM318 278.128h-20c-.553 0-1-.45-1-1.005 0-.554.447-1.004 1-1.004h20c.553 0 1 .45 1 1.004 0 .555-.447 1.005-1 1.005zM318 286.164h-20c-.553 0-1-.45-1-1.004 0-.555.447-1.005 1-1.005h20c.553 0 1 .45 1 1.005 0 .554-.447 1.004-1 1.004zM306 270.091h-8c-.553 0-1-.45-1-1.004v-8.037c0-.554.447-1.004 1-1.004h8c.553 0 1 .45 1 1.004v8.037c0 .554-.447 1.004-1 1.004z"/>
                <path fill="#FFF" stroke="#2E6DDE" stroke-width="1.6" d="M134 252.01v42.19c0 1.111-.895 2.01-2 2.01H98c-1.105 0-2-.899-2-2.01v-42.19c0-1.11.895-2.01 2-2.01h34c1.105 0 2 .9 2 2.01z"/>
                <path fill="#2E6DDE" d="M125 262.055h-6c-.553 0-1-.45-1-1.005 0-.554.447-1.004 1-1.004h6c.553 0 1 .45 1 1.004 0 .555-.447 1.005-1 1.005zM125 270.091h-6c-.553 0-1-.45-1-1.004 0-.555.447-1.005 1-1.005h6c.553 0 1 .45 1 1.005 0 .554-.447 1.004-1 1.004zM125 278.128h-20c-.553 0-1-.45-1-1.005 0-.554.447-1.004 1-1.004h20c.553 0 1 .45 1 1.004 0 .555-.447 1.005-1 1.005zM125 286.164h-20c-.553 0-1-.45-1-1.004 0-.555.447-1.005 1-1.005h20c.553 0 1 .45 1 1.005 0 .554-.447 1.004-1 1.004zM113 270.091h-8c-.553 0-1-.45-1-1.004v-8.037c0-.554.447-1.004 1-1.004h8c.553 0 1 .45 1 1.004v8.037c0 .554-.447 1.004-1 1.004z"/>
                <path fill="#FFF" stroke="#2E6DDE" stroke-width=".9" d="M-20.913 254.5l-4.522-4.5h-11.304A2.255 2.255 0 0 0-39 252.25v38.25c0 2.485 2.025 4.5 4.522 4.5H8.478c2.497 0 4.522-2.015 4.522-4.5V259c0-2.485-2.025-4.5-4.522-4.5h-29.391z"/>
                <path stroke="#2E6DDE" stroke-width=".9" d="M13 261h-52v-8.8c0-1.215 1.012-2.2 2.26-2.2h11.305l4.522 4.4H8.478c2.497 0 4.522 1.97 4.522 4.4v2.2z"/>
                <path fill="#FFF" stroke="#2E6DDE" stroke-width=".9" d="M172.087 254.5l-4.522-4.5h-11.304a2.255 2.255 0 0 0-2.261 2.25v38.25c0 2.485 2.025 4.5 4.522 4.5h42.956c2.497 0 4.522-2.015 4.522-4.5V259c0-2.485-2.025-4.5-4.522-4.5h-29.391z"/>
                <path stroke="#2E6DDE" stroke-width=".9" d="M206 261h-52v-8.8c0-1.215 1.012-2.2 2.26-2.2h11.305l4.522 4.4h29.391c2.497 0 4.522 1.97 4.522 4.4v2.2z"/>
                <path fill="#1D56A1" fill-rule="nonzero" d="M50.076 279.307c0 .733-.217 1.32-.652 1.686-.434.367-1.086.587-1.955.587h-.58V284h-1.448v-6.82h2.173c.796 0 1.448.147 1.883.513.434.367.579.954.579 1.614zm-3.186 1.1h.434c.435 0 .797-.074 1.014-.294.217-.146.362-.44.362-.733 0-.367-.072-.587-.29-.733-.217-.147-.434-.22-.869-.22h-.651v1.98z"/>
                <path fill="#1D56A1" d="M57.534 284h-1.81l-2.896-5.133h-.073c.073.88.073 1.54.073 1.98V284h-1.304v-6.82h1.81l2.897 5.133c-.072-.88-.072-1.54-.072-1.906v-3.227h1.303V284h.072zM61.952 280.187h2.679v3.52c-.434.146-.869.22-1.231.293-.362.073-.797.073-1.159.073-1.013 0-1.81-.293-2.317-.88-.507-.586-.796-1.466-.796-2.566 0-1.1.29-1.98.941-2.567.652-.587 1.448-.953 2.607-.953.724 0 1.376.146 2.027.44l-.506 1.173c-.507-.22-1.014-.367-1.521-.367-.652 0-1.086.22-1.448.66-.362.44-.58.954-.58 1.687 0 .733.145 1.32.435 1.687.29.366.724.586 1.303.586.29 0 .58 0 .942-.073v-1.393h-1.304v-1.32h-.072z"/>
                <path stroke="#1454A7" stroke-width="1.46" d="M60.793 251v11.733H72.38"/>
                <path fill="#FFF" stroke="#2E6DDE" stroke-linecap="square" stroke-width="1.46" d="M72.38 273v-10.267L60.792 251H37.621v22M37.62 288.4v6.6h34.76v-6.6"/>
                <path stroke="#2E6DDE" stroke-width="1.46" d="M76 273H34M37.62 269.333L34 273v15.4h42V273l-3.62-3.667"/>
                <path fill="#1D56A1" fill-rule="nonzero" d="M243.076 279.307c0 .733-.217 1.32-.652 1.686-.434.367-1.086.587-1.955.587h-.58V284h-1.448v-6.82h2.173c.796 0 1.448.147 1.883.513.434.367.579.954.579 1.614zm-3.186 1.1h.434c.435 0 .797-.074 1.014-.294.217-.146.362-.44.362-.733 0-.367-.072-.587-.29-.733-.217-.147-.434-.22-.869-.22h-.651v1.98z"/>
                <path fill="#1D56A1" d="M250.534 284h-1.81l-2.896-5.133h-.073c.073.88.073 1.54.073 1.98V284h-1.304v-6.82h1.81l2.897 5.133c-.072-.88-.072-1.54-.072-1.906v-3.227h1.303V284h.072zM254.952 280.187h2.679v3.52c-.434.146-.869.22-1.231.293-.362.073-.797.073-1.159.073-1.013 0-1.81-.293-2.317-.88-.507-.586-.796-1.466-.796-2.566 0-1.1.29-1.98.941-2.567.652-.587 1.448-.953 2.607-.953.724 0 1.376.146 2.027.44l-.506 1.173c-.507-.22-1.014-.367-1.521-.367-.652 0-1.086.22-1.448.66-.362.44-.58.954-.58 1.687 0 .733.145 1.32.435 1.687.29.366.724.586 1.303.586.29 0 .58 0 .942-.073v-1.393h-1.304v-1.32h-.072z"/>
                <path stroke="#1454A7" stroke-width="1.46" d="M253.793 251v11.733h11.586"/>
                <path fill="#FFF" stroke="#2E6DDE" stroke-linecap="square" stroke-width="1.46" d="M265.38 273v-10.267L253.792 251h-23.172v22M230.62 288.4v6.6h34.76v-6.6"/>
                <path stroke="#2E6DDE" stroke-width="1.46" d="M269 273h-42M230.62 269.333L227 273v15.4h42V273l-3.62-3.667"/>
                <g>
                    <path fill="#FFF" stroke="#2E6DDE" stroke-width="1.6" d="M327 252.01v42.19c0 1.111-.895 2.01-2 2.01h-34c-1.105 0-2-.899-2-2.01v-42.19c0-1.11.895-2.01 2-2.01h34c1.105 0 2 .9 2 2.01z"/>
                    <path fill="#2E6DDE" d="M318 262.055h-6c-.553 0-1-.45-1-1.005 0-.554.447-1.004 1-1.004h6c.553 0 1 .45 1 1.004 0 .555-.447 1.005-1 1.005zM318 270.091h-6c-.553 0-1-.45-1-1.004 0-.555.447-1.005 1-1.005h6c.553 0 1 .45 1 1.005 0 .554-.447 1.004-1 1.004zM318 278.128h-20c-.553 0-1-.45-1-1.005 0-.554.447-1.004 1-1.004h20c.553 0 1 .45 1 1.004 0 .555-.447 1.005-1 1.005zM318 286.164h-20c-.553 0-1-.45-1-1.004 0-.555.447-1.005 1-1.005h20c.553 0 1 .45 1 1.005 0 .554-.447 1.004-1 1.004zM306 270.091h-8c-.553 0-1-.45-1-1.004v-8.037c0-.554.447-1.004 1-1.004h8c.553 0 1 .45 1 1.004v8.037c0 .554-.447 1.004-1 1.004z"/>
                    <path fill="#FFF" stroke="#2E6DDE" stroke-width="1.6" d="M134 252.01v42.19c0 1.111-.895 2.01-2 2.01H98c-1.105 0-2-.899-2-2.01v-42.19c0-1.11.895-2.01 2-2.01h34c1.105 0 2 .9 2 2.01z"/>
                    <path fill="#2E6DDE" d="M125 262.055h-6c-.553 0-1-.45-1-1.005 0-.554.447-1.004 1-1.004h6c.553 0 1 .45 1 1.004 0 .555-.447 1.005-1 1.005zM125 270.091h-6c-.553 0-1-.45-1-1.004 0-.555.447-1.005 1-1.005h6c.553 0 1 .45 1 1.005 0 .554-.447 1.004-1 1.004zM125 278.128h-20c-.553 0-1-.45-1-1.005 0-.554.447-1.004 1-1.004h20c.553 0 1 .45 1 1.004 0 .555-.447 1.005-1 1.005zM125 286.164h-20c-.553 0-1-.45-1-1.004 0-.555.447-1.005 1-1.005h20c.553 0 1 .45 1 1.005 0 .554-.447 1.004-1 1.004zM113 270.091h-8c-.553 0-1-.45-1-1.004v-8.037c0-.554.447-1.004 1-1.004h8c.553 0 1 .45 1 1.004v8.037c0 .554-.447 1.004-1 1.004z"/>
                    <path fill="#FFF" stroke="#2E6DDE" stroke-width=".9" d="M-20.913 254.5l-4.522-4.5h-11.304A2.255 2.255 0 0 0-39 252.25v38.25c0 2.485 2.025 4.5 4.522 4.5H8.478c2.497 0 4.522-2.015 4.522-4.5V259c0-2.485-2.025-4.5-4.522-4.5h-29.391z"/>
                    <path stroke="#2E6DDE" stroke-width=".9" d="M13 261h-52v-8.8c0-1.215 1.012-2.2 2.26-2.2h11.305l4.522 4.4H8.478c2.497 0 4.522 1.97 4.522 4.4v2.2z"/>
                    <path fill="#FFF" stroke="#2E6DDE" stroke-width=".9" d="M172.087 254.5l-4.522-4.5h-11.304a2.255 2.255 0 0 0-2.261 2.25v38.25c0 2.485 2.025 4.5 4.522 4.5h42.956c2.497 0 4.522-2.015 4.522-4.5V259c0-2.485-2.025-4.5-4.522-4.5h-29.391z"/>
                    <path stroke="#2E6DDE" stroke-width=".9" d="M206 261h-52v-8.8c0-1.215 1.012-2.2 2.26-2.2h11.305l4.522 4.4h29.391c2.497 0 4.522 1.97 4.522 4.4v2.2z"/>
                    <path fill="#1D56A1" fill-rule="nonzero" d="M50.076 279.307c0 .733-.217 1.32-.652 1.686-.434.367-1.086.587-1.955.587h-.58V284h-1.448v-6.82h2.173c.796 0 1.448.147 1.883.513.434.367.579.954.579 1.614zm-3.186 1.1h.434c.435 0 .797-.074 1.014-.294.217-.146.362-.44.362-.733 0-.367-.072-.587-.29-.733-.217-.147-.434-.22-.869-.22h-.651v1.98z"/>
                    <path fill="#1D56A1" d="M57.534 284h-1.81l-2.896-5.133h-.073c.073.88.073 1.54.073 1.98V284h-1.304v-6.82h1.81l2.897 5.133c-.072-.88-.072-1.54-.072-1.906v-3.227h1.303V284h.072zM61.952 280.187h2.679v3.52c-.434.146-.869.22-1.231.293-.362.073-.797.073-1.159.073-1.013 0-1.81-.293-2.317-.88-.507-.586-.796-1.466-.796-2.566 0-1.1.29-1.98.941-2.567.652-.587 1.448-.953 2.607-.953.724 0 1.376.146 2.027.44l-.506 1.173c-.507-.22-1.014-.367-1.521-.367-.652 0-1.086.22-1.448.66-.362.44-.58.954-.58 1.687 0 .733.145 1.32.435 1.687.29.366.724.586 1.303.586.29 0 .58 0 .942-.073v-1.393h-1.304v-1.32h-.072z"/>
                    <path stroke="#1454A7" stroke-width="1.46" d="M60.793 251v11.733H72.38"/>
                    <path fill="#FFF" stroke="#2E6DDE" stroke-linecap="square" stroke-width="1.46" d="M72.38 273v-10.267L60.792 251H37.621v22M37.62 288.4v6.6h34.76v-6.6"/>
                    <path stroke="#2E6DDE" stroke-width="1.46" d="M76 273H34M37.62 269.333L34 273v15.4h42V273l-3.62-3.667"/>
                    <path fill="#1D56A1" fill-rule="nonzero" d="M243.076 279.307c0 .733-.217 1.32-.652 1.686-.434.367-1.086.587-1.955.587h-.58V284h-1.448v-6.82h2.173c.796 0 1.448.147 1.883.513.434.367.579.954.579 1.614zm-3.186 1.1h.434c.435 0 .797-.074 1.014-.294.217-.146.362-.44.362-.733 0-.367-.072-.587-.29-.733-.217-.147-.434-.22-.869-.22h-.651v1.98z"/>
                    <path fill="#1D56A1" d="M250.534 284h-1.81l-2.896-5.133h-.073c.073.88.073 1.54.073 1.98V284h-1.304v-6.82h1.81l2.897 5.133c-.072-.88-.072-1.54-.072-1.906v-3.227h1.303V284h.072zM254.952 280.187h2.679v3.52c-.434.146-.869.22-1.231.293-.362.073-.797.073-1.159.073-1.013 0-1.81-.293-2.317-.88-.507-.586-.796-1.466-.796-2.566 0-1.1.29-1.98.941-2.567.652-.587 1.448-.953 2.607-.953.724 0 1.376.146 2.027.44l-.506 1.173c-.507-.22-1.014-.367-1.521-.367-.652 0-1.086.22-1.448.66-.362.44-.58.954-.58 1.687 0 .733.145 1.32.435 1.687.29.366.724.586 1.303.586.29 0 .58 0 .942-.073v-1.393h-1.304v-1.32h-.072z"/>
                    <path stroke="#1454A7" stroke-width="1.46" d="M253.793 251v11.733h11.586"/>
                    <path fill="#FFF" stroke="#2E6DDE" stroke-linecap="square" stroke-width="1.46" d="M265.38 273v-10.267L253.792 251h-23.172v22M230.62 288.4v6.6h34.76v-6.6"/>
                    <path stroke="#2E6DDE" stroke-width="1.46" d="M269 273h-42M230.62 269.333L227 273v15.4h42V273l-3.62-3.667"/>
                </g>
            </g>
            <g mask="url(#b)">
                <path fill="#FFF" stroke="#2E6DDE" stroke-width="1.6" d="M447 252.01v42.19c0 1.111-.895 2.01-2 2.01h-34c-1.105 0-2-.899-2-2.01v-42.19c0-1.11.895-2.01 2-2.01h34c1.105 0 2 .9 2 2.01z"/>
                <path fill="#2E6DDE" d="M438 262.055h-6c-.553 0-1-.45-1-1.005 0-.554.447-1.004 1-1.004h6c.553 0 1 .45 1 1.004 0 .555-.447 1.005-1 1.005zM438 270.091h-6c-.553 0-1-.45-1-1.004 0-.555.447-1.005 1-1.005h6c.553 0 1 .45 1 1.005 0 .554-.447 1.004-1 1.004zM438 278.128h-20c-.553 0-1-.45-1-1.005 0-.554.447-1.004 1-1.004h20c.553 0 1 .45 1 1.004 0 .555-.447 1.005-1 1.005zM438 286.164h-20c-.553 0-1-.45-1-1.004 0-.555.447-1.005 1-1.005h20c.553 0 1 .45 1 1.005 0 .554-.447 1.004-1 1.004zM426 270.091h-8c-.553 0-1-.45-1-1.004v-8.037c0-.554.447-1.004 1-1.004h8c.553 0 1 .45 1 1.004v8.037c0 .554-.447 1.004-1 1.004z"/>
                <path fill="#1D56A1" fill-rule="nonzero" d="M363.076 279.307c0 .733-.217 1.32-.652 1.686-.434.367-1.086.587-1.955.587h-.58V284h-1.448v-6.82h2.173c.796 0 1.448.147 1.883.513.434.367.579.954.579 1.614zm-3.186 1.1h.434c.435 0 .797-.074 1.014-.294.217-.146.362-.44.362-.733 0-.367-.072-.587-.29-.733-.217-.147-.434-.22-.869-.22h-.651v1.98z"/>
                <path fill="#1D56A1" d="M370.534 284h-1.81l-2.896-5.133h-.073c.073.88.073 1.54.073 1.98V284h-1.304v-6.82h1.81l2.897 5.133c-.072-.88-.072-1.54-.072-1.906v-3.227h1.303V284h.072zM374.952 280.187h2.679v3.52c-.434.146-.869.22-1.231.293-.362.073-.797.073-1.159.073-1.013 0-1.81-.293-2.317-.88-.507-.586-.796-1.466-.796-2.566 0-1.1.29-1.98.941-2.567.652-.587 1.448-.953 2.607-.953.724 0 1.376.146 2.027.44l-.506 1.173c-.507-.22-1.014-.367-1.521-.367-.652 0-1.086.22-1.448.66-.362.44-.58.954-.58 1.687 0 .733.145 1.32.435 1.687.29.366.724.586 1.303.586.29 0 .58 0 .942-.073v-1.393h-1.304v-1.32h-.072z"/>
                <path stroke="#1454A7" stroke-width="1.46" d="M373.793 251v11.733h11.586"/>
                <path fill="#FFF" stroke="#2E6DDE" stroke-linecap="square" stroke-width="1.46" d="M385.38 273v-10.267L373.792 251h-23.172v22M350.62 288.4v6.6h34.76v-6.6"/>
                <path stroke="#2E6DDE" stroke-width="1.46" d="M389 273h-42M350.62 269.333L347 273v15.4h42V273l-3.62-3.667"/>
                <g>
                    <path fill="#FFF" stroke="#2E6DDE" stroke-width="1.6" d="M447 252.01v42.19c0 1.111-.895 2.01-2 2.01h-34c-1.105 0-2-.899-2-2.01v-42.19c0-1.11.895-2.01 2-2.01h34c1.105 0 2 .9 2 2.01z"/>
                    <path fill="#2E6DDE" d="M438 262.055h-6c-.553 0-1-.45-1-1.005 0-.554.447-1.004 1-1.004h6c.553 0 1 .45 1 1.004 0 .555-.447 1.005-1 1.005zM438 270.091h-6c-.553 0-1-.45-1-1.004 0-.555.447-1.005 1-1.005h6c.553 0 1 .45 1 1.005 0 .554-.447 1.004-1 1.004zM438 278.128h-20c-.553 0-1-.45-1-1.005 0-.554.447-1.004 1-1.004h20c.553 0 1 .45 1 1.004 0 .555-.447 1.005-1 1.005zM438 286.164h-20c-.553 0-1-.45-1-1.004 0-.555.447-1.005 1-1.005h20c.553 0 1 .45 1 1.005 0 .554-.447 1.004-1 1.004zM426 270.091h-8c-.553 0-1-.45-1-1.004v-8.037c0-.554.447-1.004 1-1.004h8c.553 0 1 .45 1 1.004v8.037c0 .554-.447 1.004-1 1.004z"/>
                    <path fill="#1D56A1" fill-rule="nonzero" d="M363.076 279.307c0 .733-.217 1.32-.652 1.686-.434.367-1.086.587-1.955.587h-.58V284h-1.448v-6.82h2.173c.796 0 1.448.147 1.883.513.434.367.579.954.579 1.614zm-3.186 1.1h.434c.435 0 .797-.074 1.014-.294.217-.146.362-.44.362-.733 0-.367-.072-.587-.29-.733-.217-.147-.434-.22-.869-.22h-.651v1.98z"/>
                    <path fill="#1D56A1" d="M370.534 284h-1.81l-2.896-5.133h-.073c.073.88.073 1.54.073 1.98V284h-1.304v-6.82h1.81l2.897 5.133c-.072-.88-.072-1.54-.072-1.906v-3.227h1.303V284h.072zM374.952 280.187h2.679v3.52c-.434.146-.869.22-1.231.293-.362.073-.797.073-1.159.073-1.013 0-1.81-.293-2.317-.88-.507-.586-.796-1.466-.796-2.566 0-1.1.29-1.98.941-2.567.652-.587 1.448-.953 2.607-.953.724 0 1.376.146 2.027.44l-.506 1.173c-.507-.22-1.014-.367-1.521-.367-.652 0-1.086.22-1.448.66-.362.44-.58.954-.58 1.687 0 .733.145 1.32.435 1.687.29.366.724.586 1.303.586.29 0 .58 0 .942-.073v-1.393h-1.304v-1.32h-.072z"/>
                    <path stroke="#1454A7" stroke-width="1.46" d="M373.793 251v11.733h11.586"/>
                    <path fill="#FFF" stroke="#2E6DDE" stroke-linecap="square" stroke-width="1.46" d="M385.38 273v-10.267L373.792 251h-23.172v22M350.62 288.4v6.6h34.76v-6.6"/>
                    <path stroke="#2E6DDE" stroke-width="1.46" d="M389 273h-42M350.62 269.333L347 273v15.4h42V273l-3.62-3.667"/>
                </g>
            </g>
        </g>
        <g transform="translate(74 151)">
            <rect width="309.401" height="45.556" x="1.507" y="1.565" fill="#FFF" fill-rule="nonzero" stroke="#2E6DDE" stroke-width="2.4" rx="4.8"/>
            <g fill="#C2D7FF">
                <path d="M23.827 29.27a.353.353 0 0 0-.254-.103l-3.046.022a.365.365 0 0 0-.362.361l-.029 4.063a.353.353 0 0 0 .357.356l3.047-.021a.365.365 0 0 0 .361-.362l.007-1.016a.353.353 0 0 0-.356-.356l-1.165.008.01-1.313 1.164-.008a.365.365 0 0 0 .362-.362l.007-1.015c0-.1-.039-.189-.103-.253z"/>
                <path fill-rule="nonzero" d="M20.395 35.807a.534.534 0 0 1-.54-.54l.087-12.304a3.543 3.543 0 0 1-2.01-1.002c-1.406-1.404-1.39-3.698.035-5.123 1.425-1.425 3.719-1.44 5.124-.036 1.404 1.405 1.388 3.698-.037 5.123a3.661 3.661 0 0 1-2.025 1.03l-.087 12.305a.553.553 0 0 1-.547.547zm1.922-18.231c-.982-.982-2.59-.97-3.587.025-.995.996-1.007 2.605-.025 3.587a2.491 2.491 0 0 0 1.772.728c.005 0 .01-.004.016-.004s.01.003.016.003a2.563 2.563 0 0 0 1.782-.753c.996-.996 1.007-2.604.026-3.586z"/>
            </g>
            <g fill="#2E6DDE">
                <path d="M27.316 21.571a.353.353 0 0 0 .254.103l3.046-.021a.365.365 0 0 0 .362-.362l.029-4.062a.353.353 0 0 0-.357-.357l-3.047.022a.365.365 0 0 0-.361.362l-.007 1.015a.353.353 0 0 0 .356.357l1.165-.009-.01 1.313-1.164.009a.365.365 0 0 0-.362.361l-.007 1.016c0 .099.039.188.103.253z"/>
                <path fill-rule="nonzero" d="M30.748 15.035c.3-.003.542.239.54.539L31.2 27.878a3.543 3.543 0 0 1 2.01 1.002c1.406 1.405 1.39 3.699-.035 5.123-1.425 1.425-3.719 1.441-5.124.037-1.404-1.405-1.388-3.699.037-5.124a3.661 3.661 0 0 1 2.025-1.03l.087-12.304a.553.553 0 0 1 .547-.547zm-1.922 18.23c.982.983 2.59.971 3.587-.025.995-.995 1.007-2.604.025-3.586a2.491 2.491 0 0 0-1.772-.728c-.005 0-.01.003-.016.003s-.01-.003-.016-.003a2.563 2.563 0 0 0-1.782.753c-.996.996-1.007 2.605-.026 3.587z"/>
            </g>
            <path fill="#2E6DDE" d="M52.95 25.533h-1.267L52.217 19h6.533v1.167h-5.233l-.367 4.166c.156-.322.425-.575.808-.758.384-.183.853-.275 1.409-.275.777 0 1.466.178 2.066.533.6.356 1.067.856 1.4 1.5.334.645.5 1.384.5 2.217 0 .889-.175 1.692-.525 2.408-.35.717-.83 1.278-1.441 1.684-.611.405-1.3.608-2.067.608-1.289 0-2.522-.589-3.7-1.767l.933-.916c.411.455.84.791 1.284 1.008a3.34 3.34 0 0 0 1.483.325c.833 0 1.48-.294 1.942-.883.46-.59.691-1.411.691-2.467 0-.967-.241-1.706-.725-2.217-.483-.51-1.18-.766-2.091-.766-.478 0-.914.086-1.309.258-.394.172-.68.408-.858.708zm16.217-5.066a3.612 3.612 0 0 0-.892-.325 4.417 4.417 0 0 0-1.025-.125c-.656 0-1.236.166-1.742.5-.505.333-.9.802-1.183 1.408-.283.606-.425 1.297-.425 2.075v.833c.289-.344.703-.614 1.242-.808a5.195 5.195 0 0 1 1.775-.292c.844 0 1.583.17 2.216.509.634.339 1.12.82 1.459 1.441.339.623.508 1.35.508 2.184 0 .877-.18 1.647-.542 2.308a3.788 3.788 0 0 1-1.525 1.533c-.655.361-1.416.542-2.283.542s-1.622-.183-2.267-.55A3.654 3.654 0 0 1 63 30.117c-.344-.69-.517-1.495-.517-2.417V24c0-1.022.203-1.933.609-2.733A4.52 4.52 0 0 1 64.8 19.4c.733-.444 1.567-.667 2.5-.667.5 0 .992.059 1.475.175.483.117.897.28 1.242.492l-.85 1.067zM66.75 30.9c.544 0 1.044-.133 1.5-.4.456-.267.814-.63 1.075-1.092.261-.46.392-.975.392-1.541 0-.556-.12-1.056-.359-1.5a2.616 2.616 0 0 0-1-1.042 2.804 2.804 0 0 0-1.441-.375c-.611 0-1.198.144-1.759.433-.56.29-.98.661-1.258 1.117v1.2c0 .622.125 1.175.375 1.658.25.484.589.861 1.017 1.134.427.272.914.408 1.458.408zm10.817-8.667c1.344 0 2.358.423 3.041 1.267.684.844.998 2.039.942 3.583l-.033.817-6.767.033c0 .59.12 1.114.358 1.575.24.461.575.82 1.009 1.075.433.256.927.384 1.483.384.456 0 .914-.103 1.375-.309.461-.205.942-.552 1.442-1.041l.85 1.033a4.868 4.868 0 0 1-1.642 1.183 4.828 4.828 0 0 1-1.975.417c-.833 0-1.578-.183-2.233-.55a3.913 3.913 0 0 1-1.534-1.533c-.366-.656-.55-1.4-.55-2.234v-.85c.045-1.555.425-2.752 1.142-3.591.717-.84 1.747-1.259 3.092-1.259zm2.466 4.417c.056-1.022-.139-1.806-.583-2.35-.444-.544-1.122-.817-2.033-.817-.878 0-1.528.273-1.95.817-.423.544-.656 1.328-.7 2.35h5.266zm12.334-2.583a2.95 2.95 0 0 0-1.434-.384c-.566 0-1.066.159-1.5.475a2.023 2.023 0 0 0-.816 1.225v5.45h2.816v.067c0 .511.034.878.1 1.1H84.3v-1.167h2.95v-7.166l-1.95-.117V22.5h3.5c-.056.089-.114.267-.175.533a2.956 2.956 0 0 0-.092.584c.29-.556.706-.925 1.25-1.109a5.14 5.14 0 0 1 1.65-.275c.223 0 .459.028.709.084.25.055.62.177 1.108.366l-.883 1.384zm7.7 2.5c1.2.222 2.06.539 2.583.95.522.41.783.972.783 1.683a2.75 2.75 0 0 1-.466 1.575c-.311.461-.753.822-1.325 1.083-.573.261-1.236.392-1.992.392-1.656 0-2.983-.667-3.983-2l.95-.967c.955 1.134 1.972 1.7 3.05 1.7.422 0 .822-.08 1.2-.241.377-.161.677-.378.9-.65.222-.273.333-.564.333-.875 0-.323-.153-.573-.458-.75-.306-.178-.87-.35-1.692-.517-1.367-.278-2.356-.644-2.967-1.1-.61-.456-.916-1.056-.916-1.8 0-.556.152-1.047.458-1.475.306-.428.736-.758 1.292-.992.555-.233 1.2-.35 1.933-.35.8 0 1.508.134 2.125.4.617.267 1.097.65 1.442 1.15l-.9.9c-.39-.41-.775-.705-1.159-.883-.383-.178-.836-.267-1.358-.267-.722 0-1.32.14-1.792.417-.472.278-.708.633-.708 1.067 0 .377.211.686.633.925.423.239 1.1.447 2.034.625zm14.666-6.4l-1.083 1.583a65.453 65.453 0 0 0-2.258 3.442 16.952 16.952 0 0 0-1.467 3.166 10.964 10.964 0 0 0-.608 3.642h-1.584c.011-1.267.225-2.483.642-3.65.417-1.167.917-2.23 1.5-3.192.583-.96 1.347-2.108 2.292-3.441l1.066-1.55h-6.966V19h8.466v1.167zm10.767 8.85c0 .655-.172 1.227-.517 1.716-.344.49-.822.864-1.433 1.125-.611.261-1.311.392-2.1.392-.756 0-1.433-.133-2.033-.4-.6-.267-1.07-.644-1.409-1.133a2.883 2.883 0 0 1-.508-1.684c0-.822.244-1.577.733-2.266.49-.69 1.206-1.173 2.15-1.45-.7-.3-1.255-.775-1.666-1.425a3.927 3.927 0 0 1-.617-2.142c0-.956.303-1.697.908-2.225.606-.528 1.42-.792 2.442-.792 1.022 0 1.833.273 2.433.817.6.544.9 1.294.9 2.25 0 .756-.197 1.456-.591 2.1-.395.644-.92 1.111-1.575 1.4.966.267 1.689.742 2.166 1.425.478.683.717 1.447.717 2.292zm-4-8.95c-.644 0-1.15.16-1.517.483-.366.322-.55.772-.55 1.35 0 .567.175 1.086.525 1.558.35.473.864.864 1.542 1.175.622-.322 1.103-.72 1.442-1.191.339-.473.508-.998.508-1.575 0-.567-.167-1.009-.5-1.325-.333-.317-.817-.475-1.45-.475zm-.05 10.85c.867 0 1.528-.164 1.983-.492.456-.328.684-.803.684-1.425 0-.667-.225-1.28-.675-1.842-.45-.56-1.114-.975-1.992-1.241-.856.266-1.506.675-1.95 1.225a2.88 2.88 0 0 0-.667 1.858c0 .622.22 1.097.659 1.425.439.328 1.091.492 1.958.492zm10.717-8.684c.833 0 1.577.186 2.233.559a3.97 3.97 0 0 1 1.533 1.541c.367.656.55 1.4.55 2.234V32H134.7c.089-.122.172-.297.25-.525a1.99 1.99 0 0 0 .117-.642c-.245.423-.634.759-1.167 1.009-.533.25-1.133.38-1.8.391-1.1 0-2.003-.236-2.708-.708-.706-.472-1.059-1.136-1.059-1.992 0-.955.48-1.675 1.442-2.158.961-.483 2.392-.725 4.292-.725.2 0 .533.011 1 .033v-.116c0-.59-.12-1.117-.359-1.584A2.605 2.605 0 0 0 133.7 23.9a2.865 2.865 0 0 0-1.483-.383c-.456 0-.914.102-1.375.308-.461.206-.942.553-1.442 1.042l-.85-1.034a4.868 4.868 0 0 1 1.642-1.183 4.828 4.828 0 0 1 1.975-.417zm-.317 8.8c.6 0 1.194-.136 1.783-.408a3.577 3.577 0 0 0 1.434-1.175v-1.533c-.245-.011-.6-.017-1.067-.017-1.456 0-2.522.128-3.2.383-.678.256-1.017.673-1.017 1.25 0 .478.198.848.592 1.109.394.26.886.391 1.475.391zM147.7 22.5l-3.633 9.5h-1.417l-3.367-9.5h1.5l2.6 7.283L146.2 22.5h1.5zm4.25 3.033h-1.267l.534-6.533h6.533v1.167h-5.233l-.367 4.166c.156-.322.425-.575.808-.758.384-.183.853-.275 1.409-.275.777 0 1.466.178 2.066.533.6.356 1.067.856 1.4 1.5.334.645.5 1.384.5 2.217 0 .889-.175 1.692-.525 2.408-.35.717-.83 1.278-1.441 1.684-.611.405-1.3.608-2.067.608-1.289 0-2.522-.589-3.7-1.767l.933-.916c.411.455.84.791 1.284 1.008a3.34 3.34 0 0 0 1.483.325c.833 0 1.48-.294 1.942-.883.46-.59.691-1.411.691-2.467 0-.967-.241-1.706-.725-2.217-.483-.51-1.18-.766-2.091-.766-.478 0-.914.086-1.309.258-.394.172-.68.408-.858.708zm10.317-5.316c.21-.467.625-.83 1.241-1.092a4.97 4.97 0 0 1 1.959-.392c.71 0 1.358.148 1.941.442a3.382 3.382 0 0 1 1.375 1.242c.334.533.5 1.15.5 1.85 0 .7-.147 1.308-.441 1.825-.295.516-.725.93-1.292 1.241.6.256 1.075.684 1.425 1.284.35.6.525 1.289.525 2.066 0 1.123-.37 1.998-1.108 2.625-.74.628-1.77.942-3.092.942-.889 0-1.639-.178-2.25-.533-.611-.356-1.111-.9-1.5-1.634l.983-.666c.4.577.814.983 1.242 1.216.428.234.997.35 1.708.35.823 0 1.448-.197 1.875-.591.428-.395.642-.959.642-1.692 0-.889-.272-1.575-.817-2.058-.544-.484-1.31-.725-2.3-.725h-.733V24.75h.733c.945 0 1.667-.214 2.167-.642.5-.427.75-1.041.75-1.841 0-.711-.22-1.267-.658-1.667-.44-.4-1.059-.6-1.859-.6-.433 0-.852.08-1.258.242a1.577 1.577 0 0 0-.875.791l-.883-.816zm16.616 1.516c0-.544-.194-.972-.583-1.283-.389-.311-.944-.467-1.667-.467a3.36 3.36 0 0 0-1.583.367c-.467.244-.889.667-1.267 1.267l-.983-.667c.744-1.5 1.989-2.25 3.733-2.25.734 0 1.384.128 1.95.383.567.256 1.009.611 1.325 1.067.317.456.475.978.475 1.567 0 .677-.191 1.389-.575 2.133a12.65 12.65 0 0 1-1.416 2.158 72.207 72.207 0 0 1-2.225 2.592 68.68 68.68 0 0 0-1.8 2.067h6.583V32h-8.517v-1.333c.523-.634 1.295-1.484 2.317-2.55a63.597 63.597 0 0 0 2.242-2.45 12.507 12.507 0 0 0 1.416-2.009c.384-.683.575-1.325.575-1.925zm5.384-1.516c.21-.467.625-.83 1.241-1.092a4.97 4.97 0 0 1 1.959-.392c.71 0 1.358.148 1.941.442a3.382 3.382 0 0 1 1.375 1.242c.334.533.5 1.15.5 1.85 0 .7-.147 1.308-.441 1.825-.295.516-.725.93-1.292 1.241.6.256 1.075.684 1.425 1.284.35.6.525 1.289.525 2.066 0 1.123-.37 1.998-1.108 2.625-.74.628-1.77.942-3.092.942-.889 0-1.639-.178-2.25-.533-.611-.356-1.111-.9-1.5-1.634l.983-.666c.4.577.814.983 1.242 1.216.428.234.997.35 1.708.35.823 0 1.448-.197 1.875-.591.428-.395.642-.959.642-1.692 0-.889-.272-1.575-.817-2.058-.544-.484-1.31-.725-2.3-.725h-.733V24.75h.733c.945 0 1.667-.214 2.167-.642.5-.427.75-1.041.75-1.841 0-.711-.22-1.267-.658-1.667-.44-.4-1.059-.6-1.859-.6-.433 0-.852.08-1.258.242a1.577 1.577 0 0 0-.875.791l-.883-.816zm16.9.25a3.612 3.612 0 0 0-.892-.325 4.417 4.417 0 0 0-1.025-.125c-.656 0-1.236.166-1.742.5-.505.333-.9.802-1.183 1.408-.283.606-.425 1.297-.425 2.075v.833c.289-.344.703-.614 1.242-.808a5.195 5.195 0 0 1 1.775-.292c.844 0 1.583.17 2.216.509.634.339 1.12.82 1.459 1.441.339.623.508 1.35.508 2.184 0 .877-.18 1.647-.542 2.308a3.788 3.788 0 0 1-1.525 1.533c-.655.361-1.416.542-2.283.542s-1.622-.183-2.267-.55A3.654 3.654 0 0 1 195 30.117c-.344-.69-.517-1.495-.517-2.417V24c0-1.022.203-1.933.609-2.733A4.52 4.52 0 0 1 196.8 19.4c.733-.444 1.567-.667 2.5-.667.5 0 .992.059 1.475.175.483.117.897.28 1.242.492l-.85 1.067zM198.75 30.9c.544 0 1.044-.133 1.5-.4.456-.267.814-.63 1.075-1.092.261-.46.392-.975.392-1.541 0-.556-.12-1.056-.359-1.5a2.616 2.616 0 0 0-1-1.042 2.804 2.804 0 0 0-1.441-.375c-.611 0-1.198.144-1.759.433-.56.29-.98.661-1.258 1.117v1.2c0 .622.125 1.175.375 1.658.25.484.589.861 1.017 1.134.427.272.914.408 1.458.408zm14.833-8.4c-.066.222-.1.589-.1 1.1V32c0 .6-.164 1.128-.491 1.583-.328.456-.792.806-1.392 1.05-.6.245-1.3.367-2.1.367a6.99 6.99 0 0 1-2.458-.425c-.761-.283-1.314-.653-1.659-1.108l.85-1.034c.356.423.817.742 1.384.959.566.216 1.21.325 1.933.325 1.678 0 2.517-.573 2.517-1.717v-2a5.544 5.544 0 0 1-1.4.8 4.003 4.003 0 0 1-1.45.283c-.845 0-1.598-.191-2.259-.575a3.981 3.981 0 0 1-1.541-1.608c-.367-.689-.55-1.478-.55-2.367 0-.866.177-1.625.533-2.275.356-.65.861-1.15 1.517-1.5.655-.35 1.422-.525 2.3-.525.622 0 1.166.117 1.633.35.467.234.872.595 1.217 1.084V22.5h1.516zm-4.366 7.233a3.4 3.4 0 0 0 1.691-.425 2.876 2.876 0 0 0 1.159-1.175v-2.8c-.311-.6-.714-1.064-1.209-1.391a2.908 2.908 0 0 0-1.641-.492 2.925 2.925 0 0 0-2.575 1.525 3.166 3.166 0 0 0-.392 1.558c0 .59.133 1.128.4 1.617.267.489.625.875 1.075 1.158.45.284.947.425 1.492.425zM223.183 32v-.717c-.722.634-1.616.95-2.683.95-.867 0-1.633-.216-2.3-.65-.667-.433-1.18-1.047-1.542-1.841-.36-.795-.541-1.714-.541-2.759 0-1.5.37-2.666 1.108-3.5.739-.833 1.775-1.25 3.108-1.25.634 0 1.178.117 1.634.35.455.234.86.606 1.216 1.117v-4.8l1.417.1v11.9c0 .511.033.878.1 1.1h-1.517zm-2.683-1.117c.711 0 1.283-.116 1.717-.35.433-.233.755-.605.966-1.116v-4.05c-.31-.6-.714-1.064-1.208-1.392a2.908 2.908 0 0 0-1.642-.492c-.844 0-1.522.32-2.033.959-.511.639-.767 1.486-.767 2.541 0 .756.128 1.428.384 2.017.255.589.608 1.05 1.058 1.383.45.334.958.5 1.525.5zm15.2-8.383l-3.633 9.5h-1.417l-3.367-9.5h1.5l2.6 7.283L234.2 22.5h1.5zm9.183-.767c0-.544-.194-.972-.583-1.283-.389-.311-.944-.467-1.667-.467a3.36 3.36 0 0 0-1.583.367c-.467.244-.889.667-1.267 1.267l-.983-.667c.744-1.5 1.989-2.25 3.733-2.25.734 0 1.384.128 1.95.383.567.256 1.009.611 1.325 1.067.317.456.475.978.475 1.567 0 .677-.191 1.389-.575 2.133a12.65 12.65 0 0 1-1.416 2.158 72.207 72.207 0 0 1-2.225 2.592 68.68 68.68 0 0 0-1.8 2.067h6.583V32h-8.517v-1.333c.523-.634 1.295-1.484 2.317-2.55a63.597 63.597 0 0 0 2.242-2.45 12.507 12.507 0 0 0 1.416-2.009c.384-.683.575-1.325.575-1.925zm7.717.5V19h1.75v3.233l-.233 6.05h-1.284l-.233-6.05zm-.15 8.967c0-.333.092-.589.275-.767.183-.177.442-.266.775-.266s.589.089.767.266c.177.178.266.434.266.767 0 .344-.089.606-.266.783-.178.178-.434.267-.767.267-.344 0-.606-.089-.783-.267-.178-.177-.267-.439-.267-.783z"/>
        </g>
    </g>
</svg>
