<svg xmlns="http://www.w3.org/2000/svg" width="460" height="350" viewBox="0 0 460 350">
    <g fill="none" fill-rule="evenodd">
        <path fill="#E0EDFF" fill-rule="nonzero" d="M0 0h460v350H0z"/>
        <g fill="#C2D7FF">
            <path d="M46.233 56.853a.634.634 0 0 0-.065-.485l-2.737-4.698a.647.647 0 0 0-.88-.235l-6.292 3.6a.634.634 0 0 0-.234.87l2.738 4.699a.647.647 0 0 0 .878.235l1.574-.9a.634.634 0 0 0 .233-.871l-1.046-1.796 2.034-1.163 1.047 1.795a.647.647 0 0 0 .878.236l1.574-.9a.634.634 0 0 0 .298-.387z"/>
            <path fill-rule="nonzero" d="M33.102 57.402a.96.96 0 0 1 .354-1.319l19.061-10.902a6.367 6.367 0 0 1-.24-4.013c.921-3.435 4.474-5.467 7.937-4.54 3.463.928 5.524 4.465 4.604 7.9-.92 3.435-4.474 5.468-7.937 4.54a6.488 6.488 0 0 1-3.388-2.212L34.433 57.76a.979.979 0 0 1-1.33-.357zm29.835-13.378c.643-2.4-.802-4.881-3.223-5.53-2.42-.648-4.912.777-5.555 3.178a4.473 4.473 0 0 0 .449 3.396c.005.009.014.014.02.023.005.008.004.019.01.028a4.547 4.547 0 0 0 2.743 2.083c2.42.648 4.913-.777 5.556-3.178z"/>
        </g>
        <g fill="#C2D7FF">
            <path d="M405.799 29.987c.042.157.145.299.299.387l4.72 2.7c.307.175.7.07.878-.236l3.65-6.264a.634.634 0 0 0-.233-.872l-4.72-2.7a.647.647 0 0 0-.878.236l-.913 1.566a.634.634 0 0 0 .234.872l1.803 1.032-1.18 2.024-1.803-1.031a.647.647 0 0 0-.88.235l-.912 1.566a.634.634 0 0 0-.065.485z"/>
            <path fill-rule="nonzero" d="M416.896 22.945a.96.96 0 0 1 .354 1.32l-11.057 18.972a6.367 6.367 0 0 1 2.214 3.355c.92 3.435-1.14 6.972-4.604 7.9-3.463.928-7.016-1.105-7.936-4.54-.92-3.435 1.14-6.972 4.603-7.9a6.488 6.488 0 0 1 4.04.222L415.566 23.3a.979.979 0 0 1 1.33-.356zm-19.148 26.503c.643 2.4 3.135 3.826 5.555 3.178 2.42-.649 3.866-3.13 3.223-5.53a4.473 4.473 0 0 0-2.087-2.717c-.01-.004-.02-.004-.028-.009-.01-.005-.014-.014-.023-.02a4.547 4.547 0 0 0-3.418-.432c-2.42.649-3.866 3.13-3.222 5.53z"/>
        </g>
        <g fill="#C2D7FF">
            <path d="M57.23 307.55c.124.033.26.019.38-.05l3.674-2.121a.5.5 0 0 0 .183-.683l-2.828-4.9a.5.5 0 0 0-.683-.182l-3.675 2.121a.5.5 0 0 0-.183.683l.708 1.225a.5.5 0 0 0 .682.183l1.405-.811.914 1.584-1.404.81a.5.5 0 0 0-.183.683l.707 1.225c.069.12.18.2.303.233z"/>
            <path fill-rule="nonzero" d="M57.165 297.363a.776.776 0 0 1 1.061.284l8.79 15.227a5.146 5.146 0 0 1 3.224-.185 5.176 5.176 0 1 1-6.34 3.66 5.146 5.146 0 0 1 1.772-2.7l-8.79-15.225a.776.776 0 0 1 .283-1.06zm10.798 23.826a3.628 3.628 0 0 0 4.438-2.562 3.628 3.628 0 0 0-2.563-4.438 3.61 3.61 0 0 0-2.727.353c-.007.004-.011.011-.018.016-.008.004-.016.003-.023.007a3.61 3.61 0 0 0-1.67 2.186 3.628 3.628 0 0 0 2.563 4.438z"/>
        </g>
        <g fill="#C2D7FF">
            <path d="M93.647 257.014a.335.335 0 0 0 .259-.037l2.51-1.487a.353.353 0 0 0 .128-.475l-1.908-3.392a.334.334 0 0 0-.464-.125l-2.51 1.488a.353.353 0 0 0-.128.475l.477.848c.093.166.3.222.464.125l.96-.569.616 1.096-.96.569a.353.353 0 0 0-.127.475l.477.848a.335.335 0 0 0 .206.16z"/>
            <path fill-rule="nonzero" d="M93.643 249.938a.52.52 0 0 1 .72.193l5.928 10.542a3.448 3.448 0 0 1 2.196-.14c1.878.503 2.983 2.468 2.468 4.389-.514 1.92-2.454 3.07-4.332 2.567-1.877-.503-2.982-2.468-2.468-4.39a3.635 3.635 0 0 1 1.217-1.881l-5.927-10.542a.549.549 0 0 1 .198-.738zm7.26 16.508c1.312.351 2.673-.455 3.032-1.797.36-1.343-.415-2.721-1.727-3.073a2.428 2.428 0 0 0-1.86.256c-.004.003-.007.008-.012.01-.005.004-.01.003-.015.006-.543.326-.967.86-1.146 1.525-.36 1.343.416 2.72 1.728 3.073z"/>
        </g>
        <g fill="#C2D7FF">
            <path d="M314.726 48.267a.335.335 0 0 0-.072-.251l-1.823-2.28a.353.353 0 0 0-.488-.06l-3.093 2.361a.334.334 0 0 0-.059.477l1.823 2.28a.353.353 0 0 0 .488.06l.774-.59a.334.334 0 0 0 .058-.478l-.696-.87 1-.764.696.871a.353.353 0 0 0 .488.06l.774-.59a.335.335 0 0 0 .13-.226z"/>
            <path fill-rule="nonzero" d="M307.72 49.256a.52.52 0 0 1 .091-.741l9.614-7.337a3.448 3.448 0 0 1-.445-2.155c.237-1.93 2.03-3.298 4.003-3.055 1.974.242 3.383 2.003 3.146 3.932-.237 1.93-2.03 3.298-4.003 3.055a3.635 3.635 0 0 1-2.034-.943l-9.614 7.337a.549.549 0 0 1-.758-.093zm15.336-9.487c.166-1.349-.822-2.584-2.201-2.753-1.38-.17-2.637.79-2.802 2.138-.083.669.12 1.31.511 1.806.004.004.01.006.013.01.004.005.004.01.008.015.398.492.985.838 1.67.922 1.379.17 2.636-.79 2.801-2.138z"/>
        </g>
        <g fill="#C2D7FF">
            <path d="M326.226 273.267a.335.335 0 0 1 .072-.251l1.823-2.28a.353.353 0 0 1 .488-.06l3.094 2.361a.334.334 0 0 1 .058.477l-1.823 2.28a.353.353 0 0 1-.488.06l-.773-.59a.334.334 0 0 1-.059-.478l.697-.87-1-.764-.697.871a.353.353 0 0 1-.488.06l-.773-.59a.335.335 0 0 1-.13-.226z"/>
            <path fill-rule="nonzero" d="M333.232 274.256a.52.52 0 0 0-.09-.741l-9.615-7.337c.366-.634.54-1.38.445-2.155-.237-1.93-2.029-3.298-4.003-3.055-1.974.242-3.382 2.003-3.145 3.932.237 1.93 2.03 3.298 4.003 3.055a3.635 3.635 0 0 0 2.033-.943l9.614 7.337a.549.549 0 0 0 .758-.093zm-15.336-9.487c-.165-1.349.822-2.584 2.202-2.753 1.38-.17 2.636.79 2.802 2.138a2.428 2.428 0 0 1-.512 1.806c-.004.004-.01.006-.013.01l-.007.015a2.542 2.542 0 0 1-1.67.922c-1.38.17-2.636-.79-2.802-2.138z"/>
        </g>
        <g fill="#C2D7FF">
            <path d="M267.76 322.91a.335.335 0 0 1-.255-.06l-2.372-1.7a.353.353 0 0 1-.085-.485l2.196-3.213a.334.334 0 0 1 .473-.083l2.371 1.7c.155.112.193.328.086.485l-.55.803a.334.334 0 0 1-.473.084l-.906-.65-.71 1.038.907.65c.154.111.192.328.085.485l-.549.803a.335.335 0 0 1-.219.142z"/>
            <path fill-rule="nonzero" d="M268.38 315.86a.52.52 0 0 0-.735.13l-6.824 9.986a3.448 3.448 0 0 0-2.175-.332c-1.915.338-3.187 2.199-2.841 4.158.345 1.958 2.177 3.272 4.092 2.935 1.914-.338 3.186-2.2 2.84-4.158a3.635 3.635 0 0 0-1.048-1.98l6.824-9.986a.549.549 0 0 0-.133-.752zm-8.671 15.813c-1.338.236-2.623-.686-2.864-2.055-.242-1.369.65-2.674 1.989-2.91a2.428 2.428 0 0 1 1.83.417c.004.003.006.008.01.012.005.003.01.003.016.006.512.373.888.94 1.008 1.62.241 1.368-.651 2.674-1.989 2.91z"/>
        </g>
        <g fill="#C2D7FF" opacity=".9">
            <path d="M214.478 267.046c.08-.1.123-.23.108-.367l-.443-4.22a.5.5 0 0 0-.55-.445l-5.625.592a.5.5 0 0 0-.445.55l.443 4.219a.5.5 0 0 0 .55.445l1.406-.148a.5.5 0 0 0 .445-.55l-.17-1.612 1.819-.191.17 1.612a.5.5 0 0 0 .549.445l1.406-.148a.498.498 0 0 0 .337-.182z"/>
            <path fill-rule="nonzero" d="M205.145 262.962a.776.776 0 0 1 .691-.853l17.486-1.838a5.146 5.146 0 0 1 1.142-3.02 5.176 5.176 0 1 1 .765 7.28 5.146 5.146 0 0 1-1.745-2.716l-17.485 1.838a.776.776 0 0 1-.854-.691zm26.158-.173a3.628 3.628 0 0 0-.536-5.097 3.628 3.628 0 0 0-5.096.536 3.61 3.61 0 0 0-.787 2.636c0 .008.006.014.007.022 0 .009-.003.016-.002.024a3.61 3.61 0 0 0 1.318 2.415 3.628 3.628 0 0 0 5.096-.536z"/>
        </g>
        <g fill="#C2D7FF">
            <path d="M141.109 100.042a.498.498 0 0 0-.346-.165l-4.237-.222a.5.5 0 0 0-.525.473l-.296 5.65a.5.5 0 0 0 .473.524l4.237.223a.5.5 0 0 0 .525-.474l.074-1.412a.5.5 0 0 0-.473-.525l-1.619-.085.096-1.826 1.619.085a.5.5 0 0 0 .525-.473l.074-1.413a.498.498 0 0 0-.127-.36z"/>
            <path fill-rule="nonzero" d="M135.615 108.62a.776.776 0 0 1-.735-.816l.92-17.557a5.146 5.146 0 0 1-2.803-1.601 5.176 5.176 0 1 1 7.31.383 5.146 5.146 0 0 1-2.956 1.3l-.92 17.557a.776.776 0 0 1-.816.734zm3.921-25.863a3.628 3.628 0 0 0-5.117-.268 3.628 3.628 0 0 0-.268 5.118 3.61 3.61 0 0 0 2.48 1.19c.008 0 .015-.004.023-.004s.015.005.023.006a3.61 3.61 0 0 0 2.591-.924 3.628 3.628 0 0 0 .268-5.118z"/>
        </g>
        <g fill="#C2D7FF">
            <path d="M436.109 169.042a.498.498 0 0 0-.346-.165l-4.237-.222a.5.5 0 0 0-.525.473l-.296 5.65a.5.5 0 0 0 .473.524l4.237.223a.5.5 0 0 0 .525-.474l.074-1.412a.5.5 0 0 0-.473-.525l-1.619-.085.096-1.826 1.619.085a.5.5 0 0 0 .525-.473l.074-1.413a.498.498 0 0 0-.127-.36z"/>
            <path fill-rule="nonzero" d="M430.615 177.62a.776.776 0 0 1-.735-.816l.92-17.557a5.146 5.146 0 0 1-2.803-1.601 5.176 5.176 0 1 1 7.31.383 5.146 5.146 0 0 1-2.956 1.3l-.92 17.557a.776.776 0 0 1-.816.734zm3.921-25.863a3.628 3.628 0 0 0-5.117-.268 3.628 3.628 0 0 0-.268 5.118 3.61 3.61 0 0 0 2.48 1.19c.008 0 .015-.004.023-.004s.015.005.023.006a3.61 3.61 0 0 0 2.591-.924 3.628 3.628 0 0 0 .268-5.118z"/>
        </g>
        <g fill="#C2D7FF">
            <path d="M213.13 48.046a.498.498 0 0 1-.109-.367l.443-4.22a.5.5 0 0 1 .55-.445l5.626.592a.5.5 0 0 1 .445.55l-.444 4.219a.5.5 0 0 1-.55.445l-1.406-.148a.5.5 0 0 1-.445-.55l.17-1.612-1.819-.191-.17 1.612a.5.5 0 0 1-.549.445l-1.406-.148a.498.498 0 0 1-.336-.182z"/>
            <path fill-rule="nonzero" d="M222.462 43.962a.776.776 0 0 0-.69-.853l-17.486-1.838a5.146 5.146 0 0 0-1.143-3.02 5.176 5.176 0 1 0-.765 7.28 5.146 5.146 0 0 0 1.745-2.716l17.486 1.838a.776.776 0 0 0 .853-.691zm-26.158-.173a3.628 3.628 0 0 1 .536-5.097 3.628 3.628 0 0 1 5.096.536c.624.77.878 1.72.788 2.636-.002.008-.007.014-.008.022 0 .009.003.016.003.024a3.61 3.61 0 0 1-1.318 2.415 3.628 3.628 0 0 1-5.097-.536z"/>
        </g>
        <g fill="#C2D7FF">
            <path d="M300.13 114.146a.498.498 0 0 1-.351-.153l-2.948-3.051a.5.5 0 0 1 .013-.707l4.069-3.93a.5.5 0 0 1 .707.012l2.947 3.052a.5.5 0 0 1-.012.707l-1.018.983a.5.5 0 0 1-.706-.013l-1.127-1.166-1.315 1.27 1.126 1.167a.5.5 0 0 1-.012.706l-1.017.983a.498.498 0 0 1-.356.14z"/>
            <path fill-rule="nonzero" d="M303 104.372a.776.776 0 0 0-1.098-.02l-12.647 12.214a5.146 5.146 0 0 0-3.048-1.066 5.176 5.176 0 1 0 5.085 5.266 5.146 5.146 0 0 0-.958-3.083l12.647-12.213a.776.776 0 0 0 .019-1.098zm-16.947 19.927a3.628 3.628 0 0 1-3.56-3.686 3.628 3.628 0 0 1 3.687-3.56 3.61 3.61 0 0 1 2.525 1.09c.005.007.007.015.013.02.006.007.014.009.02.015a3.61 3.61 0 0 1 1.002 2.561 3.628 3.628 0 0 1-3.687 3.56z"/>
        </g>
        <g fill="#C2D7FF">
            <path d="M398.174 301.256a.436.436 0 0 1 .044-.332l1.856-3.215a.437.437 0 0 1 .597-.16l4.287 2.475c.21.12.281.388.16.597l-1.856 3.215a.437.437 0 0 1-.598.16l-1.071-.618a.437.437 0 0 1-.16-.598l.709-1.229-1.386-.8-.709 1.23a.437.437 0 0 1-.597.16l-1.072-.62a.436.436 0 0 1-.204-.265z"/>
            <path fill-rule="nonzero" d="M407.162 302.197a.706.706 0 0 0-.258-.964l-13.842-7.991a4.678 4.678 0 0 0 .168-2.93 4.706 4.706 0 1 0-3.328 5.763 4.678 4.678 0 0 0 2.454-1.61l13.842 7.99c.337.196.77.08.964-.258zm-21.66-9.815a3.298 3.298 0 0 1 2.33-4.035 3.298 3.298 0 0 1 4.034 2.33c.233.87.093 1.752-.32 2.48-.005.006-.011.01-.015.016s-.004.014-.007.02a3.283 3.283 0 0 1-1.987 1.518 3.298 3.298 0 0 1-4.035-2.33z"/>
        </g>
        <g fill="#C2D7FF">
            <path d="M22.174 167.256a.436.436 0 0 1 .044-.332l1.856-3.215a.437.437 0 0 1 .597-.16l4.287 2.475c.21.12.281.388.16.597l-1.856 3.215a.437.437 0 0 1-.598.16l-1.071-.618a.437.437 0 0 1-.16-.598l.709-1.229-1.386-.8-.709 1.23a.437.437 0 0 1-.597.16l-1.072-.62a.436.436 0 0 1-.204-.265z"/>
            <path fill-rule="nonzero" d="M31.162 168.197a.706.706 0 0 0-.258-.964l-13.842-7.991a4.678 4.678 0 0 0 .168-2.93 4.706 4.706 0 1 0-3.328 5.763 4.678 4.678 0 0 0 2.454-1.61l13.842 7.99c.337.196.77.08.964-.258zm-21.66-9.815a3.298 3.298 0 0 1 2.33-4.035 3.298 3.298 0 0 1 4.034 2.33c.233.87.093 1.752-.32 2.48-.005.006-.011.01-.015.016s-.004.014-.007.02a3.283 3.283 0 0 1-1.987 1.518 3.298 3.298 0 0 1-4.035-2.33z"/>
        </g>
        <path fill="#FFF" stroke="#2E6DDE" stroke-width="3.2" d="M395 132.018v84.384c0 2.22-1.79 4.018-4 4.018h-68c-2.21 0-4-1.798-4-4.018v-84.384c0-2.22 1.79-4.018 4-4.018h68c2.21 0 4 1.798 4 4.018z"/>
        <path fill="#2E6DDE" d="M377 152.11h-12c-1.106 0-2-.9-2-2.01 0-1.109.894-2.009 2-2.009h12c1.106 0 2 .9 2 2.01 0 1.108-.894 2.009-2 2.009zM377 168.183h-12c-1.106 0-2-.9-2-2.01 0-1.109.894-2.009 2-2.009h12c1.106 0 2 .9 2 2.01 0 1.109-.894 2.009-2 2.009zM377 184.256h-40c-1.106 0-2-.9-2-2.01 0-1.108.894-2.009 2-2.009h40c1.106 0 2 .9 2 2.01 0 1.109-.894 2.009-2 2.009zM377 200.329h-40c-1.106 0-2-.9-2-2.01 0-1.108.894-2.008 2-2.008h40c1.106 0 2 .9 2 2.009s-.894 2.009-2 2.009zM353 168.183h-16c-1.106 0-2-.9-2-2.01V150.1c0-1.109.894-2.009 2-2.009h16c1.106 0 2 .9 2 2.01v16.073c0 1.109-.894 2.009-2 2.009z"/>
        <path fill="#FFF" stroke="#2E6DDE" stroke-width="1.8" d="M85.174 137l-9.044-9H53.522c-2.499 0-4.522 2.014-4.522 4.5V209c0 4.97 4.05 9 9.043 9h85.914c4.994 0 9.043-4.03 9.043-9v-63c0-4.97-4.05-9-9.043-9H85.174z"/>
        <path stroke="#2E6DDE" stroke-width="1.8" d="M153 150H49v-17.6c0-2.431 2.023-4.4 4.522-4.4H76.13l9.044 8.8h58.783c4.994 0 9.043 3.94 9.043 8.8v4.4z"/>
        <path fill="#1D56A1" fill-rule="nonzero" d="M227.152 186.613c0 1.467-.435 2.64-1.304 3.374-.869.733-2.172 1.173-3.91 1.173h-1.159V196h-2.896v-13.64h4.345c1.593 0 2.896.293 3.765 1.027.87.733 1.159 1.906 1.159 3.226zm-6.373 2.2h.87c.868 0 1.592-.146 2.027-.586.434-.294.724-.88.724-1.467 0-.733-.145-1.173-.58-1.467-.434-.293-.868-.44-1.737-.44h-1.304v3.96z"/>
        <path fill="#1D56A1" d="M242.069 196h-3.62l-5.794-10.267h-.145c.145 1.76.145 3.08.145 3.96V196h-2.607v-13.64h3.621l5.793 10.267c-.145-1.76-.145-3.08-.145-3.814v-6.453h2.607V196h.145zM250.903 188.373h5.36v7.04c-.87.294-1.739.44-2.463.587-.724.147-1.593.147-2.317.147-2.028 0-3.62-.587-4.635-1.76-1.014-1.174-1.593-2.934-1.593-5.134s.58-3.96 1.883-5.133 2.896-1.907 5.214-1.907c1.448 0 2.751.294 4.055.88l-1.014 2.347c-1.014-.44-2.027-.733-3.041-.733-1.304 0-2.173.44-2.897 1.32-.724.88-1.158 1.906-1.158 3.373 0 1.467.29 2.64.869 3.373.579.734 1.448 1.174 2.606 1.174.58 0 1.159 0 1.883-.147v-2.787h-2.607v-2.64h-.145z"/>
        <path stroke="#1454A7" stroke-width="2.92" d="M248.586 130v23.467h23.173"/>
        <path fill="#FFF" stroke="#2E6DDE" stroke-linecap="square" stroke-width="2.92" d="M271.759 174v-20.533L248.586 130h-46.345v44M202.241 204.8V218h69.518v-13.2"/>
        <path stroke="#2E6DDE" stroke-width="2.92" d="M279 174h-84M202.241 166.667L195 174v30.8h84V174l-7.241-7.333"/>
        <g>
            <path fill="#B3B3B3" d="M140 196v-5c0-3.86 3.14-7 7-7s7 3.14 7 7v5h4v-5c0-6.065-4.935-11-11-11s-11 4.935-11 11v5h4z"/>
            <path fill="#2E6DDE" d="M162 226h-30a2 2 0 0 1-2-2v-26a2 2 0 0 1 2-2h30a2 2 0 0 1 2 2v26a2 2 0 0 1-2 2z"/>
            <path fill="#1F4791" d="M151 208a4 4 0 1 0-8 0c0 1.477.81 2.752 2 3.445V218h4v-6.555c1.19-.693 2-1.968 2-3.445z"/>
        </g>
        <g>
            <path fill="#B3B3B3" d="M269 196v-5c0-3.86 3.14-7 7-7s7 3.14 7 7v5h4v-5c0-6.065-4.935-11-11-11s-11 4.935-11 11v5h4z"/>
            <path fill="#2E6DDE" d="M291 226h-30a2 2 0 0 1-2-2v-26a2 2 0 0 1 2-2h30a2 2 0 0 1 2 2v26a2 2 0 0 1-2 2z"/>
            <path fill="#1F4791" d="M280 208a4 4 0 1 0-8 0c0 1.477.81 2.752 2 3.445V218h4v-6.555c1.19-.693 2-1.968 2-3.445z"/>
        </g>
        <g>
            <path fill="#B3B3B3" d="M388 196v-5c0-3.86 3.14-7 7-7s7 3.14 7 7v5h4v-5c0-6.065-4.935-11-11-11s-11 4.935-11 11v5h4z"/>
            <path fill="#2E6DDE" d="M410 226h-30a2 2 0 0 1-2-2v-26a2 2 0 0 1 2-2h30a2 2 0 0 1 2 2v26a2 2 0 0 1-2 2z"/>
            <path fill="#1F4791" d="M399 208a4 4 0 1 0-8 0c0 1.477.81 2.752 2 3.445V218h4v-6.555c1.19-.693 2-1.968 2-3.445z"/>
        </g>
    </g>
</svg>
