<svg xmlns="http://www.w3.org/2000/svg" xmlns:xlink="http://www.w3.org/1999/xlink" width="382" height="168" viewBox="0 0 382 168">
    <defs>
        <path id="a" d="M0 0h380v166H0z"/>
        <path id="c" d="M0 .196h510.616V295H0z"/>
        <path id="e" d="M0 319.804h511.616V0H0z"/>
        <path id="g" d="M0 .196h510.616V295H0z"/>
        <path id="i" d="M0 319.804h511.616V0H0z"/>
    </defs>
    <g fill="none" fill-rule="evenodd" transform="translate(1 1)">
        <mask id="b" fill="#fff">
            <use xlink:href="#a"/>
        </mask>
        <path stroke="#E1EDFF" d="M-.5-.5h381v167H-.5z"/>
        <g mask="url(#b)">
            <g transform="translate(28 -45)">
                <path fill="#FFF" d="M281.749 318.304c-2.896 0-5.81-.724-7.994-1.984L4.535 160.885c-1.9-1.097-3.035-2.498-3.035-3.748 0-1.212 1.047-2.07 1.925-2.578l219.48-126.716c1.5-.867 3.618-1.344 5.963-1.344 2.897 0 5.81.723 7.993 1.984l269.22 155.434c1.9 1.098 3.035 2.5 3.035 3.75 0 1.211-1.047 2.07-1.925 2.576L287.71 316.96c-1.5.866-3.617 1.344-5.962 1.344"/>
                <g transform="translate(0 24.804)">
                    <mask id="d" fill="#fff">
                        <use xlink:href="#c"/>
                    </mask>
                    <path fill="#2E6DDE" d="M228.868.196c-2.516 0-4.92.508-6.713 1.544L2.675 128.457c-3.962 2.287-3.465 6.283 1.11 8.924l269.22 155.434c2.502 1.445 5.706 2.186 8.743 2.186 2.516 0 4.919-.51 6.714-1.545L507.94 166.739c3.962-2.287 3.465-6.282-1.11-8.924L237.612 2.38C235.109.936 231.906.196 228.868.196m0 3c2.64 0 5.28.65 7.243 1.783l269.22 155.435c1.57.906 2.285 1.905 2.285 2.449 0 .37-.45.86-1.175 1.278L286.96 290.858c-1.257.726-3.157 1.143-5.213 1.143-2.641 0-5.28-.651-7.243-1.784L5.285 134.783c-1.57-.906-2.285-1.905-2.285-2.45 0-.37.45-.86 1.175-1.278L223.655 4.339c1.257-.726 3.157-1.143 5.214-1.143" mask="url(#d)"/>
                </g>
                <mask id="f" fill="#fff">
                    <use xlink:href="#e"/>
                </mask>
                <text fill="#2E6DDE" font-family="ProximaNova-Bold, Proxima Nova" font-size="14" font-weight="bold" letter-spacing=".016" mask="url(#f)">
                    <tspan x="198.324" y="165.192">O</tspan> <tspan x="209.05" y="165.192" letter-spacing="-.881">P</tspan> <tspan x="215.869" y="165.192" letter-spacing="-.396">A</tspan> <tspan x="224.573" y="165.192">CITY</tspan>
                </text>
                <text fill="#2E6DDE" font-family="ProximaNova-Bold, Proxima Nova" font-size="14" font-weight="bold" letter-spacing=".016" mask="url(#f)">
                    <tspan x="200.518" y="180.921">WHITE</tspan> <tspan x="243.83" y="180.921" letter-spacing="-.881">P</tspan> <tspan x="250.649" y="180.921">APER</tspan>
                </text>
                <path fill="#2E6DDE" d="M169.294 128.952c0-3.916 5.498-7.09 12.28-7.09 2.091 0 4.058.3 5.782.834-2.532.78-4.535 2.06-5.614 3.61l-.168-.001c-2.59 0-4.69 1.212-4.69 2.708 0 1.496 2.1 2.709 4.69 2.709.084 0 .168-.002.252-.005 1.1 1.497 3.064 2.73 5.53 3.49-1.724.534-3.69.835-5.782.835-6.782 0-12.28-3.174-12.28-7.09" mask="url(#f)"/>
                <path fill="#2E6DDE" d="M147.944 128.977c0-10.25 14.395-18.562 32.149-18.562 4.598 0 8.97.557 12.925 1.561 4.889 1.241 9.143 3.165 12.397 5.562-4.717.075-9.024 1.1-12.367 2.753-3.356-1.662-7.684-2.687-12.425-2.754a41.047 41.047 0 0 0-.497-.003c-10.975 0-19.87 5.135-19.87 11.471s8.895 11.472 19.87 11.472c.19 0 .38 0 .572-.004 4.712-.078 9.01-1.1 12.35-2.754 3.325 1.645 7.603 2.667 12.29 2.752-3.243 2.371-7.468 4.275-12.32 5.507-3.955 1.003-8.327 1.561-12.925 1.561-17.754 0-32.15-8.31-32.15-18.562" mask="url(#f)"/>
                <path fill="#2E6DDE" d="M207.752 128.743l3.637 2.1-2.365 1.365-3.636-2.1-3.26 1.882-.001.001-1.02-5.717 9.906.586-3.261 1.883zm4.295-5.923a17.893 17.893 0 0 0-2.916-.707c-.066-.012-.133-.02-.198-.03a21.113 21.113 0 0 0-3.055-.221c-2.387 0-4.613.392-6.498 1.073-2.3.83-4.09 2.086-5.034 3.578a7.819 7.819 0 0 0-1.464-.135l-.116.001c-2.538.035-4.575 1.234-4.575 2.708 0 1.435 1.935 2.611 4.382 2.702a7.789 7.789 0 0 0 1.932-.16c.98 1.387 2.699 2.554 4.875 3.34a17.48 17.48 0 0 0 3.168.808c.19.031.383.06.577.085l.147.02c.839.104 1.71.16 2.606.16 2.25 0 4.357-.35 6.169-.959 2.279-.766 4.092-1.943 5.134-3.354l.032.004c.629-.853.977-1.792.977-2.777 0-.893-.285-1.748-.808-2.535-.01 0-.02.002-.027.003-1.006-1.523-2.895-2.794-5.308-3.604z" mask="url(#f)"/>
                <path fill="#FFF" d="M281.749 313.304c-2.896 0-5.81-.724-7.994-1.984L4.535 155.886c-1.9-1.098-3.035-2.499-3.035-3.75 0-1.21 1.047-2.07 1.925-2.577l219.48-126.716c1.5-.867 3.618-1.344 5.963-1.344 2.897 0 5.81.723 7.993 1.984l269.22 155.434c1.9 1.098 3.035 2.5 3.035 3.75 0 1.211-1.047 2.07-1.925 2.576L287.71 311.96c-1.5.866-3.617 1.344-5.962 1.344" mask="url(#f)"/>
                <path fill="#2E6DDE" d="M228.868 20c-2.516 0-4.92.508-6.713 1.544L2.675 148.26c-3.962 2.287-3.465 6.283 1.11 8.924l269.22 155.434c2.502 1.445 5.706 2.186 8.743 2.186 2.516 0 4.919-.51 6.714-1.545L507.94 186.543c3.962-2.287 3.465-6.282-1.11-8.924L237.612 22.185C235.109 20.74 231.906 20 228.868 20m0 3c2.64 0 5.28.65 7.243 1.783l269.22 155.435c1.57.906 2.285 1.905 2.285 2.449 0 .37-.45.86-1.175 1.278L286.96 310.662c-1.257.726-3.157 1.143-5.213 1.143-2.641 0-5.28-.651-7.243-1.784L5.285 154.587C3.715 153.68 3 152.682 3 152.137c0-.37.45-.86 1.175-1.278l219.48-126.716c1.257-.726 3.157-1.143 5.214-1.143" mask="url(#f)"/>
                <text fill="#2E6DDE" font-family="ProximaNova-Bold, Proxima Nova" font-size="14" font-weight="bold" letter-spacing=".016" mask="url(#f)">
                    <tspan x="198.324" y="160.192">O</tspan> <tspan x="209.05" y="160.192" letter-spacing="-.881">P</tspan> <tspan x="215.869" y="160.192" letter-spacing="-.396">A</tspan> <tspan x="224.573" y="160.192">CITY</tspan>
                </text>
                <text fill="#2E6DDE" font-family="ProximaNova-Bold, Proxima Nova" font-size="14" font-weight="bold" letter-spacing=".016" mask="url(#f)">
                    <tspan x="200.518" y="175.921">WHITE</tspan> <tspan x="243.83" y="175.921" letter-spacing="-.881">P</tspan> <tspan x="250.649" y="175.921">APER</tspan>
                </text>
                <path fill="#2E6DDE" d="M169.294 123.952c0-3.916 5.498-7.09 12.28-7.09 2.091 0 4.058.3 5.782.834-2.532.78-4.535 2.06-5.614 3.61l-.168-.001c-2.59 0-4.69 1.212-4.69 2.708 0 1.496 2.1 2.709 4.69 2.709.084 0 .168-.002.252-.005 1.1 1.497 3.064 2.73 5.53 3.49-1.724.534-3.69.835-5.782.835-6.782 0-12.28-3.174-12.28-7.09" mask="url(#f)"/>
                <path fill="#2E6DDE" d="M147.944 123.977c0-10.25 14.395-18.562 32.149-18.562 4.598 0 8.97.557 12.925 1.561 4.889 1.241 9.143 3.165 12.397 5.562-4.717.075-9.024 1.1-12.367 2.753-3.356-1.662-7.684-2.687-12.425-2.754a41.047 41.047 0 0 0-.497-.003c-10.975 0-19.87 5.135-19.87 11.471s8.895 11.472 19.87 11.472c.19 0 .38 0 .572-.004 4.712-.078 9.01-1.1 12.35-2.754 3.325 1.645 7.603 2.667 12.29 2.752-3.243 2.371-7.468 4.275-12.32 5.507-3.955 1.003-8.327 1.561-12.925 1.561-17.754 0-32.15-8.31-32.15-18.562" mask="url(#f)"/>
                <path fill="#2E6DDE" d="M207.752 123.743l3.637 2.1-2.365 1.365-3.636-2.1-3.26 1.882-.001.001-1.02-5.717 9.906.586-3.261 1.883zm4.295-5.923a17.893 17.893 0 0 0-2.916-.707c-.066-.012-.133-.02-.198-.03a21.113 21.113 0 0 0-3.055-.221c-2.387 0-4.613.392-6.498 1.073-2.3.83-4.09 2.086-5.034 3.578a7.819 7.819 0 0 0-1.464-.135l-.116.001c-2.538.035-4.575 1.234-4.575 2.708 0 1.435 1.935 2.611 4.382 2.702a7.789 7.789 0 0 0 1.932-.16c.98 1.387 2.699 2.554 4.875 3.34a17.48 17.48 0 0 0 3.168.808c.19.031.383.06.577.085l.147.02c.839.104 1.71.16 2.606.16 2.25 0 4.357-.35 6.169-.959 2.279-.766 4.092-1.943 5.134-3.354l.032.004c.629-.853.977-1.792.977-2.777 0-.893-.285-1.748-.808-2.535-.01 0-.02.002-.027.003-1.006-1.523-2.895-2.794-5.308-3.604z" mask="url(#f)"/>
                <path fill="#FFF" d="M281.749 308.304c-2.896 0-5.81-.724-7.994-1.984L4.535 150.886c-1.9-1.098-3.035-2.499-3.035-3.75 0-1.21 1.047-2.07 1.925-2.577l219.48-126.716c1.5-.867 3.618-1.344 5.963-1.344 2.897 0 5.81.723 7.993 1.984l269.22 155.434c1.9 1.098 3.035 2.5 3.035 3.75 0 1.211-1.047 2.07-1.925 2.576L287.71 306.96c-1.5.866-3.617 1.344-5.962 1.344" mask="url(#f)"/>
                <path fill="#2E6DDE" d="M228.868 15c-2.516 0-4.92.508-6.713 1.544L2.675 143.26c-3.962 2.287-3.465 6.283 1.11 8.924l269.22 155.434c2.502 1.445 5.706 2.186 8.743 2.186 2.516 0 4.919-.51 6.714-1.545L507.94 181.543c3.962-2.287 3.465-6.282-1.11-8.924L237.612 17.185C235.109 15.74 231.906 15 228.868 15m0 3c2.64 0 5.28.65 7.243 1.783l269.22 155.435c1.57.906 2.285 1.905 2.285 2.449 0 .37-.45.86-1.175 1.278L286.96 305.662c-1.257.726-3.157 1.143-5.213 1.143-2.641 0-5.28-.651-7.243-1.784L5.285 149.587C3.715 148.68 3 147.682 3 147.137c0-.37.45-.86 1.175-1.278l219.48-126.716c1.257-.726 3.157-1.143 5.214-1.143" mask="url(#f)"/>
                <text fill="#2E6DDE" font-family="ProximaNova-Bold, Proxima Nova" font-size="14" font-weight="bold" letter-spacing=".016" mask="url(#f)">
                    <tspan x="198.324" y="155.192">O</tspan> <tspan x="209.05" y="155.192" letter-spacing="-.881">P</tspan> <tspan x="215.869" y="155.192" letter-spacing="-.396">A</tspan> <tspan x="224.573" y="155.192">CITY</tspan>
                </text>
                <text fill="#2E6DDE" font-family="ProximaNova-Bold, Proxima Nova" font-size="14" font-weight="bold" letter-spacing=".016" mask="url(#f)">
                    <tspan x="200.518" y="170.921">WHITE</tspan> <tspan x="243.83" y="170.921" letter-spacing="-.881">P</tspan> <tspan x="250.649" y="170.921">APER</tspan>
                </text>
                <path fill="#2E6DDE" d="M169.294 118.952c0-3.916 5.498-7.09 12.28-7.09 2.091 0 4.058.3 5.782.834-2.532.78-4.535 2.06-5.614 3.61l-.168-.001c-2.59 0-4.69 1.212-4.69 2.708 0 1.496 2.1 2.709 4.69 2.709.084 0 .168-.002.252-.005 1.1 1.497 3.064 2.73 5.53 3.49-1.724.534-3.69.835-5.782.835-6.782 0-12.28-3.174-12.28-7.09" mask="url(#f)"/>
                <path fill="#2E6DDE" d="M147.944 118.977c0-10.25 14.395-18.562 32.149-18.562 4.598 0 8.97.557 12.925 1.561 4.889 1.241 9.143 3.165 12.397 5.562-4.717.075-9.024 1.1-12.367 2.753-3.356-1.662-7.684-2.687-12.425-2.754a41.047 41.047 0 0 0-.497-.003c-10.975 0-19.87 5.135-19.87 11.471s8.895 11.472 19.87 11.472c.19 0 .38 0 .572-.004 4.712-.078 9.01-1.1 12.35-2.754 3.325 1.645 7.603 2.667 12.29 2.752-3.243 2.371-7.468 4.275-12.32 5.507-3.955 1.003-8.327 1.561-12.925 1.561-17.754 0-32.15-8.31-32.15-18.562" mask="url(#f)"/>
                <path fill="#2E6DDE" d="M207.752 118.743l3.637 2.1-2.365 1.365-3.636-2.1-3.26 1.882-.001.001-1.02-5.717 9.906.586-3.261 1.883zm4.295-5.923a17.893 17.893 0 0 0-2.916-.707c-.066-.012-.133-.02-.198-.03a21.113 21.113 0 0 0-3.055-.221c-2.387 0-4.613.392-6.498 1.073-2.3.83-4.09 2.086-5.034 3.578a7.819 7.819 0 0 0-1.464-.135l-.116.001c-2.538.035-4.575 1.234-4.575 2.708 0 1.435 1.935 2.611 4.382 2.702a7.789 7.789 0 0 0 1.932-.16c.98 1.387 2.699 2.554 4.875 3.34a17.48 17.48 0 0 0 3.168.808c.19.031.383.06.577.085l.147.02c.839.104 1.71.16 2.606.16 2.25 0 4.357-.35 6.169-.959 2.279-.766 4.092-1.943 5.134-3.354l.032.004c.629-.853.977-1.792.977-2.777 0-.893-.285-1.748-.808-2.535-.01 0-.02.002-.027.003-1.006-1.523-2.895-2.794-5.308-3.604z" mask="url(#f)"/>
                <path fill="#FFF" d="M282.749 303.304c-2.896 0-5.81-.724-7.994-1.984L5.535 145.886c-1.9-1.098-3.035-2.499-3.035-3.75 0-1.21 1.047-2.07 1.925-2.577l219.48-126.716c1.5-.867 3.618-1.344 5.963-1.344 2.897 0 5.81.723 7.993 1.984l269.22 155.434c1.9 1.098 3.035 2.5 3.035 3.75 0 1.211-1.047 2.07-1.925 2.576L288.71 301.96c-1.5.866-3.617 1.344-5.962 1.344" mask="url(#f)"/>
                <path fill="#2E6DDE" d="M229.868 10c-2.516 0-4.92.508-6.713 1.544L3.675 138.26c-3.962 2.287-3.465 6.283 1.11 8.924l269.22 155.434c2.502 1.445 5.706 2.186 8.743 2.186 2.516 0 4.919-.51 6.714-1.545L508.94 176.543c3.962-2.287 3.465-6.282-1.11-8.924L238.612 12.185C236.109 10.74 232.906 10 229.868 10m0 3c2.64 0 5.28.65 7.243 1.783l269.22 155.435c1.57.906 2.285 1.905 2.285 2.449 0 .37-.45.86-1.175 1.278L287.96 300.662c-1.257.726-3.157 1.143-5.213 1.143-2.641 0-5.28-.651-7.243-1.784L6.285 144.587C4.715 143.68 4 142.682 4 142.137c0-.37.45-.86 1.175-1.278l219.48-126.716c1.257-.726 3.157-1.143 5.214-1.143" mask="url(#f)"/>
                <text fill="#2E6DDE" font-family="ProximaNova-Bold, Proxima Nova" font-size="14" font-weight="bold" letter-spacing=".016" mask="url(#f)">
                    <tspan x="199.324" y="150.192">O</tspan> <tspan x="210.05" y="150.192" letter-spacing="-.881">P</tspan> <tspan x="216.869" y="150.192" letter-spacing="-.396">A</tspan> <tspan x="225.573" y="150.192">CITY</tspan>
                </text>
                <text fill="#2E6DDE" font-family="ProximaNova-Bold, Proxima Nova" font-size="14" font-weight="bold" letter-spacing=".016" mask="url(#f)">
                    <tspan x="201.518" y="165.921">WHITE</tspan> <tspan x="244.83" y="165.921" letter-spacing="-.881">P</tspan> <tspan x="251.649" y="165.921">APER</tspan>
                </text>
                <path fill="#2E6DDE" d="M170.294 113.952c0-3.916 5.498-7.09 12.28-7.09 2.091 0 4.058.3 5.782.834-2.532.78-4.535 2.06-5.614 3.61l-.168-.001c-2.59 0-4.69 1.212-4.69 2.708 0 1.496 2.1 2.709 4.69 2.709.084 0 .168-.002.252-.005 1.1 1.497 3.064 2.73 5.53 3.49-1.724.534-3.69.835-5.782.835-6.782 0-12.28-3.174-12.28-7.09" mask="url(#f)"/>
                <path fill="#2E6DDE" d="M148.944 113.977c0-10.25 14.395-18.562 32.149-18.562 4.598 0 8.97.557 12.925 1.561 4.889 1.241 9.143 3.165 12.397 5.562-4.717.075-9.024 1.1-12.367 2.753-3.356-1.662-7.684-2.687-12.425-2.754a41.047 41.047 0 0 0-.497-.003c-10.975 0-19.87 5.135-19.87 11.471s8.895 11.472 19.87 11.472c.19 0 .38 0 .572-.004 4.712-.078 9.01-1.1 12.35-2.754 3.325 1.645 7.603 2.667 12.29 2.752-3.243 2.371-7.468 4.275-12.32 5.507-3.955 1.003-8.327 1.561-12.925 1.561-17.754 0-32.15-8.31-32.15-18.562" mask="url(#f)"/>
                <path fill="#2E6DDE" d="M208.752 113.743l3.637 2.1-2.365 1.365-3.636-2.1-3.26 1.882-.001.001-1.02-5.717 9.906.586-3.261 1.883zm4.295-5.923a17.893 17.893 0 0 0-2.916-.707c-.066-.012-.133-.02-.198-.03a21.113 21.113 0 0 0-3.055-.221c-2.387 0-4.613.392-6.498 1.073-2.3.83-4.09 2.086-5.034 3.578a7.819 7.819 0 0 0-1.464-.135l-.116.001c-2.538.035-4.575 1.234-4.575 2.708 0 1.435 1.935 2.611 4.382 2.702a7.789 7.789 0 0 0 1.932-.16c.98 1.387 2.699 2.554 4.875 3.34a17.48 17.48 0 0 0 3.168.808c.19.031.383.06.577.085l.147.02c.839.104 1.71.16 2.606.16 2.25 0 4.357-.35 6.169-.959 2.279-.766 4.092-1.943 5.134-3.354l.032.004c.629-.853.977-1.792.977-2.777 0-.893-.285-1.748-.808-2.535-.01 0-.02.002-.027.003-1.006-1.523-2.895-2.794-5.308-3.604z" mask="url(#f)"/>
                <path fill="#FFF" d="M282.749 298.304c-2.896 0-5.81-.724-7.994-1.984L5.535 140.886c-1.9-1.098-3.035-2.499-3.035-3.75 0-1.21 1.047-2.07 1.925-2.577L223.905 7.843c1.5-.867 3.618-1.344 5.963-1.344 2.897 0 5.81.723 7.993 1.984l269.22 155.434c1.9 1.098 3.035 2.5 3.035 3.75 0 1.211-1.047 2.07-1.925 2.576L288.71 296.96c-1.5.866-3.617 1.344-5.962 1.344" mask="url(#f)"/>
                <path fill="#2E6DDE" d="M229.868 5c-2.516 0-4.92.508-6.713 1.544L3.675 133.26c-3.962 2.287-3.465 6.283 1.11 8.924l269.22 155.434c2.502 1.445 5.706 2.186 8.743 2.186 2.516 0 4.919-.51 6.714-1.545L508.94 171.543c3.962-2.287 3.465-6.282-1.11-8.924L238.612 7.185C236.109 5.74 232.906 5 229.868 5m0 3c2.64 0 5.28.65 7.243 1.783l269.22 155.435c1.57.906 2.285 1.905 2.285 2.449 0 .37-.45.86-1.175 1.278L287.96 295.662c-1.257.726-3.157 1.143-5.213 1.143-2.641 0-5.28-.651-7.243-1.784L6.285 139.587C4.715 138.68 4 137.682 4 137.137c0-.37.45-.86 1.175-1.278L224.655 9.143C225.912 8.417 227.812 8 229.869 8" mask="url(#f)"/>
                <text fill="#2E6DDE" font-family="ProximaNova-Bold, Proxima Nova" font-size="14" font-weight="bold" letter-spacing=".016" mask="url(#f)">
                    <tspan x="199.324" y="145.192">O</tspan> <tspan x="210.05" y="145.192" letter-spacing="-.881">P</tspan> <tspan x="216.869" y="145.192" letter-spacing="-.396">A</tspan> <tspan x="225.573" y="145.192">CITY</tspan>
                </text>
                <text fill="#2E6DDE" font-family="ProximaNova-Bold, Proxima Nova" font-size="14" font-weight="bold" letter-spacing=".016" mask="url(#f)">
                    <tspan x="201.518" y="160.921">WHITE</tspan> <tspan x="244.83" y="160.921" letter-spacing="-.881">P</tspan> <tspan x="251.649" y="160.921">APER</tspan>
                </text>
                <path fill="#2E6DDE" d="M170.294 108.952c0-3.916 5.498-7.09 12.28-7.09 2.091 0 4.058.3 5.782.834-2.532.78-4.535 2.06-5.614 3.61l-.168-.001c-2.59 0-4.69 1.212-4.69 2.708 0 1.496 2.1 2.709 4.69 2.709.084 0 .168-.002.252-.005 1.1 1.497 3.064 2.73 5.53 3.49-1.724.534-3.69.835-5.782.835-6.782 0-12.28-3.174-12.28-7.09" mask="url(#f)"/>
                <path fill="#2E6DDE" d="M148.944 108.977c0-10.25 14.395-18.562 32.149-18.562 4.598 0 8.97.557 12.925 1.561 4.889 1.241 9.143 3.165 12.397 5.562-4.717.075-9.024 1.1-12.367 2.753-3.356-1.662-7.684-2.687-12.425-2.754a41.047 41.047 0 0 0-.497-.003c-10.975 0-19.87 5.135-19.87 11.471s8.895 11.472 19.87 11.472c.19 0 .38 0 .572-.004 4.712-.078 9.01-1.1 12.35-2.754 3.325 1.645 7.603 2.667 12.29 2.752-3.243 2.371-7.468 4.275-12.32 5.507-3.955 1.003-8.327 1.561-12.925 1.561-17.754 0-32.15-8.31-32.15-18.562" mask="url(#f)"/>
                <path fill="#2E6DDE" d="M208.752 108.743l3.637 2.1-2.365 1.365-3.636-2.1-3.26 1.882-.001.001-1.02-5.717 9.906.586-3.261 1.883zm4.295-5.923a17.893 17.893 0 0 0-2.916-.707c-.066-.012-.133-.02-.198-.03a21.113 21.113 0 0 0-3.055-.221c-2.387 0-4.613.392-6.498 1.073-2.3.83-4.09 2.086-5.034 3.578a7.819 7.819 0 0 0-1.464-.135l-.116.001c-2.538.035-4.575 1.234-4.575 2.708 0 1.435 1.935 2.611 4.382 2.702a7.789 7.789 0 0 0 1.932-.16c.98 1.387 2.699 2.554 4.875 3.34a17.48 17.48 0 0 0 3.168.808c.19.031.383.06.577.085l.147.02c.839.104 1.71.16 2.606.16 2.25 0 4.357-.35 6.169-.959 2.279-.766 4.092-1.943 5.134-3.354l.032.004c.629-.853.977-1.792.977-2.777 0-.893-.285-1.748-.808-2.535-.01 0-.02.002-.027.003-1.006-1.523-2.895-2.794-5.308-3.604z" mask="url(#f)"/>
                <path fill="#FFF" d="M282.749 293.304c-2.896 0-5.81-.724-7.994-1.984L5.535 135.886c-1.9-1.098-3.035-2.499-3.035-3.75 0-1.21 1.047-2.07 1.925-2.577L223.905 2.843c1.5-.867 3.618-1.344 5.963-1.344 2.897 0 5.81.723 7.993 1.984l269.22 155.434c1.9 1.097 3.035 2.5 3.035 3.75 0 1.211-1.047 2.07-1.925 2.576L288.71 291.96c-1.5.866-3.617 1.344-5.962 1.344" mask="url(#f)"/>
                <path fill="#2E6DDE" d="M229.868 0c-2.516 0-4.92.508-6.713 1.544L3.675 128.26c-3.962 2.287-3.465 6.283 1.11 8.924l269.22 155.434c2.502 1.445 5.706 2.186 8.743 2.186 2.516 0 4.919-.51 6.714-1.545L508.94 166.543c3.962-2.287 3.465-6.282-1.11-8.924L238.612 2.185C236.109.74 232.906 0 229.868 0m0 3c2.64 0 5.28.65 7.243 1.783l269.22 155.434c1.57.907 2.285 1.906 2.285 2.45 0 .37-.45.86-1.175 1.278L287.96 290.662c-1.257.726-3.157 1.143-5.213 1.143-2.641 0-5.28-.651-7.243-1.784L6.285 134.587C4.715 133.68 4 132.682 4 132.137c0-.37.45-.86 1.175-1.278L224.655 4.143C225.912 3.417 227.812 3 229.869 3" mask="url(#f)"/>
                <path fill="#2E6DDE" d="M197.27 137.708c-1.493.86-1.313 2.072.202 2.947 1.502.867 3.612.979 5.105.117 1.492-.861 1.31-2.086-.192-2.954-1.514-.874-3.624-.971-5.116-.11m-1.527-.881c2.451-1.415 5.978-1.437 8.414-.031 2.435 1.406 2.397 3.443-.053 4.858-2.438 1.408-5.967 1.429-8.402.023-2.436-1.406-2.397-3.443.041-4.85M206.543 132.45l-1.832 1.058 2.23 1.287 1.833-1.057c.678-.392.751-.939.073-1.33-.667-.385-1.624-.35-2.304.042zm-5.031 1.2l3.784-2.187c1.758-1.015 3.905-.883 5.323-.064 1.405.811 1.612 2.051-.137 3.06l-2.061 1.19 2.894 1.672-1.721.994-8.082-4.666zM215.574 131.533l2.68-1.548-5.042-1.37 2.362 2.918zm4.644-.96l-3.616 2.086.885 1.1-1.892 1.092-4.954-6.473 2.16-1.247 11.2 2.866-1.88 1.086-1.903-.51zM220.108 127.586c-2.485-1.435-2.301-3.5.064-4.865 1.845-1.065 3.845-1.1 5.421-.849l-.753 1.275c-.994-.183-2.243-.063-3.14.455-1.407.813-1.349 2.08.179 2.961 1.527.882 3.721.916 5.128.104.898-.518 1.117-1.233.79-1.813l2.195-.442c.423.917.386 2.071-1.458 3.136-2.366 1.366-5.943 1.472-8.426.038M224.971 120.104l1.723-.995 8.083 4.667-1.723.995zM231.87 117.87l-2.365 1.366-1.515-.875 6.454-3.725 1.515.874-2.354 1.359 6.569 3.792-1.736 1zM242.768 115.342l-7.892-.957 1.965-1.134 5.262.713-1.259-3.024 1.966-1.135 1.681 4.542 3.308 1.911-1.722.994zM201.534 153.56l4.144 4.017-1.832 1.057-10.401-3.328 1.93-1.114 7.26 2.553-4.3-4.262 1.346-.777 7.369 2.49-4.433-4.185 1.94-1.12 5.779 5.996-1.832 1.058zM215.792 147.82l-3.821 2.205 3.392 1.96-1.722.994-8.082-4.667 1.722-.994 3.175 1.833 3.82-2.207-3.173-1.833 1.734-1 8.083 4.666-1.735 1.001zM214.615 143.084l1.723-.995 8.082 4.667-1.723.994zM221.514 140.85l-2.366 1.365-1.515-.875 6.454-3.726 1.515.875-2.354 1.36 6.568 3.791-1.735 1.001zM225.38 136.868l5.727-3.306 1.478.853-4.004 2.312 1.758 1.015 3.918-2.263 1.478.854-3.918 2.262 1.879 1.085 4.002-2.312 1.492.86-5.726 3.306zM237.676 131.476l-1.832 1.058 2.23 1.287 1.831-1.058c.68-.392.753-.938.074-1.33-.666-.385-1.623-.35-2.303.043zm-5.032 1.198l3.784-2.185c1.76-1.015 3.905-.883 5.323-.064 1.405.811 1.611 2.05-.137 3.06l-2.06 1.19 2.894 1.671-1.722.995-8.082-4.667zM246.707 130.558l2.68-1.548-5.042-1.37 2.362 2.918zm4.644-.96l-3.616 2.087.885 1.1-1.892 1.091-4.954-6.473 2.16-1.247 11.2 2.867-1.88 1.085-1.903-.51zM253.026 122.614l-1.832 1.058 2.229 1.287 1.832-1.057c.68-.392.752-.938.074-1.33-.666-.385-1.624-.35-2.303.042zm-5.033 1.199l3.785-2.185c1.759-1.016 3.904-.884 5.322-.065 1.406.812 1.612 2.051-.136 3.059l-2.062 1.191 2.896 1.672-1.722.994-8.083-4.666zM255.752 119.333l5.726-3.306 1.478.854-4.004 2.31 1.759 1.016 3.917-2.263 1.478.854-3.916 2.263 1.877 1.084 4.002-2.312 1.491.86-5.726 3.307zM268.023 113.955l-1.808 1.043 2.231 1.288 1.807-1.043c.692-.4.777-.953.097-1.345-.678-.39-1.636-.342-2.327.057zm3.163 2.457l-1.262.728 2.896 1.671-1.723.995-8.082-4.666 3.784-2.185c1.687-.974 3.821-.933 5.324-.065 1.429.825 1.295 1.784.628 2.408l4.897.726-1.978 1.141-4.484-.753zM170.294 103.952c0-3.916 5.498-7.09 12.28-7.09 2.091 0 4.058.3 5.782.834-2.532.78-4.535 2.06-5.614 3.61l-.168-.001c-2.59 0-4.69 1.212-4.69 2.708 0 1.496 2.1 2.709 4.69 2.709.084 0 .168-.002.252-.005 1.1 1.497 3.064 2.73 5.53 3.49-1.724.534-3.69.835-5.782.835-6.782 0-12.28-3.174-12.28-7.09" mask="url(#f)"/>
                <path fill="#2E6DDE" d="M148.944 103.977c0-10.25 14.395-18.562 32.149-18.562 4.598 0 8.97.557 12.925 1.561 4.889 1.241 9.143 3.165 12.397 5.562-4.717.075-9.024 1.1-12.367 2.753-3.356-1.662-7.684-2.687-12.425-2.754a41.047 41.047 0 0 0-.497-.003c-10.975 0-19.87 5.135-19.87 11.471s8.895 11.472 19.87 11.472c.19 0 .38 0 .572-.004 4.712-.078 9.01-1.1 12.35-2.754 3.325 1.645 7.603 2.667 12.29 2.752-3.243 2.371-7.468 4.275-12.32 5.507-3.955 1.003-8.327 1.561-12.925 1.561-17.754 0-32.15-8.31-32.15-18.562" mask="url(#f)"/>
                <path fill="#2E6DDE" d="M208.752 103.743l3.637 2.1-2.365 1.365-3.636-2.1-3.26 1.882-.001.001-1.02-5.717 9.906.586-3.261 1.883zm4.295-5.923a17.893 17.893 0 0 0-2.916-.707c-.066-.012-.133-.02-.198-.03a21.113 21.113 0 0 0-3.055-.221c-2.387 0-4.613.392-6.498 1.073-2.3.83-4.09 2.086-5.034 3.578a7.819 7.819 0 0 0-1.464-.135l-.116.001c-2.538.035-4.575 1.234-4.575 2.708 0 1.435 1.935 2.611 4.382 2.702a7.789 7.789 0 0 0 1.932-.16c.98 1.387 2.699 2.554 4.875 3.34a17.48 17.48 0 0 0 3.168.808c.19.031.383.06.577.085l.147.02c.839.104 1.71.16 2.606.16 2.25 0 4.357-.35 6.169-.959 2.279-.766 4.092-1.943 5.134-3.354l.032.004c.629-.853.977-1.792.977-2.777 0-.893-.285-1.748-.808-2.535-.01 0-.02.002-.027.003-1.006-1.523-2.895-2.794-5.308-3.604z" mask="url(#f)"/>
            </g>
        </g>
        <g mask="url(#b)">
            <g transform="translate(28 -45)">
                <path fill="#FFF" d="M281.749 318.304c-2.896 0-5.81-.724-7.994-1.984L4.535 160.885c-1.9-1.097-3.035-2.498-3.035-3.748 0-1.212 1.047-2.07 1.925-2.578l219.48-126.716c1.5-.867 3.618-1.344 5.963-1.344 2.897 0 5.81.723 7.993 1.984l269.22 155.434c1.9 1.098 3.035 2.5 3.035 3.75 0 1.211-1.047 2.07-1.925 2.576L287.71 316.96c-1.5.866-3.617 1.344-5.962 1.344"/>
                <g transform="translate(0 24.804)">
                    <mask id="h" fill="#fff">
                        <use xlink:href="#g"/>
                    </mask>
                    <path fill="#2E6DDE" d="M228.868.196c-2.516 0-4.92.508-6.713 1.544L2.675 128.457c-3.962 2.287-3.465 6.283 1.11 8.924l269.22 155.434c2.502 1.445 5.706 2.186 8.743 2.186 2.516 0 4.919-.51 6.714-1.545L507.94 166.739c3.962-2.287 3.465-6.282-1.11-8.924L237.612 2.38C235.109.936 231.906.196 228.868.196m0 3c2.64 0 5.28.65 7.243 1.783l269.22 155.435c1.57.906 2.285 1.905 2.285 2.449 0 .37-.45.86-1.175 1.278L286.96 290.858c-1.257.726-3.157 1.143-5.213 1.143-2.641 0-5.28-.651-7.243-1.784L5.285 134.783c-1.57-.906-2.285-1.905-2.285-2.45 0-.37.45-.86 1.175-1.278L223.655 4.339c1.257-.726 3.157-1.143 5.214-1.143" mask="url(#h)"/>
                </g>
                <mask id="j" fill="#fff">
                    <use xlink:href="#i"/>
                </mask>
                <text fill="#2E6DDE" font-family="ProximaNova-Bold, Proxima Nova" font-size="14" font-weight="bold" letter-spacing=".016" mask="url(#j)">
                    <tspan x="198.324" y="165.192">O</tspan> <tspan x="209.05" y="165.192" letter-spacing="-.881">P</tspan> <tspan x="215.869" y="165.192" letter-spacing="-.396">A</tspan> <tspan x="224.573" y="165.192">CITY</tspan>
                </text>
                <text fill="#2E6DDE" font-family="ProximaNova-Bold, Proxima Nova" font-size="14" font-weight="bold" letter-spacing=".016" mask="url(#j)">
                    <tspan x="200.518" y="180.921">WHITE</tspan> <tspan x="243.83" y="180.921" letter-spacing="-.881">P</tspan> <tspan x="250.649" y="180.921">APER</tspan>
                </text>
                <path fill="#2E6DDE" d="M169.294 128.952c0-3.916 5.498-7.09 12.28-7.09 2.091 0 4.058.3 5.782.834-2.532.78-4.535 2.06-5.614 3.61l-.168-.001c-2.59 0-4.69 1.212-4.69 2.708 0 1.496 2.1 2.709 4.69 2.709.084 0 .168-.002.252-.005 1.1 1.497 3.064 2.73 5.53 3.49-1.724.534-3.69.835-5.782.835-6.782 0-12.28-3.174-12.28-7.09" mask="url(#j)"/>
                <path fill="#2E6DDE" d="M147.944 128.977c0-10.25 14.395-18.562 32.149-18.562 4.598 0 8.97.557 12.925 1.561 4.889 1.241 9.143 3.165 12.397 5.562-4.717.075-9.024 1.1-12.367 2.753-3.356-1.662-7.684-2.687-12.425-2.754a41.047 41.047 0 0 0-.497-.003c-10.975 0-19.87 5.135-19.87 11.471s8.895 11.472 19.87 11.472c.19 0 .38 0 .572-.004 4.712-.078 9.01-1.1 12.35-2.754 3.325 1.645 7.603 2.667 12.29 2.752-3.243 2.371-7.468 4.275-12.32 5.507-3.955 1.003-8.327 1.561-12.925 1.561-17.754 0-32.15-8.31-32.15-18.562" mask="url(#j)"/>
                <path fill="#2E6DDE" d="M207.752 128.743l3.637 2.1-2.365 1.365-3.636-2.1-3.26 1.882-.001.001-1.02-5.717 9.906.586-3.261 1.883zm4.295-5.923a17.893 17.893 0 0 0-2.916-.707c-.066-.012-.133-.02-.198-.03a21.113 21.113 0 0 0-3.055-.221c-2.387 0-4.613.392-6.498 1.073-2.3.83-4.09 2.086-5.034 3.578a7.819 7.819 0 0 0-1.464-.135l-.116.001c-2.538.035-4.575 1.234-4.575 2.708 0 1.435 1.935 2.611 4.382 2.702a7.789 7.789 0 0 0 1.932-.16c.98 1.387 2.699 2.554 4.875 3.34a17.48 17.48 0 0 0 3.168.808c.19.031.383.06.577.085l.147.02c.839.104 1.71.16 2.606.16 2.25 0 4.357-.35 6.169-.959 2.279-.766 4.092-1.943 5.134-3.354l.032.004c.629-.853.977-1.792.977-2.777 0-.893-.285-1.748-.808-2.535-.01 0-.02.002-.027.003-1.006-1.523-2.895-2.794-5.308-3.604z" mask="url(#j)"/>
                <path fill="#FFF" d="M281.749 313.304c-2.896 0-5.81-.724-7.994-1.984L4.535 155.886c-1.9-1.098-3.035-2.499-3.035-3.75 0-1.21 1.047-2.07 1.925-2.577l219.48-126.716c1.5-.867 3.618-1.344 5.963-1.344 2.897 0 5.81.723 7.993 1.984l269.22 155.434c1.9 1.098 3.035 2.5 3.035 3.75 0 1.211-1.047 2.07-1.925 2.576L287.71 311.96c-1.5.866-3.617 1.344-5.962 1.344" mask="url(#j)"/>
                <path fill="#2E6DDE" d="M228.868 20c-2.516 0-4.92.508-6.713 1.544L2.675 148.26c-3.962 2.287-3.465 6.283 1.11 8.924l269.22 155.434c2.502 1.445 5.706 2.186 8.743 2.186 2.516 0 4.919-.51 6.714-1.545L507.94 186.543c3.962-2.287 3.465-6.282-1.11-8.924L237.612 22.185C235.109 20.74 231.906 20 228.868 20m0 3c2.64 0 5.28.65 7.243 1.783l269.22 155.435c1.57.906 2.285 1.905 2.285 2.449 0 .37-.45.86-1.175 1.278L286.96 310.662c-1.257.726-3.157 1.143-5.213 1.143-2.641 0-5.28-.651-7.243-1.784L5.285 154.587C3.715 153.68 3 152.682 3 152.137c0-.37.45-.86 1.175-1.278l219.48-126.716c1.257-.726 3.157-1.143 5.214-1.143" mask="url(#j)"/>
                <text fill="#2E6DDE" font-family="ProximaNova-Bold, Proxima Nova" font-size="14" font-weight="bold" letter-spacing=".016" mask="url(#j)">
                    <tspan x="198.324" y="160.192">O</tspan> <tspan x="209.05" y="160.192" letter-spacing="-.881">P</tspan> <tspan x="215.869" y="160.192" letter-spacing="-.396">A</tspan> <tspan x="224.573" y="160.192">CITY</tspan>
                </text>
                <text fill="#2E6DDE" font-family="ProximaNova-Bold, Proxima Nova" font-size="14" font-weight="bold" letter-spacing=".016" mask="url(#j)">
                    <tspan x="200.518" y="175.921">WHITE</tspan> <tspan x="243.83" y="175.921" letter-spacing="-.881">P</tspan> <tspan x="250.649" y="175.921">APER</tspan>
                </text>
                <path fill="#2E6DDE" d="M169.294 123.952c0-3.916 5.498-7.09 12.28-7.09 2.091 0 4.058.3 5.782.834-2.532.78-4.535 2.06-5.614 3.61l-.168-.001c-2.59 0-4.69 1.212-4.69 2.708 0 1.496 2.1 2.709 4.69 2.709.084 0 .168-.002.252-.005 1.1 1.497 3.064 2.73 5.53 3.49-1.724.534-3.69.835-5.782.835-6.782 0-12.28-3.174-12.28-7.09" mask="url(#j)"/>
                <path fill="#2E6DDE" d="M147.944 123.977c0-10.25 14.395-18.562 32.149-18.562 4.598 0 8.97.557 12.925 1.561 4.889 1.241 9.143 3.165 12.397 5.562-4.717.075-9.024 1.1-12.367 2.753-3.356-1.662-7.684-2.687-12.425-2.754a41.047 41.047 0 0 0-.497-.003c-10.975 0-19.87 5.135-19.87 11.471s8.895 11.472 19.87 11.472c.19 0 .38 0 .572-.004 4.712-.078 9.01-1.1 12.35-2.754 3.325 1.645 7.603 2.667 12.29 2.752-3.243 2.371-7.468 4.275-12.32 5.507-3.955 1.003-8.327 1.561-12.925 1.561-17.754 0-32.15-8.31-32.15-18.562" mask="url(#j)"/>
                <path fill="#2E6DDE" d="M207.752 123.743l3.637 2.1-2.365 1.365-3.636-2.1-3.26 1.882-.001.001-1.02-5.717 9.906.586-3.261 1.883zm4.295-5.923a17.893 17.893 0 0 0-2.916-.707c-.066-.012-.133-.02-.198-.03a21.113 21.113 0 0 0-3.055-.221c-2.387 0-4.613.392-6.498 1.073-2.3.83-4.09 2.086-5.034 3.578a7.819 7.819 0 0 0-1.464-.135l-.116.001c-2.538.035-4.575 1.234-4.575 2.708 0 1.435 1.935 2.611 4.382 2.702a7.789 7.789 0 0 0 1.932-.16c.98 1.387 2.699 2.554 4.875 3.34a17.48 17.48 0 0 0 3.168.808c.19.031.383.06.577.085l.147.02c.839.104 1.71.16 2.606.16 2.25 0 4.357-.35 6.169-.959 2.279-.766 4.092-1.943 5.134-3.354l.032.004c.629-.853.977-1.792.977-2.777 0-.893-.285-1.748-.808-2.535-.01 0-.02.002-.027.003-1.006-1.523-2.895-2.794-5.308-3.604z" mask="url(#j)"/>
                <path fill="#FFF" d="M281.749 308.304c-2.896 0-5.81-.724-7.994-1.984L4.535 150.886c-1.9-1.098-3.035-2.499-3.035-3.75 0-1.21 1.047-2.07 1.925-2.577l219.48-126.716c1.5-.867 3.618-1.344 5.963-1.344 2.897 0 5.81.723 7.993 1.984l269.22 155.434c1.9 1.098 3.035 2.5 3.035 3.75 0 1.211-1.047 2.07-1.925 2.576L287.71 306.96c-1.5.866-3.617 1.344-5.962 1.344" mask="url(#j)"/>
                <path fill="#2E6DDE" d="M228.868 15c-2.516 0-4.92.508-6.713 1.544L2.675 143.26c-3.962 2.287-3.465 6.283 1.11 8.924l269.22 155.434c2.502 1.445 5.706 2.186 8.743 2.186 2.516 0 4.919-.51 6.714-1.545L507.94 181.543c3.962-2.287 3.465-6.282-1.11-8.924L237.612 17.185C235.109 15.74 231.906 15 228.868 15m0 3c2.64 0 5.28.65 7.243 1.783l269.22 155.435c1.57.906 2.285 1.905 2.285 2.449 0 .37-.45.86-1.175 1.278L286.96 305.662c-1.257.726-3.157 1.143-5.213 1.143-2.641 0-5.28-.651-7.243-1.784L5.285 149.587C3.715 148.68 3 147.682 3 147.137c0-.37.45-.86 1.175-1.278l219.48-126.716c1.257-.726 3.157-1.143 5.214-1.143" mask="url(#j)"/>
                <text fill="#2E6DDE" font-family="ProximaNova-Bold, Proxima Nova" font-size="14" font-weight="bold" letter-spacing=".016" mask="url(#j)">
                    <tspan x="198.324" y="155.192">O</tspan> <tspan x="209.05" y="155.192" letter-spacing="-.881">P</tspan> <tspan x="215.869" y="155.192" letter-spacing="-.396">A</tspan> <tspan x="224.573" y="155.192">CITY</tspan>
                </text>
                <text fill="#2E6DDE" font-family="ProximaNova-Bold, Proxima Nova" font-size="14" font-weight="bold" letter-spacing=".016" mask="url(#j)">
                    <tspan x="200.518" y="170.921">WHITE</tspan> <tspan x="243.83" y="170.921" letter-spacing="-.881">P</tspan> <tspan x="250.649" y="170.921">APER</tspan>
                </text>
                <path fill="#2E6DDE" d="M169.294 118.952c0-3.916 5.498-7.09 12.28-7.09 2.091 0 4.058.3 5.782.834-2.532.78-4.535 2.06-5.614 3.61l-.168-.001c-2.59 0-4.69 1.212-4.69 2.708 0 1.496 2.1 2.709 4.69 2.709.084 0 .168-.002.252-.005 1.1 1.497 3.064 2.73 5.53 3.49-1.724.534-3.69.835-5.782.835-6.782 0-12.28-3.174-12.28-7.09" mask="url(#j)"/>
                <path fill="#2E6DDE" d="M147.944 118.977c0-10.25 14.395-18.562 32.149-18.562 4.598 0 8.97.557 12.925 1.561 4.889 1.241 9.143 3.165 12.397 5.562-4.717.075-9.024 1.1-12.367 2.753-3.356-1.662-7.684-2.687-12.425-2.754a41.047 41.047 0 0 0-.497-.003c-10.975 0-19.87 5.135-19.87 11.471s8.895 11.472 19.87 11.472c.19 0 .38 0 .572-.004 4.712-.078 9.01-1.1 12.35-2.754 3.325 1.645 7.603 2.667 12.29 2.752-3.243 2.371-7.468 4.275-12.32 5.507-3.955 1.003-8.327 1.561-12.925 1.561-17.754 0-32.15-8.31-32.15-18.562" mask="url(#j)"/>
                <path fill="#2E6DDE" d="M207.752 118.743l3.637 2.1-2.365 1.365-3.636-2.1-3.26 1.882-.001.001-1.02-5.717 9.906.586-3.261 1.883zm4.295-5.923a17.893 17.893 0 0 0-2.916-.707c-.066-.012-.133-.02-.198-.03a21.113 21.113 0 0 0-3.055-.221c-2.387 0-4.613.392-6.498 1.073-2.3.83-4.09 2.086-5.034 3.578a7.819 7.819 0 0 0-1.464-.135l-.116.001c-2.538.035-4.575 1.234-4.575 2.708 0 1.435 1.935 2.611 4.382 2.702a7.789 7.789 0 0 0 1.932-.16c.98 1.387 2.699 2.554 4.875 3.34a17.48 17.48 0 0 0 3.168.808c.19.031.383.06.577.085l.147.02c.839.104 1.71.16 2.606.16 2.25 0 4.357-.35 6.169-.959 2.279-.766 4.092-1.943 5.134-3.354l.032.004c.629-.853.977-1.792.977-2.777 0-.893-.285-1.748-.808-2.535-.01 0-.02.002-.027.003-1.006-1.523-2.895-2.794-5.308-3.604z" mask="url(#j)"/>
                <path fill="#FFF" d="M282.749 303.304c-2.896 0-5.81-.724-7.994-1.984L5.535 145.886c-1.9-1.098-3.035-2.499-3.035-3.75 0-1.21 1.047-2.07 1.925-2.577l219.48-126.716c1.5-.867 3.618-1.344 5.963-1.344 2.897 0 5.81.723 7.993 1.984l269.22 155.434c1.9 1.098 3.035 2.5 3.035 3.75 0 1.211-1.047 2.07-1.925 2.576L288.71 301.96c-1.5.866-3.617 1.344-5.962 1.344" mask="url(#j)"/>
                <path fill="#2E6DDE" d="M229.868 10c-2.516 0-4.92.508-6.713 1.544L3.675 138.26c-3.962 2.287-3.465 6.283 1.11 8.924l269.22 155.434c2.502 1.445 5.706 2.186 8.743 2.186 2.516 0 4.919-.51 6.714-1.545L508.94 176.543c3.962-2.287 3.465-6.282-1.11-8.924L238.612 12.185C236.109 10.74 232.906 10 229.868 10m0 3c2.64 0 5.28.65 7.243 1.783l269.22 155.435c1.57.906 2.285 1.905 2.285 2.449 0 .37-.45.86-1.175 1.278L287.96 300.662c-1.257.726-3.157 1.143-5.213 1.143-2.641 0-5.28-.651-7.243-1.784L6.285 144.587C4.715 143.68 4 142.682 4 142.137c0-.37.45-.86 1.175-1.278l219.48-126.716c1.257-.726 3.157-1.143 5.214-1.143" mask="url(#j)"/>
                <text fill="#2E6DDE" font-family="ProximaNova-Bold, Proxima Nova" font-size="14" font-weight="bold" letter-spacing=".016" mask="url(#j)">
                    <tspan x="199.324" y="150.192">O</tspan> <tspan x="210.05" y="150.192" letter-spacing="-.881">P</tspan> <tspan x="216.869" y="150.192" letter-spacing="-.396">A</tspan> <tspan x="225.573" y="150.192">CITY</tspan>
                </text>
                <text fill="#2E6DDE" font-family="ProximaNova-Bold, Proxima Nova" font-size="14" font-weight="bold" letter-spacing=".016" mask="url(#j)">
                    <tspan x="201.518" y="165.921">WHITE</tspan> <tspan x="244.83" y="165.921" letter-spacing="-.881">P</tspan> <tspan x="251.649" y="165.921">APER</tspan>
                </text>
                <path fill="#2E6DDE" d="M170.294 113.952c0-3.916 5.498-7.09 12.28-7.09 2.091 0 4.058.3 5.782.834-2.532.78-4.535 2.06-5.614 3.61l-.168-.001c-2.59 0-4.69 1.212-4.69 2.708 0 1.496 2.1 2.709 4.69 2.709.084 0 .168-.002.252-.005 1.1 1.497 3.064 2.73 5.53 3.49-1.724.534-3.69.835-5.782.835-6.782 0-12.28-3.174-12.28-7.09" mask="url(#j)"/>
                <path fill="#2E6DDE" d="M148.944 113.977c0-10.25 14.395-18.562 32.149-18.562 4.598 0 8.97.557 12.925 1.561 4.889 1.241 9.143 3.165 12.397 5.562-4.717.075-9.024 1.1-12.367 2.753-3.356-1.662-7.684-2.687-12.425-2.754a41.047 41.047 0 0 0-.497-.003c-10.975 0-19.87 5.135-19.87 11.471s8.895 11.472 19.87 11.472c.19 0 .38 0 .572-.004 4.712-.078 9.01-1.1 12.35-2.754 3.325 1.645 7.603 2.667 12.29 2.752-3.243 2.371-7.468 4.275-12.32 5.507-3.955 1.003-8.327 1.561-12.925 1.561-17.754 0-32.15-8.31-32.15-18.562" mask="url(#j)"/>
                <path fill="#2E6DDE" d="M208.752 113.743l3.637 2.1-2.365 1.365-3.636-2.1-3.26 1.882-.001.001-1.02-5.717 9.906.586-3.261 1.883zm4.295-5.923a17.893 17.893 0 0 0-2.916-.707c-.066-.012-.133-.02-.198-.03a21.113 21.113 0 0 0-3.055-.221c-2.387 0-4.613.392-6.498 1.073-2.3.83-4.09 2.086-5.034 3.578a7.819 7.819 0 0 0-1.464-.135l-.116.001c-2.538.035-4.575 1.234-4.575 2.708 0 1.435 1.935 2.611 4.382 2.702a7.789 7.789 0 0 0 1.932-.16c.98 1.387 2.699 2.554 4.875 3.34a17.48 17.48 0 0 0 3.168.808c.19.031.383.06.577.085l.147.02c.839.104 1.71.16 2.606.16 2.25 0 4.357-.35 6.169-.959 2.279-.766 4.092-1.943 5.134-3.354l.032.004c.629-.853.977-1.792.977-2.777 0-.893-.285-1.748-.808-2.535-.01 0-.02.002-.027.003-1.006-1.523-2.895-2.794-5.308-3.604z" mask="url(#j)"/>
                <path fill="#FFF" d="M282.749 298.304c-2.896 0-5.81-.724-7.994-1.984L5.535 140.886c-1.9-1.098-3.035-2.499-3.035-3.75 0-1.21 1.047-2.07 1.925-2.577L223.905 7.843c1.5-.867 3.618-1.344 5.963-1.344 2.897 0 5.81.723 7.993 1.984l269.22 155.434c1.9 1.098 3.035 2.5 3.035 3.75 0 1.211-1.047 2.07-1.925 2.576L288.71 296.96c-1.5.866-3.617 1.344-5.962 1.344" mask="url(#j)"/>
                <path fill="#2E6DDE" d="M229.868 5c-2.516 0-4.92.508-6.713 1.544L3.675 133.26c-3.962 2.287-3.465 6.283 1.11 8.924l269.22 155.434c2.502 1.445 5.706 2.186 8.743 2.186 2.516 0 4.919-.51 6.714-1.545L508.94 171.543c3.962-2.287 3.465-6.282-1.11-8.924L238.612 7.185C236.109 5.74 232.906 5 229.868 5m0 3c2.64 0 5.28.65 7.243 1.783l269.22 155.435c1.57.906 2.285 1.905 2.285 2.449 0 .37-.45.86-1.175 1.278L287.96 295.662c-1.257.726-3.157 1.143-5.213 1.143-2.641 0-5.28-.651-7.243-1.784L6.285 139.587C4.715 138.68 4 137.682 4 137.137c0-.37.45-.86 1.175-1.278L224.655 9.143C225.912 8.417 227.812 8 229.869 8" mask="url(#j)"/>
                <text fill="#2E6DDE" font-family="ProximaNova-Bold, Proxima Nova" font-size="14" font-weight="bold" letter-spacing=".016" mask="url(#j)">
                    <tspan x="199.324" y="145.192">O</tspan> <tspan x="210.05" y="145.192" letter-spacing="-.881">P</tspan> <tspan x="216.869" y="145.192" letter-spacing="-.396">A</tspan> <tspan x="225.573" y="145.192">CITY</tspan>
                </text>
                <text fill="#2E6DDE" font-family="ProximaNova-Bold, Proxima Nova" font-size="14" font-weight="bold" letter-spacing=".016" mask="url(#j)">
                    <tspan x="201.518" y="160.921">WHITE</tspan> <tspan x="244.83" y="160.921" letter-spacing="-.881">P</tspan> <tspan x="251.649" y="160.921">APER</tspan>
                </text>
                <path fill="#2E6DDE" d="M170.294 108.952c0-3.916 5.498-7.09 12.28-7.09 2.091 0 4.058.3 5.782.834-2.532.78-4.535 2.06-5.614 3.61l-.168-.001c-2.59 0-4.69 1.212-4.69 2.708 0 1.496 2.1 2.709 4.69 2.709.084 0 .168-.002.252-.005 1.1 1.497 3.064 2.73 5.53 3.49-1.724.534-3.69.835-5.782.835-6.782 0-12.28-3.174-12.28-7.09" mask="url(#j)"/>
                <path fill="#2E6DDE" d="M148.944 108.977c0-10.25 14.395-18.562 32.149-18.562 4.598 0 8.97.557 12.925 1.561 4.889 1.241 9.143 3.165 12.397 5.562-4.717.075-9.024 1.1-12.367 2.753-3.356-1.662-7.684-2.687-12.425-2.754a41.047 41.047 0 0 0-.497-.003c-10.975 0-19.87 5.135-19.87 11.471s8.895 11.472 19.87 11.472c.19 0 .38 0 .572-.004 4.712-.078 9.01-1.1 12.35-2.754 3.325 1.645 7.603 2.667 12.29 2.752-3.243 2.371-7.468 4.275-12.32 5.507-3.955 1.003-8.327 1.561-12.925 1.561-17.754 0-32.15-8.31-32.15-18.562" mask="url(#j)"/>
                <path fill="#2E6DDE" d="M208.752 108.743l3.637 2.1-2.365 1.365-3.636-2.1-3.26 1.882-.001.001-1.02-5.717 9.906.586-3.261 1.883zm4.295-5.923a17.893 17.893 0 0 0-2.916-.707c-.066-.012-.133-.02-.198-.03a21.113 21.113 0 0 0-3.055-.221c-2.387 0-4.613.392-6.498 1.073-2.3.83-4.09 2.086-5.034 3.578a7.819 7.819 0 0 0-1.464-.135l-.116.001c-2.538.035-4.575 1.234-4.575 2.708 0 1.435 1.935 2.611 4.382 2.702a7.789 7.789 0 0 0 1.932-.16c.98 1.387 2.699 2.554 4.875 3.34a17.48 17.48 0 0 0 3.168.808c.19.031.383.06.577.085l.147.02c.839.104 1.71.16 2.606.16 2.25 0 4.357-.35 6.169-.959 2.279-.766 4.092-1.943 5.134-3.354l.032.004c.629-.853.977-1.792.977-2.777 0-.893-.285-1.748-.808-2.535-.01 0-.02.002-.027.003-1.006-1.523-2.895-2.794-5.308-3.604z" mask="url(#j)"/>
                <path fill="#FFF" d="M282.749 293.304c-2.896 0-5.81-.724-7.994-1.984L5.535 135.886c-1.9-1.098-3.035-2.499-3.035-3.75 0-1.21 1.047-2.07 1.925-2.577L223.905 2.843c1.5-.867 3.618-1.344 5.963-1.344 2.897 0 5.81.723 7.993 1.984l269.22 155.434c1.9 1.097 3.035 2.5 3.035 3.75 0 1.211-1.047 2.07-1.925 2.576L288.71 291.96c-1.5.866-3.617 1.344-5.962 1.344" mask="url(#j)"/>
                <path fill="#2E6DDE" d="M229.868 0c-2.516 0-4.92.508-6.713 1.544L3.675 128.26c-3.962 2.287-3.465 6.283 1.11 8.924l269.22 155.434c2.502 1.445 5.706 2.186 8.743 2.186 2.516 0 4.919-.51 6.714-1.545L508.94 166.543c3.962-2.287 3.465-6.282-1.11-8.924L238.612 2.185C236.109.74 232.906 0 229.868 0m0 3c2.64 0 5.28.65 7.243 1.783l269.22 155.434c1.57.907 2.285 1.906 2.285 2.45 0 .37-.45.86-1.175 1.278L287.96 290.662c-1.257.726-3.157 1.143-5.213 1.143-2.641 0-5.28-.651-7.243-1.784L6.285 134.587C4.715 133.68 4 132.682 4 132.137c0-.37.45-.86 1.175-1.278L224.655 4.143C225.912 3.417 227.812 3 229.869 3" mask="url(#j)"/>
                <path fill="#2E6DDE" d="M197.27 137.708c-1.493.86-1.313 2.072.202 2.947 1.502.867 3.612.979 5.105.117 1.492-.861 1.31-2.086-.192-2.954-1.514-.874-3.624-.971-5.116-.11m-1.527-.881c2.451-1.415 5.978-1.437 8.414-.031 2.435 1.406 2.397 3.443-.053 4.858-2.438 1.408-5.967 1.429-8.402.023-2.436-1.406-2.397-3.443.041-4.85M206.543 132.45l-1.832 1.058 2.23 1.287 1.833-1.057c.678-.392.751-.939.073-1.33-.667-.385-1.624-.35-2.304.042zm-5.031 1.2l3.784-2.187c1.758-1.015 3.905-.883 5.323-.064 1.405.811 1.612 2.051-.137 3.06l-2.061 1.19 2.894 1.672-1.721.994-8.082-4.666zM215.574 131.533l2.68-1.548-5.042-1.37 2.362 2.918zm4.644-.96l-3.616 2.086.885 1.1-1.892 1.092-4.954-6.473 2.16-1.247 11.2 2.866-1.88 1.086-1.903-.51zM220.108 127.586c-2.485-1.435-2.301-3.5.064-4.865 1.845-1.065 3.845-1.1 5.421-.849l-.753 1.275c-.994-.183-2.243-.063-3.14.455-1.407.813-1.349 2.08.179 2.961 1.527.882 3.721.916 5.128.104.898-.518 1.117-1.233.79-1.813l2.195-.442c.423.917.386 2.071-1.458 3.136-2.366 1.366-5.943 1.472-8.426.038M224.971 120.104l1.723-.995 8.083 4.667-1.723.995zM231.87 117.87l-2.365 1.366-1.515-.875 6.454-3.725 1.515.874-2.354 1.359 6.569 3.792-1.736 1zM242.768 115.342l-7.892-.957 1.965-1.134 5.262.713-1.259-3.024 1.966-1.135 1.681 4.542 3.308 1.911-1.722.994zM201.534 153.56l4.144 4.017-1.832 1.057-10.401-3.328 1.93-1.114 7.26 2.553-4.3-4.262 1.346-.777 7.369 2.49-4.433-4.185 1.94-1.12 5.779 5.996-1.832 1.058zM215.792 147.82l-3.821 2.205 3.392 1.96-1.722.994-8.082-4.667 1.722-.994 3.175 1.833 3.82-2.207-3.173-1.833 1.734-1 8.083 4.666-1.735 1.001zM214.615 143.084l1.723-.995 8.082 4.667-1.723.994zM221.514 140.85l-2.366 1.365-1.515-.875 6.454-3.726 1.515.875-2.354 1.36 6.568 3.791-1.735 1.001zM225.38 136.868l5.727-3.306 1.478.853-4.004 2.312 1.758 1.015 3.918-2.263 1.478.854-3.918 2.262 1.879 1.085 4.002-2.312 1.492.86-5.726 3.306zM237.676 131.476l-1.832 1.058 2.23 1.287 1.831-1.058c.68-.392.753-.938.074-1.33-.666-.385-1.623-.35-2.303.043zm-5.032 1.198l3.784-2.185c1.76-1.015 3.905-.883 5.323-.064 1.405.811 1.611 2.05-.137 3.06l-2.06 1.19 2.894 1.671-1.722.995-8.082-4.667zM246.707 130.558l2.68-1.548-5.042-1.37 2.362 2.918zm4.644-.96l-3.616 2.087.885 1.1-1.892 1.091-4.954-6.473 2.16-1.247 11.2 2.867-1.88 1.085-1.903-.51zM253.026 122.614l-1.832 1.058 2.229 1.287 1.832-1.057c.68-.392.752-.938.074-1.33-.666-.385-1.624-.35-2.303.042zm-5.033 1.199l3.785-2.185c1.759-1.016 3.904-.884 5.322-.065 1.406.812 1.612 2.051-.136 3.059l-2.062 1.191 2.896 1.672-1.722.994-8.083-4.666zM255.752 119.333l5.726-3.306 1.478.854-4.004 2.31 1.759 1.016 3.917-2.263 1.478.854-3.916 2.263 1.877 1.084 4.002-2.312 1.491.86-5.726 3.307zM268.023 113.955l-1.808 1.043 2.231 1.288 1.807-1.043c.692-.4.777-.953.097-1.345-.678-.39-1.636-.342-2.327.057zm3.163 2.457l-1.262.728 2.896 1.671-1.723.995-8.082-4.666 3.784-2.185c1.687-.974 3.821-.933 5.324-.065 1.429.825 1.295 1.784.628 2.408l4.897.726-1.978 1.141-4.484-.753zM170.294 103.952c0-3.916 5.498-7.09 12.28-7.09 2.091 0 4.058.3 5.782.834-2.532.78-4.535 2.06-5.614 3.61l-.168-.001c-2.59 0-4.69 1.212-4.69 2.708 0 1.496 2.1 2.709 4.69 2.709.084 0 .168-.002.252-.005 1.1 1.497 3.064 2.73 5.53 3.49-1.724.534-3.69.835-5.782.835-6.782 0-12.28-3.174-12.28-7.09" mask="url(#j)"/>
                <path fill="#2E6DDE" d="M148.944 103.977c0-10.25 14.395-18.562 32.149-18.562 4.598 0 8.97.557 12.925 1.561 4.889 1.241 9.143 3.165 12.397 5.562-4.717.075-9.024 1.1-12.367 2.753-3.356-1.662-7.684-2.687-12.425-2.754a41.047 41.047 0 0 0-.497-.003c-10.975 0-19.87 5.135-19.87 11.471s8.895 11.472 19.87 11.472c.19 0 .38 0 .572-.004 4.712-.078 9.01-1.1 12.35-2.754 3.325 1.645 7.603 2.667 12.29 2.752-3.243 2.371-7.468 4.275-12.32 5.507-3.955 1.003-8.327 1.561-12.925 1.561-17.754 0-32.15-8.31-32.15-18.562" mask="url(#j)"/>
                <path fill="#2E6DDE" d="M208.752 103.743l3.637 2.1-2.365 1.365-3.636-2.1-3.26 1.882-.001.001-1.02-5.717 9.906.586-3.261 1.883zm4.295-5.923a17.893 17.893 0 0 0-2.916-.707c-.066-.012-.133-.02-.198-.03a21.113 21.113 0 0 0-3.055-.221c-2.387 0-4.613.392-6.498 1.073-2.3.83-4.09 2.086-5.034 3.578a7.819 7.819 0 0 0-1.464-.135l-.116.001c-2.538.035-4.575 1.234-4.575 2.708 0 1.435 1.935 2.611 4.382 2.702a7.789 7.789 0 0 0 1.932-.16c.98 1.387 2.699 2.554 4.875 3.34a17.48 17.48 0 0 0 3.168.808c.19.031.383.06.577.085l.147.02c.839.104 1.71.16 2.606.16 2.25 0 4.357-.35 6.169-.959 2.279-.766 4.092-1.943 5.134-3.354l.032.004c.629-.853.977-1.792.977-2.777 0-.893-.285-1.748-.808-2.535-.01 0-.02.002-.027.003-1.006-1.523-2.895-2.794-5.308-3.604z" mask="url(#j)"/>
            </g>
        </g>
    </g>
</svg>
