<svg xmlns="http://www.w3.org/2000/svg" width="380" height="166" viewBox="0 0 380 166">
    <g fill="none" fill-rule="evenodd">
        <path fill="#E0EDFF" fill-rule="nonzero" d="M0 0h380v166H0z"/>
        <g transform="translate(218 45)">
            <path fill="#2E6DDE" d="M79.391 76H3.61A3.613 3.613 0 0 1 0 72.381V3.619C0 1.619 1.615 0 3.609 0H79.39A3.613 3.613 0 0 1 83 3.619v68.762c0 2-1.615 3.619-3.609 3.619z"/>
            <path fill="#FFF" d="M3.609 12.667h75.783v59.714H3.609z"/>
            <ellipse cx="6.315" cy="6.333" fill="#E86C60" rx="2.707" ry="2.714"/>
            <ellipse cx="15.337" cy="6.333" fill="#EFD358" rx="2.707" ry="2.714"/>
            <ellipse cx="24.359" cy="6.333" fill="#72C472" rx="2.707" ry="2.714"/>
            <path fill="#C5D1E0" d="M27.065 51.416l-8.493-8.518a1.811 1.811 0 0 1 0-2.558l8.493-8.518 2.552 2.559-7.218 7.238 7.218 7.238-2.552 2.559zM55.935 51.416l-2.552-2.559 7.218-7.238-7.218-7.238 2.552-2.559 8.493 8.518a1.811 1.811 0 0 1 0 2.558l-8.493 8.518zM35.702 57.413L43.8 24.95l3.501.879-8.098 32.463z"/>
        </g>
        <g transform="translate(79 46)">
            <path fill="#2E6DDE" d="M87 13.282V3.795A3.788 3.788 0 0 0 83.217 0H3.783A3.788 3.788 0 0 0 0 3.795v9.487h87z"/>
            <path fill="#295EC2" d="M83.217 74H26.478V13.282H87v56.923A3.788 3.788 0 0 1 83.217 74z"/>
            <ellipse cx="6.62" cy="6.641" fill="#E86C60" rx="2.837" ry="2.846"/>
            <ellipse cx="16.076" cy="6.641" fill="#EFD358" rx="2.837" ry="2.846"/>
            <ellipse cx="25.533" cy="6.641" fill="#72C472" rx="2.837" ry="2.846"/>
            <path fill="#2453AB" d="M28.37 74H3.783A3.788 3.788 0 0 1 0 70.205V13.282h28.37V74z"/>
            <path fill="#FFF" d="M7.565 18.974h13.239v3.795H7.565zM7.565 30.359h9.457v3.795H7.565zM7.565 41.744h13.239v3.795H7.565zM7.565 53.128h9.457v3.795H7.565zM7.565 64.513h13.239v3.795H7.565z"/>
            <path fill="#E86C60" d="M35.935 18.974h9.457v3.795h-9.457z"/>
            <path fill="#EFD358" d="M43.5 30.359h13.239v3.795H43.5z"/>
            <path fill="#FFF" d="M49.174 41.744h18.913v3.795H49.174z"/>
            <path fill="#EFD358" d="M43.5 53.128h13.239v3.795H43.5z"/>
            <path fill="#E86C60" d="M35.935 64.513h9.457v3.795h-9.457z"/>
        </g>
    </g>
</svg>
