<?xml version="1.0" encoding="UTF-8"?>
<svg width="496px" height="496px" viewBox="0 0 496 496" version="1.1" xmlns="http://www.w3.org/2000/svg" xmlns:xlink="http://www.w3.org/1999/xlink">
    <!-- Generator: Sketch 52 (66869) - http://www.bohemiancoding.com/sketch -->
    <title>Combined Shape</title>
    <desc>Created with Sketch.</desc>
    <g id="Page-1" stroke="none" stroke-width="1" fill="none" fill-rule="evenodd">
        <path d="M248,496 C111.033382,496 0,384.966618 0,248 C0,111.033382 111.033382,0 248,0 C384.966618,0 496,111.033382 496,248 C496,384.966618 384.966618,496 248,496 Z M373.518529,183.799768 C386.150555,174.59924 397.179122,163.199696 406,150.400219 C394.370908,155.399717 381.738882,159.000512 368.705682,160.39983 C382.139438,152.400388 392.36504,139.800374 397.177887,124.800035 C384.745831,132.199857 370.710315,137.600127 356.073657,140.399993 C344.24336,127.799979 327.400865,120 308.753706,120 C272.862878,120 243.9895,148.999671 243.9895,184.600081 C243.9895,189.600194 244.59126,194.599692 245.593577,199.399726 C191.857937,196.599244 143.936226,170.999675 112.055281,131.7997 C106.440705,141.39977 103.233169,152.399772 103.233169,164.399551 C103.233169,186.799712 114.661674,206.59947 132.10593,218.199708 C121.479771,217.800167 111.453521,214.800222 102.831995,210.000188 L102.831995,210.799886 C102.831995,242.199881 125.089098,268.199607 154.764206,274.200112 C149.350833,275.59943 143.53567,276.399743 137.721124,276.399743 C133.510037,276.399743 129.500154,275.999586 125.489654,275.399967 C133.710624,301.000152 157.571186,319.600055 186.043391,320.20029 C163.786905,337.600339 135.915843,347.800027 105.639592,347.800027 C100.225602,347.800027 95.2134032,347.599949 90,347.000329 C118.672792,365.399539 152.758956,376 189.452131,376 C308.554354,376 373.719116,277.599598 373.719116,192.199982 C373.719116,189.400116 373.719116,186.599634 373.518529,183.799768 Z" id="Combined-Shape" fill="#F5F9FF" fill-rule="nonzero"></path>
    </g>
</svg>