<?xml version="1.0" encoding="UTF-8"?>
<svg width="21px" height="21px" viewBox="0 0 21 21" version="1.1" xmlns="http://www.w3.org/2000/svg" xmlns:xlink="http://www.w3.org/1999/xlink">
    <!-- Generator: Sketch 54.1 (76490) - https://sketchapp.com -->
    <title>Combined Shape</title>
    <desc>Created with Sketch.</desc>
    <g id="Corp-Site-Redesign-2.0" stroke="none" stroke-width="1" fill="none" fill-rule="evenodd">
        <path d="M10.5,21 C4.70101013,21 0,16.2989899 0,10.5 C0,4.70101013 4.70101013,0 10.5,0 C16.2989899,0 21,4.70101013 21,10.5 C21,16.2989899 16.2989899,21 10.5,21 Z M16.8645833,7.93235294 C16.8645833,7.93235294 16.7291667,7.05882353 16.35,6.66176471 C15.8625,6.15882353 15.29375,6.15882353 15.05,6.13235294 C13.2354167,6 10.5,6 10.5,6 C10.5,6 7.76458333,6 5.95,6.13235294 C5.70625,6.15882353 5.1375,6.15882353 4.65,6.66176471 C4.27083333,7.05882353 4.13541667,7.93235294 4.13541667,7.93235294 C4.13541667,7.93235294 4,8.96470588 4,9.99705882 L4,10.95 C4,11.9823529 4.13541667,13.0147059 4.13541667,13.0147059 C4.13541667,13.0147059 4.27083333,13.8882353 4.65,14.2852941 C5.1375,14.7882353 5.7875,14.7882353 6.08541667,14.8411765 C7.11458333,14.9470588 10.5,14.9735294 10.5,14.9735294 C10.5,14.9735294 13.2354167,14.9735294 15.05,14.8411765 C15.29375,14.8147059 15.8625,14.8147059 16.35,14.3117647 C16.7291667,13.9147059 16.8645833,13.0411765 16.8645833,13.0411765 C16.8645833,13.0411765 17,12.0088235 17,10.9764706 L17,10.0235294 C17,8.96470588 16.8645833,7.93235294 16.8645833,7.93235294 Z M9.14583333,12.1147059 L9.14583333,8.54117647 L12.6666667,10.3411765 L9.14583333,12.1147059 Z" id="Combined-Shape" fill="#FFFFFF"></path>
    </g>
</svg>